<svg width="48" height="48" viewBox="0 0 48 48" fill="none" xmlns="http://www.w3.org/2000/svg">
<path d="M22 20C22 18.8954 22.8954 18 24 18C25.1046 18 26 18.8954 26 20V28C26 29.1046 25.1046 30 24 30C22.8954 30 22 29.1046 22 28V20Z" fill="black"/>
<path d="M22 34C22 32.8954 22.8954 32 24 32C25.1046 32 26 32.8954 26 34C26 35.1046 25.1046 36 24 36C22.8954 36 22 35.1046 22 34Z" fill="black"/>
<path fill-rule="evenodd" clip-rule="evenodd" d="M14 2C9.58172 2 6 5.58172 6 10V38C6 42.4183 9.58172 46 14 46H34C38.4183 46 42 42.4183 42 38V13.3137C42 11.192 41.1571 9.15715 39.6569 7.65686L36.3431 4.34315C34.8429 2.84286 32.808 2 30.6863 2H14ZM38 38V16H34C30.6863 16 28 13.3137 28 10V6H14C11.7909 6 10 7.79086 10 10V38C10 40.2091 11.7909 42 14 42H34C36.2091 42 38 40.2091 38 38ZM36.8284 10.4853C37.2593 10.9162 37.5817 11.4352 37.7781 12H34C32.8954 12 32 11.1046 32 10V6.22188C32.5648 6.41828 33.0839 6.74071 33.5147 7.17157L36.8284 10.4853Z" fill="black"/>
</svg>
