<svg width="48" height="48" viewBox="0 0 48 48" fill="none" xmlns="http://www.w3.org/2000/svg">
<path fill-rule="evenodd" clip-rule="evenodd" d="M13.7063 34.5679H17.2654L18.4307 30.9858H24.1026L25.2656 34.5679H28.8247L23.4094 18.8588H19.1293L13.7063 34.5679ZM23.2608 28.3932L21.3307 22.4486H21.208L19.2741 28.3932H23.2608Z" fill="black"/>
<path fill-rule="evenodd" clip-rule="evenodd" d="M11.4 8.7V9.6H8.70001C6.21473 9.6 4.20001 11.6147 4.20001 14.1V39.3C4.20001 41.7853 6.21473 43.8 8.70001 43.8H33.9C36.3853 43.8 38.4 41.7853 38.4 39.3V36.6H39.3C41.7853 36.6 43.8 34.5853 43.8 32.1V8.7C43.8 6.21474 41.7854 4.2 39.3 4.2H15.9C13.4147 4.2 11.4 6.21474 11.4 8.7ZM15.9 7.8C15.4029 7.8 15 8.20292 15 8.7V9.6H33.9C36.3853 9.6 38.4 11.6147 38.4 14.1V33H39.3C39.7971 33 40.2 32.5971 40.2 32.1V8.7C40.2 8.20292 39.7971 7.8 39.3 7.8H15.9ZM8.70001 13.2C8.20296 13.2 7.80001 13.6029 7.80001 14.1V39.3C7.80001 39.7971 8.20296 40.2 8.70001 40.2H33.9C34.3971 40.2 34.8 39.7971 34.8 39.3V14.1C34.8 13.6029 34.3971 13.2 33.9 13.2H8.70001Z" fill="black"/>
</svg>
