<svg width="48" height="48" viewBox="0 0 48 48" fill="none" xmlns="http://www.w3.org/2000/svg">
<path fill-rule="evenodd" clip-rule="evenodd" d="M20.0764 2.22605C20.7378 1.88165 21.536 1.93388 22.1469 2.36154L32.1469 9.36154C32.6816 9.7358 33 10.3474 33 11V22.9708L39.1625 27.3725C39.6881 27.748 40 28.3541 40 29V42H44C45.1046 42 46 42.8954 46 44C46 45.1046 45.1046 46 44 46H38.0056C38.0037 46 38.0019 46 38 46H21C20.9981 46 20.9963 46 20.9944 46H11.0142C11.0095 46 11.0047 46 11 46C10.9953 46 10.9905 46 10.9858 46H4C2.89543 46 2 45.1046 2 44C2 42.8954 2.89543 42 4 42H9V20C9 19.3474 9.31842 18.7358 9.85308 18.3616L19 11.9587V4.00001C19 3.25425 19.4149 2.57044 20.0764 2.22605ZM13 42H19V16.8414L13 21.0414V42ZM23 42H36V30.0292L29.8375 25.6275C29.3119 25.2521 29 24.6459 29 24V12.0413L23 7.84132V12.9721C23.0002 12.9896 23.0002 13.0071 23 13.0245V42Z" fill="black"/>
</svg>
