<svg width="48" height="48" viewBox="0 0 48 48" fill="none" xmlns="http://www.w3.org/2000/svg">
<path d="M19.0981 16.0981C18.7232 16.4732 18.5126 16.9818 18.5126 17.5121C18.5126 18.0425 18.7232 18.5511 19.0981 18.9261L24.6841 24.5121L19.0981 30.0981C18.7338 30.4753 18.5322 30.9805 18.5368 31.5049C18.5414 32.0293 18.7517 32.5309 19.1225 32.9018C19.4933 33.2726 19.995 33.4829 20.5193 33.4875C21.0437 33.492 21.5489 33.2904 21.9261 32.9261L28.9261 25.9261C29.3011 25.5511 29.5117 25.0425 29.5117 24.5121C29.5117 23.9818 29.3011 23.4732 28.9261 23.0981L21.9261 16.0981C21.5511 15.7232 21.0425 15.5126 20.5121 15.5126C19.9818 15.5126 19.4732 15.7232 19.0981 16.0981Z" fill="black"/>
</svg>
