<svg width="48" height="48" viewBox="0 0 48 48" fill="none" xmlns="http://www.w3.org/2000/svg">
<path d="M32.4141 29.4141C32.039 29.789 31.5304 29.9996 31.0001 29.9996C30.4698 29.9996 29.9611 29.789 29.5861 29.4141L24.0001 23.8281L18.4141 29.4141C18.0369 29.7784 17.5317 29.98 17.0073 29.9754C16.4829 29.9709 15.9813 29.7605 15.6104 29.3897C15.2396 29.0189 15.0293 28.5173 15.0247 27.9929C15.0202 27.4685 15.2218 26.9633 15.5861 26.5861L22.5861 19.5861C22.9611 19.2111 23.4698 19.0005 24.0001 19.0005C24.5304 19.0005 25.039 19.2111 25.4141 19.5861L32.4141 26.5861C32.789 26.9611 32.9997 27.4697 32.9997 28.0001C32.9997 28.5304 32.789 29.039 32.4141 29.4141Z" fill="black"/>
</svg>
