<svg width="48" height="48" viewBox="0 0 48 48" fill="none" xmlns="http://www.w3.org/2000/svg">
<path d="M28.9261 16.0981C29.3011 16.4732 29.5117 16.9818 29.5117 17.5121C29.5117 18.0425 29.3011 18.5511 28.9261 18.9261L23.3401 24.5121L28.9261 30.0981C29.2905 30.4753 29.4921 30.9805 29.4875 31.5049C29.4829 32.0293 29.2726 32.5309 28.9018 32.9018C28.531 33.2726 28.0293 33.4829 27.5049 33.4875C26.9806 33.492 26.4753 33.2904 26.0981 32.9261L19.0981 25.9261C18.7232 25.5511 18.5126 25.0425 18.5126 24.5121C18.5126 23.9818 18.7232 23.4732 19.0981 23.0981L26.0981 16.0981C26.4732 15.7232 26.9818 15.5126 27.5121 15.5126C28.0425 15.5126 28.5511 15.7232 28.9261 16.0981Z" fill="black"/>
</svg>
