<svg width="48" height="48" viewBox="0 0 48 48" fill="none" xmlns="http://www.w3.org/2000/svg">
<path d="M32.4141 19.5861C32.039 19.2111 31.5304 19.0005 31.0001 19.0005C30.4698 19.0005 29.9611 19.2111 29.5861 19.5861L24.0001 25.1721L18.4141 19.5861C18.0369 19.2217 17.5317 19.0202 17.0073 19.0247C16.4829 19.0293 15.9813 19.2396 15.6104 19.6104C15.2396 19.9812 15.0293 20.4829 15.0247 21.0073C15.0202 21.5317 15.2218 22.0369 15.5861 22.4141L22.5861 29.4141C22.9611 29.789 23.4698 29.9996 24.0001 29.9996C24.5304 29.9996 25.039 29.789 25.4141 29.4141L32.4141 22.4141C32.789 22.039 32.9997 21.5304 32.9997 21.0001C32.9997 20.4697 32.789 19.9611 32.4141 19.5861Z" fill="black"/>
</svg>
