<svg width="48" height="48" viewBox="0 0 48 48" fill="none" xmlns="http://www.w3.org/2000/svg">
<path d="M19.82 31.47C19.6269 31.6484 19.4006 31.7869 19.1539 31.8777C18.9072 31.9685 18.645 32.0098 18.3824 31.9992C18.1197 31.9886 17.8617 31.9264 17.6232 31.816C17.3846 31.7056 17.1701 31.5493 16.992 31.356L10.532 24.356C10.1913 23.9866 10.0022 23.5025 10.0022 23C10.0022 22.4975 10.1913 22.0134 10.532 21.644L16.992 14.644C17.3532 14.2604 17.8512 14.0349 18.3777 14.0164C18.9042 13.9979 19.4168 14.1878 19.8041 14.5451C20.1913 14.9023 20.422 15.3979 20.446 15.9242C20.4699 16.4505 20.2852 16.965 19.932 17.356L16.568 21H36C36.2635 20.9987 36.5246 21.0495 36.7683 21.1494C37.0121 21.2494 37.2337 21.3965 37.4205 21.5823C37.6072 21.7682 37.7554 21.9891 37.8565 22.2324C37.9577 22.4757 38.0097 22.7365 38.0097 23C38.0097 23.2634 37.9577 23.5243 37.8565 23.7676C37.7554 24.0109 37.6072 24.2318 37.4205 24.4176C37.2337 24.6035 37.0121 24.7506 36.7683 24.8505C36.5246 24.9505 36.2635 25.0012 36 25H16.568L19.932 28.644C20.2916 29.0339 20.4816 29.5506 20.4602 30.0806C20.4389 30.6106 20.2078 31.1103 19.818 31.47H19.82Z" fill="black"/>
</svg>
