<svg width="48" height="48" viewBox="0 0 48 48" fill="none" xmlns="http://www.w3.org/2000/svg">
<path d="M28.18 14.53C28.3731 14.3516 28.5995 14.2131 28.8461 14.1223C29.0928 14.0315 29.355 13.9902 29.6176 14.0008C29.8803 14.0114 30.1383 14.0736 30.3768 14.184C30.6154 14.2944 30.8299 14.4507 31.008 14.644L37.468 21.644C37.8087 22.0134 37.9979 22.4975 37.9979 23C37.9979 23.5025 37.8087 23.9866 37.468 24.356L31.008 31.356C30.8307 31.5519 30.6163 31.7108 30.3773 31.8234C30.1382 31.936 29.8792 32.0001 29.6152 32.012C29.3512 32.0239 29.0875 31.9834 28.8393 31.8928C28.591 31.8022 28.3632 31.6633 28.169 31.4841C27.9748 31.3049 27.818 31.0891 27.7077 30.8489C27.5974 30.6088 27.5357 30.3492 27.5263 30.0851C27.5169 29.821 27.56 29.5577 27.6529 29.3104C27.7459 29.063 27.887 28.8365 28.068 28.644L31.432 25H12C11.7373 25.0001 11.4772 24.9484 11.2345 24.8479C10.9919 24.7474 10.7713 24.6001 10.5856 24.4143C10.3998 24.2286 10.2525 24.0081 10.152 23.7655C10.0514 23.5228 9.99969 23.2627 9.99969 23C9.99969 22.7373 10.0514 22.4772 10.152 22.2346C10.2525 21.9919 10.3998 21.7714 10.5856 21.5857C10.7713 21.4 10.9919 21.2527 11.2345 21.1522C11.4772 21.0517 11.7373 21 12 21H31.432L28.068 17.356C27.7084 16.9661 27.5184 16.4494 27.5398 15.9194C27.5611 15.3894 27.7922 14.8897 28.182 14.53H28.18Z" fill="black"/>
</svg>
