<svg width="48" height="48" viewBox="0 0 48 48" fill="none" xmlns="http://www.w3.org/2000/svg">
<path d="M8.15999 6.10754H39.84C40.0921 6.10754 40.3418 6.15721 40.5747 6.2537C40.8077 6.35018 41.0193 6.49161 41.1976 6.6699C41.3759 6.84819 41.5173 7.05985 41.6138 7.29279C41.7103 7.52574 41.76 7.77541 41.76 8.02754C41.76 8.27968 41.7103 8.52935 41.6138 8.7623C41.5173 8.99524 41.3759 9.2069 41.1976 9.38519C41.0193 9.56348 40.8077 9.7049 40.5747 9.80139C40.3418 9.89788 40.0921 9.94754 39.84 9.94754H8.15999C7.65077 9.94754 7.16242 9.74526 6.80235 9.38519C6.44228 9.02512 6.23999 8.53676 6.23999 8.02754C6.23999 7.51833 6.44228 7.02997 6.80235 6.6699C7.16242 6.30983 7.65077 6.10754 8.15999 6.10754ZM22.6426 12.432C23.0026 12.0721 23.4909 11.8699 24 11.8699C24.5091 11.8699 24.9974 12.0721 25.3574 12.432L38.3174 25.392C38.6672 25.7541 38.8607 26.2391 38.8563 26.7426C38.8519 27.246 38.65 27.7275 38.294 28.0835C37.9381 28.4395 37.4565 28.6414 36.9531 28.6458C36.4497 28.6502 35.9647 28.4566 35.6026 28.1069L25.92 18.4243V41.1495C25.92 41.6587 25.7177 42.147 25.3576 42.5071C24.9976 42.8672 24.5092 43.0695 24 43.0695C23.4908 43.0695 23.0024 42.8672 22.6423 42.5071C22.2823 42.147 22.08 41.6587 22.08 41.1495V18.4243L12.3974 28.1069C12.2203 28.2903 12.0085 28.4366 11.7742 28.5372C11.54 28.6378 11.288 28.6908 11.0331 28.693C10.7781 28.6952 10.5253 28.6466 10.2894 28.5501C10.0534 28.4535 9.83903 28.311 9.65875 28.1307C9.47848 27.9504 9.33591 27.7361 9.23937 27.5001C9.14283 27.2641 9.09425 27.0113 9.09647 26.7564C9.09869 26.5014 9.15165 26.2495 9.25228 26.0152C9.3529 25.781 9.49917 25.5691 9.68255 25.392L22.6426 12.432Z" fill="black"/>
</svg>
