<svg width="48" height="48" viewBox="0 0 48 48" fill="none" xmlns="http://www.w3.org/2000/svg">
<path d="M29.6971 21.618C30.0635 22.0019 30.2624 22.5156 30.25 23.0461C30.2376 23.5767 30.015 24.0805 29.6311 24.447L18.6301 34.947C18.258 35.3013 17.7639 35.499 17.2501 35.499C16.7363 35.499 16.2422 35.3013 15.8701 34.947L10.3681 29.697C9.98857 29.3295 9.76972 28.827 9.75928 28.2988C9.74884 27.7707 9.94765 27.2599 10.3124 26.8777C10.6771 26.4956 11.1781 26.2732 11.7061 26.259C12.2341 26.2448 12.7464 26.44 13.1311 26.802L17.2501 30.735L26.8681 21.555C27.2516 21.1882 27.7651 20.9888 28.2956 21.0006C28.8262 21.0124 29.3303 21.2345 29.6971 21.618Z" fill="black"/>
<path fill-rule="evenodd" clip-rule="evenodd" d="M3.99609 14.181C3.99609 13.077 4.89309 12.183 5.99709 12.183H33.8131C34.9201 12.183 35.8141 13.077 35.8141 14.181V42C35.8141 42.5307 35.6033 43.0396 35.228 43.4149C34.8528 43.7901 34.3438 44.001 33.8131 44.001H6.00009C5.73707 44.0013 5.47654 43.9499 5.23342 43.8495C4.9903 43.7491 4.76936 43.6018 4.58323 43.4159C4.39711 43.2301 4.24944 43.0094 4.1487 42.7664C4.04795 42.5234 3.99609 42.263 3.99609 42V14.181ZM7.99509 16.182V40.002H31.8151V16.182H7.99509Z" fill="black"/>
<path d="M10.5481 5.99995C10.5481 4.89595 11.4421 4.00195 12.5461 4.00195H42.0031C43.1071 4.00195 44.0011 4.89595 44.0011 6.00295V35.457C44.0115 35.726 43.9675 35.9945 43.8717 36.2462C43.7759 36.4978 43.6303 36.7276 43.4436 36.9217C43.2569 37.1158 43.033 37.2701 42.7852 37.3756C42.5374 37.4811 42.2709 37.5354 42.0016 37.5354C41.7323 37.5354 41.4658 37.4811 41.218 37.3756C40.9702 37.2701 40.7462 37.1158 40.5595 36.9217C40.3728 36.7276 40.2272 36.4978 40.1315 36.2462C40.0357 35.9945 39.9917 35.726 40.0021 35.457V8.00095H12.5461C12.0164 8.00016 11.5087 7.7894 11.1342 7.41488C10.7596 7.04035 10.5489 6.53261 10.5481 6.00295V5.99995Z" fill="black"/>
</svg>
