<svg width="48" height="48" viewBox="0 0 48 48" fill="none" xmlns="http://www.w3.org/2000/svg">
<path d="M44.5854 5.57471H31.5854C30.757 5.57471 30.0854 6.24628 30.0854 7.07471C30.0854 7.90313 30.757 8.57471 31.5854 8.57471L44.5854 8.57471C45.4139 8.57471 46.0854 7.90313 46.0854 7.07471C46.0854 6.24628 45.4139 5.57471 44.5854 5.57471Z" fill="black"/>
<path d="M12.2754 6.12085C11.7474 6.12085 11.2484 6.37001 10.9454 6.80241C9.26819 9.19549 7.98529 11.6915 7.0358 14.3208C5.7958 17.6808 5.1958 21.1609 5.1958 24.8409C5.1958 28.4409 5.7958 31.9608 7.0358 35.3209C7.98496 37.8763 9.26729 40.3651 10.9436 42.7872C11.2477 43.2266 11.7519 43.4809 12.2862 43.4809C13.5843 43.4809 14.3936 42.0593 13.7978 40.906C12.8055 38.9851 12.0049 37.0834 11.3958 35.2009C10.1958 31.7209 9.6358 28.2409 9.6358 24.8008C9.6358 21.3208 10.1958 17.8408 11.3958 14.4009C12.0018 12.5004 12.7974 10.5999 13.7826 8.69941C14.38 7.54712 13.5733 6.12085 12.2754 6.12085Z" fill="black"/>
<path d="M24.5798 6.12085C23.2809 6.12085 22.4686 7.54041 23.0616 8.69611C24.0372 10.5977 24.8419 12.4993 25.4758 14.4009C26.6358 17.8408 27.2358 21.3208 27.2358 24.8008C27.2358 28.2409 26.6358 31.7209 25.4758 35.2009C24.8387 37.0845 24.0289 38.9874 23.0465 40.9094C22.4553 42.0661 23.2701 43.4809 24.569 43.4809C25.1129 43.4809 25.6251 43.2191 25.9313 42.7696C27.5774 40.353 28.8889 37.8701 29.8358 35.3209C31.0358 31.9608 31.6758 28.4409 31.6758 24.8409C31.6758 21.1609 31.0358 17.6808 29.8358 14.3208C28.8886 11.6979 27.5765 9.20772 25.9297 6.82001C25.6244 6.37747 25.1174 6.12085 24.5798 6.12085Z" fill="black"/>
</svg>
