<svg width="48" height="48" viewBox="0 0 48 48" fill="none" xmlns="http://www.w3.org/2000/svg">
<path fill-rule="evenodd" clip-rule="evenodd" d="M8.26087 31.728C8.81767 28.4592 10.0273 26.8872 13.6561 26.8872L13.6201 26.8631C14.0377 26.8631 14.4361 27.0311 14.7337 27.3215L21.8977 34.4496C22.1206 34.6685 22.2739 34.9483 22.3384 35.254C22.4028 35.5597 22.3756 35.8777 22.2601 36.1679C21.4143 38.1388 19.9974 39.8111 18.1921 40.9691C16.3869 42.1271 14.2761 42.7177 12.1321 42.6647C7.89847 42.6647 3.94087 40.3055 3.43207 35.6952C3.42374 35.478 3.46016 35.2615 3.53907 35.0591C3.61798 34.8567 3.73769 34.6726 3.89076 34.5184C4.04382 34.3642 4.22698 34.2432 4.42883 34.1628C4.63068 34.0824 4.84691 34.0444 5.06407 34.0511C5.26567 34.0511 5.46247 34.0872 5.64727 34.1592H5.75527C5.91698 34.2037 6.08441 34.2239 6.25207 34.2191C6.61498 34.2234 6.9715 34.1235 7.27927 33.9312C7.46309 33.8219 7.63037 33.6869 7.77607 33.5303C7.96807 33.3239 8.09047 32.9496 8.26087 31.884V31.728ZM18.2785 35.9279L12.8233 30.5424L12.8593 30.5184C12.663 30.5343 12.4707 30.583 12.2905 30.6624C12.0218 31.1274 11.8679 31.6499 11.8417 32.1863V32.3207C11.7585 33.6524 11.2542 34.9232 10.4017 35.9496C9.73514 36.6521 8.90352 37.1768 7.98247 37.4759C9.11434 38.5168 10.6069 39.0763 12.1441 39.0359C13.3421 39.0535 14.5264 38.7795 15.5951 38.2377C16.6637 37.6958 17.5846 36.9023 18.2785 35.9255V35.9279Z" fill="black"/>
<path fill-rule="evenodd" clip-rule="evenodd" d="M29.6905 10.7568C34.4689 6.90955 38.1361 4.70875 40.8097 4.70875H40.7857C41.6593 4.68235 42.5137 4.96075 43.2049 5.49355C46.2433 7.86475 43.9441 12.5111 38.1481 19.6631C37.2529 20.7768 36.3337 21.8784 35.3881 22.9536C33.4536 25.1761 31.4609 27.3472 29.4121 29.4648L27.4393 31.4736L26.8825 32.0303L26.7001 32.2104C26.0593 32.8535 25.1881 33.2135 24.2809 33.2159C23.3737 33.2159 22.5025 32.8512 21.8617 32.2104L17.0209 27.312C16.3852 26.6667 16.0289 25.7973 16.0289 24.8916C16.0289 23.9858 16.3852 23.1164 17.0209 22.4711L17.2129 22.2647C18.0361 21.4175 18.8833 20.5704 19.7185 19.7352C21.8015 17.6854 23.9399 15.6926 26.1313 13.7592C27.2689 12.7296 28.4785 11.7264 29.6905 10.7592V10.7568ZM40.9417 8.33755H40.8097C39.9505 8.33755 37.6393 9.01435 31.9633 13.5767C30.7987 14.5171 29.6537 15.4813 28.5289 16.4688C26.4217 18.3456 19.7785 24.8304 19.7785 24.8304L24.3649 29.4528C24.3649 29.4528 30.9721 22.5551 32.7409 20.5247C33.6508 19.4797 34.5413 18.4179 35.4121 17.34C40.4089 11.1216 40.9417 8.93035 40.9417 8.33995V8.33755Z" fill="black"/>
<path fill-rule="evenodd" clip-rule="evenodd" d="M34.0585 39.2687L42.4345 28.4688H45.0025V39.7007H47.5465V41.9328H45.0025V45.6048H42.3385V41.9328H34.0585V39.2687ZM42.3385 32.0208H42.2665L36.3385 39.7007H42.3385V32.0208Z" fill="black"/>
</svg>
