<svg width="48" height="48" viewBox="0 0 48 48" fill="none" xmlns="http://www.w3.org/2000/svg">
<path fill-rule="evenodd" clip-rule="evenodd" d="M7.995 30.2284C8.5518 26.9596 9.76141 25.3876 13.3902 25.3876L13.3542 25.3636C13.7718 25.3636 14.1702 25.5316 14.4678 25.822L21.6318 32.95C21.8547 33.169 22.008 33.4488 22.0725 33.7545C22.137 34.0602 22.1097 34.3782 21.9942 34.6684C21.1484 36.6393 19.7315 38.3116 17.9263 39.4696C16.121 40.6276 14.0103 41.2182 11.8662 41.1652C7.63261 41.1652 3.67501 38.806 3.16621 34.1956C3.15787 33.9785 3.19429 33.762 3.2732 33.5596C3.35211 33.3572 3.47182 33.1731 3.62489 33.0189C3.77796 32.8647 3.96111 32.7437 4.16296 32.6633C4.36481 32.5829 4.58104 32.5449 4.7982 32.5516C4.9998 32.5516 5.19661 32.5876 5.38141 32.6596H5.48941C5.65111 32.7042 5.81855 32.7244 5.98621 32.7196C6.34911 32.7239 6.70563 32.624 7.0134 32.4316C7.19722 32.3223 7.3645 32.1874 7.5102 32.0308C7.7022 31.8244 7.8246 31.45 7.995 30.3844V30.2284ZM18.0126 34.4284L12.5574 29.0428L12.5934 29.0188C12.3971 29.0348 12.2049 29.0835 12.0246 29.1628C11.7559 29.6279 11.6021 30.1504 11.5758 30.6868V30.8212C11.4927 32.1529 10.9884 33.4237 10.1358 34.45C9.46927 35.1526 8.63765 35.6773 7.7166 35.9764C8.84847 37.0173 10.341 37.5768 11.8782 37.5364C13.0762 37.554 14.2606 37.28 15.3292 36.7382C16.3978 36.1963 17.3187 35.4028 18.0126 34.426V34.4284Z" fill="black"/>
<path fill-rule="evenodd" clip-rule="evenodd" d="M29.4246 9.25724C34.203 5.41004 37.8702 3.20924 40.5438 3.20924H40.5198C41.3934 3.18284 42.2478 3.46124 42.939 3.99404C45.9774 6.36524 43.6782 11.0116 37.8822 18.1636C36.987 19.2772 36.0678 20.3788 35.1222 21.454C33.1878 23.6766 31.1951 25.8477 29.1462 27.9652L27.1734 29.974L26.6166 30.5308L26.4342 30.7108C25.7934 31.354 24.9222 31.714 24.015 31.7164C23.1078 31.7164 22.2366 31.3516 21.5958 30.7108L16.755 25.8124C16.1193 25.1672 15.763 24.2978 15.763 23.392C15.763 22.4863 16.1193 21.6169 16.755 20.9716L16.947 20.7652C17.7702 19.918 18.6174 19.0708 19.4526 18.2356C21.5356 16.1859 23.674 14.1931 25.8654 12.2596C27.003 11.23 28.2126 10.2268 29.4246 9.25964V9.25724ZM40.6758 6.83804H40.5438C39.6846 6.83804 37.3734 7.51484 31.6974 12.0772C30.5329 13.0175 29.3878 13.9817 28.263 14.9692C26.1558 16.846 19.5126 23.3308 19.5126 23.3308L24.099 27.9532C24.099 27.9532 30.7062 21.0556 32.475 19.0252C33.3849 17.9801 34.2755 16.9184 35.1462 15.8404C40.143 9.62204 40.6758 7.43084 40.6758 6.84044V6.83804Z" fill="black"/>
<path d="M36.7374 28.6492C37.6014 28.1212 38.3214 27.5692 38.8974 26.9692H41.0094V44.1052H38.2014V30.3532C37.1694 31.2892 35.8734 31.9852 34.2894 32.4412V29.6572C35.0574 29.4652 35.8734 29.1292 36.7374 28.6492Z" fill="black"/>
</svg>
