<svg width="48" height="48" viewBox="0 0 48 48" fill="none" xmlns="http://www.w3.org/2000/svg">
<path fill-rule="evenodd" clip-rule="evenodd" d="M13.6561 26.8871C10.0273 26.8871 8.81772 28.4591 8.26092 31.7279V31.8839C8.09292 32.9495 7.97052 33.3239 7.77612 33.5303C7.63025 33.686 7.46298 33.8202 7.27932 33.9287C6.97179 34.1219 6.61526 34.2227 6.25212 34.2191C6.08446 34.2239 5.91702 34.2037 5.75532 34.1591H5.64732C5.46181 34.0884 5.26504 34.0518 5.06652 34.0511C4.84935 34.0444 4.63312 34.0824 4.43127 34.1628C4.22942 34.2432 4.04627 34.3642 3.8932 34.5184C3.74013 34.6726 3.62042 34.8566 3.54151 35.0591C3.4626 35.2615 3.42618 35.478 3.43452 35.6951C3.93852 40.3055 7.89852 42.6647 12.1321 42.6647C14.2762 42.718 16.3871 42.1275 18.1924 40.9695C19.9977 39.8115 21.4146 38.139 22.2601 36.1679C22.376 35.8777 22.4034 35.5597 22.3389 35.2539C22.2744 34.9481 22.1209 34.6683 21.8977 34.4495L14.7337 27.3215C14.4365 27.0294 14.0369 26.8649 13.6201 26.8631L13.6561 26.8871ZM12.8233 30.5423L18.2785 35.9255C17.5846 36.9023 16.6637 37.6958 15.5951 38.2376C14.5265 38.7795 13.3421 39.0534 12.1441 39.0359C10.6069 39.0763 9.11438 38.5168 7.98252 37.4759C8.90356 37.1768 9.73518 36.652 10.4017 35.9495C11.2561 34.9223 11.7601 33.6527 11.8417 32.3207V32.1863C11.8657 31.6511 12.0217 31.1279 12.2905 30.6623C12.4708 30.583 12.663 30.5343 12.8593 30.5183" fill="black"/>
<path fill-rule="evenodd" clip-rule="evenodd" d="M40.8097 4.70872C38.1361 4.70872 34.4689 6.90952 29.6905 10.7567C28.4785 11.7263 27.2689 12.7295 26.1313 13.7567C23.9399 15.691 21.8015 17.6845 19.7185 19.7351C18.8833 20.5703 18.0385 21.4175 17.2153 22.2647L17.0209 22.4711C16.3852 23.1163 16.0289 23.9858 16.0289 24.8915C16.0289 25.7973 16.3852 26.6667 17.0209 27.3119L21.8617 32.2103C22.5041 32.8505 23.374 33.2099 24.2809 33.2099C25.1878 33.2099 26.0577 32.8505 26.7001 32.2103L26.8825 32.0303L27.4393 31.4735L29.4121 29.4647C31.4449 27.3599 33.4897 25.1447 35.3881 22.9535C36.3337 21.8783 37.2529 20.7767 38.1481 19.6655C43.9441 12.5135 46.2433 7.86472 43.2049 5.49352C42.5136 4.95998 41.6586 4.68263 40.7857 4.70872H40.8097ZM40.8097 8.33752H40.9417C40.9417 8.93032 40.4089 11.1215 35.4121 17.3399C34.5406 18.4171 33.6492 19.478 32.7385 20.5223C30.9721 22.5551 24.3649 29.4503 24.3649 29.4503L19.7809 24.8303C19.7809 24.8303 26.4217 18.3455 28.5289 16.4687C29.6537 15.4812 30.7988 14.517 31.9633 13.5767C37.6393 9.01672 39.9505 8.33752 40.8097 8.33752Z" fill="black"/>
<path d="M40.9633 28.1327C39.2833 28.1327 37.8913 28.5887 36.8113 29.5487C35.6593 30.5087 35.0353 31.8527 34.8913 33.5807H37.6513C37.7473 32.5487 38.0833 31.7807 38.6593 31.2767C39.2113 30.7727 39.9793 30.5327 40.9873 30.5327C41.9713 30.5327 42.7153 30.7487 43.2193 31.1807C43.6753 31.6127 43.9153 32.2367 43.9153 33.0767C43.9153 33.9167 43.6513 34.5647 43.1473 34.9967C42.6193 35.4287 41.8513 35.6447 40.8433 35.6447H39.6433V37.7567H40.8433C41.9473 37.7567 42.7873 37.9727 43.3633 38.4527C43.9393 38.9087 44.2513 39.6287 44.2513 40.6127C44.2513 41.4287 43.9633 42.1007 43.4113 42.6527C42.7873 43.2527 41.9233 43.5647 40.8433 43.5647C39.8593 43.5647 39.0673 43.2767 38.4673 42.7247C37.7953 42.1247 37.4593 41.2607 37.4113 40.1567H34.5553C34.6993 42.0767 35.3713 43.5647 36.5713 44.5727C37.6513 45.4847 39.0913 45.9407 40.8673 45.9407C42.7393 45.9407 44.2513 45.4127 45.4033 44.3807C46.5073 43.3727 47.0593 42.0767 47.0593 40.4927C47.0593 39.4847 46.7713 38.6447 46.1953 37.9967C45.6673 37.3727 44.8753 36.9167 43.8673 36.6047C45.7633 35.9807 46.7233 34.7327 46.7233 32.8607C46.7233 31.3727 46.1953 30.2207 45.1633 29.3807C44.1073 28.5407 42.6913 28.1327 40.9633 28.1327Z" fill="black"/>
</svg>
