<svg width="48" height="48" viewBox="0 0 48 48" fill="none" xmlns="http://www.w3.org/2000/svg">
<path fill-rule="evenodd" clip-rule="evenodd" d="M14.206 8C13.2764 8 12.4693 8.64055 12.2583 9.54598L9.94831 19.4555C9.81318 20.0352 9.42687 20.5246 8.8944 20.7906L8.21247 21.1313C6.85673 21.8086 6 23.1941 6 24.7097V34C6 34.5523 6.4477 35 7 35H9.00053C10.1051 35 11.0005 35.8954 11.0005 37V38.0003C11.0005 39.1047 11.8958 40 13.0003 40C14.1047 40 15 39.1047 15 38.0003V37C15 35.8954 15.8954 35 17 35H31C32.1046 35 33 35.8954 33 37V38C33 39.1035 33.896 40 35.0016 40C36.1071 40 37.0031 39.1036 37.0031 38V37C37.0031 35.8954 37.8985 35 39.0031 35H41C41.5523 35 42 34.5523 42 34V24.7081C42 23.1931 41.144 21.808 39.7889 21.1304L39.1088 20.7904C38.5707 20.5214 38.1823 20.0245 38.0512 19.4374L35.8462 9.56408C35.6421 8.65012 34.8309 8 33.8943 8H14.206ZM8.36272 8.6379C8.99586 5.92179 11.417 4 14.206 4H33.8943C36.704 4 39.1377 5.94989 39.75 8.69224L41.7484 17.6406C44.3596 19.0252 46 21.742 46 24.7081V34C46 36.7615 43.7615 39 41 39H40.9201C40.4437 41.8384 37.9738 44 35.0016 44C32.0294 44 29.5594 41.8384 29.083 39H18.9171C18.4411 41.8377 15.9733 44 13.0003 44C10.0274 44 7.5594 41.8377 7.08344 39H7C4.2386 39 2 36.7615 2 34V24.7097C2 21.7384 3.64617 19.017 6.26549 17.6348L8.36272 8.6379ZM16 29.5C16 30.8807 14.8807 32 13.5 32C12.1193 32 11 30.8807 11 29.5C11 28.1193 12.1193 27 13.5 27C14.8807 27 16 28.1193 16 29.5ZM37 29.5C37 30.8807 35.8807 32 34.5 32C33.1193 32 32 30.8807 32 29.5C32 28.1193 33.1193 27 34.5 27C35.8807 27 37 28.1193 37 29.5ZM17.6043 11C15.7295 11 14.1063 12.3022 13.6996 14.1322L13.6996 14.1323L12.0476 21.5661C11.916 22.1583 12.0603 22.7782 12.4399 23.2515C12.8195 23.7247 13.3934 24 14 24H34C34.6066 24 35.1805 23.7247 35.5601 23.2515C35.9397 22.7782 36.084 22.1583 35.9524 21.5661L34.3004 14.1323L34.3004 14.1322C33.8937 12.3022 32.2705 11 30.3957 11H17.6043ZM16.4932 20L17.6044 15H30.3956L31.5068 20H16.4932Z" fill="black"/>
</svg>
