<svg width="48" height="48" viewBox="0 0 48 48" fill="none" xmlns="http://www.w3.org/2000/svg">
<path fill-rule="evenodd" clip-rule="evenodd" d="M28.5364 16.7196C28.1565 16.2636 27.5936 16 27 16C26.4064 16 25.8435 16.2636 25.4636 16.7196L20.4636 22.7196C19.8455 23.4613 19.8455 24.5387 20.4636 25.2804L25.4636 31.2804C25.8435 31.7364 26.4064 32 27 32C27.5936 32 28.1565 31.7364 28.5364 31.2804L33.5364 25.2804C34.1545 24.5387 34.1545 23.4613 33.5364 22.7196L28.5364 16.7196ZM27 26.8759L24.6034 24L27 21.1241L29.3966 24L27 26.8759Z" fill="black"/>
<path d="M18 8C19.1046 8 20 8.89543 20 10V14C20 15.1046 19.1046 16 18 16C16.8954 16 16 15.1046 16 14V10C16 8.89543 16.8954 8 18 8Z" fill="black"/>
<path d="M38 34C38 32.8954 37.1046 32 36 32C34.8954 32 34 32.8954 34 34V38C34 39.1046 34.8954 40 36 40C37.1046 40 38 39.1046 38 38V34Z" fill="black"/>
<path fill-rule="evenodd" clip-rule="evenodd" d="M10 4C10 2.89543 10.8954 2 12 2H42C43.1046 2 44 2.89543 44 4V44C44 45.1046 43.1046 46 42 46H12.0238C11.8932 46.0017 11.7646 45.9905 11.6394 45.9676C11.2926 45.9044 10.977 45.7519 10.7174 45.5346C10.3868 45.258 10.1469 44.8766 10.0489 44.4415L2.05898 12.2716C1.92917 11.7489 2.01562 11.196 2.29878 10.7379C2.58194 10.2798 3.03787 9.95531 3.56342 9.83775L10 8.39797V4ZM40 6V42H14L14 10L14 9.99484V6H40ZM10 27.6501L10 12.4968L6.43452 13.2944L10 27.6501Z" fill="black"/>
</svg>
