<svg width="48" height="48" viewBox="0 0 48 48" fill="none" xmlns="http://www.w3.org/2000/svg">
<path d="M37.4142 14.5861C37.7891 14.9611 37.9997 15.4697 37.9997 16.0001C37.9997 16.5304 37.7891 17.039 37.4142 17.4141L21.4142 33.4141C21.0391 33.789 20.5305 33.9996 20.0002 33.9996C19.4698 33.9996 18.9612 33.789 18.5862 33.4141L10.5862 25.4141C10.3951 25.2296 10.2428 25.0089 10.138 24.7649C10.0331 24.5209 9.97797 24.2584 9.97566 23.9929C9.97335 23.7273 10.024 23.4639 10.1245 23.2182C10.2251 22.9724 10.3736 22.7491 10.5614 22.5613C10.7492 22.3735 10.9725 22.225 11.2183 22.1244C11.464 22.0239 11.7274 21.9733 11.993 21.9756C12.2585 21.9779 12.521 22.033 12.765 22.1379C13.009 22.2427 13.2297 22.395 13.4142 22.5861L20.0002 29.1721L34.5862 14.5861C34.9612 14.2111 35.4698 14.0005 36.0002 14.0005C36.5305 14.0005 37.0391 14.2111 37.4142 14.5861Z" fill="black"/>
</svg>
