<svg width="48" height="48" viewBox="0 0 48 48" fill="none" xmlns="http://www.w3.org/2000/svg">
<path d="M26 14C26 13.4696 25.7893 12.9609 25.4142 12.5858C25.0391 12.2107 24.5304 12 24 12C23.4696 12 22.9609 12.2107 22.5858 12.5858C22.2107 12.9609 22 13.4696 22 14V24C22.0001 24.5304 22.2109 25.039 22.586 25.414L27.586 30.414C27.9632 30.7783 28.4684 30.9799 28.9928 30.9753C29.5172 30.9708 30.0188 30.7605 30.3896 30.3896C30.7605 30.0188 30.9708 29.5172 30.9753 28.9928C30.9799 28.4684 30.7783 27.9632 30.414 27.586L26 23.172V14Z" fill="black"/>
<path fill-rule="evenodd" clip-rule="evenodd" d="M44 24C44 35.046 35.046 44 24 44C12.954 44 4 35.046 4 24C4 12.954 12.954 4 24 4C35.046 4 44 12.954 44 24ZM40 24C40 19.7565 38.3143 15.6869 35.3137 12.6863C32.3131 9.68571 28.2435 8 24 8C19.7565 8 15.6869 9.68571 12.6863 12.6863C9.68571 15.6869 8 19.7565 8 24C8 28.2435 9.68571 32.3131 12.6863 35.3137C15.6869 38.3143 19.7565 40 24 40C28.2435 40 32.3131 38.3143 35.3137 35.3137C38.3143 32.3131 40 28.2435 40 24Z" fill="black"/>
</svg>
