<svg width="48" height="48" viewBox="0 0 48 48" fill="none" xmlns="http://www.w3.org/2000/svg">
<path d="M12.5861 12.5859C12.9611 12.211 13.4697 12.0003 14.0001 12.0003C14.5304 12.0003 15.039 12.211 15.4141 12.5859L24.0001 21.1719L32.5861 12.5859C32.7706 12.3949 32.9912 12.2425 33.2353 12.1377C33.4793 12.0329 33.7417 11.9777 34.0073 11.9754C34.2728 11.9731 34.5362 12.0237 34.782 12.1243C35.0278 12.2248 35.2511 12.3733 35.4389 12.5611C35.6266 12.7489 35.7751 12.9722 35.8757 13.218C35.9763 13.4638 36.0269 13.7272 36.0246 13.9927C36.0223 14.2583 35.9671 14.5207 35.8623 14.7647C35.7574 15.0087 35.6051 15.2294 35.4141 15.4139L26.8281 23.9999L35.4141 32.5859C35.7784 32.9631 35.98 33.4683 35.9754 33.9927C35.9708 34.5171 35.7605 35.0187 35.3897 35.3896C35.0189 35.7604 34.5173 35.9707 33.9929 35.9753C33.4685 35.9798 32.9633 35.7782 32.5861 35.4139L24.0001 26.8279L15.4141 35.4139C15.0369 35.7782 14.5317 35.9798 14.0073 35.9753C13.4829 35.9707 12.9812 35.7604 12.6104 35.3896C12.2396 35.0187 12.0293 34.5171 12.0247 33.9927C12.0202 33.4683 12.2217 32.9631 12.5861 32.5859L21.1721 23.9999L12.5861 15.4139C12.2111 15.0389 12.0005 14.5302 12.0005 13.9999C12.0005 13.4696 12.2111 12.961 12.5861 12.5859Z" fill="black"/>
</svg>
