<svg width="48" height="48" viewBox="0 0 48 48" fill="none" xmlns="http://www.w3.org/2000/svg">
<path fill-rule="evenodd" clip-rule="evenodd" d="M24 44C35.046 44 44 35.046 44 24C44 12.954 35.046 4 24 4C12.954 4 4 12.954 4 24C4 35.046 12.954 44 24 44ZM35.3137 12.6863C38.3143 15.6869 40 19.7565 40 24C40 28.2435 38.3143 32.3131 35.3137 35.3137C32.3131 38.3143 28.2435 40 24 40C19.7565 40 15.6869 38.3143 12.6863 35.3137C9.68571 32.3131 8 28.2435 8 24C8 19.7565 9.68571 15.6869 12.6863 12.6863C15.6869 9.68571 19.7565 8 24 8C28.2435 8 32.3131 9.68571 35.3137 12.6863ZM18.0072 16.0247C18.5316 16.0201 19.0368 16.2217 19.414 16.586L24 21.172L28.586 16.586C28.9632 16.2217 29.4684 16.0201 29.9928 16.0247C30.5172 16.0292 31.0188 16.2396 31.3896 16.6104C31.7604 16.9812 31.9708 17.4828 31.9753 18.0072C31.9799 18.5316 31.7783 19.0368 31.414 19.414L26.828 24L31.414 28.586C31.7783 28.9632 31.9799 29.4684 31.9753 29.9928C31.9708 30.5172 31.7604 31.0188 31.3896 31.3897C31.0188 31.7605 30.5172 31.9708 29.9928 31.9754C29.4684 31.9799 28.9632 31.7783 28.586 31.414L24 26.828L19.414 31.414C19.2295 31.605 19.0088 31.7574 18.7648 31.8622C18.5208 31.967 18.2583 32.0222 17.9928 32.0245C17.7272 32.0268 17.4639 31.9762 17.2181 31.8757C16.9723 31.7751 16.749 31.6266 16.5612 31.4388C16.3734 31.251 16.2249 31.0277 16.1243 30.7819C16.0238 30.5361 15.9732 30.2728 15.9755 30.0072C15.9778 29.7417 16.033 29.4792 16.1378 29.2352C16.2426 28.9912 16.395 28.7705 16.586 28.586L21.172 24L16.586 19.414C16.2217 19.0368 16.0201 18.5316 16.0246 18.0072C16.0292 17.4828 16.2395 16.9812 16.6103 16.6104C16.9812 16.2396 17.4828 16.0292 18.0072 16.0247Z" fill="black"/>
</svg>
