<svg width="48" height="48" viewBox="0 0 48 48" fill="none" xmlns="http://www.w3.org/2000/svg">
<path d="M34.4699 23.9533C34.4699 22.9592 33.6641 22.1533 32.67 22.1533L15.2699 22.1533C14.2758 22.1533 13.47 22.9592 13.47 23.9533C13.47 24.9475 14.2758 25.7533 15.2699 25.7533H32.67C33.6641 25.7533 34.4699 24.9475 34.4699 23.9533Z" fill="black"/>
<path fill-rule="evenodd" clip-rule="evenodd" d="M6 12C6 8.68629 8.68629 6 12 6H36C39.3137 6 42 8.68629 42 12V36C42 39.3137 39.3137 42 36 42H12C8.68629 42 6 39.3137 6 36V12ZM12 9H36C37.6569 9 39 10.3431 39 12V36C39 37.6569 37.6569 39 36 39H12C10.3431 39 9 37.6569 9 36V12C9 10.3431 10.3431 9 12 9Z" fill="black"/>
</svg>
