<svg width="48" height="48" viewBox="0 0 48 48" fill="none" xmlns="http://www.w3.org/2000/svg">
<path fill-rule="evenodd" clip-rule="evenodd" d="M6 20C6 10.0588 14.0588 2 24 2C33.9412 2 42 10.0588 42 20V44C42 44.8089 41.5127 45.5382 40.7654 45.8478C40.018 46.1573 39.1578 45.9862 38.5858 45.4142L36 42.8284L33.4142 45.4142C32.9905 45.8379 32.3992 46.0493 31.8029 45.9903C31.2067 45.9312 30.6683 45.608 30.3359 45.1094L28 41.6056L25.6641 45.1094C25.2932 45.6658 24.6687 46 24 46C23.3313 46 22.7068 45.6658 22.3359 45.1094L20 41.6056L17.6641 45.1094C17.3317 45.608 16.7933 45.9312 16.1971 45.9903C15.6008 46.0493 15.0095 45.8379 14.5858 45.4142L12 42.8284L9.41421 45.4142C8.84222 45.9862 7.98198 46.1573 7.23463 45.8478C6.48728 45.5382 6 44.8089 6 44V20ZM24 6C16.268 6 10 12.268 10 20V39.1716L10.5858 38.5858C11.3668 37.8047 12.6332 37.8047 13.4142 38.5858L15.6891 40.8607L18.3359 36.8906C18.7068 36.3342 19.3313 36 20 36C20.6687 36 21.2932 36.3342 21.6641 36.8906L24 40.3944L26.3359 36.8906C26.7068 36.3342 27.3313 36 28 36C28.6687 36 29.2932 36.3342 29.6641 36.8906L32.3109 40.8607L34.5858 38.5858C35.3668 37.8047 36.6332 37.8047 37.4142 38.5858L38 39.1716V20C38 12.268 31.732 6 24 6ZM17 20C17 18.8954 17.8954 18 19 18H21C22.1046 18 23 18.8954 23 20C23 21.1046 22.1046 22 21 22H19C17.8954 22 17 21.1046 17 20ZM31 18C29.8954 18 29 18.8954 29 20C29 21.1046 29.8954 22 31 22H33C34.1046 22 35 21.1046 35 20C35 18.8954 34.1046 18 33 18H31Z" fill="black"/>
</svg>
