<svg width="48" height="48" viewBox="0 0 48 48" fill="none" xmlns="http://www.w3.org/2000/svg">
<path fill-rule="evenodd" clip-rule="evenodd" d="M38.9272 17.2387C40.7607 16.2121 42 14.2508 42 12C42 8.68629 39.3137 6 36 6C33.3876 6 31.1651 7.66962 30.3414 10H17.6586C16.8349 7.66962 14.6124 6 12 6C8.68629 6 6 8.68629 6 12C6 14.2507 7.23921 16.2119 9.07255 17.2386L6.98493 30.0855C4.15463 30.5678 2 33.0323 2 36C2 39.3137 4.68629 42 8 42C10.6124 42 12.8349 40.3304 13.6586 38H34.3414C35.1651 40.3304 37.3876 42 40 42C43.3137 42 46 39.3137 46 36C46 33.0322 43.8452 30.5676 41.0148 30.0855L38.9272 17.2387ZM34.9846 17.9144C32.8232 17.546 31.056 16.0216 30.3414 14H17.6586C16.944 16.0217 15.1766 17.5461 13.0152 17.9145L10.9276 30.7615C12.1896 31.4683 13.1701 32.6179 13.6586 34H34.3414C34.8299 32.618 35.8103 31.4684 37.0722 30.7616L34.9846 17.9144ZM38 36C38 37.1046 38.8954 38 40 38C41.1046 38 42 37.1046 42 36C42 34.8954 41.1046 34 40 34C38.8954 34 38 34.8954 38 36ZM14 12C14 10.8954 13.1046 10 12 10C10.8954 10 10 10.8954 10 12C10 13.1046 10.8954 14 12 14C13.1046 14 14 13.1046 14 12ZM10 36C10 34.8954 9.10457 34 8 34C6.89543 34 6 34.8954 6 36C6 37.1046 6.89543 38 8 38C9.10457 38 10 37.1046 10 36ZM34 12C34 13.1046 34.8954 14 36 14C37.1046 14 38 13.1046 38 12C38 10.8954 37.1046 10 36 10C34.8954 10 34 10.8954 34 12Z" fill="black"/>
</svg>
