<svg width="48" height="48" viewBox="0 0 48 48" fill="none" xmlns="http://www.w3.org/2000/svg">
<path fill-rule="evenodd" clip-rule="evenodd" d="M31.232 6.86794C28.9765 5.9486 26.5616 5.48371 24.126 5.49994C21.686 5.48332 19.2667 5.94957 17.0077 6.87184C14.7486 7.79411 12.6942 9.15417 10.963 10.8737C9.23174 12.5933 7.85777 14.6383 6.92018 16.8911C5.9826 19.1438 5.49994 21.5598 5.5 23.9999V33.6259C5.5 34.2497 5.62286 34.8674 5.86157 35.4437C6.10028 36.02 6.45016 36.5436 6.89124 36.9847C7.33232 37.4258 7.85596 37.7757 8.43225 38.0144C9.00855 38.2531 9.62622 38.3759 10.25 38.3759H13C13.6238 38.3759 14.2414 38.2531 14.8177 38.0144C15.394 37.7757 15.9177 37.4258 16.3588 36.9847C16.7998 36.5436 17.1497 36.02 17.3884 35.4437C17.6271 34.8674 17.75 34.2497 17.75 33.6259V26.7499C17.75 26.1262 17.6271 25.5085 17.3884 24.9322C17.1497 24.3559 16.7998 23.8323 16.3588 23.3912C15.9177 22.9501 15.394 22.6002 14.8177 22.3615C14.2414 22.1228 13.6238 21.9999 13 21.9999H9.64C10.1251 18.5156 11.8604 15.3265 14.5226 13.0268C17.1847 10.7271 20.5922 9.47361 24.11 9.49994H24.14C27.6582 9.47312 31.0661 10.7264 33.7287 13.0261C36.3912 15.3259 38.1268 18.5153 38.612 21.9999H35.252C34.6281 21.9997 34.0102 22.1223 33.4336 22.3609C32.8571 22.5995 32.3332 22.9494 31.8919 23.3905C31.4507 23.8316 31.1006 24.3553 30.8618 24.9317C30.6229 25.5082 30.5 26.126 30.5 26.7499V33.6259C30.5 34.8857 31.0004 36.0939 31.8912 36.9847C32.782 37.8755 33.9902 38.3759 35.25 38.3759H38C38.238 38.3759 38.472 38.3559 38.704 38.3219C38.5685 39.1401 38.1469 39.8835 37.5143 40.4197C36.8817 40.956 36.0793 41.2502 35.25 41.2499H25.374C25.1113 41.2499 24.8512 41.3016 24.6085 41.4021C24.3659 41.5026 24.1453 41.6499 23.9596 41.8356C23.7738 42.0213 23.6265 42.2418 23.526 42.4845C23.4254 42.7272 23.3737 42.9873 23.3737 43.2499C23.3737 43.5126 23.4254 43.7727 23.526 44.0154C23.6265 44.258 23.7738 44.4785 23.9596 44.6643C24.1453 44.85 24.3659 44.9973 24.6085 45.0978C24.8512 45.1983 25.1113 45.25 25.374 45.2499H35.25C37.2391 45.2499 39.1468 44.4598 40.5533 43.0532C41.9598 41.6467 42.75 39.7391 42.75 37.7499V23.9999C42.7498 20.323 41.654 16.7296 39.6025 13.6782C37.551 10.6268 34.6369 8.25587 31.232 6.86794ZM38.752 33.6259C38.752 33.7246 38.7325 33.8223 38.6947 33.9134C38.6569 34.0045 38.6015 34.0873 38.5316 34.157C38.4618 34.2266 38.3789 34.2819 38.2876 34.3194C38.1964 34.357 38.0987 34.3762 38 34.3759H35.25C35.0511 34.3759 34.8603 34.2969 34.7197 34.1563C34.579 34.0156 34.5 33.8249 34.5 33.6259V26.7499C34.5 26.551 34.579 26.3603 34.7197 26.2196C34.8603 26.079 35.0511 25.9999 35.25 25.9999H38.75L38.752 33.6259ZM9.5 33.6259V25.9999H13C13.1989 25.9999 13.3897 26.079 13.5303 26.2196C13.671 26.3603 13.75 26.551 13.75 26.7499V33.6259C13.75 33.8249 13.671 34.0156 13.5303 34.1563C13.3897 34.2969 13.1989 34.3759 13 34.3759H10.25C10.0511 34.3759 9.86032 34.2969 9.71967 34.1563C9.57902 34.0156 9.5 33.8249 9.5 33.6259Z" fill="black"/>
</svg>
