<svg width="48" height="48" viewBox="0 0 48 48" fill="none" xmlns="http://www.w3.org/2000/svg">
<path d="M13.8659 6.30469C13.3966 6.30469 12.9465 6.49112 12.6147 6.82297C12.2828 7.15483 12.0964 7.60491 12.0964 8.07423C12.0964 8.54354 12.2828 8.99362 12.6147 9.32548C12.9465 9.65733 13.3966 9.84376 13.8659 9.84376H38.1581V34.1342C38.1581 34.3666 38.2038 34.5967 38.2928 34.8115C38.3817 35.0262 38.512 35.2213 38.6763 35.3856C38.8407 35.55 39.0357 35.6804 39.2504 35.7693C39.4651 35.8582 39.6953 35.904 39.9277 35.904C40.1601 35.904 40.3902 35.8582 40.6049 35.7693C40.8196 35.6804 41.0147 35.55 41.179 35.3856C41.3433 35.2213 41.4737 35.0262 41.5626 34.8115C41.6515 34.5967 41.6973 34.3666 41.6972 34.1342V8.07423C41.6972 7.60491 41.5108 7.15483 41.1789 6.82297C40.8471 6.49112 40.397 6.30469 39.9277 6.30469H13.8659Z" fill="black"/>
<path fill-rule="evenodd" clip-rule="evenodd" d="M8.07423 13.5439C7.60491 13.5439 7.15483 13.7303 6.82297 14.0622C6.49112 14.394 6.30469 14.8441 6.30469 15.3134V39.9277C6.30469 40.397 6.49112 40.8471 6.82297 41.1789C7.15483 41.5108 7.60491 41.6972 8.07423 41.6972H32.6885C33.1578 41.6972 33.6079 41.5108 33.9398 41.1789C34.2716 40.8471 34.458 40.397 34.458 39.9277V15.3116C34.458 15.0793 34.4123 14.8492 34.3233 14.6345C34.2344 14.4198 34.1041 14.2247 33.9398 14.0604C33.7754 13.8961 33.5804 13.7657 33.3657 13.6768C33.151 13.5879 32.9209 13.5421 32.6885 13.5421L8.07423 13.5439ZM9.84376 38.1581V17.0812H30.919V38.1564L9.84376 38.1581Z" fill="black"/>
</svg>
