<svg width="48" height="48" viewBox="0 0 48 48" fill="none" xmlns="http://www.w3.org/2000/svg">
<path fill-rule="evenodd" clip-rule="evenodd" d="M4.04552 36.7957L5.49482 30.2739C5.82487 28.7887 6.57161 27.4283 7.64746 26.3525L27.3433 6.65663C30.4675 3.53243 35.5328 3.53242 38.657 6.65662L41.3433 9.34291C44.4675 12.4671 44.4675 17.5324 41.3433 20.6566L21.6475 40.3525C20.5716 41.4283 19.2113 42.1751 17.726 42.5051L11.2042 43.9544C6.91724 44.9071 3.09286 41.0827 4.04552 36.7957ZM9.39956 31.1416L7.95027 37.6634C7.63272 39.0924 8.90751 40.3672 10.3365 40.0497L16.8583 38.6004C17.5725 38.4417 18.229 38.0902 18.7567 37.5851L10.4149 29.2433C9.90969 29.771 9.55828 30.4274 9.39956 31.1416ZM13.2426 26.4142L21.5858 34.7573L32.7573 23.5858L24.4142 15.2426L13.2426 26.4142ZM38.5149 17.8282L35.5858 20.7573L27.2426 12.4142L30.1717 9.48505C31.7338 7.92295 34.2665 7.92295 35.8286 9.48505L38.5149 12.1713C40.077 13.7334 40.077 16.2661 38.5149 17.8282Z" fill="black"/>
</svg>
