<svg width="48" height="48" viewBox="0 0 48 48" fill="none" xmlns="http://www.w3.org/2000/svg">
<path d="M19.8758 17.876C20.4062 17.876 20.9149 18.0867 21.29 18.4618C21.6651 18.8369 21.8758 19.3456 21.8758 19.876V30.876C21.8758 31.1387 21.8241 31.3988 21.7236 31.6415C21.6231 31.8842 21.4758 32.1047 21.2901 32.2904C21.1044 32.4762 20.8839 32.6235 20.6412 32.7241C20.3986 32.8246 20.1385 32.8763 19.8758 32.8763C19.6131 32.8763 19.353 32.8246 19.1104 32.7241C18.8677 32.6235 18.6472 32.4762 18.4615 32.2904C18.2757 32.1047 18.1284 31.8842 18.0279 31.6415C17.9275 31.3988 17.8758 31.1387 17.8758 30.876V19.876C17.8758 19.3456 18.0865 18.8369 18.4616 18.4618C18.8367 18.0867 19.3454 17.876 19.8758 17.876Z" fill="black"/>
<path d="M30.1258 19.876C30.1258 19.6134 30.0741 19.3532 29.9736 19.1106C29.8731 18.8679 29.7258 18.6474 29.5401 18.4616C29.3544 18.2759 29.1339 18.1285 28.8912 18.028C28.6486 17.9275 28.3885 17.8757 28.1258 17.8757C27.8631 17.8757 27.603 17.9275 27.3604 18.028C27.1177 18.1285 26.8972 18.2759 26.7115 18.4616C26.5258 18.6474 26.3784 18.8679 26.2779 19.1106C26.1775 19.3532 26.1258 19.6134 26.1258 19.876V30.876C26.1258 31.1387 26.1775 31.3988 26.2779 31.6415C26.3784 31.8842 26.5258 32.1047 26.7115 32.2904C26.8972 32.4762 27.1177 32.6235 27.3604 32.7241C27.603 32.8246 27.8631 32.8763 28.1258 32.8763C28.3885 32.8763 28.6486 32.8246 28.8912 32.7241C29.1339 32.6235 29.3544 32.4762 29.5401 32.2904C29.7258 32.1047 29.8731 31.8842 29.9736 31.6415C30.0741 31.3988 30.1258 31.1387 30.1258 30.876V19.876Z" fill="black"/>
<path fill-rule="evenodd" clip-rule="evenodd" d="M19.8758 4.12602C19.252 4.12576 18.6343 4.24836 18.0579 4.48683C17.4815 4.7253 16.9577 5.07496 16.5164 5.51585C16.0752 5.95674 15.7251 6.48023 15.4861 7.05643C15.2472 7.63263 15.1241 8.25024 15.1238 8.87402V9.62402H8.87579C8.61312 9.62398 8.35302 9.67568 8.11033 9.77618C7.86765 9.87667 7.64713 10.024 7.46138 10.2097C7.27563 10.3954 7.12829 10.6159 7.02776 10.8586C6.92723 11.1013 6.87549 11.3614 6.87549 11.624C6.87549 11.8867 6.92723 12.1468 7.02776 12.3895C7.12829 12.6321 7.27563 12.8526 7.46138 13.0383C7.64713 13.2241 7.86765 13.3714 8.11033 13.4719C8.35302 13.5724 8.61312 13.6241 8.87579 13.624H9.62579V37.75C9.62553 38.1933 9.71261 38.6322 9.88205 39.0418C10.0515 39.4514 10.3 39.8236 10.6133 40.1371C10.9266 40.4506 11.2987 40.6993 11.7082 40.869C12.1176 41.0387 12.5565 41.126 12.9998 41.126H34.9998C35.4432 41.1263 35.8823 41.0391 36.292 40.8696C36.7018 40.7 37.074 40.4513 37.3876 40.1378C37.7011 39.8243 37.9498 39.452 38.1193 39.0423C38.2889 38.6326 38.3761 38.1934 38.3758 37.75V13.624H39.1238C39.3865 13.6241 39.6466 13.5724 39.8893 13.4719C40.1319 13.3714 40.3525 13.2241 40.5382 13.0383C40.724 12.8526 40.8713 12.6321 40.9718 12.3895C41.0724 12.1468 41.1241 11.8867 41.1241 11.624C41.1241 11.3614 41.0724 11.1013 40.9718 10.8586C40.8713 10.6159 40.724 10.3954 40.5382 10.2097C40.3525 10.024 40.1319 9.87667 39.8893 9.77618C39.6466 9.67568 39.3865 9.62398 39.1238 9.62402H32.8738V8.87402C32.8738 7.61425 32.3733 6.40606 31.4825 5.51527C30.5918 4.62447 29.3836 4.12402 28.1238 4.12402H19.8778L19.8758 4.12602ZM28.8758 9.62602H19.1218V8.87602C19.1218 8.77736 19.1413 8.67967 19.1791 8.58855C19.2169 8.49742 19.2723 8.41466 19.3422 8.34499C19.412 8.27531 19.4949 8.22011 19.5862 8.18254C19.6774 8.14497 19.7751 8.12576 19.8738 8.12602H28.1218C28.2205 8.12576 28.3182 8.14497 28.4094 8.18254C28.5006 8.22011 28.5836 8.27531 28.6534 8.34499C28.7233 8.41466 28.7787 8.49742 28.8165 8.58855C28.8543 8.67967 28.8738 8.77736 28.8738 8.87602V9.62602H28.8758ZM13.6238 13.626H34.3738V37.126H13.6258L13.6238 13.626Z" fill="black"/>
</svg>
