<svg width="48" height="48" viewBox="0 0 48 48" fill="none" xmlns="http://www.w3.org/2000/svg">
<path fill-rule="evenodd" clip-rule="evenodd" d="M7 18C7 11.3726 12.3726 6 19 6C24.946 6 29.8819 10.3246 30.8341 16H18C16.8954 16 16 16.8954 16 18V29.622C10.8243 28.2898 7 23.5915 7 18ZM16 33.7192C8.59741 32.315 3 25.8112 3 18C3 9.16343 10.1634 2 19 2C27.1592 2 33.892 8.10737 34.8762 16H44C45.1046 16 46 16.8954 46 18V44C46 45.1046 45.1046 46 44 46H18C16.8954 46 16 45.1046 16 44V33.7192ZM20 42V20H42V42H20Z" fill="black"/>
</svg>
