<svg width="48" height="48" viewBox="0 0 48 48" fill="none" xmlns="http://www.w3.org/2000/svg">
<path fill-rule="evenodd" clip-rule="evenodd" d="M12.8627 2.78888H33.4768C33.4989 2.78819 33.521 2.78784 33.5431 2.78784C33.5653 2.78784 33.5874 2.78819 33.6094 2.78888H39.9072C41.078 2.78888 42.0299 3.73821 42.0299 4.90897V36.7256C42.0299 37.8964 41.0805 38.8483 39.9072 38.8483H12.8627C12.16 38.8483 11.4861 39.1274 10.9892 39.6243C10.6196 39.9939 10.3704 40.4615 10.2671 40.966H36.7258C37.2884 40.966 37.828 41.1895 38.2258 41.5874C38.6237 41.9852 38.8472 42.5248 38.8472 43.0874C38.8472 43.65 38.6237 44.1896 38.2258 44.5874C37.828 44.9853 37.2884 45.2088 36.7258 45.2088H8.09055C6.91979 45.2088 5.97046 44.2569 5.97046 43.0861V9.68363C5.97046 7.85623 6.69582 6.10264 7.98875 4.80971H7.99129C9.28295 3.51691 11.0352 2.79002 12.8627 2.78888ZM12.8627 7.03161H18.6961V24.0002C18.6958 24.3942 18.8052 24.7804 19.0121 25.1157C19.219 25.4509 19.5152 25.7218 19.8675 25.8981C20.2198 26.0744 20.6142 26.149 21.0066 26.1137C21.3989 26.0783 21.7737 25.9343 22.0888 25.6978L27.179 21.8801L32.2693 25.6978C32.5844 25.935 32.9593 26.0796 33.3521 26.1154C33.7448 26.1512 34.1398 26.0767 34.4925 25.9003C34.8453 25.7239 35.1418 25.4527 35.3489 25.117C35.5559 24.7814 35.6652 24.3946 35.6645 24.0002V7.03161H37.7846V34.603H12.8627C11.9439 34.603 11.0454 34.7862 10.2132 35.1324V9.68109C10.2139 8.97861 10.4932 8.30509 10.9899 7.80837C11.4867 7.31164 12.1602 7.03228 12.8627 7.03161ZM31.4218 19.7575V7.03161H22.9388V19.7549L25.9065 17.5305C26.2735 17.255 26.7201 17.1061 27.179 17.1061C27.638 17.1061 28.0845 17.255 28.4516 17.5305L31.4218 19.7575Z" fill="black"/>
</svg>
