<svg width="48" height="48" viewBox="0 0 48 48" fill="none" xmlns="http://www.w3.org/2000/svg">
<g clip-path="url(#clip0_5_378)">
<path fill-rule="evenodd" clip-rule="evenodd" d="M36.2421 3.41395C35.1169 2.28912 33.591 1.65723 32.0001 1.65723C30.4091 1.65723 28.8832 2.28912 27.7581 3.41395L7.17206 23.9999C6.42186 24.7499 6.00029 25.7672 6.00006 26.8279V33.9999C6.00006 34.5252 6.10352 35.0454 6.30454 35.5307C6.50556 36.016 6.8002 36.4569 7.17164 36.8284C7.54307 37.1998 7.98403 37.4944 8.46933 37.6955C8.95463 37.8965 9.47477 37.9999 10.0001 37.9999H17.1721C18.2328 37.9997 19.2501 37.5781 20.0001 36.8279L40.5861 16.2419C41.7109 15.1168 42.3428 13.5909 42.3428 11.9999C42.3428 10.409 41.7109 8.88311 40.5861 7.75795L36.2421 3.41395ZM30.5861 6.24195C30.9611 5.867 31.4697 5.65637 32.0001 5.65637C32.5304 5.65637 33.039 5.867 33.4141 6.24195L37.7581 10.5859C38.133 10.961 38.3436 11.4696 38.3436 11.9999C38.3436 12.5303 38.133 13.0389 37.7581 13.4139L36.0001 15.1719L28.8281 7.99995L30.5861 6.24195ZM26.0001 10.8279L33.1721 17.9999L21.0001 30.1719L13.8281 22.9999L26.0001 10.8279ZM10.0001 26.8279L11.0001 25.8279L18.1721 32.9999L17.1721 33.9999H10.0001V26.8279Z" fill="black"/>
<path d="M8.00006 41.9999C7.73739 41.9999 7.47729 42.0516 7.2346 42.1521C6.99191 42.2526 6.7714 42.3999 6.58565 42.5856C6.3999 42.7713 6.25255 42.9918 6.15203 43.2345C6.0515 43.4772 5.99976 43.7373 5.99976 43.9999C5.99976 44.2626 6.0515 44.5227 6.15203 44.7654C6.25255 45.0081 6.3999 45.2285 6.58565 45.4143C6.7714 45.6 6.99191 45.7473 7.2346 45.8478C7.47729 45.9483 7.73739 46 8.00006 45.9999H40.0001C40.2627 46 40.5228 45.9483 40.7655 45.8478C41.0082 45.7473 41.2287 45.6 41.4145 45.4143C41.6002 45.2285 41.7476 45.0081 41.8481 44.7654C41.9486 44.5227 42.0004 44.2626 42.0004 43.9999C42.0004 43.7373 41.9486 43.4772 41.8481 43.2345C41.7476 42.9918 41.6002 42.7713 41.4145 42.5856C41.2287 42.3999 41.0082 42.2526 40.7655 42.1521C40.5228 42.0516 40.2627 41.9999 40.0001 41.9999H8.00006Z" fill="black"/>
</g>
<defs>
<clipPath id="clip0_5_378">
<rect width="24" height="24" fill="white" transform="scale(2)"/>
</clipPath>
</defs>
</svg>
