<svg width="48" height="48" viewBox="0 0 48 48" fill="none" xmlns="http://www.w3.org/2000/svg">
<path fill-rule="evenodd" clip-rule="evenodd" d="M24.9193 5.78879C25.3943 5.74244 25.8682 5.88661 26.2369 6.18959L41.0929 18.4104C41.2756 18.5605 41.4269 18.7452 41.5382 18.9538C41.6496 19.1625 41.7187 19.391 41.7416 19.6264C41.7646 19.8617 41.7409 20.0993 41.672 20.3255C41.6031 20.5517 41.4903 20.7622 41.3401 20.9448L31.3705 33.0648C31.3565 33.0827 31.3421 33.1003 31.3273 33.1176L28.9033 35.8464H28.9081L26.9209 38.1672H43.5697C44.0471 38.1672 44.5049 38.3568 44.8425 38.6944C45.18 39.032 45.3697 39.4898 45.3697 39.9672C45.3697 40.4446 45.18 40.9024 44.8425 41.24C44.5049 41.5775 44.0471 41.7672 43.5697 41.7672H15.3457C15.0583 41.7671 14.7751 41.698 14.5201 41.5656C14.3376 41.4974 14.1674 41.4002 14.0161 41.2776L4.02729 33.228C3.84213 33.0788 3.68837 32.8944 3.57489 32.6854C3.46141 32.4764 3.39046 32.2471 3.36613 32.0105C3.34181 31.774 3.36459 31.535 3.43317 31.3073C3.50175 31.0796 3.61477 30.8677 3.76569 30.684L10.9033 22.0056C10.9255 21.9745 10.9487 21.944 10.9729 21.9144L23.7025 6.43679C23.8528 6.25412 24.0376 6.10287 24.2464 5.99168C24.4552 5.88049 24.6838 5.81155 24.9193 5.78879ZM12.6529 25.5456L7.70169 31.5648L15.7801 38.0784H22.2553L24.9361 34.9488L12.6529 25.5456ZM14.9377 22.7616L27.3025 32.2272L28.6129 30.7512L37.4161 20.0472L25.3393 10.1136L14.9377 22.7616Z" fill="black"/>
</svg>
