<svg width="48" height="48" viewBox="0 0 48 48" fill="none" xmlns="http://www.w3.org/2000/svg">
<path fill-rule="evenodd" clip-rule="evenodd" d="M22.2647 4.0993C22.5003 4.07602 22.7381 4.09945 22.9646 4.16822C23.1912 4.237 23.4019 4.34977 23.5847 4.5001L38.4407 16.7209C38.809 17.024 39.0419 17.461 39.0883 17.9357C39.1346 18.4105 38.9906 18.8842 38.6879 19.2529L28.7183 31.3729C28.7043 31.3908 28.6899 31.4084 28.6751 31.4257L26.2511 34.1545L26.2535 34.1569L21.7967 39.3601C21.6276 39.5575 21.4178 39.7158 21.1816 39.8244C20.9455 39.9329 20.6886 39.9891 20.4287 39.9889H12.4919C12.0815 39.9886 11.6835 39.848 11.3639 39.5905L1.37032 31.5361C1.18534 31.3867 1.03179 31.2022 0.918527 30.9931C0.805265 30.7841 0.734543 30.5547 0.710443 30.3181C0.686343 30.0816 0.709343 29.8426 0.778116 29.615C0.846888 29.3874 0.96007 29.1757 1.11112 28.9921L8.24632 20.3137C8.26937 20.2833 8.29339 20.2537 8.31832 20.2249L21.0479 4.74489C21.3509 4.37654 21.7877 4.14348 22.2623 4.09689L22.2647 4.0993ZM10.0007 23.8561L5.04712 29.8753L13.1279 36.3841H19.6007L22.2839 33.2545L9.99832 23.8561H10.0007ZM12.2831 21.0721L24.6503 30.5353L25.9583 29.0617L34.7639 18.3577L22.6871 8.4217L12.2831 21.0697V21.0721Z" fill="black"/>
<path fill-rule="evenodd" clip-rule="evenodd" d="M33.7967 37.5721L42.1727 26.7721H44.7407V38.0041H47.2847V40.2361H44.7407V43.9081H42.0767V40.2361H33.7967V37.5721ZM42.0767 30.3241H42.0047L36.0767 38.0041H42.0767V30.3241Z" fill="black"/>
</svg>
