<svg width="48" height="48" viewBox="0 0 48 48" fill="none" xmlns="http://www.w3.org/2000/svg">
<path fill-rule="evenodd" clip-rule="evenodd" d="M22.5096 3.93112C22.9846 3.88478 23.4585 4.02894 23.8272 4.33192L38.6832 16.5527C39.0515 16.8559 39.2844 17.2928 39.3308 17.7676C39.3771 18.2423 39.2331 18.7161 38.9304 19.0847L28.9632 31.2047C28.9484 31.2226 28.9332 31.2402 28.9176 31.2575L26.4936 33.9887H26.4984L22.0392 39.1919C21.8701 39.3893 21.6603 39.5477 21.4241 39.6562C21.188 39.7648 20.9311 39.8209 20.6712 39.8207H12.7392C12.328 39.821 11.929 39.6804 11.6088 39.4223L1.61762 31.3679C1.43246 31.2187 1.2787 31.0343 1.16522 30.8253C1.05174 30.6164 0.980787 30.387 0.956463 30.1505C0.93214 29.9139 0.954926 29.6749 1.02351 29.4472C1.09208 29.2195 1.2051 29.0077 1.35602 28.8239L8.49602 20.1479C8.51824 20.1168 8.54146 20.0864 8.56562 20.0567L21.2952 4.57672C21.4455 4.39405 21.6303 4.2428 21.8391 4.13161C22.0479 4.02043 22.2766 3.95148 22.512 3.92872L22.5096 3.93112ZM10.2432 23.6879L5.29202 29.7071L13.3704 36.2207H19.848L22.5288 33.0911L10.2432 23.6879ZM12.528 20.9039L24.8952 30.3671L26.2032 28.8935L35.0064 18.1895L22.9296 8.25352L12.528 20.9039Z" fill="black"/>
<path d="M36.8016 27.6863C37.8816 26.7263 39.2736 26.2703 40.9536 26.2703C42.6816 26.2703 44.0976 26.6783 45.1536 27.5183C46.1856 28.3583 46.7136 29.5103 46.7136 30.9983C46.7136 32.8703 45.7536 34.1183 43.8576 34.7423C44.8656 35.0543 45.6576 35.5103 46.1856 36.1343C46.7616 36.7823 47.0496 37.6223 47.0496 38.6303C47.0496 40.2143 46.4976 41.5103 45.3936 42.5183C44.2416 43.5503 42.7296 44.0783 40.8576 44.0783C39.0816 44.0783 37.6416 43.6223 36.5616 42.7103C35.3616 41.7023 34.6896 40.2143 34.5456 38.2943H37.4016C37.4496 39.3983 37.7856 40.2623 38.4576 40.8623C39.0576 41.4143 39.8496 41.7023 40.8336 41.7023C41.9136 41.7023 42.7776 41.3903 43.4016 40.7903C43.9536 40.2383 44.2416 39.5663 44.2416 38.7503C44.2416 37.7663 43.9296 37.0463 43.3536 36.5903C42.7776 36.1103 41.9376 35.8943 40.8336 35.8943H39.6336V33.7823H40.8336C41.8416 33.7823 42.6096 33.5663 43.1376 33.1343C43.6416 32.7023 43.9056 32.0543 43.9056 31.2143C43.9056 30.3743 43.6656 29.7503 43.2096 29.3183C42.7056 28.8863 41.9616 28.6703 40.9776 28.6703C39.9696 28.6703 39.2016 28.9103 38.6496 29.4143C38.0736 29.9183 37.7376 30.6863 37.6416 31.7183H34.8816C35.0256 29.9903 35.6496 28.6463 36.8016 27.6863Z" fill="black"/>
</svg>
