<svg width="48" height="48" viewBox="0 0 48 48" fill="none" xmlns="http://www.w3.org/2000/svg">
<path fill-rule="evenodd" clip-rule="evenodd" d="M21.8327 7.51392C22.0571 7.49175 22.2836 7.51407 22.4994 7.57957C22.7151 7.64508 22.9158 7.7525 23.09 7.89568L37.2404 19.536C37.4144 19.679 37.5585 19.8549 37.6646 20.0536C37.7706 20.2524 37.8364 20.47 37.8583 20.6942C37.8801 20.9184 37.8576 21.1447 37.792 21.3602C37.7264 21.5756 37.6189 21.7761 37.4758 21.95L27.9798 33.4943C27.9664 33.5113 27.9527 33.5281 27.9386 33.5446L25.6298 36.1438H25.6343L21.3869 41.0998C21.2259 41.2878 21.026 41.4387 20.8011 41.5421C20.5761 41.6455 20.3315 41.6989 20.0839 41.6988H12.5264C12.1355 41.6985 11.7564 41.5646 11.452 41.3193L1.93537 33.6498C1.75901 33.5076 1.61255 33.332 1.50446 33.133C1.39637 32.9339 1.32879 32.7154 1.30562 32.4901C1.28246 32.2648 1.30416 32.0372 1.36948 31.8203C1.4348 31.6034 1.54245 31.4016 1.6862 31.2266L8.48476 22.9604C8.50593 22.9308 8.52804 22.9018 8.55106 22.8736L20.676 8.13114C20.8192 7.95715 20.9952 7.81308 21.1941 7.70718C21.3929 7.60127 21.6107 7.5356 21.835 7.51392H21.8327ZM10.1513 26.3323L5.43524 32.0656L13.1299 38.2698H19.2975L21.851 35.2888L10.149 26.3323H10.1513ZM12.3275 23.6805L24.105 32.6965L25.3532 31.2906L33.7382 21.095L22.2351 11.6333L12.3275 23.6805Z" fill="black"/>
<path d="M35.2424 30.5751C36.3168 29.3864 37.7341 28.792 39.4944 28.792C41.0717 28.792 42.3747 29.2492 43.4034 30.1636C44.4093 31.078 44.9122 32.2439 44.9122 33.7069C44.9122 35.1242 44.3635 36.4044 43.312 37.5703C42.6719 38.2561 41.5289 39.1247 39.9287 40.1992C38.2599 41.2964 37.2541 42.2566 36.8883 43.0795H44.935V45.4341H33.5508C33.5508 43.7653 34.0765 42.3251 35.1738 41.0907C35.7682 40.4049 37.0255 39.3991 38.9229 38.096C39.9744 37.3645 40.7059 36.7473 41.1631 36.2672C41.8718 35.4671 42.2376 34.5985 42.2376 33.6841C42.2376 32.7925 41.9861 32.1296 41.5289 31.6952C41.0488 31.2609 40.3402 31.0552 39.4029 31.0552C38.3971 31.0552 37.6427 31.398 37.1398 32.0838C36.6369 32.7239 36.3625 33.7069 36.3168 34.9871H33.6422C33.6651 33.1583 34.1908 31.6952 35.2424 30.5751Z" fill="black"/>
</svg>
