<svg width="48" height="48" viewBox="0 0 48 48" fill="none" xmlns="http://www.w3.org/2000/svg">
<path d="M19.5 9.50102H9.50102V38.499H19.5C20.0307 38.499 20.5397 38.7098 20.9149 39.0851C21.2902 39.4604 21.501 39.9693 21.501 40.5C21.501 41.0307 21.2902 41.5397 20.9149 41.9149C20.5397 42.2902 20.0307 42.501 19.5 42.501H9.00002C8.0715 42.501 7.18101 42.1322 6.52444 41.4756C5.86788 40.819 5.49902 39.9285 5.49902 39V9.00002C5.49902 8.0715 5.86788 7.18101 6.52444 6.52444C7.18101 5.86788 8.0715 5.49902 9.00002 5.49902H19.5C20.0307 5.49902 20.5397 5.70984 20.9149 6.0851C21.2902 6.46036 21.501 6.96933 21.501 7.50002C21.501 8.03072 21.2902 8.53968 20.9149 8.91494C20.5397 9.2902 20.0307 9.50102 19.5 9.50102Z" fill="black"/>
<path d="M31.215 14.709C31.995 13.929 33.261 13.929 34.041 14.709L41.916 22.587C42.696 23.367 42.696 24.633 41.916 25.413L34.041 33.288C33.6614 33.6384 33.1609 33.8283 32.6444 33.8181C32.1279 33.8078 31.6354 33.5982 31.2699 33.2331C30.9044 32.868 30.6942 32.3757 30.6835 31.8592C30.6727 31.3427 30.8621 30.8421 31.212 30.462L35.673 26.001H19.503C18.9723 26.001 18.4634 25.7902 18.0881 25.4149C17.7128 25.0397 17.502 24.5307 17.502 24C17.502 23.4693 17.7128 22.9604 18.0881 22.5851C18.4634 22.2098 18.9723 21.999 19.503 21.999H35.673L31.212 17.538C30.837 17.1628 30.6264 16.654 30.6264 16.1235C30.6264 15.593 30.837 15.0842 31.212 14.709H31.215Z" fill="black"/>
</svg>
