<svg width="48" height="48" viewBox="0 0 48 48" fill="none" xmlns="http://www.w3.org/2000/svg">
<path d="M22.1697 15.2534C22.1697 14.2593 22.9755 13.4534 23.9697 13.4534C24.9638 13.4534 25.7697 14.2593 25.7697 15.2534V22.1545H32.67C33.6641 22.1545 34.4699 22.9604 34.4699 23.9545C34.4699 24.9487 33.6641 25.7545 32.67 25.7545H25.7697V32.6534C25.7697 33.6475 24.9638 34.4534 23.9697 34.4534C22.9755 34.4534 22.1697 33.6475 22.1697 32.6534V25.7545H15.2699C14.2758 25.7545 13.47 24.9487 13.47 23.9545C13.47 22.9604 14.2758 22.1545 15.2699 22.1545H22.1697V15.2534Z" fill="black"/>
<path fill-rule="evenodd" clip-rule="evenodd" d="M6 12C6 8.68629 8.68629 6 12 6H36C39.3137 6 42 8.68629 42 12V36C42 39.3137 39.3137 42 36 42H12C8.68629 42 6 39.3137 6 36V12ZM12 9H36C37.6569 9 39 10.3431 39 12V36C39 37.6569 37.6569 39 36 39H12C10.3431 39 9 37.6569 9 36V12C9 10.3431 10.3431 9 12 9Z" fill="black"/>
</svg>
