<svg width="48" height="48" viewBox="0 0 48 48" fill="none" xmlns="http://www.w3.org/2000/svg">
<path d="M16.1056 29.2111C17.0882 28.7198 18.2819 29.1133 18.7808 30.0896L18.7823 30.0924C18.7872 30.1015 18.7994 30.1235 18.8188 30.1565C18.8578 30.2227 18.9253 30.3315 19.0227 30.469C19.219 30.7461 19.5266 31.1255 19.9537 31.5052C20.7911 32.2495 22.0856 33 24 33C25.9144 33 27.2089 32.2495 28.0463 31.5052C28.4734 31.1255 28.781 30.7461 28.9773 30.469C29.0747 30.3315 29.1422 30.2227 29.1812 30.1565C29.1949 30.1333 29.2049 30.1156 29.2114 30.1039L29.2128 30.1023L29.2177 30.0924L29.2192 30.0896C29.7181 29.1133 30.9118 28.7198 31.8944 29.2111C32.8824 29.7051 33.2828 30.9065 32.7889 31.8944L31 31C32.7889 31.8944 32.7884 31.8953 32.788 31.8962L32.785 31.9022L32.7803 31.9114L32.7684 31.9344C32.7595 31.9517 32.7483 31.9728 32.7349 31.9975C32.7081 32.0469 32.6724 32.1109 32.6274 32.1873C32.5375 32.3398 32.4097 32.5435 32.2414 32.781C31.9065 33.2539 31.4016 33.8745 30.7037 34.4948C29.2911 35.7505 27.0856 37 24 37C20.9144 37 18.7089 35.7505 17.2963 34.4948C16.5984 33.8745 16.0935 33.2539 15.7586 32.781C15.5903 32.5435 15.4625 32.3398 15.3726 32.1873C15.3276 32.1109 15.2919 32.0469 15.2651 31.9975C15.2517 31.9728 15.2405 31.9517 15.2316 31.9344L15.2197 31.9114L15.215 31.9022L15.213 31.8981L15.212 31.8962C15.2116 31.8953 15.2111 31.8944 17 31L15.2111 31.8944C14.7172 30.9065 15.1176 29.7051 16.1056 29.2111Z" fill="black"/>
<path d="M29.2128 30.1023L29.2114 30.1039L18.7808 30.0896L29.2128 30.1023Z" fill="black"/>
<path d="M14.5858 14.5858C15.3668 13.8047 16.6332 13.8047 17.4142 14.5858L20.4142 17.5858C21.1953 18.3668 21.1953 19.6332 20.4142 20.4142L17.4142 23.4142C16.6332 24.1953 15.3668 24.1953 14.5858 23.4142C13.8047 22.6332 13.8047 21.3668 14.5858 20.5858L16.1716 19L14.5858 17.4142C13.8047 16.6332 13.8047 15.3668 14.5858 14.5858Z" fill="black"/>
<path d="M33.4142 17.4142C34.1953 16.6332 34.1953 15.3668 33.4142 14.5858C32.6332 13.8047 31.3668 13.8047 30.5858 14.5858L27.5858 17.5858C26.8047 18.3668 26.8047 19.6332 27.5858 20.4142L30.5858 23.4142C31.3668 24.1953 32.6332 24.1953 33.4142 23.4142C34.1953 22.6332 34.1953 21.3668 33.4142 20.5858L31.8284 19L33.4142 17.4142Z" fill="black"/>
<path fill-rule="evenodd" clip-rule="evenodd" d="M24 2C11.8497 2 2 11.8497 2 24C2 36.1503 11.8497 46 24 46C36.1503 46 46 36.1503 46 24C46 11.8497 36.1503 2 24 2ZM6 24C6 14.0589 14.0589 6 24 6C33.9411 6 42 14.0589 42 24C42 33.9411 33.9411 42 24 42C14.0589 42 6 33.9411 6 24Z" fill="black"/>
</svg>
