<svg width="48" height="48" viewBox="0 0 48 48" fill="none" xmlns="http://www.w3.org/2000/svg">
<path fill-rule="evenodd" clip-rule="evenodd" d="M7.6539 6.02002C7.84822 5.84319 8.07548 5.70639 8.32269 5.61742C8.56991 5.52845 8.83222 5.48907 9.09466 5.50151C9.3571 5.51396 9.61452 5.57799 9.8522 5.68995C10.0899 5.8019 10.3032 5.9596 10.4799 6.15402L15.3199 11.48L15.3839 11.55L20.4319 17.102L20.4339 17.106L20.4379 17.108L30.5219 28.202L30.5279 28.208L35.5739 33.76L35.6339 33.824L40.4799 39.156C40.8291 39.5497 41.0092 40.0652 40.9809 40.5907C40.9526 41.1162 40.7183 41.6094 40.3289 41.9634C39.9394 42.3173 39.4261 42.5035 38.9003 42.4815C38.3745 42.4596 37.8785 42.2312 37.5199 41.846L33.6319 37.57C30.5849 38.8674 27.3035 39.5237 23.9919 39.498C15.8319 39.498 10.1019 35.806 6.4599 32.164C4.95305 30.6535 3.61824 28.9806 2.4799 27.176C2.03979 26.4783 1.63527 25.7587 1.2679 25.02C1.24556 24.9735 1.22356 24.9268 1.2019 24.88L1.1819 24.836L1.1759 24.822L1.1739 24.816C1.1739 24.816 1.1739 24.812 2.9999 24L1.1719 23.186L1.1739 23.182L1.1779 23.172L1.1899 23.148L1.2299 23.066C1.43506 22.642 1.65452 22.2251 1.8879 21.816C2.3459 21.008 3.0379 19.9 3.9819 18.666C5.5079 16.674 7.7239 14.316 10.7239 12.37L7.5199 8.84601C7.34308 8.65169 7.20627 8.42443 7.11731 8.17722C7.02834 7.93001 6.98895 7.66769 7.0014 7.40525C7.01384 7.14281 7.07787 6.8854 7.18983 6.64772C7.30179 6.41003 7.45948 6.19674 7.6539 6.02002ZM13.4599 15.38C10.6599 17.072 8.5859 19.24 7.1599 21.1C6.4526 22.0191 5.81292 22.9883 5.2459 24C6.34663 25.9527 7.70627 27.7476 9.2879 29.336C12.3959 32.44 17.1639 35.498 23.9999 35.498H24.0159C26.3119 35.518 28.5899 35.142 30.7479 34.398L28.7679 32.218C26.8891 33.3114 24.692 33.7273 22.5436 33.3961C20.3951 33.065 18.4252 32.0069 16.9629 30.3985C15.5005 28.79 14.6341 26.7286 14.5084 24.5584C14.3826 22.3882 15.0051 20.2406 16.2719 18.474L13.4599 15.38ZM19.0759 21.556C18.5838 22.5475 18.4023 23.6644 18.5552 24.7607C18.708 25.8569 19.1881 26.8816 19.9326 27.7007C20.6771 28.5197 21.6515 29.0951 22.7282 29.3515C23.805 29.608 24.9341 29.5336 25.9679 29.138L19.0759 21.558V21.556Z" fill="black"/>
<path d="M2.9999 24L1.1719 23.186C1.05824 23.4423 0.999512 23.7196 0.999512 24C0.999512 24.2804 1.05824 24.5577 1.1719 24.814L2.9999 24Z" fill="black"/>
<path d="M19.7959 8.84002C21.1854 8.61077 22.5916 8.49705 23.9999 8.50001C32.1639 8.50001 37.8939 12.192 41.5379 15.836C43.0449 17.3471 44.3797 19.0207 45.5179 20.826C45.9573 21.5238 46.3611 22.2434 46.7279 22.982L46.7959 23.122L46.8159 23.164L46.8219 23.178L46.8239 23.186L45.9999 23.5547L44.9999 24L43.1719 23.188L43.1639 23.204C43.0788 23.3891 42.9874 23.5712 42.8899 23.75L42.7539 24C41.6531 22.0474 40.2935 20.2524 38.7119 18.664C35.6019 15.556 30.8319 12.498 23.9999 12.498H23.9959C22.8072 12.4964 21.6205 12.5934 20.4479 12.788C19.9287 12.8654 19.3998 12.7356 18.9755 12.4265C18.5512 12.1174 18.2654 11.6539 18.1798 11.1359C18.0942 10.618 18.2157 10.0871 18.518 9.65798C18.8204 9.22882 19.2794 8.93375 19.7959 8.84002Z" fill="black"/>
<path d="M44.9999 24L45.9999 24.4458L46.8279 24.812C46.9415 24.556 47.0002 24.2791 47.0002 23.999C47.0002 23.719 46.9415 23.442 46.8279 23.186L45.9999 23.5547L44.9999 24Z" fill="black"/>
<path fill-rule="evenodd" clip-rule="evenodd" d="M42.7539 24C41.4434 26.3276 39.7635 28.427 37.7799 30.216C37.3904 30.5713 37.1569 31.066 37.1303 31.5926C37.1036 32.1191 37.286 32.6349 37.6377 33.0277C37.9893 33.4205 38.4819 33.6585 39.0081 33.6901C39.5344 33.7216 40.0519 33.544 40.4479 33.196C42.2893 31.5387 43.9082 29.6496 45.2639 27.576C45.7951 26.7645 46.2792 25.9231 46.7139 25.056L46.7939 24.888L46.8139 24.838L46.8219 24.822L46.8259 24.818V24.814L45.9999 24.4458L44.9999 24L43.1719 24.814L43.1659 24.8C43.0954 24.6473 43.0207 24.4966 42.9419 24.348C42.8953 24.2594 42.848 24.1712 42.7999 24.0835C42.7846 24.0556 42.7693 24.0278 42.7539 24ZM42.7999 26V24.0835V22L45.9999 23V23.5547V24.4458V25L42.7999 26Z" fill="black"/>
<path d="M23.4479 16.256C23.5477 15.7352 23.8503 15.2753 24.2891 14.9775C24.7279 14.6797 25.267 14.5684 25.7879 14.668C27.807 15.0556 29.646 16.0875 31.029 17.6089C32.4119 19.1303 33.2642 21.0592 33.4579 23.106C33.4847 23.3685 33.4593 23.6336 33.3831 23.8862C33.307 24.1389 33.1816 24.3739 33.0142 24.5778C32.8469 24.7818 32.6408 24.9506 32.4079 25.0745C32.175 25.1985 31.9199 25.2751 31.6572 25.3001C31.3946 25.325 31.1296 25.2977 30.8775 25.2198C30.6255 25.1419 30.3913 25.0149 30.1886 24.8461C29.9858 24.6773 29.8185 24.47 29.6961 24.2362C29.5738 24.0025 29.499 23.7468 29.4759 23.484C29.3636 22.2987 28.8699 21.1818 28.069 20.3009C27.2681 19.4199 26.2032 18.8224 25.0339 18.598C24.776 18.5484 24.5304 18.4484 24.3111 18.3039C24.0918 18.1593 23.9031 17.973 23.7558 17.7555C23.6086 17.538 23.5056 17.2937 23.4527 17.0364C23.3999 16.7791 23.3983 16.5139 23.4479 16.256Z" fill="black"/>
<path d="M44.9999 24L43.1719 24.814L43.1659 24.8C43.0954 24.6473 43.0207 24.4966 42.9419 24.348C42.8953 24.2594 42.848 24.1712 42.7999 24.0835V26L45.9999 25V24.4458L44.9999 24Z" fill="black"/>
</svg>
