<svg width="48" height="48" viewBox="0 0 48 48" fill="none" xmlns="http://www.w3.org/2000/svg">
<path fill-rule="evenodd" clip-rule="evenodd" d="M14.5001 24C14.5001 21.4805 15.501 19.0641 17.2826 17.2825C19.0642 15.5009 21.4805 14.5 24.0001 14.5C26.5197 14.5 28.936 15.5009 30.7176 17.2825C32.4992 19.0641 33.5001 21.4805 33.5001 24C33.5001 26.5196 32.4992 28.936 30.7176 30.7176C28.936 32.4992 26.5197 33.5 24.0001 33.5C21.4805 33.5 19.0642 32.4992 17.2826 30.7176C15.501 28.936 14.5001 26.5196 14.5001 24ZM24.0001 18.5C23.2778 18.5 22.5626 18.6423 21.8953 18.9187C21.228 19.1951 20.6217 19.6002 20.111 20.111C19.6003 20.6217 19.1952 21.228 18.9188 21.8953C18.6424 22.5626 18.5001 23.2778 18.5001 24C18.5001 24.7223 18.6424 25.4375 18.9188 26.1048C19.1952 26.7721 19.6003 27.3784 20.111 27.8891C20.6217 28.3999 21.228 28.805 21.8953 29.0814C22.5626 29.3578 23.2778 29.5 24.0001 29.5C25.4588 29.5 26.8577 28.9206 27.8892 27.8891C28.9206 26.8577 29.5001 25.4587 29.5001 24C29.5001 22.5414 28.9206 21.1424 27.8892 20.111C26.8577 19.0795 25.4588 18.5 24.0001 18.5Z" fill="black"/>
<path fill-rule="evenodd" clip-rule="evenodd" d="M6.4601 15.836C10.1041 12.192 15.8341 8.49805 24.0001 8.49805C32.1661 8.49805 37.8961 12.192 41.5401 15.836C43.047 17.3466 44.3818 19.0194 45.5201 20.824C45.9603 21.5218 46.3648 22.2414 46.7321 22.98L46.7981 23.122L46.8181 23.164L46.8241 23.178L46.8281 23.186L45.0001 24C46.8281 24.812 46.8281 24.814 46.8261 24.814L46.8241 24.822L46.8181 24.836L46.7981 24.878L46.7301 25.018C46.3634 25.7567 45.9595 26.4762 45.5201 27.174C44.3818 28.9793 43.047 30.6528 41.5401 32.164C37.8961 35.804 32.1661 39.498 24.0001 39.498C15.8361 39.498 10.1041 35.806 6.4601 32.164C4.95312 30.6529 3.6183 28.9793 2.4801 27.174C2.04073 26.4769 1.63688 25.758 1.2701 25.02C1.24709 24.9735 1.22442 24.9269 1.2021 24.88L1.1821 24.836L1.1761 24.822V24.816H1.1721C1.1721 24.814 1.1721 24.812 2.9981 24C1.1701 23.188 1.1701 23.188 1.1721 23.186L1.1741 23.178L1.1801 23.164L1.2001 23.122L1.2681 22.982C1.63474 22.2434 2.03859 21.5238 2.4781 20.826C3.61633 19.0208 4.95115 17.3472 6.4581 15.836H6.4601ZM3.0001 24L1.1741 23.186C1.06043 23.4424 1.00171 23.7197 1.00171 24C1.00171 24.2804 1.06043 24.5577 1.1741 24.814L3.0001 24ZM5.2461 24C6.34683 25.9527 7.70647 27.7476 9.2881 29.336C12.3981 32.44 17.1681 35.496 24.0001 35.496C30.8361 35.496 35.6041 32.44 38.7101 29.334C40.2923 27.7464 41.6526 25.9522 42.7541 24C41.6534 22.0474 40.2937 20.2524 38.7121 18.664C35.6021 15.556 30.8321 12.498 24.0001 12.498C17.1681 12.498 12.3961 15.556 9.2901 18.664C7.70784 20.2524 6.34753 22.0473 5.2461 24ZM45.0001 24L46.8261 24.814C46.9398 24.5577 46.9985 24.2804 46.9985 24C46.9985 23.7197 46.9418 23.4424 46.8281 23.186L45.0001 24Z" fill="black"/>
</svg>
