<svg width="48" height="48" viewBox="0 0 48 48" fill="none" xmlns="http://www.w3.org/2000/svg">
<g clip-path="url(#clip0_5_144)">
<path fill-rule="evenodd" clip-rule="evenodd" d="M26.4 1.64041C40.6 1.64041 46 13.6404 46 21.2404C46 29.0404 39.8 36.2404 31.6 38.4404C31.8 39.2404 32.6 40.2404 34.2 42.0404C34.8 42.8404 34.8 44.0404 34 44.8404C33.2 45.4404 32 45.4404 31.2 44.6404C31.124 44.5492 31.0468 44.4568 30.9687 44.3633C30.0198 43.2275 28.9392 41.934 28.2 40.6404C27.8 40.4404 27.6 40.2404 27.4 39.8404C26 36.6404 25 34.0404 24.6 32.0404C24.2 29.6404 25.6 28.2404 26.8 27.0404C28 26.0404 28.6 25.2404 28.6 24.0404C28.6 23.3456 27.6948 22.9525 26.2775 22.337C26.063 22.2439 25.8367 22.1456 25.6 22.0404C25.4598 21.982 25.3182 21.9236 25.1757 21.8647C22.8783 20.9167 20.3299 19.8651 19.2 17.0404C18.2 14.4404 17.8 11.2404 18.4 7.44041C15.8 9.04041 14.2 11.6404 13.6 15.2404C13.6 15.8404 13.2 16.4404 12.8 16.8404C10.4 18.0404 8.79999 18.8404 7.8 19.4404C9.2 20.4404 10.6 22.0404 9.6 24.4404C9.47085 24.8279 9.2583 25.2153 9.01621 25.6566C8.8834 25.8987 8.7417 26.157 8.6 26.4404C7.8 28.0404 6.4 31.0404 7 32.0404C7.4 32.4404 8.6 32.6404 10 32.8404C11.8 33.0404 14.2 33.4404 16 34.8404C18.4 36.6404 20.2 39.4404 21.2 43.0404C21.4 44.0404 20.8 45.0404 19.8 45.4404H19.2C18.2 45.4404 17.4 44.8404 17.2 44.0404C16.2 41.2404 15 39.2404 13.2 38.2404C12.2 37.4404 10.8 37.2404 9.2 37.0404C8.95773 36.992 8.70959 36.9464 8.45807 36.9003C6.63322 36.5655 4.63041 36.1981 3.4 34.4404C1.4 31.6404 3.2 27.6404 4.6 24.8404C5 24.2404 5.2 23.6404 5.4 23.0404C5.2 22.6404 4.4 22.2404 4 22.0404C3.84 21.9204 3.672 21.8084 3.504 21.6964C2.832 21.2484 2.16 20.8004 2 19.8404C2 19.2404 2.2 18.4404 2.4 17.8404C2.42125 17.8192 2.4425 17.7973 2.46468 17.7746C2.86 17.3688 3.55063 16.6598 9.8 13.4404C11.2 7.64041 14.8 3.84041 20.4 2.44041C20.6 2.24041 20.8 2.24041 21 2.24041C22.6 1.84041 24.4 1.64041 26.4 1.64041ZM28.6 31.4404C28.8 32.4404 29.2 33.6404 29.8 35.0404C37.4 33.2404 42 26.6404 42 21.0404C42 15.0404 37.8 5.44041 26.4 5.44041C25.2 5.44041 24 5.64041 22.8 5.84041C22 10.0404 22 13.2404 22.8 15.6404C23.3208 16.8557 24.7459 17.4681 26.2902 18.1319C26.525 18.2328 26.7625 18.3349 27 18.4404C27.2249 18.5529 27.4568 18.6653 27.6925 18.7796C29.9716 19.8846 32.6 21.159 32.6 24.2404C32.6 27.0404 30.8 28.8404 29.6 30.0404C28.8 30.8404 28.6 31.2404 28.6 31.4404Z" fill="black"/>
<path d="M20.6 24.4404C20.6 23.2404 21.4 22.4404 22.6 22.4404C23.6 22.4404 24.6 23.4404 24.6 24.4404C24.6 26.4404 23.8 28.2404 22.4 29.6404C20.2 32.0404 17.2 32.0404 17 32.0404C15.8 32.0404 15 31.2404 15 30.0404C15 29.0404 16 28.0404 17 28.0404C17.2 28.0404 18.6 27.8404 19.6 26.8404C20.2 26.2404 20.6 25.4404 20.6 24.4404Z" fill="black"/>
</g>
<defs>
<clipPath id="clip0_5_144">
<rect width="24" height="24" fill="white" transform="scale(2)"/>
</clipPath>
</defs>
</svg>
