<svg width="48" height="48" viewBox="0 0 48 48" fill="none" xmlns="http://www.w3.org/2000/svg">
<path d="M16 15C16 14.4477 16.4477 14 17 14H19C19.5523 14 20 14.4477 20 15V17C20 17.5523 19.5523 18 19 18H17C16.4477 18 16 17.5523 16 17V15Z" fill="black"/>
<path d="M21 18C20.4477 18 20 18.4477 20 19V21C20 21.5523 20.4477 22 21 22H23C23.5523 22 24 21.5523 24 21V19C24 18.4477 23.5523 18 23 18H21Z" fill="black"/>
<path d="M17 22C16.4477 22 16 22.4477 16 23V25C16 25.5523 16.4477 26 17 26H19C19.5523 26 20 25.5523 20 25V23C20 22.4477 19.5523 22 19 22H17Z" fill="black"/>
<path d="M21 26C20.4477 26 20 26.4477 20 27V29C20 29.5523 20.4477 30 21 30H23C23.5523 30 24 29.5523 24 29V27C24 26.4477 23.5523 26 23 26H21Z" fill="black"/>
<path d="M17 30C16.4477 30 16 30.4477 16 31V33C16 33.5523 16.4477 34 17 34H19C19.5523 34 20 33.5523 20 33V31C20 30.4477 19.5523 30 19 30H17Z" fill="black"/>
<path d="M21 34C20.4477 34 20 34.4477 20 35V37C20 37.5523 20.4477 38 21 38H23C23.5523 38 24 37.5523 24 37V35C24 34.4477 23.5523 34 23 34H21Z" fill="black"/>
<path d="M20 11C20 10.4477 20.4477 10 21 10H23C23.5523 10 24 10.4477 24 11V13C24 13.5523 23.5523 14 23 14H21C20.4477 14 20 13.5523 20 13V11Z" fill="black"/>
<path fill-rule="evenodd" clip-rule="evenodd" d="M14 2C9.58172 2 6 5.58172 6 10V38C6 42.4183 9.58172 46 14 46H34C38.4183 46 42 42.4183 42 38V13.3137C42 11.192 41.1571 9.15715 39.6569 7.65686L36.3431 4.34315C34.8429 2.84286 32.808 2 30.6863 2H14ZM34 42C36.2091 42 38 40.2091 38 38V16H34C30.6863 16 28 13.3137 28 10V6H19C19.5523 6 20 6.44772 20 7V9C20 9.55229 19.5523 10 19 10H17C16.4477 10 16 9.55229 16 9V7C16 6.44772 16.4477 6 17 6H14C11.7909 6 10 7.79086 10 10V38C10 40.2091 11.7909 42 14 42H17C16.4477 42 16 41.5523 16 41V39C16 38.4477 16.4477 38 17 38H19C19.5523 38 20 38.4477 20 39V41C20 41.5523 19.5523 42 19 42H34ZM36.8284 10.4853C37.2593 10.9162 37.5817 11.4352 37.7781 12H34C32.8954 12 32 11.1046 32 10V6.22188C32.5648 6.41828 33.0839 6.74071 33.5147 7.17157L36.8284 10.4853Z" fill="black"/>
</svg>
