<svg width="24" height="24" viewBox="0 0 24 24" fill="none" xmlns="http://www.w3.org/2000/svg">
<path d="M12 9C11.8687 9 11.7386 9.02587 11.6173 9.07612C11.496 9.12638 11.3858 9.20004 11.2929 9.29289C11.2 9.38575 11.1264 9.49599 11.0761 9.61732C11.0259 9.73864 11 9.86868 11 10V14C11 14.2652 11.1054 14.5196 11.2929 14.7071C11.4804 14.8946 11.7348 15 12 15C12.2652 15 12.5196 14.8946 12.7071 14.7071C12.8946 14.5196 13 14.2652 13 14V10C13 9.73478 12.8946 9.48043 12.7071 9.29289C12.5196 9.10536 12.2652 9 12 9Z" fill="black"/>
<path d="M12 16C11.8687 16 11.7386 16.0258 11.6173 16.0761C11.4959 16.1263 11.3857 16.2 11.2928 16.2928C11.1999 16.3857 11.1262 16.4959 11.076 16.6173C11.0257 16.7386 10.9998 16.8687 10.9998 17C10.9998 17.1313 11.0257 17.2614 11.076 17.3827C11.1262 17.5041 11.1999 17.6143 11.2928 17.7072C11.3857 17.8 11.4959 17.8737 11.6173 17.9239C11.7386 17.9742 11.8687 18 12 18C12.2652 18 12.5195 17.8946 12.707 17.7071C12.8945 17.5195 12.9998 17.2652 12.9998 17C12.9998 16.7348 12.8945 16.4805 12.707 16.2929C12.5195 16.1054 12.2652 16 12 16Z" fill="black"/>
<path fill-rule="evenodd" clip-rule="evenodd" d="M3 5C3 3.93913 3.42143 2.92172 4.17157 2.17157C4.92172 1.42143 5.93913 1 7 1H15.343C15.8684 0.999981 16.3887 1.10347 16.8741 1.30457C17.3595 1.50566 17.8005 1.80042 18.172 2.172L19.828 3.828C20.1996 4.19947 20.4943 4.6405 20.6954 5.12591C20.8965 5.61132 21 6.13159 21 6.657V19C21 20.0609 20.5786 21.0783 19.8284 21.8284C19.0783 22.5786 18.0609 23 17 23H7C5.93913 23 4.92172 22.5786 4.17157 21.8284C3.42143 21.0783 3 20.0609 3 19V5ZM19 8H17C16.2044 8 15.4413 7.68393 14.8787 7.12132C14.3161 6.55871 14 5.79565 14 5V3H7C6.73736 3 6.47728 3.05173 6.23463 3.15224C5.99198 3.25275 5.7715 3.40007 5.58579 3.58579C5.40007 3.7715 5.25275 3.99198 5.15224 4.23463C5.05173 4.47728 5 4.73736 5 5V19C5 19.2626 5.05173 19.5227 5.15224 19.7654C5.25275 20.008 5.40007 20.2285 5.58579 20.4142C5.7715 20.5999 5.99198 20.7473 6.23463 20.8478C6.47728 20.9483 6.73736 21 7 21H17C17.2626 21 17.5227 20.9483 17.7654 20.8478C18.008 20.7473 18.2285 20.5999 18.4142 20.4142C18.5999 20.2285 18.7472 20.008 18.8478 19.7654C18.9483 19.5227 19 19.2626 19 19V8ZM18.89 6C18.7905 5.71498 18.6278 5.45617 18.414 5.243L16.757 3.586C16.5438 3.37223 16.285 3.2095 16 3.11V5C16 5.26522 16.1054 5.51957 16.2929 5.70711C16.4804 5.89464 16.7348 6 17 6H18.89Z" fill="black"/>
</svg>
