<svg width="48" height="48" viewBox="0 0 48 48" fill="none" xmlns="http://www.w3.org/2000/svg">
<path d="M6 10C6 7.87827 6.84285 5.84344 8.34315 4.34315C9.84344 2.84285 11.8783 2 14 2H30.686C31.7368 1.99996 32.7774 2.20695 33.7482 2.60914C34.719 3.01133 35.6011 3.60084 36.344 4.344L39.656 7.656C40.3992 8.39894 40.9887 9.281 41.3909 10.2518C41.793 11.2226 42 12.2632 42 13.314V38C42 40.1217 41.1571 42.1566 39.6569 43.6569C38.1566 45.1572 36.1217 46 34 46H14C11.8783 46 9.84344 45.1572 8.34315 43.6569C6.84285 42.1566 6 40.1217 6 38V10ZM38 16H34C32.4087 16 30.8826 15.3679 29.7574 14.2426C28.6321 13.1174 28 11.5913 28 10V6H14C13.4747 6 12.9546 6.10346 12.4693 6.30448C11.984 6.5055 11.543 6.80014 11.1716 7.17157C10.8001 7.54301 10.5055 7.98396 10.3045 8.46927C10.1035 8.95457 10 9.47471 10 10V38C10 38.5253 10.1035 39.0454 10.3045 39.5307C10.5055 40.016 10.8001 40.457 11.1716 40.8284C11.543 41.1999 11.984 41.4945 12.4693 41.6955C12.9546 41.8965 13.4747 42 14 42H34C34.5253 42 35.0454 41.8965 35.5307 41.6955C36.016 41.4945 36.457 41.1999 36.8284 40.8284C37.1999 40.457 37.4945 40.016 37.6955 39.5307C37.8965 39.0454 38 38.5253 38 38V16ZM37.78 12C37.581 11.43 37.2555 10.9123 36.828 10.486L33.514 7.172C33.0877 6.74447 32.57 6.419 32 6.22V10C32 10.5304 32.2107 11.0391 32.5858 11.4142C32.9609 11.7893 33.4696 12 34 12H37.78Z" fill="black"/>
</svg>
