<svg width="48" height="48" viewBox="0 0 48 48" fill="none" xmlns="http://www.w3.org/2000/svg">
<path fill-rule="evenodd" clip-rule="evenodd" d="M31.9999 28.6056C31.9999 28.2107 32.1168 27.8247 32.3358 27.4962L41.7811 13.3282C44.4393 9.34087 41.581 4 36.7888 4H11.211C6.41885 4 3.5605 9.34087 6.21871 13.3282L15.664 27.4962C15.883 27.8247 15.9999 28.2107 15.9999 28.6056V39.1745C15.9999 43.8871 21.1836 46.7602 25.1799 44.2625L29.1799 41.7625C30.9342 40.6661 31.9999 38.7433 31.9999 36.6745V28.6056ZM27.9999 27.3944C27.9999 26.9996 28.1168 26.6136 28.3358 26.285L38.4529 11.1094C39.339 9.78029 38.3862 8 36.7888 8H11.211C9.61362 8 8.66085 9.78029 9.54692 11.1094L19.664 26.285C19.883 26.6136 19.9999 26.9996 19.9999 27.3944V39.1745C19.9999 40.7454 21.7278 41.7031 23.0599 40.8705L27.0599 38.3705C27.6447 38.005 27.9999 37.3641 27.9999 36.6745V27.3944Z" fill="black"/>
</svg>
