<svg width="48" height="48" viewBox="0 0 48 48" fill="none" xmlns="http://www.w3.org/2000/svg">
<path d="M22 18C22 19.0609 21.5786 20.0783 20.8284 20.8284C20.0783 21.5786 19.0609 22 18 22C16.9391 22 15.9217 21.5786 15.1716 20.8284C14.4214 20.0783 14 19.0609 14 18C14 16.9391 14.4214 15.9217 15.1716 15.1716C15.9217 14.4214 16.9391 14 18 14C19.0609 14 20.0783 14.4214 20.8284 15.1716C21.5786 15.9217 22 16.9391 22 18Z" fill="black"/>
<path fill-rule="evenodd" clip-rule="evenodd" d="M4.738 13.084C5.00438 10.9634 5.96935 8.99189 7.48062 7.48062C8.99189 5.96935 10.9634 5.00438 13.084 4.738C16.104 4.338 19.884 4 24 4C28.118 4 31.896 4.34 34.916 4.738C37.0366 5.00438 39.0081 5.96935 40.5194 7.48062C42.0306 8.99189 42.9956 10.9634 43.262 13.084C43.662 16.104 44 19.884 44 24C44 28.118 43.66 31.896 43.262 34.916C42.9956 37.0366 42.0306 39.0081 40.5194 40.5194C39.0081 42.0306 37.0366 42.9956 34.916 43.262C31.896 43.662 28.116 44 24 44C19.882 44 16.104 43.66 13.084 43.262C10.9634 42.9956 8.99189 42.0306 7.48062 40.5194C5.96935 39.0081 5.00438 37.0366 4.738 34.916C4.338 31.896 4 28.116 4 24C4 19.882 4.34 16.104 4.738 13.084ZM13.608 8.704C12.36 8.85541 11.1987 9.42076 10.3097 10.3097C9.42076 11.1987 8.85541 12.36 8.704 13.608C8.24436 17.0531 8.0092 20.5244 8 24C8 27.904 8.322 31.504 8.704 34.392C8.85507 35.6402 9.42031 36.8016 10.3093 37.6907C11.1984 38.5797 12.3598 39.1449 13.608 39.296C16.496 39.68 20.096 40 24 40C27.904 40 31.504 39.678 34.392 39.296C35.6402 39.1449 36.8016 38.5797 37.6907 37.6907C38.5797 36.8016 39.1449 35.6402 39.296 34.392L39.328 34.156L33.414 28.242C33.0389 27.8671 32.5303 27.6564 32 27.6564C31.4697 27.6564 30.9611 27.8671 30.586 28.242L26.242 32.586C25.1168 33.7108 23.591 34.3427 22 34.3427C20.409 34.3427 18.8832 33.7108 17.758 32.586L17.414 32.244C17.0389 31.8691 16.5303 31.6584 16 31.6584C15.4697 31.6584 14.9611 31.8691 14.586 32.244L9.766 37.062C9.19135 36.2764 8.8259 35.3576 8.704 34.392C8.632 33.846 8.562 33.272 8.496 32.676L11.756 29.416C12.3132 28.8587 12.9746 28.4167 13.7027 28.1151C14.4307 27.8135 15.211 27.6583 15.999 27.6583C16.787 27.6583 17.5673 27.8135 18.2953 28.1151C19.0234 28.4167 19.6848 28.8587 20.242 29.416L20.586 29.756C20.9611 30.1309 21.4697 30.3416 22 30.3416C22.5303 30.3416 23.0389 30.1309 23.414 29.756L27.758 25.416C28.8832 24.2912 30.409 23.6593 32 23.6593C33.591 23.6593 35.1168 24.2912 36.242 25.416L39.832 29.002C39.936 27.42 40 25.742 40 24C40 20.096 39.678 16.496 39.296 13.608C39.1446 12.36 38.5792 11.1987 37.6903 10.3097C36.8013 9.42076 35.64 8.85541 34.392 8.704C30.9469 8.24437 27.4756 8.00921 24 8C20.096 8 16.496 8.322 13.608 8.704Z" fill="black"/>
</svg>
