<svg width="48" height="48" viewBox="0 0 48 48" fill="none" xmlns="http://www.w3.org/2000/svg">
<path fill-rule="evenodd" clip-rule="evenodd" d="M24.5 2C12.0736 2 2 12.0736 2 24.5C2 36.9264 12.0736 47 24.5 47C30.6619 47 36.2487 44.5203 40.3102 40.5091C40.6876 40.1363 40.9015 39.6289 40.9048 39.0984C40.908 38.5679 40.7004 38.0578 40.3275 37.6805L26.8222 24.0109L39.924 10.9528C40.3081 10.5699 40.5203 10.0475 40.5119 9.50523C40.5035 8.96296 40.2752 8.44736 39.8794 8.07659C35.858 4.30949 30.4465 2 24.5 2ZM6 24.5C6 14.2828 14.2828 6 24.5 6C28.6444 6 32.4679 7.36092 35.5521 9.66258L22.5881 22.5834C21.8082 23.3608 21.8034 24.6223 22.5773 25.4056L36.0005 38.9921C32.842 41.5024 28.8473 43 24.5 43C14.2828 43 6 34.7172 6 24.5ZM40 18C36.6863 18 34 20.6863 34 24C34 27.3137 36.6863 30 40 30C43.3137 30 46 27.3137 46 24C46 20.6863 43.3137 18 40 18ZM38 24C38 22.8955 38.8955 22 40 22C41.1045 22 42 22.8955 42 24C42 25.1045 41.1045 26 40 26C38.8955 26 38 25.1045 38 24ZM17 11C18.1046 11 19 11.8954 19 13V15H21C22.1046 15 23 15.8954 23 17C23 18.1046 22.1046 19 21 19H19V21C19 22.1046 18.1046 23 17 23C15.8954 23 15 22.1046 15 21V19H13C11.8954 19 11 18.1046 11 17C11 15.8954 11.8954 15 13 15H15V13C15 11.8954 15.8954 11 17 11Z" fill="black"/>
</svg>
