<svg width="48" height="48" viewBox="0 0 48 48" fill="none" xmlns="http://www.w3.org/2000/svg">
<path fill-rule="evenodd" clip-rule="evenodd" d="M28.4841 2C27.378 1.99961 26.2957 2.32079 25.3689 2.92445C24.4421 3.52811 23.7109 4.3882 23.2641 5.4C22.3975 5.03953 21.4554 4.89854 20.5213 4.98953C19.5872 5.08052 18.6899 5.40068 17.9092 5.92161C17.1285 6.44254 16.4885 7.14812 16.0459 7.97575C15.6033 8.80338 15.3719 9.72746 15.3721 10.666V22.696L15.0441 22.126C14.2978 20.81 13.0592 19.8444 11.601 19.4415C10.1427 19.0387 8.58409 19.2317 7.26809 19.978C5.95208 20.7243 4.98645 21.9629 4.58362 23.4211C4.1808 24.8794 4.37377 26.438 5.12009 27.754C8.11609 34.068 10.6601 38.634 13.6141 41.6C16.7321 44.724 20.2281 46 24.7801 46C29.2393 45.9995 33.5157 44.2278 36.6688 41.0747C39.8219 37.9216 41.5936 33.6452 41.5941 29.186V13.63C41.5942 12.735 41.3836 11.8526 40.9795 11.054C40.5754 10.2554 39.989 9.56318 39.2678 9.03319C38.5467 8.5032 37.7109 8.15035 36.8281 8.00318C35.9453 7.856 35.0402 7.91863 34.1861 8.186V7.704C34.1861 6.19155 33.5854 4.74102 32.5161 3.67137C31.4469 2.60172 29.9965 2.00053 28.4841 2ZM30.6321 24.518C30.8924 24.8393 31.2458 25.072 31.6438 25.1841C32.0418 25.2962 32.4647 25.2822 32.8544 25.144C33.2441 25.0059 33.5814 24.7503 33.8199 24.4126C34.0583 24.0748 34.1863 23.6715 34.1861 23.258V13.62C34.1877 13.1681 34.3687 12.7353 34.6894 12.4168C35.0101 12.0984 35.4442 11.9204 35.8961 11.922C36.348 11.9236 36.7808 12.1046 37.0992 12.4253C37.4177 12.746 37.5957 13.1801 37.5941 13.632V29.188C37.593 32.586 36.2426 35.8444 33.8397 38.247C31.4367 40.6495 28.1781 41.9995 24.7801 42C21.1481 42 18.7201 41.052 16.4481 38.774C14.0261 36.346 11.7261 32.35 8.70409 25.974C8.68075 25.925 8.65539 25.8769 8.62809 25.83C8.51178 25.636 8.43528 25.4207 8.40302 25.1968C8.37077 24.9729 8.38343 24.7449 8.44025 24.5259C8.49706 24.3069 8.59691 24.1015 8.73396 23.9215C8.87101 23.7416 9.04252 23.5907 9.2385 23.4777C9.43447 23.3647 9.65097 23.2919 9.87539 23.2634C10.0998 23.235 10.3276 23.2515 10.5456 23.312C10.7636 23.3726 10.9673 23.4759 11.1449 23.616C11.3225 23.7561 11.4704 23.9301 11.5801 24.128L15.6401 31.16C15.8602 31.5413 16.2 31.8392 16.6068 32.0077C17.0135 32.1762 17.4645 32.2057 17.8897 32.0918C18.315 31.9778 18.6908 31.7267 18.9588 31.3775C19.2268 31.0282 19.3721 30.6003 19.3721 30.16V10.666C19.3721 10.2141 19.5516 9.78065 19.8712 9.46109C20.1907 9.14153 20.6242 8.962 21.0761 8.962C21.528 8.962 21.9614 9.14153 22.281 9.46109C22.6006 9.78065 22.7801 10.2141 22.7801 10.666V23.26C22.7793 23.5229 22.8305 23.7833 22.9307 24.0263C23.0309 24.2693 23.1782 24.4901 23.3641 24.676C23.55 24.8619 23.7708 25.0091 24.0138 25.1094C24.2568 25.2096 24.5172 25.2608 24.7801 25.26C25.3105 25.26 25.8192 25.0493 26.1943 24.6742C26.5694 24.2991 26.7801 23.7904 26.7801 23.26V7.704C26.7952 7.26244 26.9813 6.84402 27.299 6.537C27.6167 6.22998 28.0413 6.05837 28.4831 6.05837C28.9249 6.05837 29.3495 6.22998 29.6672 6.537C29.9849 6.84402 30.171 7.26244 30.1861 7.704V23.26C30.1858 23.7181 30.3433 24.1624 30.6321 24.518Z" fill="black"/>
</svg>
