<svg width="48" height="48" viewBox="0 0 48 48" fill="none" xmlns="http://www.w3.org/2000/svg">
<path fill-rule="evenodd" clip-rule="evenodd" d="M4 19.838C4 12.4 9.46 6 16.636 6C19.404 6 21.944 6.972 24 8.588C26.0926 6.91957 28.6877 6.00753 31.364 6C38.538 6 44 12.4 44 19.838C44 26.354 40.78 31.34 37.104 34.892C33.444 38.432 29.2 40.678 26.774 41.788C25.9048 42.1912 24.9582 42.4001 24 42.4001C23.0418 42.4001 22.0952 42.1912 21.226 41.788C18.8 40.68 14.56 38.432 10.894 34.892C7.22 31.34 4 26.352 4 19.838ZM16.636 10C12.062 10 8 14.198 8 19.838C8 24.918 10.484 28.932 13.674 32.016C16.878 35.11 20.666 37.132 22.892 38.152C23.616 38.482 24.384 38.482 25.108 38.152C27.334 37.132 31.122 35.112 34.326 32.016C37.516 28.932 40 24.918 40 19.836C40 14.198 35.938 10 31.364 10C29.114 10 27.032 10.984 25.46 12.662C25.2729 12.8618 25.0468 13.0211 24.7957 13.13C24.5445 13.2389 24.2737 13.2951 24 13.2951C23.7263 13.2951 23.4555 13.2389 23.2043 13.13C22.9532 13.0211 22.7271 12.8618 22.54 12.662C20.968 10.982 18.886 10 16.636 10Z" fill="black"/>
</svg>
