<svg width="48" height="48" viewBox="0 0 48 48" fill="none" xmlns="http://www.w3.org/2000/svg">
<path d="M31.5005 24.8279L30.4142 25.9142C29.6332 26.6953 28.3668 26.6953 27.5858 25.9142C26.8047 25.1332 26.8047 23.8668 27.5858 23.0858L32.0858 18.5858C32.8668 17.8047 34.1332 17.8047 34.9142 18.5858L39.4142 23.0858C40.1953 23.8668 40.1953 25.1332 39.4142 25.9142C38.6332 26.6953 37.3668 26.6953 36.5858 25.9142L35.5005 24.8289V34.0083C35.5005 35.1129 34.6051 36.0083 33.5005 36.0083H24.8367L25.9142 37.0858C26.6953 37.8668 26.6953 39.1332 25.9142 39.9142C25.1332 40.6953 23.8668 40.6953 23.0858 39.9142L18.5858 35.4142C17.8047 34.6332 17.8047 33.3668 18.5858 32.5858L23.0858 28.0858C23.8668 27.3047 25.1332 27.3047 25.9142 28.0858C26.6953 28.8668 26.6953 30.1332 25.9142 30.9142L24.8201 32.0083H31.5005V24.8279Z" fill="black"/>
<path d="M6 2C3.79082 2 1.99994 3.79092 2 6.0001L2.00005 7.98507C2.00002 7.99004 2 7.99502 2 8V18C2 18.0123 2.00011 18.0245 2.00033 18.0368L2.00099 42.0002C2.00105 44.2092 3.79193 46 6.00099 46H42.0004C44.2095 46 46.0004 44.2092 46.0004 42V6C46.0004 3.79088 44.2095 2 42.0004 2H6ZM42.0004 42H16V16.0265L42 16.0019V18L42.0004 18.0378V42ZM42.0004 6V7.96215L42 8V12.0019L16 12.0265V6L42.0004 6ZM12 42H6.00099L6.00028 16.0359L12 16.0302V42ZM6 6L12 6V12.0302L6.00017 12.0359L6 6Z" fill="black"/>
</svg>
