<svg width="48" height="48" viewBox="0 0 48 48" fill="none" xmlns="http://www.w3.org/2000/svg">
<path d="M16 22C17.1046 22 18 21.1046 18 20C18 18.8954 17.1046 18 16 18C14.8954 18 14 18.8954 14 20C14 21.1046 14.8954 22 16 22Z" fill="black"/>
<path d="M24 18C22.8954 18 22 18.8954 22 20C22 21.1046 22.8954 22 24 22H32C33.1046 22 34 21.1046 34 20C34 18.8954 33.1046 18 32 18H24Z" fill="black"/>
<path d="M22 28C22 26.8954 22.8954 26 24 26H32C33.1046 26 34 26.8954 34 28C34 29.1046 33.1046 30 32 30H24C22.8954 30 22 29.1046 22 28Z" fill="black"/>
<path d="M22 36C22 34.8954 22.8954 34 24 34H28C29.1046 34 30 34.8954 30 36C30 37.1046 29.1046 38 28 38H24C22.8954 38 22 37.1046 22 36Z" fill="black"/>
<path d="M16 30C17.1046 30 18 29.1046 18 28C18 26.8954 17.1046 26 16 26C14.8954 26 14 26.8954 14 28C14 29.1046 14.8954 30 16 30Z" fill="black"/>
<path d="M16 38C17.1046 38 18 37.1046 18 36C18 34.8954 17.1046 34 16 34C14.8954 34 14 34.8954 14 36C14 37.1046 14.8954 38 16 38Z" fill="black"/>
<path fill-rule="evenodd" clip-rule="evenodd" d="M12.2793 6.18552C13.0483 3.75873 15.3187 2 18 2H30C32.6813 2 34.9517 3.75874 35.7207 6.18552C39.312 6.97271 42 10.1724 42 14V38C42 42.4183 38.4183 46 34 46H14C9.58172 46 6 42.4183 6 38V14C6 10.1724 8.68799 6.97271 12.2793 6.18552ZM18 6H30C31.1046 6 32 6.89543 32 8C32 9.10457 31.1046 10 30 10H18C16.8954 10 16 9.10457 16 8C16 6.89543 16.8954 6 18 6ZM12.4597 10.3073C11.0152 10.9106 10 12.3367 10 14V38C10 40.2091 11.7909 42 14 42H34C36.2091 42 38 40.2091 38 38V14C38 12.3367 36.9848 10.9106 35.5403 10.3073C34.6362 12.4758 32.4961 14 30 14H18C15.5039 14 13.3638 12.4758 12.4597 10.3073Z" fill="black"/>
</svg>
