<svg width="48" height="48" viewBox="0 0 48 48" fill="none" xmlns="http://www.w3.org/2000/svg">
<rect width="48" height="48" rx="12" fill="black" fill-opacity="0.32"/>
<path d="M12.5 23C12.5 21.8954 13.3954 21 14.5 21C15.6046 21 16.5 21.8954 16.5 23V32H25.5C26.6046 32 27.5 32.8954 27.5 34C27.5 35.1046 26.6046 36 25.5 36H14.5C13.3954 36 12.5 35.1046 12.5 34V23Z" fill="white"/>
<path d="M31.5 25V16H22.5C21.3954 16 20.5 15.1046 20.5 14C20.5 12.8954 21.3954 12 22.5 12H33.5C34.6046 12 35.5 12.8954 35.5 14V25C35.5 26.1046 34.6046 27 33.5 27C32.3954 27 31.5 26.1046 31.5 25Z" fill="white"/>
</svg>
