<svg width="48" height="48" viewBox="0 0 48 48" fill="none" xmlns="http://www.w3.org/2000/svg">
<path fill-rule="evenodd" clip-rule="evenodd" d="M8.34142 33C9.16511 30.6696 11.3876 29 14 29C16.6124 29 18.8349 30.6696 19.6586 33H27.3414C28.1651 30.6696 30.3876 29 33 29C35.6124 29 37.8349 30.6696 38.6586 33H44C45.1046 33 46 33.8954 46 35C46 36.1046 45.1046 37 44 37H38.6586C37.8349 39.3304 35.6124 41 33 41C30.3876 41 28.1651 39.3304 27.3414 37H19.6586C18.8349 39.3304 16.6124 41 14 41C11.3876 41 9.16511 39.3304 8.34142 37H4C2.89543 37 2 36.1046 2 35C2 33.8954 2.89543 33 4 33H8.34142ZM35 35C35 33.8955 34.1045 33 33 33C31.8955 33 31 33.8955 31 35C31 36.1045 31.8955 37 33 37C34.1045 37 35 36.1045 35 35ZM14 33C15.1045 33 16 33.8955 16 35C16 36.1045 15.1045 37 14 37C12.8955 37 12 36.1045 12 35C12 33.8955 12.8955 33 14 33Z" fill="black"/>
<path d="M39.4142 5.58579C38.6332 4.80474 37.3668 4.80474 36.5858 5.58579C35.8047 6.36683 35.8047 7.63317 36.5858 8.41421L39.1716 11H4C2.89543 11 2 11.8954 2 13C2 14.1046 2.89543 15 4 15H39.1716L36.5858 17.5858C35.8047 18.3668 35.8047 19.6332 36.5858 20.4142C37.3668 21.1953 38.6332 21.1953 39.4142 20.4142L45.4142 14.4142C45.8 14.0284 45.9953 13.5241 45.9999 13.0185" fill="black"/>
<path d="M45.8482 12.2344C45.7506 11.9985 45.606 11.7775 45.4142 11.5858L39.4142 5.58579" fill="black"/>
<path d="M45.8482 12.2344C45.9438 12.4649 45.9975 12.7171 45.9999 12.9815L45.8482 12.2344Z" fill="black"/>
</svg>
