<svg width="48" height="48" viewBox="0 0 48 48" fill="none" xmlns="http://www.w3.org/2000/svg">
<path fill-rule="evenodd" clip-rule="evenodd" d="M45.4142 5.41421C46.1953 4.63317 46.1953 3.36683 45.4142 2.58579C44.6332 1.80474 43.3668 1.80474 42.5858 2.58579L22.5858 22.5858C21.8047 23.3668 21.8047 24.6332 22.5858 25.4142C23.3668 26.1953 24.6332 26.1953 25.4142 25.4142L45.4142 5.41421ZM2 24C2 11.8497 11.8497 2 24 2C27.8088 2 31.3971 2.96959 34.5256 4.67698C35.4952 5.20613 35.8522 6.42109 35.3231 7.39066C34.7939 8.36024 33.579 8.71727 32.6094 8.18812C30.0539 6.79343 27.1226 6 24 6C14.0589 6 6 14.0589 6 24C6 33.9411 14.0589 42 24 42C33.9411 42 42 33.9411 42 24C42 20.8774 41.2066 17.9461 39.8119 15.3906C39.2828 14.421 39.6398 13.2061 40.6094 12.6769C41.579 12.1478 42.7939 12.5048 43.3231 13.4744C45.0304 16.6029 46 20.1912 46 24C46 36.1503 36.1503 46 24 46C11.8497 46 2 36.1503 2 24ZM24 9C15.7157 9 9 15.7157 9 24C9 32.2843 15.7157 39 24 39C32.2843 39 39 32.2843 39 24C39 22.2737 38.7075 20.6114 38.168 19.0627C37.8045 18.0196 36.6644 17.4686 35.6213 17.832C34.5782 18.1955 34.0272 19.3356 34.3906 20.3787C34.7849 21.5102 35 22.7279 35 24C35 30.0751 30.0751 35 24 35C17.9249 35 13 30.0751 13 24C13 17.9249 17.9249 13 24 13C25.2721 13 26.4898 13.2151 27.6213 13.6094C28.6644 13.9728 29.8045 13.4218 30.168 12.3787C30.5314 11.3356 29.9804 10.1955 28.9373 9.83205C27.3886 9.29246 25.7263 9 24 9ZM22.2792 20.3874C23.2759 19.9114 23.698 18.7175 23.2219 17.7207C22.7458 16.724 21.5519 16.302 20.5552 16.778C17.8652 18.0629 16 20.8115 16 23.9998C16 28.4181 19.5817 31.9998 24 31.9998C27.1883 31.9998 29.937 30.1346 31.2219 27.4448C31.698 26.4481 31.2759 25.2541 30.2792 24.778C29.2825 24.302 28.0886 24.724 27.6125 25.7207C26.9668 27.0726 25.5897 27.9998 24 27.9998C21.7909 27.9998 20 26.209 20 23.9998C20 22.4102 20.9272 21.0332 22.2792 20.3874Z" fill="black"/>
</svg>
