<svg width="48" height="48" viewBox="0 0 48 48" fill="none" xmlns="http://www.w3.org/2000/svg">
<path fill-rule="evenodd" clip-rule="evenodd" d="M23 6V20H6V6H23ZM42 28V42H25V28H42ZM31 6V20H42V6H31ZM6 42V28H17V42H6Z" fill="black"/>
<path fill-rule="evenodd" clip-rule="evenodd" d="M4 6C4 4.89543 4.89543 4 6 4H23C24.1046 4 25 4.89543 25 6V20C25 21.1046 24.1046 22 23 22H6C4.89543 22 4 21.1046 4 20V6ZM8 8V18H21V8H8ZM29 6C29 4.89543 29.8954 4 31 4H42C43.1046 4 44 4.89543 44 6V20C44 21.1046 43.1046 22 42 22H31C29.8954 22 29 21.1046 29 20V6ZM33 8V18H40V8H33ZM4 28C4 26.8954 4.89543 26 6 26H17C18.1046 26 19 26.8954 19 28V42C19 43.1046 18.1046 44 17 44H6C4.89543 44 4 43.1046 4 42V28ZM8 30V40H15V30H8ZM23 28C23 26.8954 23.8954 26 25 26H42C43.1046 26 44 26.8954 44 28V42C44 43.1046 43.1046 44 42 44H25C23.8954 44 23 43.1046 23 42V28ZM27 30V40H40V30H27Z" fill="black"/>
</svg>
