<svg width="48" height="48" viewBox="0 0 48 48" fill="none" xmlns="http://www.w3.org/2000/svg">
<path fill-rule="evenodd" clip-rule="evenodd" d="M18.4142 20.4142C17.6332 21.1953 16.3668 21.1953 15.5858 20.4142C14.8047 19.6332 14.8047 18.3668 15.5858 17.5858L22.5858 10.5858C23.3668 9.80474 24.6332 9.80474 25.4142 10.5858L32.4142 17.5858C33.1953 18.3668 33.1953 19.6332 32.4142 20.4142C31.6332 21.1953 30.3668 21.1953 29.5858 20.4142L24 14.8284L18.4142 20.4142ZM29.5858 27.5858C30.3668 26.8047 31.6332 26.8047 32.4142 27.5858C33.1953 28.3668 33.1953 29.6332 32.4142 30.4142L25.4142 37.4142C24.6332 38.1953 23.3668 38.1953 22.5858 37.4142L15.5858 30.4142C14.8047 29.6332 14.8047 28.3668 15.5858 27.5858C16.3668 26.8047 17.6332 26.8047 18.4142 27.5858L24 33.1716L29.5858 27.5858Z" fill="black"/>
</svg>
