<svg width="48" height="48" viewBox="0 0 48 48" fill="none" xmlns="http://www.w3.org/2000/svg">
<path d="M18.1848 2.68566C18.989 1.88167 20.0135 1.33418 21.1289 1.11239C22.2442 0.890598 23.4002 1.00447 24.4508 1.43962C25.5014 1.87476 26.3995 2.61164 27.0313 3.55708C27.6632 4.50253 28.0006 5.6141 28.0008 6.75126V13.2721C29.2446 12.8737 30.5871 12.9109 31.8069 13.3778C33.0267 13.8446 34.0511 14.7131 34.7112 15.8401C35.5879 15.4086 36.5602 15.2076 37.5362 15.2562C38.5121 15.3047 39.4596 15.6012 40.2892 16.1176C41.1188 16.634 41.8031 17.3533 42.2775 18.2075C42.752 19.0618 43.0009 20.0229 43.0008 21.0001V28.4977C43.0011 30.7302 42.5616 32.941 41.7075 35.0037C40.8533 37.0664 39.6012 38.9407 38.0227 40.5195C36.4441 42.0982 34.5701 43.3506 32.5075 44.205C30.4449 45.0595 28.2342 45.4993 26.0016 45.4993C21.3984 45.4993 17.8656 44.2105 14.7144 41.0497C11.7264 38.0521 9.1512 33.4321 6.1176 27.0385C5.36523 25.7116 5.17076 24.1403 5.57696 22.6701C5.98317 21.1999 6.95677 19.9512 8.2836 19.1989C9.61042 18.4465 11.1818 18.252 12.652 18.6582C14.1222 19.0644 15.3708 20.038 16.1232 21.3649L16.5 22.0225V6.75126C16.5 5.22486 17.1072 3.76326 18.1848 2.68566ZM35.5008 21.0001C35.5008 21.5303 35.2902 22.0388 34.9152 22.4137C34.5403 22.7886 34.0318 22.9993 33.5016 22.9993C32.9714 22.9993 32.4629 22.7886 32.0879 22.4137C31.713 22.0388 31.5024 21.5303 31.5024 21.0001V18.7513C31.5024 18.2869 31.3179 17.8416 30.9896 17.5133C30.6613 17.1849 30.2159 17.0005 29.7516 17.0005C29.2873 17.0005 28.8419 17.1849 28.5136 17.5133C28.1853 17.8416 28.0008 18.2869 28.0008 18.7513V19.5001C28.0008 20.0303 27.7902 20.5388 27.4152 20.9137C27.0403 21.2886 26.5318 21.4993 26.0016 21.4993C25.4714 21.4993 24.9629 21.2886 24.5879 20.9137C24.213 20.5388 24.0024 20.0303 24.0024 19.5001V6.75126C24.0111 6.51589 23.9723 6.28118 23.8882 6.06115C23.8042 5.84113 23.6766 5.64032 23.5132 5.47072C23.3497 5.30111 23.1538 5.16621 22.937 5.07407C22.7202 4.98192 22.4871 4.93443 22.2516 4.93443C22.0161 4.93443 21.7829 4.98192 21.5662 5.07407C21.3494 5.16621 21.1535 5.30111 20.99 5.47072C20.8266 5.64032 20.699 5.84113 20.615 6.06115C20.5309 6.28118 20.4921 6.51589 20.5008 6.75126V29.4889C20.5011 29.9293 20.3559 30.3575 20.0878 30.707C19.8197 31.0565 19.4438 31.3076 19.0183 31.4215C18.5928 31.5353 18.1416 31.5054 17.7348 31.3365C17.3281 31.1676 16.9885 30.869 16.7688 30.4873L12.6576 23.3665C12.4841 23.0667 12.226 22.8248 11.9156 22.6711C11.6052 22.5174 11.2564 22.4587 10.9128 22.5025C10.6273 22.5403 10.3554 22.648 10.1215 22.816C9.88746 22.984 9.69849 23.2071 9.57129 23.4656C9.44409 23.724 9.38257 24.0098 9.39218 24.2977C9.40179 24.5856 9.48224 24.8667 9.6264 25.1161C9.65314 25.163 9.67796 25.2111 9.7008 25.2601C12.7608 31.7161 15.0912 35.7649 17.5488 38.2273C19.8528 40.5409 22.32 41.5009 26.0016 41.5009C29.4492 41.5002 32.7554 40.1302 35.193 37.6922C37.6306 35.2541 39 31.9477 39 28.5001V21.0001C39 20.536 38.8157 20.091 38.4876 19.7629C38.1594 19.4348 37.7144 19.2505 37.2504 19.2505C36.7864 19.2505 36.3414 19.4348 36.0132 19.7629C35.6851 20.091 35.5008 20.536 35.5008 21.0001Z" fill="black"/>
</svg>
