<svg width="48" height="48" viewBox="0 0 48 48" fill="none" xmlns="http://www.w3.org/2000/svg">
<path d="M12.2383 7.8203C16.0906 5.01347 20.8184 3.67441 25.5703 4.04491C30.3226 4.41565 34.7876 6.47119 38.1582 9.84178C41.5288 13.2124 43.5843 17.6773 43.9551 22.4297C44.3256 27.1816 42.9865 31.9094 40.1797 35.7617C37.3726 39.6143 33.2819 42.3381 28.6445 43.4414C24.2884 44.4777 19.7197 44.019 15.666 42.1562L4.64257 45.8945C3.92166 46.1389 3.12419 45.9523 2.58593 45.414C2.04772 44.8758 1.8611 44.0783 2.10546 43.3574L5.84179 32.332C3.98 28.2789 3.52244 23.7108 4.55859 19.3555C5.66185 14.7181 8.38572 10.6274 12.2383 7.8203ZM25.2598 8.03319C21.4582 7.73669 17.6756 8.80727 14.5937 11.0527C11.5117 13.2984 9.33183 16.5714 8.44921 20.2812C7.5667 23.991 8.03886 27.8942 9.77929 31.2871C10.0262 31.7684 10.0681 32.3294 9.89453 32.8418L7.19531 40.8027L15.1582 38.1055L15.3516 38.0508C15.809 37.9455 16.2914 38.0045 16.7129 38.2207C20.1058 39.9612 24.009 40.4333 27.7187 39.5508C31.4286 38.6682 34.7016 36.4883 36.9473 33.4062C39.1927 30.3243 40.2633 26.5419 39.9668 22.7402C39.6702 18.9384 38.0266 15.3664 35.3301 12.6699C32.6336 9.97344 29.0616 8.32978 25.2598 8.03319ZM22 32V26H16C14.8954 26 14 25.1046 14 24C14 22.8954 14.8954 22 16 22H22V16C22 14.8954 22.8954 14 24 14C25.1046 14 26 14.8954 26 16V22H32C33.1046 22 34 22.8954 34 24C34 25.1046 33.1046 26 32 26H26V32C26 33.1046 25.1046 34 24 34C22.8954 34 22 33.1046 22 32Z" fill="#0A0A0A"/>
</svg>
