<svg width="48" height="48" viewBox="0 0 48 48" fill="none" xmlns="http://www.w3.org/2000/svg">
<path fill-rule="evenodd" clip-rule="evenodd" d="M22.8389 4.37158C23.5337 3.87614 24.4663 3.87614 25.1611 4.37158L41.9903 16.3716C42.5167 16.7469 42.8291 17.3535 42.8291 18V42C42.8291 43.1046 41.9337 44 40.8291 44H37.1709H29.6097H18.3903H7.17086C6.06629 44 5.17086 43.1046 5.17086 42V18C5.17086 17.3535 5.48335 16.7469 6.00972 16.3716L22.8389 4.37158ZM9.17086 40H16.3903V29C16.3903 27.8954 17.2857 27 18.3903 27H29.6097C30.7143 27 31.6097 27.8954 31.6097 29V40H37.1709H38.8291V19.0303L24 8.45637L9.17086 19.0303V40ZM27.6097 40V31H20.3903V40H27.6097Z" fill="black"/>
</svg>
