<svg width="48" height="48" viewBox="0 0 48 48" fill="none" xmlns="http://www.w3.org/2000/svg">
<path d="M25.414 13.4141C25.7783 13.0369 25.9799 12.5317 25.9753 12.0073C25.9708 11.4829 25.7605 10.9813 25.3896 10.6104C25.0188 10.2396 24.5172 10.0293 23.9928 10.0247C23.4684 10.0202 22.9632 10.2218 22.586 10.5861L10.586 22.5861C10.2111 22.9611 10.0004 23.4698 10.0004 24.0001C10.0004 24.5304 10.2111 25.039 10.586 25.4141L22.586 37.4141C22.9632 37.7784 23.4684 37.98 23.9928 37.9754C24.5172 37.9709 25.0188 37.7605 25.3896 37.3897C25.7605 37.0189 25.9708 36.5173 25.9753 35.9929C25.9799 35.4685 25.7783 34.9633 25.414 34.5861L16.828 26.0001H36C36.5304 26.0001 37.0391 25.7894 37.4142 25.4143C37.7893 25.0392 38 24.5305 38 24.0001C38 23.4696 37.7893 22.9609 37.4142 22.5859C37.0391 22.2108 36.5304 22.0001 36 22.0001H16.828L25.414 13.4141Z" fill="black"/>
</svg>
