<svg width="48" height="48" viewBox="0 0 48 48" fill="none" xmlns="http://www.w3.org/2000/svg">
<path d="M4 2C2.89543 2 2 2.89543 2 4V12C2 13.1046 2.89543 14 4 14C5.10457 14 6 13.1046 6 12V6H12C13.1046 6 14 5.10457 14 4C14 2.89543 13.1046 2 12 2H4Z" fill="black"/>
<path d="M34 4C34 2.89543 34.8954 2 36 2H44C45.1046 2 46 2.89543 46 4V12C46 13.1046 45.1046 14 44 14C42.8954 14 42 13.1046 42 12V6H36C34.8954 6 34 5.10457 34 4Z" fill="black"/>
<path d="M24 8C19.5817 8 16 11.5817 16 16C16 18.8028 17.4414 21.269 19.6233 22.6977C14.0348 24.5354 10 29.7965 10 36C10 37.1046 10.8954 38 12 38C13.1046 38 14 37.1046 14 36C14 30.4772 18.4772 26 24 26C29.5228 26 34 30.4772 34 36C34 37.1046 34.8954 38 36 38C37.1046 38 38 37.1046 38 36C38 29.7965 33.9652 24.5354 28.3767 22.6977C30.5586 21.269 32 18.8028 32 16C32 11.5817 28.4183 8 24 8Z" fill="black"/>
<path d="M44 34C45.1046 34 46 34.8954 46 36V44C46 45.1046 45.1046 46 44 46H36C34.8954 46 34 45.1046 34 44C34 42.8954 34.8954 42 36 42H42V36C42 34.8954 42.8954 34 44 34Z" fill="black"/>
<path d="M6 36C6 34.8954 5.10457 34 4 34C2.89543 34 2 34.8954 2 36V44C2 45.1046 2.89543 46 4 46H12C13.1046 46 14 45.1046 14 44C14 42.8954 13.1046 42 12 42H6V36Z" fill="black"/>
</svg>
