<svg width="48" height="48" viewBox="0 0 48 48" fill="none" xmlns="http://www.w3.org/2000/svg">
<path fill-rule="evenodd" clip-rule="evenodd" d="M23 39V43.382L7.553 35.658C7.38692 35.575 7.24722 35.4474 7.14955 35.2895C7.05188 35.1316 7.0001 34.9496 7 34.764V27H5V34.764C5.00002 35.321 5.15513 35.8671 5.44797 36.341C5.7408 36.8148 6.15979 37.1978 6.658 37.447L22.658 45.447C23.0747 45.6554 23.5341 45.7639 24 45.7639C24.4659 45.7639 24.9253 45.6554 25.342 45.447L41.342 37.447C41.8402 37.1978 42.2592 36.8148 42.552 36.341C42.8449 35.8671 43 35.321 43 34.764V27H41V34.764C40.9999 34.9496 40.9481 35.1316 40.8504 35.2895C40.7528 35.4474 40.6131 35.575 40.447 35.658L25 43.382V39H23ZM25 8.99998V4.61798L40.447 12.342C40.6131 12.425 40.7528 12.5526 40.8504 12.7105C40.9481 12.8684 40.9999 13.0503 41 13.236V21H43V13.236C43 12.6789 42.8449 12.1329 42.552 11.659C42.2592 11.1851 41.8402 10.8022 41.342 10.553L25.342 2.55298C24.9253 2.34458 24.4659 2.23608 24 2.23608C23.5341 2.23608 23.0747 2.34458 22.658 2.55298L6.658 10.553C6.15979 10.8022 5.7408 11.1851 5.44797 11.659C5.15513 12.1329 5.00002 12.6789 5 13.236V21H7V13.236C7.0001 13.0503 7.05188 12.8684 7.14955 12.7105C7.24722 12.5526 7.38692 12.425 7.553 12.342L23 4.61798V8.99998H25ZM25.1496 17.374V28.4312V28.4338L20.161 17.4203H18.5616L12.025 31.3421H15.5273L16.9519 28.2615H21.5959L22.9382 31.3395H28.3665V27.0452L31.3905 31.3395H35.3531L31.1668 25.6309C31.7584 25.3672 32.2779 24.965 32.6814 24.4583C33.2934 23.692 33.6019 22.7792 33.6019 21.7377C33.6019 20.4006 33.1082 19.2949 32.1311 18.472C31.2439 17.7263 29.8811 17.374 28.0553 17.374H25.1496ZM20.2448 25.1783L19.3202 23.0723L18.3482 25.1783H20.2448ZM30.4365 21.766C30.4365 22.7432 29.8502 23.1958 28.3665 23.2009V20.4623H28.4102C29.8708 20.4623 30.4365 20.8737 30.4365 21.766Z" fill="black"/>
</svg>
