<svg width="48" height="48" viewBox="0 0 48 48" fill="none" xmlns="http://www.w3.org/2000/svg">
<path fill-rule="evenodd" clip-rule="evenodd" d="M4 6C2.89543 6 2 6.89543 2 8C2 9.10457 2.89543 10 4 10H26.2268L32.8268 16H22.0002C21.8972 16 21.7959 16.0078 21.6971 16.0228L18.2 13.4C17.3163 12.7373 16.0627 12.9163 15.4 13.8C14.7373 14.6837 14.9163 15.9373 15.8 16.6L23.647 22.4852L23.6654 22.5083C23.7142 22.5703 23.7724 22.6513 23.8313 22.7468C23.9534 22.9445 24.052 23.1605 24.1021 23.3675C24.15 23.565 24.1476 23.7253 24.1087 23.8658C24.0724 23.9968 23.9732 24.2267 23.6452 24.5288C23.334 24.8154 23.0862 24.9179 22.911 24.9586C22.7282 25.001 22.5217 24.9991 22.2734 24.9379C21.7262 24.8029 21.146 24.4225 20.669 24.0158C20.6495 23.9991 20.6296 23.9828 20.6093 23.9669L7.23794 13.4292C6.37039 12.7455 5.11286 12.8945 4.42917 13.7621C3.74547 14.6296 3.89452 15.8871 4.76206 16.5708L7 18.3345L7 32.9989C7 32.9993 7 32.9996 7 33V40C7 41.1046 7.89543 42 9 42H44C45.1046 42 46 41.1046 46 40V33.0204C46 33.0196 46 33.0189 46 33.0181V18C46 16.8954 45.1046 16 44 16H38.7732L28.3453 6.52012C27.9772 6.18544 27.4975 6 27 6H4ZM38.0069 20C38.0019 20 37.9969 20 37.9919 20H26.781C27.2067 20.5328 27.7363 21.3789 27.9898 22.4264C28.3664 23.9818 28.0882 25.8749 26.3548 27.4712C24.7247 28.9724 22.8919 29.2103 21.3156 28.8215C19.8961 28.4715 18.7613 27.6416 18.1046 27.0858L11 21.4868V31.0011L42 31.0182V20H38.0069ZM42 35.0182L11 35.0011V38H42V35.0182Z" fill="black"/>
</svg>
