<svg width="48" height="48" viewBox="0 0 48 48" fill="none" xmlns="http://www.w3.org/2000/svg">
<path d="M16 18C16 16.8954 16.8954 16 18 16H30C31.1046 16 32 16.8954 32 18C32 19.1046 31.1046 20 30 20H26V32C26 33.1046 25.1046 34 24 34C22.8954 34 22 33.1046 22 32V20H18C16.8954 20 16 19.1046 16 18Z" fill="black"/>
<path fill-rule="evenodd" clip-rule="evenodd" d="M32.3414 40H15.6586C14.8349 42.3304 12.6124 44 10 44C6.68629 44 4 41.3137 4 38C4 35.3876 5.66962 33.1651 8 32.3414V15.6586C5.66962 14.8349 4 12.6124 4 10C4 6.68629 6.68629 4 10 4C12.6124 4 14.8349 5.66961 15.6586 8L32.3414 8C33.1651 5.66962 35.3876 4 38 4C41.3137 4 44 6.68629 44 10C44 12.6124 42.3304 14.8349 40 15.6586V32.3414C42.3304 33.1651 44 35.3876 44 38C44 41.3137 41.3137 44 38 44C35.3876 44 33.1651 42.3304 32.3414 40ZM10 12C11.1046 12 12 11.1046 12 10C12 8.89543 11.1046 8 10 8C8.89543 8 8 8.89543 8 10C8 11.1046 8.89543 12 10 12ZM12 32.3414V15.6586C13.7048 15.056 15.056 13.7048 15.6586 12L32.3414 12C32.944 13.7048 34.2952 15.056 36 15.6586V32.3414C34.2952 32.944 32.944 34.2952 32.3414 36L15.6586 36C15.056 34.2952 13.7048 32.944 12 32.3414ZM12 38C12 39.1046 11.1046 40 10 40C8.89543 40 8 39.1046 8 38C8 36.8954 8.89543 36 10 36C11.1046 36 12 36.8954 12 38ZM38 12C39.1046 12 40 11.1046 40 10C40 8.89543 39.1046 8 38 8C36.8954 8 36 8.89543 36 10C36 11.1046 36.8954 12 38 12ZM40 38C40 39.1046 39.1046 40 38 40C36.8954 40 36 39.1046 36 38C36 36.8954 36.8954 36 38 36C39.1046 36 40 36.8954 40 38Z" fill="black"/>
</svg>
