<svg width="48" height="48" viewBox="0 0 48 48" fill="none" xmlns="http://www.w3.org/2000/svg">
<path d="M22.5858 18.5858C22.7775 18.394 22.9985 18.2494 23.2344 18.1518C23.9594 17.8518 24.8249 17.9965 25.4142 18.5858L31.4142 24.5858C32.1953 25.3668 32.1953 26.6332 31.4142 27.4142C30.6332 28.1953 29.3668 28.1953 28.5858 27.4142L26 24.8284V34C26 35.1046 25.1046 36 24 36C22.8954 36 22 35.1046 22 34V24.8284L19.4142 27.4142C18.6332 28.1953 17.3668 28.1953 16.5858 27.4142C15.8047 26.6332 15.8047 25.3668 16.5858 24.5858L22.5858 18.5858Z" fill="black"/>
<path fill-rule="evenodd" clip-rule="evenodd" d="M14 2C9.58172 2 6 5.58172 6 10V38C6 42.4183 9.58172 46 14 46H34C38.4183 46 42 42.4183 42 38V13.3137C42 11.192 41.1571 9.15715 39.6569 7.65686L36.3431 4.34315C34.8429 2.84286 32.808 2 30.6863 2H14ZM38 38V16H34C30.6863 16 28 13.3137 28 10V6H14C11.7909 6 10 7.79086 10 10V38C10 40.2091 11.7909 42 14 42H34C36.2091 42 38 40.2091 38 38ZM36.8284 10.4853C37.2593 10.9162 37.5817 11.4352 37.7781 12H34C32.8954 12 32 11.1046 32 10V6.22188C32.5648 6.41828 33.0839 6.74071 33.5147 7.17157L36.8284 10.4853Z" fill="black"/>
</svg>
