<svg width="48" height="48" viewBox="0 0 48 48" fill="none" xmlns="http://www.w3.org/2000/svg">
<path fill-rule="evenodd" clip-rule="evenodd" d="M7.11782 9.20979C6.02203 10.3194 5.22449 11.7395 5.22241 13.4056L5.2224 23.4723C5.2224 23.4723 5.2224 23.4723 5.2224 23.4723V33.5325C5.2224 35.2014 6.02061 36.6238 7.11784 37.7348C8.20661 38.8373 9.68285 39.7385 11.3491 40.4521C14.6886 41.8824 19.1628 42.7183 24 42.7183C28.8372 42.7183 33.3114 41.8824 36.6509 40.4521C38.3172 39.7385 39.7934 38.8373 40.8822 37.7348C41.9794 36.6238 42.7776 35.2014 42.7776 33.5325V23.4731C42.7776 23.4731 42.7776 23.4731 42.7776 23.4731V13.4129C42.7776 11.744 41.9794 10.3208 40.8822 9.20979C39.7934 8.10729 38.3172 7.20617 36.651 6.49253C33.3114 5.06219 28.8372 4.22632 24 4.22632C19.1628 4.22632 14.6886 5.06219 11.349 6.49253C9.68282 7.20617 8.20659 8.10729 7.11782 9.20979ZM9.96392 12.0204C9.3632 12.6287 9.22242 13.0967 9.2224 13.4121C9.2224 13.7275 9.36316 14.1956 9.96392 14.8039C10.5731 15.4208 11.5539 16.0681 12.9239 16.6549C15.6566 17.8253 19.5712 18.598 24 18.598C28.4288 18.598 32.3434 17.8253 35.0761 16.6549C36.4461 16.0681 37.4269 15.4208 38.0361 14.8039C38.6368 14.1956 38.7776 13.7275 38.7776 13.4122C38.7776 13.0968 38.6368 12.6287 38.0361 12.0204C37.4269 11.4035 36.4461 10.7562 35.0761 10.1695C32.3434 8.99905 28.4288 8.22632 24 8.22632C19.5712 8.22632 15.6566 8.99905 12.9239 10.1695C11.5539 10.7562 10.5731 11.4035 9.96392 12.0204ZM38.7776 23.4723V19.2467C38.1198 19.6477 37.4048 20.0089 36.651 20.3318C33.3114 21.7621 28.8372 22.598 24 22.598C19.1628 22.598 14.6886 21.7621 11.349 20.3318C10.5952 20.0089 9.8802 19.6477 9.2224 19.2467V23.4723C9.2224 23.4723 9.2224 23.4723 9.2224 23.4723C9.22242 23.7877 9.3632 24.2557 9.96393 24.864C10.5732 25.4809 11.554 26.1282 12.9239 26.715C15.6566 27.8854 19.5713 28.6581 24 28.6581C28.4287 28.6581 32.3434 27.8854 35.0761 26.715C36.446 26.1282 37.4268 25.4809 38.0361 24.864C38.6368 24.2557 38.7776 23.7877 38.7776 23.4723C38.7776 23.4723 38.7776 23.4723 38.7776 23.4723ZM38.7776 29.3068C38.1198 29.7078 37.4048 30.069 36.6509 30.3919C33.3114 31.8223 28.8372 32.6581 24 32.6581C19.1628 32.6581 14.6886 31.8223 11.3491 30.3919C10.5952 30.069 9.88021 29.7078 9.2224 29.3068V33.5325C9.2224 33.8478 9.36316 34.3158 9.96393 34.9242C10.5732 35.5411 11.554 36.1884 12.9239 36.7752C15.6566 37.9456 19.5713 38.7183 24 38.7183C28.4287 38.7183 32.3434 37.9456 35.0761 36.7752C36.446 36.1884 37.4268 35.5411 38.0361 34.9242C38.6368 34.3158 38.7776 33.8478 38.7776 33.5325V29.3068Z" fill="black"/>
</svg>
