<svg width="48" height="48" viewBox="0 0 48 48" fill="none" xmlns="http://www.w3.org/2000/svg">
<path fill-rule="evenodd" clip-rule="evenodd" d="M24 6.87476C18.5876 6.87476 14.2 11.2624 14.2 16.6748C14.2 17.7793 15.0954 18.6748 16.2 18.6748C17.3046 18.6748 18.2 17.7793 18.2 16.6748C18.2 13.4715 20.7968 10.8748 24 10.8748C27.2032 10.8748 29.8 13.4715 29.8 16.6748C29.8 19.878 27.2032 22.4748 24 22.4748C22.8954 22.4748 22 23.3702 22 24.4748V29.6748C22 30.7793 22.8954 31.6748 24 31.6748C25.1046 31.6748 26 30.7793 26 29.6748V26.2705C30.4532 25.3471 33.8 21.4018 33.8 16.6748C33.8 11.2624 29.4124 6.87476 24 6.87476ZM27 37.8748C27 39.5316 25.6568 40.8748 24 40.8748C22.3432 40.8748 21 39.5316 21 37.8748C21 36.2179 22.3432 34.8748 24 34.8748C25.6568 34.8748 27 36.2179 27 37.8748Z" fill="black"/>
</svg>
