<svg width="48" height="48" viewBox="0 0 48 48" fill="none" xmlns="http://www.w3.org/2000/svg">
<path fill-rule="evenodd" clip-rule="evenodd" d="M2.00009 10.864C2.00009 6.44573 5.58181 2.86401 10.0001 2.86401H30.0001C34.4184 2.86401 38.0001 6.44574 38.0001 10.864V17.0017C38.0001 18.1063 37.1047 19.0017 36.0001 19.0017C34.8955 19.0017 34.0001 18.1063 34.0001 17.0017V10.864C34.0001 8.65487 32.2092 6.86401 30.0001 6.86401H10.0001C7.79095 6.86401 6.00009 8.65487 6.00009 10.864V38.864C6.00009 41.0732 7.79095 42.864 10.0001 42.864H20.0001C21.1047 42.864 22.0001 43.7594 22.0001 44.864C22.0001 45.9686 21.1047 46.864 20.0001 46.864H10.0001C5.58181 46.864 2.00009 43.2823 2.00009 38.864V10.864Z" fill="black"/>
<path fill-rule="evenodd" clip-rule="evenodd" d="M10.0001 18.0017C10.0001 16.8971 10.8955 16.0017 12.0001 16.0017H26.0001C27.1047 16.0017 28.0001 16.8971 28.0001 18.0017C28.0001 19.1063 27.1047 20.0017 26.0001 20.0017H12.0001C10.8955 20.0017 10.0001 19.1063 10.0001 18.0017Z" fill="black"/>
<path fill-rule="evenodd" clip-rule="evenodd" d="M10.0001 28.0017C10.0001 26.8971 10.8955 26.0017 12.0001 26.0017H18.0001C19.1047 26.0017 20.0001 26.8971 20.0001 28.0017C20.0001 29.1063 19.1047 30.0017 18.0001 30.0017H12.0001C10.8955 30.0017 10.0001 29.1063 10.0001 28.0017Z" fill="black"/>
<path fill-rule="evenodd" clip-rule="evenodd" d="M40.0301 30.1208C40.7928 30.9198 40.7634 32.1857 39.9644 32.9484L33.8532 38.7818C33.0804 39.5195 31.8642 39.5195 31.0913 38.7817L28.0358 35.8651C27.2368 35.1024 27.2074 33.8364 27.9701 33.0374C28.7327 32.2384 29.9987 32.209 30.7977 32.9717L32.4723 34.5701L37.2025 30.055C38.0015 29.2923 39.2675 29.3218 40.0301 30.1208Z" fill="black"/>
<path fill-rule="evenodd" clip-rule="evenodd" d="M34.0001 26.0017C29.5818 26.0017 26.0001 29.5834 26.0001 34.0017C26.0001 38.42 29.5818 42.0017 34.0001 42.0017C38.4184 42.0017 42.0001 38.42 42.0001 34.0017C42.0001 29.5834 38.4184 26.0017 34.0001 26.0017ZM22.0001 34.0017C22.0001 27.3743 27.3727 22.0017 34.0001 22.0017C40.6275 22.0017 46.0001 27.3743 46.0001 34.0017C46.0001 40.6291 40.6275 46.0017 34.0001 46.0017C27.3727 46.0017 22.0001 40.6291 22.0001 34.0017Z" fill="black"/>
</svg>
