<svg width="48" height="48" viewBox="0 0 48 48" fill="none" xmlns="http://www.w3.org/2000/svg">
<path fill-rule="evenodd" clip-rule="evenodd" d="M9.16276 6.60471C9.16276 5.75702 9.84995 5.06982 10.6976 5.06982H37.3023C38.15 5.06982 38.8372 5.75702 38.8372 6.60471V9.16287H44.4651C45.3128 9.16287 46 9.85006 46 10.6978V37.3024C46 38.1501 45.3128 38.8373 44.4651 38.8373H38.8372V41.3954C38.8372 42.2431 38.15 42.9303 37.3023 42.9303H10.6976C9.84995 42.9303 9.16276 42.2431 9.16276 41.3954V38.8373H3.53489C2.68719 38.8373 2 38.1501 2 37.3024V10.6978C2 9.85006 2.68719 9.16287 3.53489 9.16287H9.16276V6.60471ZM38.8372 12.2326V35.7675H42.9302V12.2326H38.8372ZM9.16276 12.2326H5.06977V35.7675H9.16276V12.2326ZM19.1127 14.5289C19.1127 16.0129 17.9097 17.2158 16.4258 17.2158C14.9418 17.2158 13.7389 16.0129 13.7389 14.5289C13.7389 13.045 14.9418 11.842 16.4258 11.842C17.9097 11.842 19.1127 13.045 19.1127 14.5289ZM35.6806 30.4946C35.6806 30.1504 35.5439 29.8203 35.3005 29.5769L32.7048 26.9812C32.1979 26.4744 31.3762 26.4744 30.8693 26.9812L27.5133 30.3372C27.0065 30.844 26.1847 30.844 25.6779 30.3372L19.7262 24.3855C19.2194 23.8787 18.3976 23.8787 17.8908 24.3855L12.6993 29.5769C12.456 29.8203 12.3192 30.1504 12.3192 30.4946V38.7962C12.3192 39.513 12.9003 40.0941 13.6171 40.0941H34.3828C35.0995 40.0941 35.6806 39.513 35.6806 38.7962V30.4946Z" fill="black"/>
</svg>
