<svg width="48" height="48" viewBox="0 0 48 48" fill="none" xmlns="http://www.w3.org/2000/svg">
<path d="M38 12C38 10.8954 37.1046 10 36 10H12C10.8954 10 10 10.8954 10 12V36C10 37.1046 10.8954 38 12 38H36C37.1046 38 38 37.1046 38 36V12ZM20 20V28H28V20H20ZM32 28C32 30.2091 30.2091 32 28 32H20C17.7909 32 16 30.2091 16 28V20C16 17.7909 17.7909 16 20 16H28C30.2091 16 32 17.7909 32 20V28ZM42 16H44C45.1046 16 46 16.8954 46 18C46 19.1046 45.1046 20 44 20H42V28H44C45.1046 28 46 28.8954 46 30C46 31.1046 45.1046 32 44 32H42V36C42 39.3137 39.3137 42 36 42H32V44C32 45.1046 31.1046 46 30 46C28.8954 46 28 45.1046 28 44V42H20V44C20 45.1046 19.1046 46 18 46C16.8954 46 16 45.1046 16 44V42H12C8.68629 42 6 39.3137 6 36V32H4C2.89543 32 2 31.1046 2 30C2 28.8954 2.89543 28 4 28H6V20H4C2.89543 20 2 19.1046 2 18C2 16.8954 2.89543 16 4 16H6V12C6 8.68629 8.68629 6 12 6H16V4C16 2.89543 16.8954 2 18 2C19.1046 2 20 2.89543 20 4V6H28V4C28 2.89543 28.8954 2 30 2C31.1046 2 32 2.89543 32 4V6H36C39.3137 6 42 8.68629 42 12V16Z" fill="black"/>
</svg>
