<svg width="48" height="48" viewBox="0 0 48 48" fill="none" xmlns="http://www.w3.org/2000/svg">
<path fill-rule="evenodd" clip-rule="evenodd" d="M38.7273 8H9.27273C8.84295 8 8.41737 8.08465 8.02031 8.24912C7.62324 8.41359 7.26246 8.65466 6.95856 8.95856C6.65466 9.26246 6.41359 9.62324 6.24912 10.0203C6.08465 10.4174 6 10.8429 6 11.2727V32.5455C6 32.9752 6.08465 33.4008 6.24912 33.7979C6.41359 34.1949 6.65466 34.5557 6.95856 34.8596C7.26246 35.1635 7.62324 35.4046 8.02031 35.5691C8.41737 35.7335 8.84295 35.8182 9.27273 35.8182H38.7273C39.1571 35.8182 39.5826 35.7335 39.9797 35.5691C40.3768 35.4046 40.7375 35.1635 41.0414 34.8596C41.3453 34.5557 41.5864 34.1949 41.7509 33.7979C41.9153 33.4008 42 32.9752 42 32.5455V11.2727C42 10.8429 41.9153 10.4174 41.7509 10.0203C41.5864 9.62324 41.3453 9.26246 41.0414 8.95856C40.7375 8.65466 40.3768 8.41359 39.9797 8.24912C39.5826 8.08465 39.1571 8 38.7273 8ZM25.6576 22.7273L25.6527 24.3636H28.9091C29.343 24.3637 29.7592 24.5361 30.066 24.843C30.3728 25.1499 30.5452 25.5661 30.5452 26C30.5452 26.4339 30.3728 26.8501 30.066 27.157C29.7592 27.4639 29.343 27.6363 28.9091 27.6364H25.6413L25.6364 29.0453C25.6331 30.0795 24.8984 30.9124 23.9935 30.9091C23.0902 30.9058 22.3604 30.0647 22.3636 29.0322L22.3685 27.6364H19.0909C18.657 27.6363 18.2408 27.4639 17.934 27.157C17.6272 26.8501 17.4548 26.4339 17.4548 26C17.4548 25.5661 17.6272 25.1499 17.934 24.843C18.2408 24.5361 18.657 24.3637 19.0909 24.3636H22.3784L22.3849 22.7273H19.0909C18.876 22.7273 18.6632 22.685 18.4646 22.6028C18.2661 22.5206 18.0856 22.4 17.9337 22.2481C17.7817 22.0961 17.6611 21.9157 17.5789 21.7172C17.4966 21.5186 17.4543 21.3058 17.4543 21.0909C17.4543 20.876 17.4966 20.6632 17.5789 20.4646C17.6611 20.2661 17.7817 20.0857 17.9337 19.9337C18.0856 19.7818 18.2661 19.6613 18.4646 19.579C18.6632 19.4968 18.876 19.4545 19.0909 19.4545H22.1149L19.6833 17.4418C19.5113 17.3069 19.3682 17.139 19.2622 16.9479C19.1562 16.7568 19.0896 16.5464 19.0663 16.3291C19.0429 16.1119 19.0633 15.8921 19.1263 15.6829C19.1892 15.4736 19.2935 15.2791 19.4328 15.1108C19.5722 14.9425 19.7438 14.8038 19.9377 14.7029C20.1315 14.602 20.3436 14.5409 20.5614 14.5233C20.7792 14.5057 20.9983 14.5319 21.2058 14.6003C21.4133 14.6688 21.605 14.7781 21.7696 14.9218L24.3224 17.0344L26.8293 14.9284C27.1617 14.6491 27.5915 14.5133 28.024 14.5509C28.4566 14.5885 28.8565 14.7964 29.1357 15.1288C29.415 15.4613 29.5508 15.891 29.5132 16.3236C29.4756 16.7561 29.2677 17.156 28.9353 17.4353L26.5298 19.4545H28.9091C29.343 19.4546 29.7592 19.627 30.066 19.9339C30.3728 20.2408 30.5452 20.657 30.5452 21.0909C30.5452 21.5249 30.3728 21.941 30.066 22.2479C29.7592 22.5548 29.343 22.7272 28.9091 22.7273H25.6576ZM35.4543 42.3635H12.5452C12.1113 42.3635 11.6951 42.191 11.3883 41.8842C11.0815 41.5773 10.9091 41.1611 10.9091 40.7272C10.9091 40.2932 11.0815 39.8771 11.3883 39.5702C11.6951 39.2633 12.1113 39.0909 12.5452 39.0908H35.4543C35.8882 39.0909 36.3044 39.2633 36.6112 39.5702C36.918 39.8771 37.0904 40.2932 37.0904 40.7272C37.0904 41.1611 36.918 41.5773 36.6112 41.8842C36.3044 42.191 35.8882 42.3635 35.4543 42.3635Z" fill="#FFA800"/>
</svg>
