<svg width="48" height="48" viewBox="0 0 48 48" fill="none" xmlns="http://www.w3.org/2000/svg">
<path fill-rule="evenodd" clip-rule="evenodd" d="M35.8182 14C35.8182 19.4224 31.4224 23.8182 26 23.8182C20.5776 23.8182 16.1818 19.4224 16.1818 14C16.1818 8.57757 20.5776 4.18182 26 4.18182C31.4224 4.18182 35.8182 8.57757 35.8182 14ZM38 14C38 20.6274 32.6274 26 26 26C19.3726 26 14 20.6274 14 14C14 7.37258 19.3726 2 26 2C32.6274 2 38 7.37258 38 14ZM3.375 30C3.375 28.5503 4.55025 27.375 6 27.375H12C13.362 27.375 14.4817 28.4123 14.6123 29.7399C17.1175 28.5771 21.0192 27.0595 24.9324 27.4331C27.4394 27.6724 29.6148 28.7063 31.2707 29.8464C32.4355 30.6484 33.3826 31.5301 34.037 32.2834C34.7804 31.8757 35.5684 31.467 36.3369 31.137C37.4482 30.6598 38.736 30.2467 39.8746 30.4126C40.9301 30.5664 42.204 31.2056 43.1177 31.9377C43.5795 32.3078 44.0362 32.7696 44.3228 33.2979C44.6143 33.8352 44.8087 34.6185 44.361 35.3794C44.1894 35.6711 43.8752 36.0056 43.5615 36.3111C43.2163 36.6474 42.7681 37.0464 42.2389 37.4826C41.1796 38.3556 39.766 39.4021 38.1463 40.42C34.9457 42.4314 30.775 44.4369 26.886 44.6093C24.0459 44.7353 21.3097 44.0844 18.9478 43.2915C17.7635 42.8939 16.6592 42.4556 15.6755 42.0536C15.4426 41.9584 15.2182 41.866 15.0019 41.7769L14.9967 41.7748L14.9964 41.7746L14.625 41.6218V42C14.625 43.4497 13.4497 44.625 12 44.625H6C4.55025 44.625 3.375 43.4497 3.375 42V30ZM14.625 39.1943V32.2282C16.9976 31.0744 20.9176 29.31 24.7186 29.6729C26.7421 29.8661 28.5571 30.7098 29.9948 31.6997C30.8038 32.2567 31.4686 32.8427 31.9639 33.3523C31.339 33.6036 30.5897 33.8521 29.8082 34.0809C28.5732 34.4424 27.3508 34.7282 26.6113 34.8791C26.0025 35.0032 25.6097 35.5974 25.7339 36.2062C25.858 36.815 26.4522 37.2079 27.061 37.0837C27.8544 36.9218 29.1383 36.6214 30.4403 36.2403C31.7176 35.8664 33.1096 35.3875 34.0588 34.8497L34.131 34.8088C34.212 34.7796 34.291 34.7405 34.3662 34.6912C34.3986 34.67 34.4296 34.6474 34.459 34.6236C35.379 34.1058 36.3289 33.5891 37.2247 33.2045C38.2978 32.7437 39.0794 32.5705 39.5503 32.6391C40.1043 32.7198 41.0148 33.1359 41.7107 33.6935C42.037 33.955 42.2378 34.1866 42.3315 34.3467L42.3268 34.352C42.2478 34.4417 42.1367 34.558 41.9915 34.6994C41.7016 34.9818 41.3021 35.339 40.8078 35.7463C39.8202 36.5603 38.4845 37.55 36.9491 38.5149C33.8396 40.4691 30.0776 42.2156 26.7863 42.3615C24.3379 42.4701 21.9006 41.9094 19.6639 41.1585C18.5488 40.7842 17.4975 40.3675 16.5267 39.9708C16.3106 39.8825 16.0967 39.7944 15.8862 39.7076L15.8844 39.7069C15.4469 39.5267 15.0238 39.3525 14.625 39.1943ZM27.1263 9.26316C27.1263 8.56554 26.5608 8 25.8631 8C25.1655 8 24.6 8.56554 24.6 9.26316V15.5789C24.6 15.914 24.7331 16.2352 24.9699 16.4721L28.1278 19.63C28.6211 20.1233 29.4209 20.1233 29.9142 19.63C30.4075 19.1367 30.4075 18.3369 29.9142 17.8437L27.1263 15.0557V9.26316Z" fill="black"/>
</svg>
