<svg width="48" height="48" viewBox="0 0 48 48" fill="none" xmlns="http://www.w3.org/2000/svg">
<path fill-rule="evenodd" clip-rule="evenodd" d="M13.6561 26.8871C10.0273 26.8871 8.81772 28.4591 8.26092 31.7279V31.8839C8.09292 32.9495 7.97052 33.3239 7.77612 33.5303C7.63025 33.686 7.46298 33.8202 7.27932 33.9287C6.97179 34.1219 6.61526 34.2227 6.25212 34.2191C6.08446 34.2239 5.91702 34.2037 5.75532 34.1591H5.64732C5.46181 34.0884 5.26504 34.0518 5.06652 34.0511C4.84935 34.0444 4.63312 34.0824 4.43127 34.1628C4.22942 34.2432 4.04627 34.3642 3.8932 34.5184C3.74013 34.6726 3.62042 34.8566 3.54151 35.0591C3.4626 35.2615 3.42618 35.478 3.43452 35.6951C3.93852 40.3055 7.89852 42.6647 12.1321 42.6647C14.2762 42.718 16.3871 42.1275 18.1924 40.9695C19.9977 39.8115 21.4146 38.139 22.2601 36.1679C22.376 35.8777 22.4034 35.5597 22.3389 35.2539C22.2744 34.9481 22.1209 34.6683 21.8977 34.4495L14.7337 27.3215C14.4365 27.0294 14.0369 26.8649 13.6201 26.8631L13.6561 26.8871ZM12.8233 30.5423L18.2785 35.9255C17.5846 36.9023 16.6637 37.6958 15.5951 38.2376C14.5265 38.7795 13.3421 39.0534 12.1441 39.0359C10.6069 39.0763 9.11438 38.5168 7.98252 37.4759C8.90356 37.1768 9.73518 36.652 10.4017 35.9495C11.2561 34.9223 11.7601 33.6527 11.8417 32.3207V32.1863C11.8657 31.6511 12.0217 31.1279 12.2905 30.6623C12.4708 30.583 12.663 30.5343 12.8593 30.5183" fill="black"/>
<path fill-rule="evenodd" clip-rule="evenodd" d="M40.8097 4.70872C38.1361 4.70872 34.4689 6.90952 29.6905 10.7567C28.4785 11.7263 27.2689 12.7295 26.1313 13.7567C23.9399 15.691 21.8015 17.6845 19.7185 19.7351C18.8833 20.5703 18.0385 21.4175 17.2153 22.2647L17.0209 22.4711C16.3852 23.1163 16.0289 23.9858 16.0289 24.8915C16.0289 25.7973 16.3852 26.6667 17.0209 27.3119L21.8617 32.2103C22.5041 32.8505 23.374 33.2099 24.2809 33.2099C25.1878 33.2099 26.0577 32.8505 26.7001 32.2103L26.8825 32.0303L27.4393 31.4735L29.4121 29.4647C31.4449 27.3599 33.4897 25.1447 35.3881 22.9535C36.3337 21.8783 37.2529 20.7767 38.1481 19.6655C43.9441 12.5135 46.2433 7.86472 43.2049 5.49352C42.5136 4.95998 41.6586 4.68263 40.7857 4.70872H40.8097ZM40.8097 8.33752H40.9417C40.9417 8.93032 40.4089 11.1215 35.4121 17.3399C34.5406 18.4171 33.6492 19.478 32.7385 20.5223C30.9721 22.5551 24.3649 29.4503 24.3649 29.4503L19.7809 24.8303C19.7809 24.8303 26.4217 18.3455 28.5289 16.4687C29.6537 15.4812 30.7988 14.517 31.9633 13.5767C37.6393 9.01672 39.9505 8.33752 40.8097 8.33752Z" fill="black"/>
</svg>
