<svg width="48" height="48" viewBox="0 0 48 48" fill="none" xmlns="http://www.w3.org/2000/svg">
<path fill-rule="evenodd" clip-rule="evenodd" d="M2 42V38H4H6L6 42H10V44V46H6C3.79086 46 2 44.2091 2 42ZM4 34H2V26H4H6V34H4ZM4 22H2V14H4H6V22H4ZM4 10H2V6C2 3.79086 3.79086 2 6 2H10V4V6L6 6V10H4ZM14 4V2H22V4V6H14V4ZM26 4V2H34V4V6H26V4ZM38 4V2H42C44.2091 2 46 3.79086 46 6V10H44H42V6H38V4ZM44 14H46V22H44H42V14H44ZM44 26H46V34H44H42V26H44ZM44 38H46V42C46 44.2091 44.2091 46 42 46H38V44V42H42V38H44ZM34 44V46H26V44V42H34V44ZM22 44V46H14V44V42H22V44ZM24 14C21.7909 14 20 15.7909 20 18C20 20.2091 21.7909 22 24 22C26.2091 22 28 20.2091 28 18C28 15.7909 26.2091 14 24 14ZM16 18C16 13.5817 19.5817 10 24 10C28.4183 10 32 13.5817 32 18C32 20.8028 30.5586 23.269 28.3767 24.6977C33.9652 26.5354 38 31.7965 38 38C38 39.1046 37.1046 40 36 40C34.8954 40 34 39.1046 34 38C34 32.4772 29.5228 28 24 28C18.4772 28 14 32.4772 14 38C14 39.1046 13.1046 40 12 40C10.8954 40 10 39.1046 10 38C10 31.7965 14.0348 26.5354 19.6233 24.6977C17.4414 23.269 16 20.8028 16 18Z" fill="black"/>
</svg>
