<svg width="48" height="48" viewBox="0 0 48 48" fill="none" xmlns="http://www.w3.org/2000/svg">
<path fill-rule="evenodd" clip-rule="evenodd" d="M6 24.8625C6 23.758 6.89543 22.8625 8 22.8625H40C41.1046 22.8625 42 23.758 42 24.8625V34.8625C42 39.2808 38.4183 42.8625 34 42.8625H14C9.58172 42.8625 6 39.2808 6 34.8625V24.8625ZM11 26.8625C10.4477 26.8625 10 27.3103 10 27.8625V34.8625C10 37.0717 11.7909 38.8625 14 38.8625H34C36.2091 38.8625 38 37.0717 38 34.8625V27.8625C38 27.3103 37.5523 26.8625 37 26.8625H11Z" fill="black"/>
<path fill-rule="evenodd" clip-rule="evenodd" d="M38 16.8625H10C8.89543 16.8625 8 17.758 8 18.8625V20.8625C8 21.9671 8.89543 22.8625 10 22.8625H38C39.1046 22.8625 40 21.9671 40 20.8625V18.8625C40 17.758 39.1046 16.8625 38 16.8625ZM10 12.8625C6.68629 12.8625 4 15.5488 4 18.8625V20.8625C4 24.1763 6.68629 26.8625 10 26.8625H38C41.3137 26.8625 44 24.1763 44 20.8625V18.8625C44 15.5488 41.3137 12.8625 38 12.8625H10Z" fill="black"/>
<path d="M22 12.8625H26V42.8625H22V12.8625Z" fill="black"/>
<path fill-rule="evenodd" clip-rule="evenodd" d="M20 16.8625C16.6863 16.8625 14 14.1763 14 10.8625C14 7.54884 16.6863 4.86255 20 4.86255C21.5367 4.86255 22.9385 5.44026 24 6.39034C25.0615 5.44026 26.4633 4.86255 28 4.86255C31.3137 4.86255 34 7.54884 34 10.8625C34 14.1763 31.3137 16.8625 28 16.8625H20ZM20 8.86255C21.1046 8.86255 22 9.75798 22 10.8625V12.8625H20C18.8954 12.8625 18 11.9671 18 10.8625C18 9.75798 18.8954 8.86255 20 8.86255ZM26 12.8625H28C29.1046 12.8625 30 11.9671 30 10.8625C30 9.75798 29.1046 8.86255 28 8.86255C26.8954 8.86255 26 9.75798 26 10.8625V12.8625Z" fill="black"/>
</svg>
