<svg width="48" height="48" viewBox="0 0 48 48" fill="none" xmlns="http://www.w3.org/2000/svg">
<path d="M32.4863 9.26196C33.3073 9.26177 34.1203 9.42334 34.8789 9.73744C35.6374 10.0515 36.3267 10.512 36.9072 11.0925C37.4878 11.6731 37.9482 12.3623 38.2623 13.1209C38.5764 13.8794 38.738 14.6924 38.7378 15.5134C38.7376 16.3344 38.5757 17.1473 38.2612 17.9057C37.9468 18.6642 37.4853 19.3538 36.9045 19.9341L31.6012 25.2374C31.0208 25.8178 30.3318 26.2781 29.5735 26.5922C28.8153 26.9063 28.0025 27.068 27.1818 27.068C26.361 27.068 25.5483 26.9063 24.79 26.5922C24.0317 26.2781 23.3427 25.8178 22.7624 25.2374C21.9813 24.4564 20.715 24.4564 19.9339 25.2374C19.1529 26.0184 19.1529 27.2848 19.9339 28.0658C20.8857 29.0176 22.0157 29.7726 23.2593 30.2877C24.5029 30.8029 25.8357 31.068 27.1818 31.068C28.5278 31.068 29.8607 30.8029 31.1043 30.2877C32.3479 29.7726 33.4778 29.0176 34.4296 28.0658L39.7329 22.7625C40.6851 21.811 41.4406 20.6813 41.9562 19.4378C42.4719 18.194 42.7375 16.8608 42.7378 15.5143C42.7381 14.1679 42.4731 12.8346 41.958 11.5906C41.4429 10.3465 40.6877 9.2162 39.7356 8.26412C38.7836 7.31203 37.6532 6.55686 36.4092 6.04174C35.1652 5.52662 33.8319 5.26165 32.4854 5.26196C31.139 5.26228 29.8058 5.52787 28.562 6.04357C27.3185 6.55915 26.1881 7.31528 25.2366 8.26749L21.5249 11.9791C20.7439 12.7602 20.7439 14.0265 21.5249 14.8076C22.306 15.5886 23.5723 15.5886 24.3533 14.8076L28.0663 11.0946C28.6466 10.5138 29.3356 10.053 30.094 9.73855C30.8524 9.4241 31.6653 9.26216 32.4863 9.26196Z" fill="black"/>
<path d="M18.426 21.4076C19.1842 21.0935 19.997 20.9319 20.8177 20.9319C21.6385 20.9319 22.4512 21.0935 23.2095 21.4076C23.9678 21.7217 24.6568 22.1821 25.2372 22.7625C26.0182 23.5435 27.2845 23.5435 28.0656 22.7625C28.8466 21.9814 28.8466 20.7151 28.0656 19.934C27.1138 18.9822 25.9838 18.2272 24.7402 17.7121C23.4967 17.197 22.1638 16.9319 20.8177 16.9319C19.4717 16.9319 18.1388 17.197 16.8952 17.7121C15.6516 18.2272 14.5217 18.9822 13.5699 19.934L8.26659 25.2373C7.31437 26.1888 6.5589 27.3186 6.04332 28.5621C5.52763 29.8059 5.26203 31.1391 5.26172 32.4855C5.26141 33.832 5.52638 35.1653 6.0415 36.4093C6.55662 37.6533 7.31179 38.7837 8.26387 39.7357C9.21596 40.6878 10.3463 41.443 11.5903 41.9581C12.8343 42.4732 14.1677 42.7382 15.5141 42.7379C16.8606 42.7376 18.1938 42.472 19.4375 41.9563C20.6813 41.4406 21.8113 40.6849 22.7629 39.7324L26.4746 36.0207C27.2556 35.2397 27.2556 33.9733 26.4746 33.1923C25.6935 32.4112 24.4272 32.4112 23.6462 33.1923L19.9332 36.9053C19.3529 37.4861 18.6639 37.9469 17.9055 38.2613C17.1471 38.5758 16.3342 38.7377 15.5132 38.7379C14.6922 38.7381 13.8792 38.5765 13.1206 38.2624C12.3621 37.9483 11.6728 37.4879 11.0923 36.9073C10.5118 36.3268 10.0513 35.6376 9.73719 34.879C9.4231 34.1205 9.26153 33.3075 9.26172 32.4865C9.26191 31.6654 9.42386 30.8525 9.73831 30.0941C10.0528 29.3357 10.5142 28.646 11.095 28.0658L16.3983 22.7625C16.9787 22.1821 17.6677 21.7217 18.426 21.4076Z" fill="black"/>
</svg>
