<svg width="48" height="48" viewBox="0 0 48 48" fill="none" xmlns="http://www.w3.org/2000/svg">
<path fill-rule="evenodd" clip-rule="evenodd" d="M24.0001 39.9998C32.8367 39.9998 40.0001 32.8363 40.0001 23.9998C40.0001 15.1632 32.8367 7.99976 24.0001 7.99976C15.1636 7.99976 8.00012 15.1632 8.00012 23.9998C8.00012 32.8363 15.1636 39.9998 24.0001 39.9998ZM24.0001 43.9998C35.0458 43.9998 44.0001 35.0455 44.0001 23.9998C44.0001 12.9541 35.0458 3.99976 24.0001 3.99976C12.9544 3.99976 4.00012 12.9541 4.00012 23.9998C4.00012 35.0455 12.9544 43.9998 24.0001 43.9998Z" fill="black"/>
<path fill-rule="evenodd" clip-rule="evenodd" d="M27.4932 36.353C28.9706 33.3982 29.9999 29.0363 29.9999 23.9998C29.9999 18.9632 28.9706 14.6013 27.4932 11.6465C25.8962 8.4524 24.43 7.99976 23.9999 7.99976C23.5698 7.99976 22.1036 8.4524 20.5065 11.6465C19.0291 14.6013 17.9999 18.9632 17.9999 23.9998C17.9999 29.0363 19.0291 33.3982 20.5065 36.353C22.1036 39.5471 23.5698 39.9998 23.9999 39.9998C24.43 39.9998 25.8962 39.5471 27.4932 36.353ZM23.9999 43.9998C29.5227 43.9998 33.9999 35.0455 33.9999 23.9998C33.9999 12.9541 29.5227 3.99976 23.9999 3.99976C18.477 3.99976 13.9999 12.9541 13.9999 23.9998C13.9999 35.0455 18.477 43.9998 23.9999 43.9998Z" fill="black"/>
<path fill-rule="evenodd" clip-rule="evenodd" d="M43.9014 25.9998C43.9667 25.3419 44.0001 24.6748 44.0001 23.9998C44.0001 23.3248 43.9667 22.6576 43.9014 21.9998H4.09887C4.03356 22.6576 4.00012 23.3248 4.00012 23.9998C4.00012 24.6748 4.03356 25.3419 4.09887 25.9998H43.9014Z" fill="black"/>
</svg>
