<svg width="48" height="48" viewBox="0 0 48 48" fill="none" xmlns="http://www.w3.org/2000/svg">
<path fill-rule="evenodd" clip-rule="evenodd" d="M8 14C8 12.8954 8.89543 12 10 12H38C39.1046 12 40 12.8954 40 14C40 15.1046 39.1046 16 38 16H10C8.89543 16 8 15.1046 8 14ZM12 24C12 22.8954 12.8954 22 14 22H34C35.1046 22 36 22.8954 36 24C36 25.1046 35.1046 26 34 26H14C12.8954 26 12 25.1046 12 24ZM18 32C16.8954 32 16 32.8954 16 34C16 35.1046 16.8954 36 18 36H30C31.1046 36 32 35.1046 32 34C32 32.8954 31.1046 32 30 32H18Z" fill="black"/>
</svg>
