<svg width="48" height="48" viewBox="0 0 48 48" fill="none" xmlns="http://www.w3.org/2000/svg">
<path d="M37.9671 29.7187L25.4159 42.27C24.6349 43.051 23.3685 43.051 22.5875 42.27L2.92939 22.6118C1.36729 21.0497 1.36729 18.5171 2.92939 16.955L11.3301 8.55423C13.6733 6.21109 17.4723 6.21109 19.8154 8.55423L24.0049 12.7437L28.1944 8.55423C30.5376 6.21109 34.3366 6.21109 36.6797 8.55423L45.0805 16.955C46.6426 18.5171 46.6426 21.0497 45.0805 22.6118L38.0658 29.6266C38.0338 29.6585 38.0009 29.6892 37.9671 29.7187ZM14.1586 11.3827L5.75781 19.7834L24.0017 38.0273L25.3874 36.6416L23.6405 34.8947C22.8594 34.1136 22.8594 32.8473 23.6405 32.0663C24.4215 31.2852 25.6879 31.2852 26.4689 32.0663L28.2158 33.8132L29.6003 32.4287L27.8514 30.6798C27.0704 29.8988 27.0704 28.6325 27.8514 27.8514C28.6325 27.0704 29.8988 27.0704 30.6798 27.8514L32.4287 29.6003L33.8199 28.2091L28.2226 22.6118L23.3151 27.5193C22.6662 28.1683 21.6589 28.2923 20.8719 27.8201L15.6038 24.6593C15.0757 24.3424 14.7231 23.7999 14.6478 23.1886C14.5726 22.5774 14.7831 21.9655 15.2186 21.5301L21.1765 15.5722L16.987 11.3827C16.2059 10.6016 14.9396 10.6016 14.1586 11.3827ZM31.0229 11.3827L19.8583 22.5472L21.5909 23.5867L26.8084 18.3692C27.5894 17.5882 28.8558 17.5882 29.6368 18.3692L36.6515 25.3839L42.252 19.7834L33.8513 11.3827C33.0702 10.6016 31.8039 10.6016 31.0229 11.3827Z" fill="black"/>
</svg>
