<svg width="48" height="48" viewBox="0 0 48 48" fill="none" xmlns="http://www.w3.org/2000/svg">
<path fill-rule="evenodd" clip-rule="evenodd" d="M29.9374 4.60799C30.908 4.20595 31.9483 3.99902 32.9989 3.99902C34.0495 3.99902 35.0898 4.20595 36.0604 4.60799C37.031 5.01003 37.9129 5.5993 38.6558 6.34217C39.3986 7.08504 39.9879 7.96695 40.3899 8.93756C40.792 9.90816 40.9989 10.9484 40.9989 11.999C40.9989 13.0496 40.792 14.0899 40.3899 15.0605C39.9889 16.0288 39.4014 16.9088 38.6611 17.6506L20.0356 36.5355C19.0979 37.4732 17.8261 37.9999 16.5 37.9999C15.1739 37.9999 13.9021 37.4732 12.9645 36.5355C12.0268 35.5978 11.5 34.326 11.5 32.9999C11.5 31.677 12.0243 30.408 12.9579 29.471L28.5731 13.5965C29.3477 12.809 30.614 12.7986 31.4014 13.5732C32.1889 14.3478 32.1993 15.6141 31.4247 16.4015L15.7929 32.2929C15.6054 32.4804 15.5 32.7347 15.5 32.9999C15.5 33.2652 15.6054 33.5195 15.7929 33.707C15.9804 33.8946 16.2348 33.9999 16.5 33.9999C16.7635 33.9999 17.0163 33.8959 17.2035 33.7106L35.8273 14.8274C36.1987 14.456 36.4934 14.0151 36.6944 13.5298C36.8954 13.0445 36.9989 12.5243 36.9989 11.999C36.9989 11.4737 36.8954 10.9536 36.6944 10.4683C36.4934 9.98299 36.1988 9.54203 35.8273 9.1706C35.4559 8.79916 35.0149 8.50452 34.5296 8.30351C34.0443 8.10249 33.5242 7.99902 32.9989 7.99902C32.4736 7.99902 31.9535 8.10249 31.4682 8.30351C30.9848 8.50374 30.5453 8.79687 30.1748 9.16626L11.5503 28.0502C10.2375 29.363 9.5 31.1434 9.5 32.9999C9.5 34.8565 10.2375 36.6369 11.5503 37.9497C12.863 39.2624 14.6435 39.9999 16.5 39.9999C18.3565 39.9999 20.137 39.2624 21.4497 37.9497L36.8356 22.5839C37.6172 21.8034 38.8835 21.8042 39.664 22.5857C40.4446 23.3673 40.4437 24.6336 39.6622 25.4142L24.2782 40.7781C24.2779 40.7784 24.2785 40.7778 24.2782 40.7781C22.2154 42.8404 19.4169 43.9999 16.5 43.9999C13.5826 43.9999 10.7847 42.841 8.72183 40.7781C6.65893 38.7152 5.5 35.9173 5.5 32.9999C5.5 30.085 6.657 27.2893 8.71669 25.2269L27.342 6.34214C28.0849 5.59927 28.9668 5.01003 29.9374 4.60799Z" fill="black"/>
</svg>
