<svg width="48" height="48" viewBox="0 0 48 48" fill="none" xmlns="http://www.w3.org/2000/svg">
<path d="M39.75 35.25C39.9489 35.25 40.1397 35.329 40.2803 35.4697C40.421 35.6103 40.5 35.8011 40.5 36V39C40.5 39.414 40.164 39.75 39.75 39.75H8.25C8.05109 39.75 7.86032 39.671 7.71967 39.5303C7.57902 39.3897 7.5 39.1989 7.5 39V36C7.5 35.8011 7.57902 35.6103 7.71967 35.4697C7.86032 35.329 8.05109 35.25 8.25 35.25H39.75ZM28.5 26.25C28.6989 26.25 28.8897 26.329 29.0303 26.4697C29.171 26.6103 29.25 26.8011 29.25 27V30C29.25 30.414 28.914 30.75 28.5 30.75H8.25C8.05109 30.75 7.86032 30.671 7.71967 30.5303C7.57902 30.3897 7.5 30.1989 7.5 30V27C7.5 26.8011 7.57902 26.6103 7.71967 26.4697C7.86032 26.329 8.05109 26.25 8.25 26.25H28.5ZM33.972 18.534C34.113 18.3943 34.3036 18.3161 34.5021 18.3167C34.7006 18.3172 34.8908 18.3965 35.031 18.537L39.972 23.502C40.1117 23.643 40.1899 23.8336 40.1893 24.0321C40.1888 24.2306 40.1095 24.4208 39.969 24.561L35.028 29.478C34.923 29.5821 34.7895 29.6529 34.6443 29.6813C34.4992 29.7098 34.3488 29.6947 34.2122 29.6379C34.0756 29.5812 33.9589 29.4853 33.8766 29.3624C33.7944 29.2394 33.7503 29.0949 33.75 28.947V19.068C33.7498 18.9687 33.7694 18.8704 33.8075 18.7787C33.8456 18.6871 33.9015 18.6039 33.972 18.534ZM28.5 17.25C28.6989 17.25 28.8897 17.329 29.0303 17.4697C29.171 17.6103 29.25 17.8011 29.25 18V21C29.25 21.414 28.914 21.75 28.5 21.75H8.25C8.05109 21.75 7.86032 21.671 7.71967 21.5303C7.57902 21.3897 7.5 21.1989 7.5 21V18C7.5 17.8011 7.57902 17.6103 7.71967 17.4697C7.86032 17.329 8.05109 17.25 8.25 17.25H28.5ZM39.75 8.25C39.9489 8.25 40.1397 8.32902 40.2803 8.46967C40.421 8.61032 40.5 8.80109 40.5 9V12C40.5 12.414 40.164 12.75 39.75 12.75H8.25C8.05109 12.75 7.86032 12.671 7.71967 12.5303C7.57902 12.3897 7.5 12.1989 7.5 12V9C7.5 8.80109 7.57902 8.61032 7.71967 8.46967C7.86032 8.32902 8.05109 8.25 8.25 8.25H39.75Z" fill="black"/>
</svg>
