<svg width="48" height="48" viewBox="0 0 48 48" fill="none" xmlns="http://www.w3.org/2000/svg">
<path d="M24.198 21.9999C24.7281 22.0052 25.2344 22.2207 25.6057 22.5991C25.9769 22.9775 26.1828 23.4878 26.178 24.0179L26.004 44.0459C25.9995 44.5764 25.7845 45.0833 25.4062 45.4552C25.0279 45.8271 24.5174 46.0335 23.987 46.0289C23.4566 46.0244 22.9496 45.8094 22.5778 45.4311C22.2059 45.0529 21.9995 44.5424 22.004 44.0119L22.18 23.9819C22.1824 23.7193 22.2364 23.4597 22.3391 23.2179C22.4418 22.9762 22.5911 22.757 22.7785 22.573C22.9659 22.3889 23.1877 22.2436 23.4312 22.1453C23.6748 22.047 23.9354 21.9976 24.198 21.9999Z" fill="black"/>
<path fill-rule="evenodd" clip-rule="evenodd" d="M22.284 2.42195C22.8079 2.12723 23.3989 1.97241 24 1.97241C24.6011 1.97241 25.1921 2.12723 25.716 2.42195L42.216 11.7019C42.7578 12.0067 43.2086 12.4503 43.5221 12.987C43.8357 13.5238 44.0006 14.1343 44 14.7559V33.2519C43.9999 33.8729 43.8346 34.4826 43.5211 35.0186C43.2076 35.5546 42.7572 35.9975 42.216 36.3019L25.716 45.5819C25.1921 45.8767 24.6011 46.0315 24 46.0315C23.3989 46.0315 22.8079 45.8767 22.284 45.5819L5.784 36.3019C5.24252 35.9973 4.79188 35.5541 4.47835 35.0177C4.16483 34.4814 3.99973 33.8712 4 33.2499V14.7539C4.00008 14.1754 4.14358 13.6065 4.41678 13.098C4.43678 13.0608 4.45748 13.0239 4.47886 12.9873C4.48843 12.9709 4.49812 12.9547 4.50794 12.9385C4.81994 12.4244 5.25933 11.9991 5.784 11.7039L22.284 2.42395V2.42195ZM24 6.04595L10.0935 13.8684L8 15.0459V17.2815V32.9579L24 41.9579L40 32.9579V17.3132V15.0459L37.9361 13.885L24 6.04595ZM4.46 13.0199C4.47537 12.9924 4.49136 12.9652 4.50794 12.9385C4.7698 12.5167 5.18004 12.2062 5.65974 12.0697C6.16981 11.9246 6.71665 11.988 7.18 12.2459L10.0935 13.8684L24.168 21.7059L37.9361 13.885L40.804 12.2559C41.0324 12.1262 41.2841 12.0427 41.5447 12.0102C41.8053 11.9778 42.0698 11.9969 42.323 12.0667C42.5763 12.1364 42.8133 12.2553 43.0205 12.4167C43.2278 12.578 43.4013 12.7786 43.531 13.0069C43.6607 13.2353 43.7442 13.487 43.7767 13.7476C43.8092 14.0083 43.79 14.2728 43.7203 14.526C43.6505 14.7792 43.5316 15.0162 43.3703 15.2235C43.2089 15.4307 43.0084 15.6042 42.78 15.7339L40 17.3132L25.166 25.7399C24.8676 25.9097 24.5306 25.9998 24.1873 26.0015C23.844 26.0033 23.5061 25.9166 23.206 25.7499L8 17.2815L5.232 15.7399C4.76873 15.4818 4.42694 15.0503 4.2818 14.5402C4.14472 14.0585 4.19363 13.544 4.41678 13.098C4.42992 13.0717 4.44366 13.0457 4.458 13.0199H4.46Z" fill="black"/>
<path d="M4.46 13.0199C4.44525 13.0458 4.43084 13.0718 4.41678 13.098C4.19363 13.544 4.14472 14.0585 4.2818 14.5402C4.42694 15.0503 4.76873 15.4818 5.232 15.7399L8 17.2815V15.0459L10.0935 13.8684L7.18 12.2459C6.71665 11.988 6.16981 11.9246 5.65974 12.0697C5.18004 12.2062 4.7698 12.5167 4.50794 12.9385C4.49812 12.9547 4.48843 12.9709 4.47886 12.9873C4.47269 12.9978 4.46605 13.0093 4.46 13.0199C4.46017 13.0196 4.45983 13.0203 4.46 13.0199Z" fill="black"/>
<path d="M40 15.0459V17.3132L42.78 15.7339C43.0084 15.6042 43.2089 15.4307 43.3703 15.2235C43.5316 15.0162 43.6505 14.7792 43.7203 14.526C43.79 14.2728 43.8092 14.0083 43.7767 13.7476C43.7442 13.487 43.6607 13.2353 43.531 13.0069C43.4013 12.7786 43.2278 12.578 43.0205 12.4167C42.8133 12.2553 42.5763 12.1364 42.323 12.0667C42.0698 11.9969 41.8053 11.9778 41.5447 12.0102C41.2841 12.0427 41.0324 12.1262 40.804 12.2559L37.9361 13.885L40 15.0459Z" fill="black"/>
</svg>
