<svg width="48" height="48" viewBox="0 0 48 48" fill="none" xmlns="http://www.w3.org/2000/svg">
<path fill-rule="evenodd" clip-rule="evenodd" d="M42 5H6C4.894 5 4 5.796 4 6.778V19.222C4 20.204 4.894 21 6 21H9V15H8V11H40V15H39V21H42C43.104 21 44 20.204 44 19.222V6.778C44 5.796 43.104 5 42 5ZM11 15C11.0001 14.4696 11.2109 13.961 11.586 13.586C11.961 13.2109 12.4696 13.0001 13 13H35C35.5304 13 36.0391 13.2107 36.4142 13.5858C36.7893 13.9609 37 14.4696 37 15V42C37.0002 42.341 36.9132 42.6763 36.7472 42.9741C36.5813 43.272 36.342 43.5225 36.0521 43.7019C35.7621 43.8812 35.4311 43.9835 35.0905 43.9989C34.7499 44.0143 34.411 43.9424 34.106 43.79L24 39.236L13.894 43.79C13.589 43.9424 13.2501 44.0143 12.9095 43.9989C12.5689 43.9835 12.2379 43.8812 11.9479 43.7019C11.658 43.5225 11.4187 43.272 11.2528 42.9741C11.0868 42.6763 10.9998 42.341 11 42V15ZM29 27H19V31H29V27Z" fill="black"/>
</svg>
