<svg width="48" height="48" viewBox="0 0 48 48" fill="none" xmlns="http://www.w3.org/2000/svg">
<path d="M6 38C6 35.7909 7.79086 34 10 34C12.2091 34 14 35.7909 14 38C14 40.2091 12.2091 42 10 42C7.79086 42 6 40.2091 6 38ZM24 40C24 35.7565 22.315 31.6861 19.3145 28.6855C16.3139 25.685 12.2435 24 8 24C6.89543 24 6 23.1046 6 22C6 20.8954 6.89543 20 8 20C13.3043 20 18.3919 22.1067 22.1426 25.8574C25.8933 29.6081 28 34.6957 28 40C28 41.1046 27.1046 42 26 42C24.8954 42 24 41.1046 24 40ZM38 40C38 32.0435 34.839 24.4132 29.2129 18.7871C23.5868 13.161 15.9565 10 8 10C6.89543 10 6 9.10457 6 8C6 6.89543 6.89543 6 8 6C17.0174 6 25.6648 9.58275 32.041 15.959C38.4173 22.3352 42 30.9826 42 40C42 41.1046 41.1046 42 40 42C38.8954 42 38 41.1046 38 40Z" fill="black"/>
</svg>
