<svg width="48" height="48" viewBox="0 0 48 48" fill="none" xmlns="http://www.w3.org/2000/svg">
<path fill-rule="evenodd" clip-rule="evenodd" d="M12.0854 5.51538C12.4427 4.89658 13.103 4.51538 13.8175 4.51538H33.5671C34.282 4.51538 34.9426 4.89696 35.2997 5.51626C35.6568 6.13555 35.6562 6.89838 35.2982 7.51713L28.8562 18.649C28.5862 19.1155 28.1393 19.4533 27.6168 19.5858C27.0943 19.7183 26.5404 19.6343 26.0807 19.3528L21.735 16.6916L19.4646 20.2027C19.7425 20.7236 19.9 21.3184 19.9 21.95C19.9 24.0037 18.2352 25.6684 16.1816 25.6684C14.128 25.6684 12.4632 24.0037 12.4632 21.95C12.4632 19.9668 14.0159 18.3462 15.972 18.2375L19.4358 12.8808C20.0252 11.9694 21.2341 11.6944 22.1598 12.2613L26.4211 14.8708L30.099 8.51538L14.9722 8.51538L6.26517 23.5964L9.49614 28.9481C9.64704 28.9308 9.80049 28.922 9.95602 28.922C12.1652 28.922 13.956 30.7128 13.956 32.922C13.956 35.1311 12.1652 36.922 9.95602 36.922C7.74688 36.922 5.95602 35.1311 5.95602 32.922C5.95602 32.365 6.06985 31.8347 6.2755 31.3529L2.23049 24.6528C1.85396 24.0291 1.84635 23.25 2.21061 22.6191L12.0854 5.51538ZM20.8902 26.2911C21.4142 26.1678 21.9659 26.2609 22.4204 26.5495L26.3323 29.0331L28.9691 24.7913C28.6984 24.2755 28.5452 23.6884 28.5452 23.0655C28.5452 21.0119 30.21 19.3471 32.2636 19.3471C34.3172 19.3471 35.982 21.0119 35.982 23.0655C35.982 25.059 34.4133 26.6861 32.4429 26.7797L28.6635 32.8597C28.3817 33.313 27.9304 33.6348 27.4101 33.7536C26.8897 33.8724 26.3435 33.7783 25.8929 33.4922L22.004 31.0232L17.3596 38.7228L32.4124 38.7228L41.1088 23.6602L38.1743 18.9679C36.1169 18.8028 34.4987 17.0808 34.4987 14.9809C34.4987 12.7718 36.2896 10.9809 38.4987 10.9809C40.7078 10.9809 42.4987 12.7718 42.4987 14.9809C42.4987 15.8154 42.2432 16.5902 41.8061 17.2313L45.1377 22.5586C45.5299 23.1859 45.5439 23.9784 45.174 24.6191L35.2992 41.7228C34.9419 42.3416 34.2817 42.7228 33.5671 42.7228L13.8175 42.7228C13.0961 42.7228 12.4306 42.3343 12.0759 41.7061C11.7212 41.078 11.7323 40.3075 12.1049 39.6898L19.6358 27.2049C19.9139 26.7439 20.3661 26.4145 20.8902 26.2911ZM40.1443 16.1179C40.3678 15.7951 40.4987 15.4033 40.4987 14.9809C40.4987 13.8763 39.6033 12.9809 38.4987 12.9809C37.3941 12.9809 36.4987 13.8763 36.4987 14.9809C36.4987 16.0855 37.3941 16.9809 38.4987 16.9809C38.6013 16.9809 38.7021 16.9732 38.8005 16.9583L40.1443 16.1179ZM32.2636 24.7839C33.2126 24.7839 33.982 24.0146 33.982 23.0655C33.982 22.1165 33.2126 21.3471 32.2636 21.3471C31.3146 21.3471 30.5452 22.1165 30.5452 23.0655C30.5452 24.0146 31.3146 24.7839 32.2636 24.7839ZM9.95602 34.922C11.0606 34.922 11.956 34.0265 11.956 32.922C11.956 31.8174 11.0606 30.922 9.95602 30.922C8.85145 30.922 7.95602 31.8174 7.95602 32.922C7.95602 34.0265 8.85145 34.922 9.95602 34.922ZM17.9 21.95C17.9 22.8991 17.1306 23.6684 16.1816 23.6684C15.2325 23.6684 14.4632 22.8991 14.4632 21.95C14.4632 21.001 15.2325 20.2317 16.1816 20.2317C17.1306 20.2317 17.9 21.001 17.9 21.95Z" fill="black"/>
</svg>
