<svg width="48" height="48" viewBox="0 0 48 48" fill="none" xmlns="http://www.w3.org/2000/svg">
<path fill-rule="evenodd" clip-rule="evenodd" d="M32 24C32 28.4183 28.4183 32 24 32C19.5817 32 16 28.4183 16 24C16 19.5817 19.5817 16 24 16C28.4183 16 32 19.5817 32 24ZM28 24C28 26.2091 26.2091 28 24 28C21.7909 28 20 26.2091 20 24C20 21.7909 21.7909 20 24 20C26.2091 20 28 21.7909 28 24Z" fill="black"/>
<path fill-rule="evenodd" clip-rule="evenodd" d="M38.1421 9.85786C39.3341 11.0499 39.9197 12.6186 39.899 14.1808C39.8872 15.0443 39.6902 15.9074 39.308 16.702C39.171 16.9868 39.0102 17.263 38.8257 17.5276C38.7546 17.6295 38.7384 17.7607 38.786 17.8755C38.8335 17.9902 38.9378 18.0716 39.06 18.0933C39.3776 18.15 39.6866 18.2316 39.9849 18.3361C40.817 18.6277 41.5666 19.0987 42.1855 19.7009C43.3048 20.7909 44 22.3143 44 24C44 25.6857 43.3035 27.2103 42.1842 28.3003C41.5654 28.9025 40.817 29.3723 39.9849 29.6639C39.6866 29.7684 39.3776 29.85 39.06 29.9067C38.9378 29.9284 38.8335 30.0098 38.786 30.1245C38.7384 30.2393 38.7546 30.3705 38.8257 30.4724C39.0102 30.737 39.171 31.0132 39.308 31.298C39.6902 32.0926 39.8872 32.9557 39.899 33.8192C39.9197 35.3814 39.3341 36.9501 38.1421 38.1421C36.9501 39.3341 35.3796 39.9197 33.8174 39.8989C32.954 39.8872 32.0926 39.6902 31.298 39.308C31.0132 39.171 30.737 39.0102 30.4724 38.8257C30.3705 38.7546 30.2393 38.7384 30.1245 38.7859C30.0098 38.8335 29.9284 38.9378 29.9067 39.06C29.85 39.3776 29.7684 39.6866 29.6639 39.9849C29.3723 40.817 28.9013 41.5666 28.2991 42.1855C27.2091 43.3048 25.6857 44 24 44C22.3143 44 20.7897 43.3035 19.6997 42.1842C19.0975 41.5654 18.6277 40.817 18.3361 39.9849C18.2316 39.6866 18.15 39.3776 18.0933 39.06C18.0716 38.9378 17.9902 38.8335 17.8755 38.786C17.7607 38.7384 17.6295 38.7546 17.5276 38.8257C17.263 39.0102 16.9868 39.171 16.702 39.308C15.9074 39.6902 15.0443 39.8872 14.1808 39.899C12.6186 39.9197 11.0499 39.3341 9.85786 38.1421C8.66586 36.9501 8.08028 35.3796 8.10107 33.8174C8.11281 32.954 8.30979 32.0926 8.69202 31.298C8.829 31.0132 8.98978 30.737 9.17435 30.4724C9.24542 30.3705 9.26164 30.2393 9.21405 30.1245C9.16649 30.0098 9.06225 29.9284 8.94002 29.9067C8.62237 29.85 8.31338 29.7684 8.01514 29.6639C7.183 29.3723 6.43337 28.9013 5.81454 28.2991C4.6952 27.2091 4 25.6857 4 24C4 22.3143 4.69647 20.7897 5.8158 19.6997C6.43464 19.0975 7.18301 18.6277 8.01515 18.3361C8.31338 18.2316 8.62238 18.15 8.94002 18.0933C9.06225 18.0716 9.16649 17.9902 9.21405 17.8755C9.26164 17.7607 9.24542 17.6295 9.17434 17.5276C8.98978 17.263 8.829 16.9868 8.69202 16.702C8.30979 15.9074 8.11278 15.0443 8.10104 14.1808C8.08026 12.6186 8.66586 11.0499 9.85786 9.85786C11.0499 8.66586 12.6204 8.08028 14.1826 8.10107C15.046 8.11281 15.9074 8.30979 16.702 8.69203C16.9868 8.82901 17.263 8.98978 17.5276 9.17434C17.6295 9.24542 17.7607 9.26164 17.8755 9.21405C17.9902 9.16649 18.0715 9.06225 18.0933 8.94003C18.15 8.62239 18.2316 8.3134 18.3361 8.01517C18.6277 7.18302 19.0987 6.43338 19.7009 5.81453C20.7909 4.6952 22.3143 4 24 4C25.6857 4 27.2103 4.69647 28.3003 5.8158C28.9025 6.43465 29.3723 7.18303 29.6639 8.01518C29.7684 8.3134 29.85 8.62239 29.9067 8.94003C29.9285 9.06226 30.0098 9.16649 30.1245 9.21405C30.2393 9.26165 30.3705 9.24543 30.4724 9.17435C30.737 8.98978 31.0132 8.82901 31.298 8.69203C32.0926 8.30979 32.9557 8.11278 33.8192 8.10104C35.3814 8.08026 36.9501 8.66586 38.1421 9.85786ZM32.7606 12.4552C33.5382 11.9129 34.6209 11.9935 35.3137 12.6863C36.0065 13.3791 36.0871 14.4618 35.5448 15.2394C34.7219 16.4193 34.5016 17.9861 35.091 19.4077C35.679 20.8255 36.9403 21.7786 38.358 22.0313C39.2914 22.1976 40 23.0202 40 24C40 24.9798 39.2914 25.8024 38.358 25.9687C36.9403 26.2214 35.679 27.1745 35.091 28.5923C34.5016 30.0139 34.7219 31.5807 35.5448 32.7606C36.0871 33.5382 36.0065 34.6209 35.3137 35.3137C34.6209 36.0065 33.5382 36.0871 32.7606 35.5448C31.5807 34.7219 30.0138 34.5015 28.5923 35.0911C27.1745 35.679 26.2214 36.9403 25.9687 38.358C25.8024 39.2914 24.9798 40 24 40C23.0202 40 22.1976 39.2914 22.0313 38.358C21.7786 36.9403 20.8255 35.679 19.4077 35.091C17.9861 34.5016 16.4193 34.7219 15.2394 35.5448C14.4618 36.0871 13.3791 36.0065 12.6863 35.3137C11.9935 34.6209 11.9129 33.5382 12.4552 32.7606C13.2781 31.5807 13.4984 30.0138 12.909 28.5923C12.321 27.1745 11.0597 26.2214 9.64197 25.9687C8.70859 25.8024 8 24.9798 8 24C8 23.0202 8.70858 22.1976 9.64197 22.0313C11.0597 21.7786 12.321 20.8255 12.909 19.4077C13.4984 17.9862 13.2781 16.4193 12.4552 15.2394C11.9129 14.4618 11.9935 13.3791 12.6863 12.6863C13.3791 11.9935 14.4618 11.9129 15.2394 12.4552C16.4193 13.2781 17.9862 13.4984 19.4077 12.909C20.8255 12.321 21.7786 11.0597 22.0313 9.64197C22.1976 8.70859 23.0202 8 24 8C24.9798 8 25.8024 8.70859 25.9687 9.64197C26.2215 11.0597 27.1745 12.321 28.5923 12.909C30.0138 13.4984 31.5807 13.2781 32.7606 12.4552Z" fill="black"/>
</svg>
