<svg width="48" height="48" viewBox="0 0 48 48" fill="none" xmlns="http://www.w3.org/2000/svg">
<path fill-rule="evenodd" clip-rule="evenodd" d="M16 14C14.8954 14 14 14.8954 14 16V32C14 33.1046 14.8954 34 16 34H32C33.1046 34 34 33.1046 34 32V16C34 14.8954 33.1046 14 32 14H16ZM18 30V18H30V30H18Z" fill="#333333"/>
<path fill-rule="evenodd" clip-rule="evenodd" d="M9 4C6.23858 4 4 6.23858 4 9V39C4 41.7615 6.2386 44 9 44H39C41.7615 44 44 41.7615 44 39V9C44 6.2386 41.7615 4 39 4H9ZM8 9C8 8.44772 8.44772 8 9 8H39C39.5523 8 40 8.4477 40 9V39C40 39.5523 39.5523 40 39 40H9C8.4477 40 8 39.5523 8 39V9Z" fill="#333333"/>
</svg>
