<svg width="48" height="48" viewBox="0 0 48 48" fill="none" xmlns="http://www.w3.org/2000/svg">
<path opacity="0.32" fill-rule="evenodd" clip-rule="evenodd" d="M32.4142 27.5858C31.6332 26.8047 30.3668 26.8047 29.5858 27.5858L24 33.1716L18.4142 27.5858C17.6332 26.8047 16.3668 26.8047 15.5858 27.5858C14.8047 28.3668 14.8047 29.6332 15.5858 30.4142L22.5858 37.4142C23.3668 38.1953 24.6332 38.1953 25.4142 37.4142L32.4142 30.4142C33.1953 29.6332 33.1953 28.3668 32.4142 27.5858Z" fill="black"/>
<path fill-rule="evenodd" clip-rule="evenodd" d="M15.5858 20.4142C16.3668 21.1953 17.6332 21.1953 18.4142 20.4142L24 14.8284L29.5858 20.4142C30.3668 21.1953 31.6332 21.1953 32.4142 20.4142C33.1953 19.6332 33.1953 18.3668 32.4142 17.5858L25.4142 10.5858C24.6332 9.80474 23.3668 9.80474 22.5858 10.5858L15.5858 17.5858C14.8047 18.3668 14.8047 19.6332 15.5858 20.4142Z" fill="black"/>
</svg>
