<svg width="48" height="48" viewBox="0 0 48 48" fill="none" xmlns="http://www.w3.org/2000/svg">
<path fill-rule="evenodd" clip-rule="evenodd" d="M11.8965 4.90306C8.24218 5.43685 5.43685 8.24218 4.90306 11.8965C4.43738 15.0846 4 19.3236 4 24C4 27.4311 4.18901 30.9018 4.64039 34.3159C4.7472 35.1238 5.7286 35.4427 6.30483 34.8665L13.1716 27.9997C14.7337 26.4376 17.2664 26.4376 18.8285 27.9997L21.2929 30.4642C21.6834 30.8547 22.3166 30.8547 22.7071 30.4642L29.1716 23.9997C30.7337 22.4376 33.2664 22.4376 34.8285 23.9997L42.0463 31.2175C42.6407 31.812 43.654 31.4518 43.7228 30.6139C43.8905 28.57 44 26.3397 44 24C44 19.3236 43.5626 15.0846 43.0969 11.8965C42.5632 8.24218 39.7578 5.43685 36.1035 4.90306C32.9154 4.43738 28.6764 4 24 4C19.3236 4 15.0846 4.43737 11.8965 4.90306ZM20 16C20 18.2091 18.2091 20 16 20C13.7909 20 12 18.2091 12 16C12 13.7909 13.7909 12 16 12C18.2091 12 20 13.7909 20 16Z" fill="black"/>
<path d="M42.5277 38.154C42.6749 37.8042 42.5768 37.4049 42.3084 37.1365L32.7071 27.5352C32.3166 27.1447 31.6834 27.1447 31.2929 27.5352L24.8285 33.9997C23.2664 35.5618 20.7337 35.5618 19.1716 33.9997L16.7071 31.5352C16.3166 31.1447 15.6834 31.1447 15.2929 31.5352L7.31209 39.5161C6.94937 39.8788 6.91554 40.4624 7.2815 40.8219C8.4999 42.0186 10.095 42.8338 11.8965 43.0969C15.0846 43.5626 19.3236 44 24 44C28.6764 44 32.9154 43.5626 36.1035 43.0969C39.0377 42.6683 41.4246 40.7752 42.5277 38.154Z" fill="black"/>
</svg>
