<svg width="48" height="48" viewBox="0 0 48 48" fill="none" xmlns="http://www.w3.org/2000/svg">
<path fill-rule="evenodd" clip-rule="evenodd" d="M11.998 6C11.1696 6 10.498 6.67157 10.498 7.5V13.5H8.49805C5.99 13.5 3.74805 15.4039 3.74805 18V33C3.74805 33.8284 4.41962 34.5 5.24805 34.5H10.498V41.25C10.498 42.0784 11.1696 42.75 11.998 42.75H35.998C36.8265 42.75 37.498 42.0784 37.498 41.25V34.5H42.748C43.5765 34.5 44.248 33.8284 44.248 33V18C44.248 15.4039 42.0061 13.5 39.498 13.5H37.498V7.5C37.498 6.67157 36.8265 6 35.998 6H11.998ZM8.49805 16.5H11.998H35.998H39.498C40.5799 16.5 41.248 17.2824 41.248 18V31.5H37.498V28.5C37.498 27.6716 36.8265 27 35.998 27H11.998C11.1696 27 10.498 27.6716 10.498 28.5V31.5H6.74805V18C6.74805 17.2824 7.41624 16.5 8.49805 16.5ZM13.498 13.5H34.498V9H13.498V13.5ZM13.498 30H34.498V33V39.75H13.498V33V30ZM37.5 21.75C37.5 22.9926 36.4926 24 35.25 24C34.0074 24 33 22.9926 33 21.75C33 20.5074 34.0074 19.5 35.25 19.5C36.4926 19.5 37.5 20.5074 37.5 21.75Z" fill="#1A1B27"/>
</svg>
