<svg width="48" height="48" viewBox="0 0 48 48" fill="none" xmlns="http://www.w3.org/2000/svg">
<path d="M34.5 31H27.5V30.475C33.45 28.9 38 23.475 38 17C38 9.3 31.7 3 24 3C16.3 3 10 9.3 10 17C10 23.475 14.55 28.9 20.5 30.475V31H13.5C11.575 31 10 32.575 10 34.5C10 36.425 11.575 38 13.5 38H20.5V41.5C20.5 43.425 22.075 45 24 45C25.925 45 27.5 43.425 27.5 41.5V38H34.5C36.425 38 38 36.425 38 34.5C38 32.575 36.425 31 34.5 31ZM17 17C17 13.15 20.15 10 24 10C27.85 10 31 13.15 31 17C31 20.85 27.85 24 24 24C20.15 24 17 20.85 17 17Z" fill="black"/>
</svg>
