<svg width="48" height="48" viewBox="0 0 48 48" fill="none" xmlns="http://www.w3.org/2000/svg">
<path fill-rule="evenodd" clip-rule="evenodd" d="M8 6C4.68629 6 2 8.68629 2 12V16C2 19.3137 4.68629 22 8 22H12C15.3137 22 18 19.3137 18 16H20C21.1046 16 22 16.8954 22 18V30C22 31.1046 21.1046 32 20 32H18C18 28.6863 15.3137 26 12 26H8C4.68629 26 2 28.6863 2 32V36C2 39.3137 4.68629 42 8 42H12C15.3137 42 18 39.3137 18 36H20C23.3137 36 26 33.3137 26 30V26H30C30 29.3137 32.6863 32 36 32H40C43.3137 32 46 29.3137 46 26V22C46 18.6863 43.3137 16 40 16H36C32.6863 16 30 18.6863 30 22H26V18C26 14.6863 23.3137 12 20 12H18C18 8.68629 15.3137 6 12 6H8ZM12 10H8C6.89543 10 6 10.8954 6 12V16C6 17.1046 6.89543 18 8 18H12C13.1046 18 14 17.1046 14 16V12C14 10.8954 13.1046 10 12 10ZM12 30H8C6.89543 30 6 30.8954 6 32V36C6 37.1046 6.89543 38 8 38H12C13.1046 38 14 37.1046 14 36V32C14 30.8954 13.1046 30 12 30ZM40 20H36C34.8954 20 34 20.8954 34 22V26C34 27.1046 34.8954 28 36 28H40C41.1046 28 42 27.1046 42 26V22C42 20.8954 41.1046 20 40 20Z" fill="black"/>
</svg>
