<svg width="48" height="48" viewBox="0 0 48 48" fill="none" xmlns="http://www.w3.org/2000/svg">
<path d="M44 9L44.2051 9.00977C45.2133 9.11243 46 9.96465 46 11V37C46 38.1046 45.1046 39 44 39H14C13.3791 39 12.7927 38.7109 12.4141 38.2188L2.41406 25.2188C1.86184 24.5002 1.86184 23.4998 2.41406 22.7812L12.4141 9.78125L12.5664 9.60547C12.9406 9.22073 13.4568 9 14 9H44ZM6.52344 24L14.9844 35H42V13H14.9844L6.52344 24ZM29.5859 17.5859C30.367 16.8049 31.633 16.8049 32.4141 17.5859C33.1951 18.367 33.1951 19.633 32.4141 20.4141L28.8281 24L32.4141 27.5859L32.5508 27.7383C33.1914 28.5238 33.1463 29.6819 32.4141 30.4141C31.6818 31.1462 30.5238 31.1914 29.7383 30.5508L29.5859 30.4141L26 26.8281L22.4141 30.4141C21.633 31.195 20.367 31.195 19.5859 30.4141C18.8049 29.633 18.805 28.367 19.5859 27.5859L23.1719 24L19.5859 20.4141L19.4492 20.2617C18.8085 19.4762 18.8537 18.3182 19.5859 17.5859C20.3182 16.8537 21.4762 16.8085 22.2617 17.4492L22.4141 17.5859L26 21.1719L29.5859 17.5859Z" fill="black"/>
</svg>
