<svg width="48" height="48" viewBox="0 0 48 48" fill="none" xmlns="http://www.w3.org/2000/svg">
<path d="M4 38V30C4 28.8954 4.89543 28 6 28C7.10457 28 8 28.8954 8 30V38C8 38.5304 8.21086 39.039 8.58594 39.4141C8.96101 39.7891 9.46957 40 10 40H38C38.5304 40 39.039 39.7891 39.4141 39.4141C39.7891 39.039 40 38.5304 40 38V30C40 28.8954 40.8954 28 42 28C43.1046 28 44 28.8954 44 30V38C44 39.5913 43.3674 41.117 42.2422 42.2422C41.117 43.3674 39.5913 44 38 44H10C8.4087 44 6.88303 43.3674 5.75781 42.2422C4.63259 41.117 4 39.5913 4 38ZM22 6C22 4.89543 22.8954 4 24 4C25.1046 4 26 4.89543 26 6V25.1719L32.5859 18.5859C33.367 17.8049 34.633 17.8049 35.4141 18.5859C36.1951 19.367 36.1951 20.633 35.4141 21.4141L25.4141 31.4141C24.633 32.1951 23.367 32.1951 22.5859 31.4141L12.5859 21.4141C11.8049 20.633 11.8049 19.367 12.5859 18.5859C13.367 17.8049 14.633 17.8049 15.4141 18.5859L22 25.1719V6Z" fill="#0A0A0A"/>
</svg>
