<svg width="48" height="48" viewBox="0 0 48 48" fill="none" xmlns="http://www.w3.org/2000/svg">
<path d="M16.7628 37.607C17.3277 37.607 17.8629 37.711 18.3684 37.9192C18.8739 38.1273 19.3124 38.4172 19.6841 38.7889C20.0558 39.1605 20.3531 39.5991 20.5761 40.1046C20.7991 40.6101 20.9106 41.1453 20.9106 41.7102C20.9106 42.2752 20.7991 42.8104 20.5761 43.3158C20.3531 43.8213 20.0558 44.2599 19.6841 44.6315C19.3124 45.0032 18.8739 45.3006 18.3684 45.5236C17.8629 45.7466 17.3277 45.8581 16.7628 45.8581C16.1681 45.8581 15.618 45.7466 15.1126 45.5236C14.6071 45.3006 14.1685 45.0032 13.7968 44.6315C13.4252 44.2599 13.1278 43.8213 12.9048 43.3158C12.6818 42.8104 12.5703 42.2752 12.5703 41.7102C12.5703 41.1453 12.6818 40.6101 12.9048 40.1046C13.1278 39.5991 13.4252 39.1605 13.7968 38.7889C14.1685 38.4172 14.6071 38.1273 15.1126 37.9192C15.618 37.711 16.1681 37.607 16.7628 37.607ZM35.3166 37.6962C35.8815 37.6962 36.4242 37.8002 36.9445 38.0084C37.4648 38.2165 37.9108 38.5064 38.2825 38.8781C38.6542 39.2498 38.9515 39.6883 39.1745 40.1938C39.3975 40.6993 39.509 41.2345 39.509 41.7994C39.509 42.3644 39.3975 42.8996 39.1745 43.405C38.9515 43.9105 38.6542 44.3491 38.2825 44.7207C37.9108 45.0924 37.4648 45.3898 36.9445 45.6128C36.4242 45.8358 35.8815 45.9473 35.3166 45.9473C34.7516 45.9473 34.2164 45.8358 33.711 45.6128C33.2055 45.3898 32.7669 45.0924 32.3952 44.7207C32.0236 44.3491 31.7262 43.9105 31.5032 43.405C31.2802 42.8996 31.1687 42.3644 31.1687 41.7994C31.1687 41.2345 31.2802 40.6993 31.5032 40.1938C31.7262 39.6883 32.0236 39.2498 32.3952 38.8781C32.7669 38.5064 33.2055 38.2165 33.711 38.0084C34.2164 37.8002 34.7516 37.6962 35.3166 37.6962ZM42.8095 12.3631C43.642 12.3631 44.2887 12.4746 44.7496 12.6976C45.2105 12.9206 45.5375 13.1956 45.7308 13.5227C45.9241 13.8498 46.0133 14.1991 45.9984 14.5708C45.9835 14.9425 45.9315 15.2621 45.8423 15.5297C45.7531 15.7973 45.5598 16.3474 45.2625 17.1799C44.9652 18.0125 44.6455 18.9268 44.3036 19.9229C43.9616 20.9189 43.6197 21.9076 43.2778 22.8888C42.9358 23.87 42.6608 24.6431 42.4527 25.208C42.0661 26.3974 41.583 27.2225 41.0031 27.6834C40.4233 28.1442 39.7023 28.3747 38.84 28.3747H37.279H34.4246H30.6781H26.4857H15.4248L16.0492 32.3887H38.5724C39.9996 32.3887 40.7132 32.9982 40.7132 34.2173C40.7132 34.812 40.572 35.3249 40.2895 35.756C40.0071 36.1872 39.4496 36.4028 38.617 36.4028H36.4762H32.3729H27.1993H21.981H17.6548H15.2464C14.6517 36.4028 14.1536 36.2689 13.7522 36.0013C13.3508 35.7337 13.0163 35.3844 12.7487 34.9532C12.4811 34.5221 12.2656 34.0538 12.102 33.5483C11.9385 33.0428 11.8121 32.5671 11.7229 32.1211C11.6932 31.9427 11.6114 31.5116 11.4776 30.8277C11.3438 30.1438 11.1803 29.289 10.987 28.2632C10.7937 27.2373 10.5782 26.0926 10.3403 24.8289C10.1024 23.5652 9.86456 22.2941 9.62669 21.0156C9.06175 18.0125 8.42247 14.6674 7.70887 10.9805H4.36383C3.91782 10.9805 3.54615 10.869 3.24881 10.646C2.95148 10.4229 2.70617 10.1553 2.51291 9.84314C2.31964 9.53094 2.18584 9.19643 2.1115 8.83963C2.03717 8.48283 2 8.15576 2 7.85842C2 7.26375 2.2007 6.77314 2.60211 6.3866C3.00351 6.00006 3.54615 5.8068 4.23003 5.8068H5.16664H6.10325H7.21826H8.73468C9.32935 5.8068 9.80509 5.896 10.1619 6.0744C10.5187 6.2528 10.8012 6.4758 11.0093 6.74341C11.2174 7.01101 11.3661 7.29348 11.4553 7.59082C11.5445 7.88815 11.6188 8.14089 11.6783 8.34902C11.7378 8.58689 11.7972 8.9214 11.8567 9.35254C11.9162 9.78367 11.9756 10.2222 12.0351 10.6683C12.1243 11.2035 12.2135 11.7684 12.3027 12.3631H42.8095ZM39.4644 10.9359H23.1406L29.0279 5.04859C29.7118 4.36471 30.4626 4.01534 31.2802 4.00047C32.0979 3.98561 32.8487 4.32011 33.5326 5.00399L39.4644 10.9359Z" fill="black"/>
</svg>
