<svg width="48" height="48" viewBox="0 0 48 48" fill="none" xmlns="http://www.w3.org/2000/svg">
<path fill-rule="evenodd" clip-rule="evenodd" d="M7.41421 22.5858C6.63316 21.8047 5.36683 21.8047 4.58579 22.5858C3.80474 23.3668 3.80474 24.6332 4.58579 25.4142L22.5858 43.4142C23.3668 44.1953 24.6332 44.1953 25.4142 43.4142L43.4142 25.4142C44.1953 24.6332 44.1953 23.3668 43.4142 22.5858C42.6332 21.8047 41.3668 21.8047 40.5858 22.5858L24 39.1716L7.41421 22.5858ZM7.41421 6.58578C6.63316 5.80474 5.36683 5.80474 4.58578 6.58578C3.80474 7.36684 3.80474 8.63316 4.58578 9.41422L22.5858 27.4142C23.3668 28.1953 24.6332 28.1953 25.4142 27.4142L43.4142 9.41421C44.1953 8.63316 44.1953 7.36683 43.4142 6.58578C42.6332 5.80474 41.3668 5.80474 40.5858 6.58578L24 23.1716L7.41421 6.58578Z" fill="black"/>
</svg>
