<svg width="48" height="48" viewBox="0 0 48 48" fill="none" xmlns="http://www.w3.org/2000/svg">
<path fill-rule="evenodd" clip-rule="evenodd" d="M43 4.00002C43 3.38746 42.7193 2.80868 42.2382 2.42943C41.7572 2.05018 41.1289 1.91229 40.5333 2.05524L15.5333 8.05524C14.634 8.27106 14 9.07524 14 10V17.9999C13.9994 18.0281 13.9994 18.0564 14 18.0848V33H9.5C6.46243 33 4 35.4624 4 38.5C4 41.5376 6.46243 44 9.5 44H12.4C15.4928 44 18 41.4928 18 38.4V38V35V19.6258L39 14.6538V29H33.5C30.4624 29 28 31.4625 28 34.5C28 37.5376 30.4624 40 33.5 40H37.4C40.4928 40 43 37.4928 43 34.4V33.6924V31V12.1692C43.0006 12.1409 43.0006 12.1126 43 12.0842V4.00002ZM39 10.5432V6.53681L18 11.5768V15.5152L39 10.5432ZM39 33H33.5C32.6716 33 32 33.6716 32 34.5C32 35.3284 32.6716 36 33.5 36H37.4C38.2836 36 39 35.2836 39 34.4V33.6924V33ZM14 37H9.5C8.67157 37 8 37.6716 8 38.5C8 39.3284 8.67157 40 9.5 40H12.4C13.2836 40 14 39.2836 14 38.4V38V37Z" fill="black"/>
</svg>
