<svg width="48" height="48" viewBox="0 0 48 48" fill="none" xmlns="http://www.w3.org/2000/svg">
<path d="M43.476 28.48C43.0531 28.9581 42.5334 29.3409 41.9514 29.6029C41.3694 29.865 40.7383 30.0003 40.1 30H30V33C29.9979 34.9885 29.207 36.8949 27.801 38.301C26.3949 39.707 24.4885 40.4979 22.5 40.5C22.2218 40.4998 21.9492 40.4223 21.7126 40.276C21.4759 40.1298 21.2846 39.9207 21.16 39.672L14.072 25.5H6C5.20435 25.5 4.44129 25.1839 3.87868 24.6213C3.31607 24.0587 3 23.2956 3 22.5V6C3 5.20435 3.31607 4.44129 3.87868 3.87868C4.44129 3.31607 5.20435 3 6 3H37.852C38.9478 3.00196 40.0054 3.40302 40.827 4.12817C41.6486 4.85331 42.1779 5.8529 42.316 6.94L44.568 24.94C44.6474 25.5738 44.5911 26.2171 44.4028 26.8275C44.2145 27.4378 43.8986 28.0011 43.476 28.48ZM6 22.5H13.5V6H6V22.5Z" fill="black"/>
</svg>
