<svg width="48" height="48" viewBox="0 0 48 48" fill="none" xmlns="http://www.w3.org/2000/svg">
<path fill-rule="evenodd" clip-rule="evenodd" d="M13.6074 8.70355C16.4963 8.32201 20.0955 8 24 8C27.9045 8 31.5037 8.32201 34.3926 8.70355C36.9926 9.04693 38.9531 11.0074 39.2965 13.6074C39.678 16.4963 40 20.0955 40 24C40 27.9045 39.678 31.5037 39.2965 34.3926C38.9531 36.9926 36.9926 38.9531 34.3926 39.2965C31.5037 39.678 27.9045 40 24 40C20.0955 40 16.4963 39.678 13.6074 39.2965C11.0074 38.9531 9.04693 36.9926 8.70355 34.3926C8.32201 31.5037 8 27.9045 8 24C8 20.0955 8.32201 16.4963 8.70355 13.6074C9.04693 11.0074 11.0074 9.04693 13.6074 8.70355ZM4.73799 13.0837C5.31825 8.69009 8.69009 5.31825 13.0837 4.73799C16.1042 4.33907 19.8825 4 24 4C28.1175 4 31.8958 4.33907 34.9163 4.73799C39.3099 5.31825 42.6818 8.69009 43.262 13.0837C43.6609 16.1042 44 19.8825 44 24C44 28.1175 43.6609 31.8958 43.262 34.9163C42.6818 39.3099 39.3099 42.6818 34.9163 43.262C31.8958 43.6609 28.1175 44 24 44C19.8825 44 16.1042 43.6609 13.0837 43.262C8.69009 42.6818 5.31825 39.3099 4.73799 34.9163C4.33907 31.8958 4 28.1175 4 24C4 19.8825 4.33907 16.1042 4.73799 13.0837ZM19.4142 16.5858C18.6332 15.8047 17.3668 15.8047 16.5858 16.5858C15.8047 17.3668 15.8047 18.6332 16.5858 19.4142L21.1716 24L16.5858 28.5858C15.8047 29.3668 15.8047 30.6332 16.5858 31.4142C17.3668 32.1953 18.6332 32.1953 19.4142 31.4142L24 26.8284L28.5858 31.4142C29.3668 32.1953 30.6332 32.1953 31.4142 31.4142C32.1953 30.6332 32.1953 29.3668 31.4142 28.5858L26.8284 24L31.4142 19.4142C32.1953 18.6332 32.1953 17.3668 31.4142 16.5858C30.6332 15.8047 29.3668 15.8047 28.5858 16.5858L24 21.1716L19.4142 16.5858Z" fill="black"/>
</svg>
