<svg width="48" height="48" viewBox="0 0 48 48" fill="none" xmlns="http://www.w3.org/2000/svg">
<g opacity="0.8">
<path d="M24.7741 2.52995L42.2066 12.5945C42.442 12.7304 42.6375 12.9258 42.7734 13.1612C42.9093 13.3966 42.9808 13.6636 42.9809 13.9354V34.0644C42.9808 34.3362 42.9093 34.6032 42.7734 34.8386C42.6375 35.074 42.442 35.2694 42.2066 35.4053L24.7741 45.4698C24.5388 45.6057 24.2717 45.6773 23.9999 45.6773C23.7281 45.6773 23.4611 45.6057 23.2257 45.4698L5.79324 35.4053C5.55786 35.2694 5.3624 35.074 5.2265 34.8386C5.0906 34.6032 5.01905 34.3362 5.01904 34.0644V13.9354C5.01905 13.6636 5.0906 13.3966 5.2265 13.1612C5.3624 12.9258 5.55786 12.7304 5.79324 12.5945L23.2257 2.52995C23.4611 2.39405 23.7281 2.32251 23.9999 2.32251C24.2717 2.32251 24.5388 2.39405 24.7741 2.52995ZM23.9999 5.65847L9.6642 13.9354L14.0461 16.4662L12.4978 19.148L8.11582 16.618V33.171L22.4516 41.4463V36.387H25.5483V41.4463L39.8841 33.1702V16.6172L35.5021 19.1472L33.9538 16.4654L38.3357 13.9346L23.9999 5.65847ZM18.6658 17.6306C19.8688 17.643 20.8242 18.027 21.5326 18.7834C22.1976 19.4907 22.5674 20.4254 22.5661 21.3963C22.5661 21.9042 22.4756 22.3942 22.2944 22.8657C22.0823 23.338 21.7045 23.7576 21.1602 24.1276C21.7168 24.49 22.1187 24.9251 22.3672 25.4337C22.6025 25.9416 22.721 26.4734 22.721 27.0301C22.7086 28.2703 22.3246 29.2466 21.5682 29.9604C20.825 30.6928 19.8688 31.0644 18.7014 31.0768C17.8242 31.0853 16.9736 30.7759 16.3068 30.2058C15.6108 29.6252 15.1602 28.7844 14.9543 27.6835H16.851C17.0198 28.1248 17.259 28.4817 17.5672 28.7542C17.8823 29.0383 18.2996 29.18 18.8198 29.18C19.3757 29.18 19.8448 28.9896 20.2258 28.6087C20.6128 28.2525 20.8126 27.7439 20.8242 27.0843C20.8126 26.413 20.6128 25.8928 20.2258 25.5243C19.8448 25.1674 19.361 24.9885 18.7741 24.9885H17.9759V23.3109H18.6286C19.2758 23.3109 19.7783 23.1328 20.1352 22.7759C20.4913 22.4314 20.6701 21.9839 20.6701 21.4334C20.6585 20.876 20.4735 20.42 20.1166 20.0631C19.7605 19.7186 19.3006 19.5398 18.7385 19.5281C18.3328 19.5281 17.9643 19.6582 17.6314 19.9183C17.2799 20.1785 17.0446 20.5803 16.923 21.1245H15.027C15.1238 20.1452 15.5202 19.3191 16.2154 18.6471C16.899 17.9829 17.7158 17.6438 18.665 17.6314L18.6658 17.6306ZM28.4903 17.7398C30.281 17.7521 31.6242 18.4961 32.5192 19.9718C32.8397 20.4672 33.0425 20.9875 33.1269 21.5318L33.1517 21.771C33.1981 22.2912 33.2229 23.0639 33.226 24.092L33.2268 24.3537C33.2268 25.7751 33.1757 26.7669 33.0719 27.3297C33.0303 27.5914 32.9575 27.8471 32.8552 28.0915C32.7437 28.3253 32.6193 28.5527 32.4828 28.7728C32.0957 29.3952 31.5576 29.9093 30.8678 30.3142C30.1842 30.7501 29.3465 30.9676 28.3548 30.9676H23.8645V17.7398H28.4903ZM28.2642 19.6365H25.8688V29.0709H28.2642C29.3225 29.0709 30.1083 28.7302 30.6208 28.0497L30.7138 27.9181L30.8043 27.7919C30.9762 27.5302 31.0885 27.212 31.1403 26.8389C31.1837 26.4982 31.21 25.9199 31.2177 25.1047L31.2201 24.8771L31.2216 24.1663C31.2178 23.1521 31.1907 22.4159 31.1403 21.9576C31.0676 21.4621 30.8949 21.0595 30.6232 20.7514C30.1354 20.0794 29.4735 19.7101 28.6343 19.6443L28.4516 19.635L28.2642 19.6365Z" fill="black"/>
</g>
</svg>
