<svg width="48" height="48" viewBox="0 0 48 48" fill="none" xmlns="http://www.w3.org/2000/svg">
<path fill-rule="evenodd" clip-rule="evenodd" d="M16.2111 5.10557C16.5499 4.428 17.2425 4 18 4H30C30.7575 4 31.4501 4.428 31.7889 5.10557L34.2361 10H41C43.7614 10 46 12.2386 46 15V39C46 41.7614 43.7614 44 41 44H7C4.23858 44 2 41.7614 2 39V15C2 12.2386 4.23858 10 7 10H13.7639L16.2111 5.10557ZM28.7639 8L29.7639 10H18.2361L19.2361 8H28.7639ZM7 14H15H33H41C41.5523 14 42 14.4477 42 15V39C42 39.5523 41.5523 40 41 40H7C6.44772 40 6 39.5523 6 39V15C6 14.4477 6.44772 14 7 14ZM24 17C18.4771 17 14 21.4771 14 27C14 32.5229 18.4771 37 24 37C29.5229 37 34 32.5229 34 27C34 21.4771 29.5229 17 24 17ZM18 27C18 23.6863 20.6863 21 24 21C27.3137 21 30 23.6863 30 27C30 30.3137 27.3137 33 24 33C20.6863 33 18 30.3137 18 27Z" fill="black"/>
</svg>
