<svg width="48" height="48" viewBox="0 0 48 48" fill="none" xmlns="http://www.w3.org/2000/svg">
<path fill-rule="evenodd" clip-rule="evenodd" d="M8.44366 8.44363C12.4227 4.46463 17.9255 2 24 2C30.0745 2 35.5773 4.46463 39.5563 8.44364L38.1421 9.85786L39.5563 8.44365C43.5353 12.4227 46 17.9255 46 24C46 30.0745 43.5353 35.5773 39.5563 39.5563C35.5773 43.5353 30.0745 46 24 46C17.9255 46 12.4227 43.5353 8.44365 39.5563L9.85786 38.1421L8.44364 39.5563C4.46463 35.5773 2 30.0745 2 24C2 17.9255 4.46463 12.4227 8.44363 8.44366L8.44366 8.44363ZM24 6C19.0289 6 14.5317 8.01253 11.2721 11.2721C8.01251 14.5317 6 19.0289 6 24C6 28.9711 8.01253 33.4683 11.2721 36.7279C14.5317 39.9875 19.0289 42 24 42C28.9711 42 33.4683 39.9875 36.7279 36.7279C39.9875 33.4683 42 28.9711 42 24C42 19.0289 39.9875 14.5317 36.7279 11.2721C33.4683 8.01253 28.9711 6 24 6ZM16 18.6248C16 14.2065 19.5817 10.6248 24 10.6248C28.4183 10.6248 32 14.2065 32 18.6248C32 22.3524 29.4505 25.4846 26 26.3727V28.6248C26 29.7293 25.1046 30.6248 24 30.6248C22.8954 30.6248 22 29.7293 22 28.6248V24.6248C22 23.5202 22.8954 22.6248 24 22.6248C26.2091 22.6248 28 20.8339 28 18.6248C28 16.4156 26.2091 14.6248 24 14.6248C21.7909 14.6248 20 16.4156 20 18.6248C20 19.7293 19.1046 20.6248 18 20.6248C16.8954 20.6248 16 19.7293 16 18.6248ZM26.5 35.1248C26.5 36.5055 25.3807 37.6248 24 37.6248C22.6193 37.6248 21.5 36.5055 21.5 35.1248C21.5 33.7441 22.6193 32.6248 24 32.6248C25.3807 32.6248 26.5 33.7441 26.5 35.1248Z" fill="black"/>
</svg>
