<svg width="48" height="48" viewBox="0 0 48 48" fill="none" xmlns="http://www.w3.org/2000/svg">
<path d="M12 24C12 21.9188 12.1527 19.896 12.4395 17.9746C11.8436 18.2069 11.2794 18.455 10.752 18.7188C7.34559 20.4222 6 22.4048 6 24C6 25.5952 7.34559 27.5778 10.752 29.2812C11.2792 29.5449 11.8438 29.7912 12.4395 30.0234C12.1528 28.1026 12 26.0805 12 24ZM24 6C22.4048 6 20.4222 7.34559 18.7188 10.752C18.455 11.2794 18.2069 11.8436 17.9746 12.4395C19.896 12.1527 21.9188 12 24 12C26.0825 12 28.1043 12.1531 30.0234 12.4395C29.3681 10.7581 28.5917 9.35915 27.748 8.29883C26.4292 6.64155 25.1263 6 24 6ZM16 24C16 26.6023 16.2611 29.0592 16.7227 31.2754C18.9394 31.7372 21.3968 32 24 32C27.2718 32 30.3128 31.5861 32.9355 30.8809L29.5117 29.2109C28.5189 28.7268 28.1057 27.5299 28.5898 26.5371C29.074 25.5445 30.271 25.1332 31.2637 25.6172L38.8926 29.3359C39.8852 29.82 40.2963 31.0171 39.8125 32.0098L36.0938 39.6387C35.6098 40.6311 34.4125 41.0439 33.4199 40.5605C32.4271 40.0764 32.0139 38.8776 32.498 37.8848L34.0371 34.7266C31.0141 35.546 27.595 36 24 36C21.9187 36 19.8961 35.8454 17.9746 35.5586C18.2071 36.1551 18.4548 36.7201 18.7188 37.248C20.4222 40.6544 22.4048 42 24 42C24.4098 42 24.825 41.9177 25.248 41.7461C26.2715 41.331 27.4382 41.8244 27.8535 42.8477C28.2686 43.8711 27.7753 45.0379 26.752 45.4531C25.883 45.8055 24.9582 46 24 46C20.0735 46 17.0567 42.8687 15.1406 39.0371C14.4696 37.6951 13.8958 36.1937 13.4258 34.5723C11.8052 34.1023 10.3043 33.5301 8.96289 32.8594C5.13129 30.9433 2 27.9265 2 24C2 20.0735 5.13129 17.0567 8.96289 15.1406C10.3044 14.4698 11.805 13.8957 13.4258 13.4258C13.8957 11.805 14.4698 10.3044 15.1406 8.96289C17.0567 5.13129 20.0735 2 24 2C26.7774 2 29.1174 3.59585 30.877 5.80664C32.4548 7.78938 33.7013 10.425 34.5703 13.4219C35.5983 13.7198 36.578 14.0592 37.498 14.4395C41.1575 15.952 44.23 18.2372 45.4531 21.248C45.8683 22.2711 45.3763 23.4377 44.3535 23.8535C43.3302 24.2692 42.1618 23.7753 41.7461 22.752C41.1148 21.1992 39.2259 19.4829 35.9688 18.1367C32.7878 16.8221 28.6169 16 24 16C21.3969 16 18.9393 16.2609 16.7227 16.7227C16.2609 18.9393 16 21.3969 16 24Z" fill="black"/>
</svg>
