<svg width="48" height="48" viewBox="0 0 48 48" fill="none" xmlns="http://www.w3.org/2000/svg">
<path d="M17.2685 26.6774C18.2184 23.8427 20.8958 21.8 24.05 21.8C27.2043 21.8 29.8817 23.8427 30.8316 26.6774C34.0067 26.0873 37.0897 25.0792 40 23.6793V8.05C40 7.68886 39.9289 7.33127 39.7907 6.99762C39.6525 6.66397 39.45 6.36082 39.1946 6.10546C38.9392 5.85009 38.6361 5.64753 38.3024 5.50933C37.9688 5.37113 37.6112 5.3 37.25 5.3H10.85C10.4889 5.3 10.1313 5.37113 9.79767 5.50933C9.46402 5.64753 9.16087 5.85009 8.90551 6.10546C8.65014 6.36082 8.44758 6.66397 8.30938 6.99762C8.17118 7.33127 8.10005 7.68886 8.10005 8.05V23.6793C11.0104 25.0792 14.0934 26.0873 17.2685 26.6774ZM31.1269 29.9779C30.628 33.4396 27.6498 36.1 24.05 36.1C20.4503 36.1 17.472 33.4396 16.9732 29.9785C13.9216 29.4357 10.9438 28.5388 8.10005 27.306V39.95C8.10005 40.3111 8.17118 40.6687 8.30938 41.0024C8.44758 41.336 8.65014 41.6392 8.90551 41.8945C9.16087 42.1499 9.46402 42.3525 9.79767 42.4907C10.1313 42.6289 10.4889 42.7 10.85 42.7H37.25C37.6112 42.7 37.9688 42.6289 38.3024 42.4907C38.6361 42.3525 38.9392 42.1499 39.1946 41.8945C39.45 41.6392 39.6525 41.336 39.7907 41.0024C39.9289 40.6687 40 40.3111 40 39.95V27.3066C37.1562 28.539 34.1784 29.4355 31.1269 29.9779ZM10.85 2H37.25C40.5913 2 43.3 4.70875 43.3 8.05V39.95C43.3 43.2912 40.5913 46 37.25 46H10.85C7.5088 46 4.80005 43.2912 4.80005 39.95V8.05C4.80005 4.70875 7.5088 2 10.85 2ZM24.05 32.8C25.0711 32.8 26.0504 32.3944 26.7724 31.6724C27.4944 30.9503 27.9 29.9711 27.9001 28.95C27.9 27.9289 27.4944 26.9497 26.7724 26.2276C26.0504 25.5056 25.0711 25.1 24.05 25.1C23.029 25.1 22.0497 25.5056 21.3277 26.2276C20.6057 26.9497 20.2001 27.9289 20.2001 28.95C20.2001 29.9711 20.6057 30.9503 21.3277 31.6724C22.0497 32.3944 23.029 32.8 24.05 32.8Z" fill="black"/>
</svg>
