<svg width="48" height="48" viewBox="0 0 48 48" fill="none" xmlns="http://www.w3.org/2000/svg">
<path d="M45.5796 11.9178C45.156 11.706 44.9732 12.1097 44.7257 12.3149C44.6414 12.3811 44.5694 12.4672 44.4974 12.5466C43.8784 13.2218 43.1553 13.6653 42.2095 13.6123C40.8278 13.5329 39.6479 13.9764 38.6053 15.0554C38.3836 13.7249 37.6471 12.9306 36.526 12.4209C35.9385 12.1561 35.3461 11.8913 34.9349 11.3154C34.6486 10.905 34.5708 10.4483 34.4268 9.99819C34.3358 9.72679 34.2448 9.44878 33.9387 9.40243C33.6052 9.34947 33.4753 9.63412 33.3446 9.87242C32.8233 10.8455 32.6206 11.9178 32.6412 13.0034C32.686 15.4459 33.6971 17.392 35.7044 18.7755C35.9328 18.9343 35.9915 19.0932 35.9195 19.3248C35.783 19.8014 35.6191 20.2648 35.476 20.7414C35.3849 21.0459 35.2485 21.1121 34.9282 20.9797C33.8269 20.5097 32.8754 19.8147 32.0339 18.9741C30.6066 17.5641 29.3158 16.0085 27.7065 14.7906C27.3339 14.5096 26.9511 14.2425 26.5589 13.9897C24.9164 12.3613 26.774 11.0242 27.2043 10.8653C27.6535 10.6998 27.3607 10.1306 25.9069 10.1372C24.4531 10.1438 23.1234 10.6403 21.4288 11.3022C21.1807 11.4015 20.92 11.4743 20.6536 11.5339C19.1146 11.236 17.5177 11.1698 15.8487 11.3618C12.707 11.7192 10.1974 13.2351 8.3523 15.8232C6.13646 18.9343 5.61433 22.4691 6.25395 26.156C6.92417 30.0416 8.86773 33.2587 11.8531 35.774C14.9493 38.382 18.5147 39.6596 22.5823 39.4147C25.053 39.269 27.8033 38.9315 30.9061 36.2506C31.6889 36.6478 32.5105 36.8066 33.8725 36.9258C34.9225 37.025 35.9328 36.8728 36.7147 36.7073C37.9401 36.4426 37.8548 35.2842 37.4122 35.0724C33.8203 33.3645 34.6088 34.0596 33.8923 33.497C35.7176 31.2927 38.4679 29.0023 39.5436 21.5821C39.6288 20.993 39.5568 20.6223 39.5436 20.1457C39.537 19.8544 39.6015 19.7419 39.9284 19.7088C40.8278 19.6029 41.7015 19.3513 42.5033 18.9013C44.83 17.6039 45.7691 15.4724 45.9909 12.9173C46.024 12.5268 45.9843 12.123 45.5796 11.9178ZM25.3004 34.9135C21.8202 32.1201 20.1314 31.2 19.434 31.2397C18.782 31.2794 18.8994 32.0407 19.0426 32.5371C19.1923 33.027 19.3884 33.3645 19.6623 33.7948C19.851 34.0795 19.9817 34.5031 19.4728 34.8208C18.3517 35.5291 16.4031 34.5825 16.3121 34.5362C14.0433 33.1726 12.146 31.3721 10.8097 28.9097C9.51896 26.54 8.77015 23.9981 8.64602 21.2842C8.61291 20.6289 8.80239 20.3972 9.44037 20.278C10.2805 20.1143 11.1421 20.092 11.9896 20.2119C15.5426 20.7415 18.5677 22.3632 21.1028 24.9315C22.55 26.3943 23.6447 28.1419 24.7733 29.8497C25.9722 31.6634 27.263 33.391 28.9055 34.8076C29.4855 35.304 29.948 35.6813 30.3915 35.9593C29.0552 36.1116 26.8253 36.1447 25.3004 34.9135ZM26.9693 23.9584C26.9693 23.6672 27.1977 23.4355 27.4847 23.4355C27.5498 23.4366 27.6083 23.4476 27.6601 23.4686C27.7589 23.5066 27.8438 23.5738 27.9032 23.6614C27.9627 23.7489 27.9939 23.8526 27.9928 23.9584C27.9937 24.0266 27.981 24.0944 27.9556 24.1577C27.9301 24.221 27.8924 24.2786 27.8445 24.3272C27.7967 24.3759 27.7396 24.4145 27.6768 24.441C27.6139 24.4674 27.5464 24.4812 27.4781 24.4814C27.4102 24.4812 27.3429 24.4674 27.2804 24.4409C27.2178 24.4144 27.1611 24.3756 27.1137 24.3269C27.0663 24.2782 27.0292 24.2205 27.0043 24.1572C26.9795 24.094 26.9676 24.0264 26.9693 23.9584ZM32.1514 26.6723C31.8196 26.8114 31.487 26.9305 31.1668 26.9438C30.672 26.9703 30.1309 26.7651 29.838 26.5135C29.3812 26.1229 29.0552 25.9045 28.9187 25.2227C28.8599 24.9315 28.8922 24.4814 28.9443 24.2232C29.0618 23.6672 28.9311 23.3098 28.5472 22.9854C28.2344 22.7206 27.8364 22.6478 27.3995 22.6478C27.2365 22.6478 27.0868 22.575 26.9759 22.5154C26.9219 22.4896 26.8738 22.4528 26.8347 22.4075C26.7956 22.3622 26.7662 22.3093 26.7485 22.2521C26.7308 22.195 26.7251 22.1347 26.7318 22.0752C26.7384 22.0157 26.7573 21.9583 26.7872 21.9064C26.8327 21.8138 27.0545 21.5887 27.1066 21.549C27.6999 21.2047 28.3841 21.3173 29.0163 21.5755C29.6029 21.8204 30.0456 22.2705 30.6852 22.906C31.3372 23.6738 31.4547 23.8857 31.8254 24.4615C32.1192 24.9116 32.3864 25.375 32.5685 25.9045C32.6801 26.2355 32.5362 26.5069 32.1514 26.6723Z" fill="black"/>
</svg>
