<svg width="48" height="48" viewBox="0 0 48 48" fill="none" xmlns="http://www.w3.org/2000/svg">
<g clip-path="url(#clip0_196_223)">
<path d="M6.43663 13.9552C6.82133 9.16231 11.0186 5.5888 15.8114 5.9735C19.5092 6.27031 22.4883 8.83839 23.4743 12.208C23.9396 13.7982 25.6059 14.7101 27.1961 14.2448C28.7862 13.7794 29.6981 12.1131 29.2328 10.523C27.5712 4.84466 22.5504 0.495108 16.2915 -0.00726404C8.19552 -0.657084 1.10569 5.37918 0.455869 13.4751C0.0796907 18.1618 1.94745 22.5125 5.14715 25.4651C6.36479 26.5888 8.26276 26.5125 9.38638 25.2949C10.51 24.0773 10.4338 22.1793 9.21616 21.0557C7.31246 19.299 6.21413 16.7273 6.43663 13.9552Z" fill="black"/>
<path d="M12.1564 15.0339C12.522 13.8302 13.3507 12.8211 14.4602 12.2284C15.5698 11.6358 16.8693 11.5082 18.073 11.8737C19.2766 12.2392 20.2858 13.0679 20.8784 14.1775L24.0301 20.0783C24.4501 19.4928 25.002 19.005 25.6496 18.6592C26.7591 18.0665 28.0587 17.9389 29.2623 18.3044C29.8112 18.4711 30.3197 18.7341 30.7666 19.0762C31.2061 18.3075 31.856 17.6706 32.6496 17.2467C33.7592 16.6541 35.0587 16.5265 36.2624 16.892C37.466 17.2575 38.4751 18.0862 39.0678 19.1958L42.2903 25.2291C43.2185 26.9669 43.7954 28.8706 43.9879 30.8314C44.1804 32.7922 43.9848 34.7717 43.4123 36.6569C42.8398 38.5421 41.9016 40.2961 40.6513 41.8187C39.4009 43.3413 37.8629 44.6028 36.125 45.531C32.5242 47.4543 29.2652 47.9086 25.517 46.7647C21.9128 45.6646 17.9157 43.1001 12.7193 39.2523C12.2107 38.9277 11.7686 38.5089 11.4168 38.0183C11.0536 37.5119 10.7938 36.9388 10.6523 36.3319C10.5107 35.725 10.4901 35.0962 10.5917 34.4813C10.6932 33.8665 10.915 33.2777 11.2442 32.7485C11.5735 32.2194 12.0038 31.7604 12.5105 31.3976C13.0173 31.0349 13.5905 30.7756 14.1975 30.6345C14.8046 30.4934 15.4334 30.4734 16.0482 30.5755C16.6629 30.6775 17.2515 30.8998 17.7803 31.2294L19.9545 32.5823L12.5112 18.6466C11.9185 17.5371 11.7909 16.2375 12.1564 15.0339Z" fill="black"/>
</g>
<defs>
<clipPath id="clip0_196_223">
<rect width="24" height="24" fill="white" transform="scale(2)"/>
</clipPath>
</defs>
</svg>
