<svg width="48" height="48" viewBox="0 0 48 48" fill="none" xmlns="http://www.w3.org/2000/svg">
<path d="M6.5 33.375C6.5 34.5353 6.96094 35.6481 7.78141 36.4686C8.60188 37.2891 9.71468 37.75 10.875 37.75H37.125C38.2853 37.75 39.3981 37.2891 40.2186 36.4686C41.0391 35.6481 41.5 34.5353 41.5 33.375V21.3438H6.5V33.375ZM11.6562 27.4375C11.6562 26.8159 11.9032 26.2198 12.3427 25.7802C12.7823 25.3407 13.3784 25.0938 14 25.0938H17.75C18.3716 25.0938 18.9677 25.3407 19.4073 25.7802C19.8468 26.2198 20.0938 26.8159 20.0938 27.4375V29C20.0938 29.6216 19.8468 30.2177 19.4073 30.6573C18.9677 31.0968 18.3716 31.3438 17.75 31.3438H14C13.3784 31.3438 12.7823 31.0968 12.3427 30.6573C11.9032 30.2177 11.6562 29.6216 11.6562 29V27.4375ZM37.125 10.25H10.875C9.71468 10.25 8.60188 10.7109 7.78141 11.5314C6.96094 12.3519 6.5 13.4647 6.5 14.625V16.6562H41.5V14.625C41.5 13.4647 41.0391 12.3519 40.2186 11.5314C39.3981 10.7109 38.2853 10.25 37.125 10.25Z" fill="#7851EC"/>
</svg>
