<svg width="48" height="48" viewBox="0 0 48 48" fill="none" xmlns="http://www.w3.org/2000/svg">
<path fill-rule="evenodd" clip-rule="evenodd" d="M32 14C32 18.4183 28.4183 22 24 22C19.5817 22 16 18.4183 16 14C16 9.58172 19.5817 6 24 6C28.4183 6 32 9.58172 32 14ZM31.2861 23.5356C34.1517 21.3427 36 17.8872 36 14C36 7.37258 30.6274 2 24 2C17.3726 2 12 7.37258 12 14C12 17.8872 13.8483 21.3427 16.7139 23.5356C10.4027 26.3327 6 32.6522 6 40V44C6 45.1046 6.89543 46 8 46C9.10457 46 10 45.1046 10 44V40C10 32.268 16.268 26 24 26C31.732 26 38 32.268 38 40V44C38 45.1046 38.8954 46 40 46C41.1046 46 42 45.1046 42 44V40C42 32.6522 37.5973 26.3327 31.2861 23.5356Z" fill="black"/>
</svg>
