<svg width="48" height="48" viewBox="0 0 48 48" fill="none" xmlns="http://www.w3.org/2000/svg">
<path fill-rule="evenodd" clip-rule="evenodd" d="M25.0074 4.39744C24.3847 4.03419 23.6146 4.03419 22.9919 4.39744L6.49192 14.0224C5.87749 14.3809 5.49966 15.0387 5.49966 15.75C5.49966 16.4613 5.87749 17.1191 6.49192 17.4776L22.9919 27.1026C23.6146 27.4658 24.3847 27.4658 25.0074 27.1026L41.5074 17.4776C42.1218 17.1191 42.4997 16.4613 42.4997 15.75C42.4997 15.0387 42.1218 14.3809 41.5074 14.0224L25.0074 4.39744ZM23.9997 23.0596L11.4689 15.75L23.9997 8.44041L36.5304 15.75L23.9997 23.0596ZM5.77243 22.9926C6.32899 22.0385 7.55363 21.7162 8.50773 22.2728L24 31.3099L39.4922 22.2728C40.4464 21.7162 41.671 22.0385 42.2275 22.9926C42.7841 23.9467 42.4618 25.1713 41.5077 25.7279L25.0077 35.3529C24.385 35.7161 23.615 35.7161 22.9922 35.3529L6.49225 25.7279C5.53814 25.1713 5.21587 23.9467 5.77243 22.9926ZM5.77243 31.2426C6.32899 30.2885 7.55363 29.9662 8.50773 30.5228L24 39.5599L39.4922 30.5228C40.4464 29.9662 41.671 30.2885 42.2275 31.2426C42.7841 32.1967 42.4618 33.4213 41.5077 33.9779L25.0077 43.6029C24.385 43.9661 23.615 43.9661 22.9922 43.6029L6.49225 33.9779C5.53814 33.4213 5.21587 32.1967 5.77243 31.2426Z" fill="black"/>
</svg>
