<svg width="48" height="48" viewBox="0 0 48 48" fill="none" xmlns="http://www.w3.org/2000/svg">
<path fill-rule="evenodd" clip-rule="evenodd" d="M11.39 4.98C8.01 5.492 5.33 7.97 4.75 11.34C4.25592 14.2003 4.00503 17.0973 4 20C4.00503 22.9027 4.25592 25.7997 4.75 28.66C5.25 31.554 7.294 33.788 10 34.688V41.496C10.0003 41.8487 10.0938 42.1951 10.2711 42.5C10.4485 42.8049 10.7033 43.0574 11.0097 43.2321C11.3161 43.4067 11.6633 43.4972 12.016 43.4944C12.3687 43.4916 12.7144 43.3955 13.018 43.216L25.248 35.99C29.676 35.918 33.648 35.472 36.61 35.022C39.99 34.506 42.67 32.03 43.25 28.662C43.654 26.312 44 23.33 44 20C44 16.67 43.654 13.688 43.25 11.34C42.67 7.97 39.99 5.492 36.61 4.98C33.37 4.484 28.93 4 24 4C19.072 4 14.628 4.486 11.39 4.98ZM14 37.988V31.8L11.262 30.89C9.878 30.43 8.928 29.34 8.692 27.98C8.23659 25.3443 8.0051 22.6748 8 20C8 16.942 8.32 14.19 8.692 12.02C8.962 10.452 10.204 9.206 11.992 8.934C15.966 8.3252 19.9797 8.01301 24 8C28.676 8 32.912 8.462 36.008 8.934C37.796 9.206 39.038 10.454 39.308 12.018C39.68 14.19 40 16.942 40 20C40 23.058 39.68 25.81 39.308 27.98C39.038 29.548 37.796 30.796 36.008 31.066C33.178 31.498 29.39 31.922 25.182 31.99L24.124 32.008L14 37.988Z" fill="black"/>
<path fill-rule="evenodd" clip-rule="evenodd" d="M14 37.988V31.8L11.262 30.89C9.878 30.43 8.928 29.34 8.692 27.98C8.23659 25.3443 8.0051 22.6748 8 20C8 16.942 8.32 14.19 8.692 12.02C8.962 10.452 10.204 9.206 11.992 8.934C15.966 8.3252 19.9797 8.01301 24 8C28.676 8 32.912 8.462 36.008 8.934C37.796 9.206 39.038 10.454 39.308 12.018C39.68 14.19 40 16.942 40 20C40 23.058 39.68 25.81 39.308 27.98C39.038 29.548 37.796 30.796 36.008 31.066C33.178 31.498 29.39 31.922 25.182 31.99L24.124 32.008L14 37.988ZM12.5858 14.5858C12.2107 14.9609 12 15.4696 12 16C12 16.2626 12.0517 16.5227 12.1522 16.7654C12.2527 17.008 12.4001 17.2285 12.5858 17.4142C12.7715 17.5999 12.992 17.7472 13.2346 17.8478C13.4773 17.9483 13.7374 18 14 18H34C34.2627 18 34.5228 17.9483 34.7655 17.8478C35.0081 17.7474 35.2287 17.6 35.4144 17.4143C35.6002 17.2286 35.7475 17.0081 35.848 16.7654C35.9486 16.5228 36.0003 16.2627 36.0003 16C36.0003 15.7373 35.9486 15.4772 35.848 15.2346C35.7475 14.9919 35.6002 14.7714 35.4144 14.5857C35.2287 14.4 35.0081 14.2526 34.7655 14.1522C34.5228 14.0517 34.2627 14 34 14H14C13.4696 14 12.9609 14.2107 12.5858 14.5858ZM12.5858 22.5858C12.2107 22.9609 12 23.4696 12 24C12 24.5304 12.2107 25.0391 12.5858 25.4142C12.9609 25.7893 13.4696 26 14 26H22C22.5304 26 23.0391 25.7893 23.4142 25.4142C23.7893 25.0391 24 24.5304 24 24C24 23.4696 23.7893 22.9609 23.4142 22.5858C23.0391 22.2107 22.5304 22 22 22H14C13.4696 22 12.9609 22.2107 12.5858 22.5858Z" fill="black"/>
</svg>
