<svg width="48" height="48" viewBox="0 0 48 48" fill="none" xmlns="http://www.w3.org/2000/svg">
<path fill-rule="evenodd" clip-rule="evenodd" d="M18.3518 6.9071C21.3047 5.93175 24.46 5.73808 27.51 6.34497C31.0015 7.0395 34.2087 8.75375 36.726 11.271L41.025 15.57H36.765C36.5022 15.57 36.242 15.6217 35.9993 15.7223C35.7565 15.8229 35.5359 15.9702 35.3501 16.1561C35.1643 16.3419 35.0169 16.5625 34.9163 16.8052C34.8158 17.048 34.764 17.3082 34.764 17.571C34.764 17.8338 34.8158 18.094 34.9163 18.3367C35.0169 18.5795 35.1643 18.8001 35.3501 18.9859C35.5359 19.1717 35.7565 19.3191 35.9993 19.4197C36.242 19.5202 36.5022 19.572 36.765 19.572H45.855C46.3852 19.5712 46.8934 19.36 47.268 18.9848C47.6426 18.6097 47.853 18.1012 47.853 17.571V8.48098C47.853 7.37698 46.959 6.47998 45.855 6.47998C44.751 6.47998 43.854 7.37698 43.854 8.48098V12.741L39.555 8.44197C36.4781 5.36458 32.5577 3.26874 28.2897 2.41949C24.0216 1.57025 19.5975 2.00576 15.577 3.67093C11.5564 5.3361 8.12 8.15615 5.70223 11.7744C3.28446 15.3927 1.99397 19.6467 1.99397 23.9985C1.99397 28.3502 3.28446 32.6042 5.70223 36.2225C8.12 39.8408 11.5564 42.6608 15.577 44.326C19.5975 45.9912 24.0216 46.4267 28.2897 45.5774C32.5577 44.7282 36.4781 42.6324 39.555 39.555C39.7483 39.3709 39.9027 39.1501 40.0094 38.9054C40.116 38.6607 40.1726 38.3972 40.1758 38.1304C40.1791 37.8635 40.1289 37.5987 40.0283 37.3515C39.9277 37.1043 39.7786 36.8798 39.5899 36.691C39.4012 36.5023 39.1766 36.3533 38.9295 36.2527C38.6823 36.152 38.4175 36.1019 38.1506 36.1051C37.8837 36.1084 37.6202 36.165 37.3756 36.2716C37.1309 36.3782 36.9101 36.5327 36.726 36.726C34.5272 38.9251 31.7961 40.517 28.7989 41.3466C25.8018 42.1762 22.6408 42.2151 19.6242 41.4596C16.6075 40.7041 13.8381 39.1799 11.5857 37.0355C9.33341 34.8912 7.67506 32.1999 6.77232 29.224C5.86958 26.2481 5.75325 23.089 6.43467 20.0548C7.11608 17.0205 8.572 14.2146 10.6605 11.9104C12.749 9.60623 15.3989 7.88246 18.3518 6.9071Z" fill="black"/>
</svg>
