<svg width="48" height="48" viewBox="0 0 48 48" fill="none" xmlns="http://www.w3.org/2000/svg">
<path d="M17.6016 27.1968C18.2381 27.1968 18.8486 26.944 19.2987 26.4939C19.7487 26.0438 20.0016 25.4333 20.0016 24.7968C20.0016 24.1603 19.7487 23.5499 19.2987 23.0998C18.8486 22.6497 18.2381 22.3968 17.6016 22.3968C16.9651 22.3968 16.3546 22.6497 15.9045 23.0998C15.4545 23.5499 15.2016 24.1603 15.2016 24.7968C15.2016 25.4333 15.4545 26.0438 15.9045 26.4939C16.3546 26.944 16.9651 27.1968 17.6016 27.1968Z" fill="black"/>
<path d="M30.3984 27.1968C31.0349 27.1968 31.6454 26.944 32.0955 26.4939C32.5455 26.0438 32.7984 25.4333 32.7984 24.7968C32.7984 24.1603 32.5455 23.5499 32.0955 23.0998C31.6454 22.6497 31.0349 22.3968 30.3984 22.3968C29.7619 22.3968 29.1514 22.6497 28.7013 23.0998C28.2513 23.5499 27.9984 24.1603 27.9984 24.7968C27.9984 25.4333 28.2513 26.0438 28.7013 26.4939C29.1514 26.944 29.7619 27.1968 30.3984 27.1968Z" fill="black"/>
<path d="M12.8016 11.196H35.1984C36.9672 11.196 38.4 12.6288 38.4 14.3952V36.7968C38.4 38.5632 36.9672 39.996 35.1984 39.996H12.8016C12.3813 39.9963 11.965 39.9138 11.5766 39.7532C11.1882 39.5926 10.8352 39.357 10.5379 39.0599C10.2405 38.7627 10.0047 38.41 9.84375 38.0217C9.68283 37.6334 9.6 37.2172 9.6 36.7968V14.3952C9.6 12.6312 11.0328 11.196 12.8016 11.196ZM12.8016 14.3952V36.7968H35.1984V14.3952H12.8016Z" fill="black"/>
<path d="M41.6016 19.1952C42.0257 19.1959 42.4323 19.3648 42.732 19.6649C43.0317 19.9651 43.2 20.3719 43.2 20.796V30.396C43.2 30.8206 43.0313 31.2278 42.7311 31.528C42.4309 31.8282 42.0238 31.9968 41.5992 31.9968C41.1746 31.9968 40.7675 31.8282 40.4673 31.528C40.1671 31.2278 39.9984 30.8206 39.9984 30.396V20.796C39.9984 20.5856 40.0399 20.3772 40.1205 20.1829C40.2011 19.9885 40.3192 19.8119 40.4681 19.6632C40.617 19.5146 40.7938 19.3967 40.9883 19.3164C41.1828 19.2361 41.3912 19.1949 41.6016 19.1952Z" fill="black"/>
<path d="M6.3984 19.1952C6.60891 19.1946 6.81747 19.2356 7.01211 19.3157C7.20675 19.3959 7.38363 19.5138 7.53259 19.6625C7.68156 19.8113 7.79968 19.988 7.88016 20.1825C7.96065 20.377 8.00192 20.5855 8.0016 20.796V30.396C8.0016 30.6063 7.96019 30.8144 7.87975 31.0086C7.7993 31.2028 7.68138 31.3793 7.53274 31.528C7.38409 31.6766 7.20762 31.7945 7.0134 31.875C6.81918 31.9554 6.61102 31.9968 6.4008 31.9968C6.19058 31.9968 5.98242 31.9554 5.7882 31.875C5.59398 31.7945 5.41751 31.6766 5.26886 31.528C5.12022 31.3793 5.0023 31.2028 4.92185 31.0086C4.84141 30.8144 4.8 30.6063 4.8 30.396V20.796C4.79968 20.5859 4.8408 20.3778 4.92098 20.1836C5.00117 19.9894 5.11885 19.8129 5.26731 19.6642C5.41577 19.5156 5.59208 19.3976 5.78616 19.3171C5.98025 19.2367 6.18829 19.1952 6.3984 19.1952Z" fill="black"/>
<path d="M46.4016 22.3968C46.8255 22.3968 47.2321 22.5652 47.5318 22.865C47.8316 23.1647 48 23.5713 48 23.9952V27.1968C48 27.6214 47.8313 28.0286 47.5311 28.3288C47.2309 28.629 46.8238 28.7976 46.3992 28.7976C45.9746 28.7976 45.5675 28.629 45.2673 28.3288C44.9671 28.0286 44.7984 27.6214 44.7984 27.1968V23.9952C44.7987 23.785 44.8404 23.5769 44.9212 23.3828C45.0019 23.1887 45.1201 23.0124 45.269 22.864C45.4178 22.7156 45.5945 22.5979 45.7888 22.5178C45.9832 22.4376 46.1914 22.3965 46.4016 22.3968Z" fill="black"/>
<path d="M1.5984 22.3968C1.80862 22.3965 2.01684 22.4376 2.21118 22.5178C2.40552 22.5979 2.58217 22.7156 2.73104 22.864C2.87991 23.0124 2.99809 23.1887 3.07883 23.3828C3.15957 23.5769 3.20128 23.785 3.2016 23.9952V27.1968C3.2016 27.6214 3.03294 28.0286 2.73274 28.3288C2.43253 28.629 2.02536 28.7976 1.6008 28.7976C1.17624 28.7976 0.769072 28.629 0.468863 28.3288C0.168655 28.0286 0 27.6214 0 27.1968V23.9952C0 23.5713 0.168402 23.1647 0.468161 22.865C0.767919 22.5652 1.17448 22.3968 1.5984 22.3968Z" fill="black"/>
<path d="M24 7.99683C24.4239 7.99683 24.8305 8.16523 25.1302 8.46499C25.43 8.76474 25.5984 9.1713 25.5984 9.59523V12.7968C25.5984 13.2207 25.43 13.6273 25.1302 13.9271C24.8305 14.2268 24.4239 14.3952 24 14.3952C23.5761 14.3952 23.1695 14.2268 22.8698 13.9271C22.57 13.6273 22.4016 13.2207 22.4016 12.7968V9.59523C22.4016 8.71443 23.1168 7.99683 24 7.99683Z" fill="black"/>
</svg>
