<svg width="48" height="48" viewBox="0 0 48 48" fill="none" xmlns="http://www.w3.org/2000/svg">
<path d="M24 2.00391C25.0499 2.00391 26.0802 2.28132 26.9902 2.80469L26.9922 2.80273L33.3945 6.46094C33.8108 6.54493 34.1991 6.75883 34.4922 7.08789L40.9922 10.8027L41 10.8086C41.7373 11.2343 42.3703 11.8128 42.8652 12.5C42.9886 12.6222 43.1003 12.7605 43.1914 12.918C43.2667 13.0482 43.3239 13.1845 43.3672 13.3223C43.7816 14.1516 43.999 15.0676 44 15.998V32.002C43.9989 33.0539 43.7217 34.0873 43.1953 34.998C42.6688 35.9089 41.9111 36.6653 41 37.1914L40.9922 37.1973L34.4844 40.9141C34.2012 41.2289 33.8222 41.4535 33.3906 41.5391L26.9922 45.1973L26.9902 45.1953C26.3594 45.5581 25.6703 45.7987 24.957 45.9141C24.6725 46.0696 24.3471 46.1602 24 46.1602C23.6523 46.1602 23.3259 46.0701 23.041 45.9141C22.3279 45.7985 21.6385 45.5583 21.0078 45.1953L14.6074 41.5391C14.1761 41.4531 13.7965 41.2289 13.5137 40.9141L7.00781 37.1973L7 37.1914C6.08887 36.6653 5.33121 35.9089 4.80469 34.998C4.27835 34.0873 4.0011 33.0539 4 32.002V15.998L4.01367 15.6035C4.06676 14.8097 4.27711 14.0342 4.63281 13.3223C4.67614 13.1845 4.73325 13.0482 4.80859 12.918C4.89974 12.7605 5.01142 12.6222 5.13477 12.5C5.62967 11.8128 6.26272 11.2343 7 10.8086L7.00781 10.8027L13.5059 7.08789C13.7987 6.75878 14.1876 6.54528 14.6035 6.46094L21.0078 2.80273C21.9182 2.27881 22.9495 2.00391 24 2.00391ZM8 22.8438L16 27.4688C16.6183 27.826 16.9997 28.4852 17 29.1992V38.2969L22 41.1543V25.1738L8 17.0742V22.8438ZM26 25.1738V41.1543L31 38.2969V29.1992C31.0003 28.4852 31.3817 27.826 32 27.4688L40 22.8438V17.0742L26 25.1738ZM8 31.998L8.01758 32.2598C8.05202 32.5183 8.1363 32.7688 8.26758 32.9961C8.44154 33.2971 8.69205 33.5475 8.99219 33.7227L13 36.0117V30.3535L8 27.4648V31.998ZM35 30.3535V36.0117L39.0078 33.7227C39.308 33.5475 39.5585 33.2971 39.7324 32.9961C39.9073 32.6933 39.9992 32.3497 40 32V27.4648L35 30.3535ZM25 15.3516C24.3811 15.709 23.6189 15.709 23 15.3516L15.0977 10.7852L10.0762 13.6543L24 21.709L37.9219 13.6543L32.9004 10.7852L25 15.3516ZM24 6.00391C23.649 6.00391 23.304 6.09601 23 6.27148L22.9922 6.27539L19.1172 8.48828L24 11.3105L28.8809 8.48828L25.0078 6.27539L25 6.27148C24.696 6.09601 24.351 6.00391 24 6.00391Z" fill="black"/>
</svg>
