<svg width="48" height="48" viewBox="0 0 48 48" fill="none" xmlns="http://www.w3.org/2000/svg">
<path d="M22.1816 20.8526V16.0172C20.4764 16.4052 18.9404 17.3293 17.7988 18.654C16.6571 19.9786 15.9699 21.6342 15.8377 23.3779C15.7056 25.1217 16.1355 26.8619 17.0645 28.3435C17.9935 29.825 19.3727 30.97 20.9999 31.6106C22.6271 32.2512 24.4167 32.3536 26.1064 31.903C27.7961 31.4523 29.2969 30.4721 30.3889 29.1063C31.481 27.7404 32.1067 26.0606 32.1744 24.3132C32.2421 22.5658 31.7483 20.8426 30.7653 19.3963C30.6187 19.1995 30.5134 18.9751 30.4557 18.7366C30.3981 18.4981 30.3893 18.2504 30.4298 18.0084C30.4704 17.7664 30.5594 17.5351 30.6917 17.3284C30.8239 17.1217 30.9966 16.9439 31.1993 16.8056C31.4021 16.6674 31.6307 16.5716 31.8714 16.524C32.1121 16.4763 32.3599 16.4779 32.6 16.5285C32.8401 16.5792 33.0675 16.6778 33.2685 16.8186C33.4695 16.9594 33.6399 17.1393 33.7696 17.3476C35.2097 19.4648 35.9232 21.9924 35.8027 24.5501C35.6822 27.1077 34.7342 29.5571 33.1013 31.5294C31.4685 33.5018 29.2392 34.8904 26.749 35.4863C24.2588 36.0822 21.6424 35.8532 19.2937 34.8336C16.9449 33.8141 14.9908 32.0592 13.7255 29.8331C12.4603 27.6071 11.9523 25.0303 12.278 22.4906C12.6038 19.9509 13.7456 17.5857 15.5317 15.751C17.3178 13.9163 19.6515 12.7114 22.1816 12.3176V7.73677C18.5793 8.13906 15.2124 9.72583 12.6092 12.2481C10.0061 14.7705 8.31392 18.0856 7.79822 21.6734C7.28252 25.2613 7.97248 28.9188 9.75985 32.0722C11.5472 35.2256 14.3309 37.6964 17.674 39.097C21.0172 40.4976 24.7308 40.7487 28.2321 39.8109C31.7334 38.8732 34.8243 36.7996 37.02 33.9156C39.2156 31.0315 40.3917 27.5002 40.3637 23.8756C40.3357 20.251 39.1053 16.7382 36.8654 13.8884C36.7176 13.7009 36.6081 13.4861 36.5432 13.2563C36.4784 13.0265 36.4594 12.7862 36.4875 12.5491C36.5441 12.0702 36.7886 11.6334 37.1673 11.3348C37.5459 11.0362 38.0277 10.9002 38.5066 10.9568C38.9855 11.0134 39.4223 11.258 39.7209 11.6366C42.5181 15.1935 44.0265 19.5937 43.9996 24.1186C43.9728 28.6435 42.4124 33.0255 39.5732 36.5489C36.734 40.0723 32.784 42.5288 28.3682 43.5171C23.9525 44.5054 19.3322 43.9671 15.2619 41.9902C11.1917 40.0132 7.91215 36.7144 5.95903 32.6327C4.00591 28.5509 3.49465 23.9275 4.50878 19.5176C5.52291 15.1078 8.00247 11.1722 11.5424 8.35365C15.0824 5.53515 19.4735 4.00036 23.9985 4.00001C24.2375 3.99925 24.4743 4.04582 24.6953 4.13704C24.9163 4.22826 25.117 4.36232 25.2859 4.53148C25.4548 4.70065 25.5885 4.90158 25.6794 5.12269C25.7703 5.34379 25.8165 5.5807 25.8153 5.81975V20.8526C26.5081 21.2526 27.0495 21.87 27.3556 22.609C27.6617 23.348 27.7154 24.1674 27.5084 24.9401C27.3014 25.7127 26.8452 26.3955 26.2106 26.8824C25.5759 27.3694 24.7984 27.6333 23.9985 27.6333C23.1985 27.6333 22.421 27.3694 21.7864 26.8824C21.1517 26.3955 20.6955 25.7127 20.4885 24.9401C20.2815 24.1674 20.3352 23.348 20.6413 22.609C20.9474 21.87 21.4888 21.2526 22.1816 20.8526Z" fill="black"/>
</svg>
