<svg width="48" height="48" viewBox="0 0 48 48" fill="none" xmlns="http://www.w3.org/2000/svg">
<path d="M14 2C9.58172 2 6 5.58172 6 10V38C6 42.4183 9.58172 46 14 46H34C38.4183 46 42 42.4183 42 38V13.3137C42 11.192 41.1571 9.15715 39.6569 7.65686L36.3431 4.34315C34.8429 2.84286 32.808 2 30.6863 2H14ZM38 38C38 40.2091 36.2091 42 34 42H14C11.7909 42 10 40.2091 10 38V10C10 7.79086 11.7909 6 14 6H28V10C28 13.3137 30.6863 16 34 16H38V38ZM36.8284 10.4853C37.2593 10.9162 37.5817 11.4352 37.7781 12H34C32.8954 12 32 11.1046 32 10V6.22188C32.5648 6.41828 33.0839 6.74071 33.5147 7.17157L36.8284 10.4853ZM16 26C16 24.8954 16.8954 24 18 24H30C31.1046 24 32 24.8954 32 26C32 27.1046 31.1046 28 30 28H18C16.8954 28 16 27.1046 16 26ZM16 34C16 35.1046 16.8954 36 18 36H24C25.1046 36 26 35.1046 26 34C26 32.8954 25.1046 32 24 32H18C16.8954 32 16 32.8954 16 34Z" fill="black"/>
</svg>
