<svg width="48" height="48" viewBox="0 0 48 48" fill="none" xmlns="http://www.w3.org/2000/svg">
<path d="M32.2754 6.13672C32.8907 5.89742 33.584 5.97686 34.1289 6.34961C34.6738 6.72238 35 7.33976 35 8V40C35 40.6602 34.6738 41.2776 34.1289 41.6504C33.584 42.0231 32.8907 42.1026 32.2754 41.8633L14.627 35H4C2.89543 35 2 34.1046 2 33V15C2 13.8954 2.89543 13 4 13H14.627L32.2754 6.13672ZM17 16.3672V31.6309L31 37.0762V10.9219L17 16.3672ZM42 31C43.1046 31 44 31.8954 44 33C44 34.1046 43.1046 35 42 35H40C38.8954 35 38 34.1046 38 33C38 31.8954 38.8954 31 40 31H42ZM6 31H13V17H6V31ZM44 23C45.1046 23 46 23.8954 46 25C46 26.1046 45.1046 27 44 27H39C37.8954 27 37 26.1046 37 25C37 23.8954 37.8954 23 39 23H44ZM42 15C43.1046 15 44 15.8954 44 17C44 18.1046 43.1046 19 42 19H40C38.8954 19 38 18.1046 38 17C38 15.8954 38.8954 15 40 15H42Z" fill="black"/>
</svg>
