<svg width="48" height="48" viewBox="0 0 48 48" fill="none" xmlns="http://www.w3.org/2000/svg">
<path fill-rule="evenodd" clip-rule="evenodd" d="M8 6C6.89543 6 6 6.89543 6 8V26C6 26.5308 6.21102 27.0399 6.58657 27.415L22.7542 43.5646C23.8046 44.6161 25.2298 45.2069 26.7161 45.2069C28.2019 45.2069 29.627 44.6164 30.6773 43.5653L30.6782 43.5645L43.5833 30.6593L43.5875 30.6551C45.7588 28.4709 45.7588 24.9433 43.5875 22.7591L43.5833 22.7549L27.4142 6.58579C27.0391 6.21071 26.5304 6 26 6H8ZM10 25.1709V10H25.1716L40.7507 25.5791L40.7525 25.5809C41.3704 26.2045 41.3704 27.2097 40.7525 27.8333L40.7507 27.8351L27.8489 40.7369L27.848 40.7377C27.5481 41.0381 27.1409 41.2069 26.7161 41.2069C26.2914 41.2069 25.8842 41.0381 25.584 40.7376L25.5825 40.7361L10 25.1709ZM21 18.5C21 19.8807 19.8807 21 18.5 21C17.1193 21 16 19.8807 16 18.5C16 17.1193 17.1193 16 18.5 16C19.8807 16 21 17.1193 21 18.5Z" fill="black"/>
</svg>
