<svg width="48" height="48" viewBox="0 0 48 48" fill="none" xmlns="http://www.w3.org/2000/svg">
<path fill-rule="evenodd" clip-rule="evenodd" d="M6 6.5C4.067 6.5 2.5 8.067 2.5 10V38C2.5 39.933 4.06702 41.5 6 41.5H42C43.933 41.5 45.5 39.933 45.5 38V10C45.5 8.06702 43.933 6.5 42 6.5H6ZM10 19.5H5.5V16.5H10C10.1753 16.5 10.3436 16.5301 10.5 16.5854V9.5H13.5V38.5H10.5V31.4146C10.3436 31.4699 10.1753 31.5 10 31.5H5.5V28.5H10C10.1753 28.5 10.3436 28.5301 10.5 28.5854V19.4146C10.3436 19.4699 10.1753 19.5 10 19.5ZM37.5 31.4146V38.5H34.5V9.5H37.5V16.5854C37.6564 16.5301 37.8247 16.5 38 16.5H42.5V19.5H38C37.8247 19.5 37.6564 19.4699 37.5 19.4146V28.5854C37.6564 28.5301 37.8247 28.5 38 28.5H42.5V31.5H38C37.8247 31.5 37.6564 31.4699 37.5 31.4146ZM21.795 17.728C21.3326 17.439 20.7498 17.4237 20.2728 17.688C19.7959 17.9524 19.5 18.4547 19.5 19V29C19.5 29.5453 19.7959 30.0476 20.2728 30.312C20.7498 30.5763 21.3326 30.561 21.795 30.272L29.795 25.272C30.2336 24.9979 30.5 24.5172 30.5 24C30.5 23.4828 30.2336 23.0021 29.795 22.728L21.795 17.728Z" fill="black"/>
</svg>
