<svg width="48" height="48" viewBox="0 0 48 48" fill="none" xmlns="http://www.w3.org/2000/svg">
<path d="M27.3 18.625C26.1954 18.625 25.3 19.5205 25.3 20.625C25.3 21.7296 26.1954 22.625 27.3 22.625H37.2C38.3046 22.625 39.2 21.7296 39.2 20.625C39.2 19.5205 38.3046 18.625 37.2 18.625H27.3Z" fill="black"/>
<path d="M25.3 27.225C25.3 26.1205 26.1954 25.225 27.3 25.225H37.2C38.3046 25.225 39.2 26.1205 39.2 27.225C39.2 28.3296 38.3046 29.225 37.2 29.225H27.3C26.1954 29.225 25.3 28.3296 25.3 27.225Z" fill="black"/>
<path fill-rule="evenodd" clip-rule="evenodd" d="M10.8 15.325C9.69544 15.325 8.80001 16.2205 8.80001 17.325V30.525C8.80001 31.6296 9.69544 32.525 10.8 32.525H20.7C21.8046 32.525 22.7 31.6296 22.7 30.525V17.325C22.7 16.2205 21.8046 15.325 20.7 15.325H10.8ZM12.8 28.525V19.325H18.7V28.525H12.8Z" fill="black"/>
<path fill-rule="evenodd" clip-rule="evenodd" d="M5.85001 5.42505C4.88197 5.42505 3.95358 5.8096 3.26907 6.49411C2.58457 7.17862 2.20001 8.10701 2.20001 9.07505V42.0751C2.20001 42.7682 2.55892 43.4119 3.14855 43.7764C3.73818 44.1408 4.47446 44.1739 5.09444 43.8639L10.8 41.0111L16.5056 43.8639C17.0686 44.1454 17.7314 44.1454 18.2944 43.8639L24 41.0111L29.7056 43.8639C30.2686 44.1454 30.9314 44.1454 31.4944 43.8639L37.2 41.0111L42.9056 43.8639C43.5256 44.1739 44.2618 44.1408 44.8515 43.7764C45.4411 43.4119 45.8 42.7682 45.8 42.0751V9.07505C45.8 8.10701 45.4155 7.17862 44.731 6.49411C44.0464 5.8096 43.118 5.42505 42.15 5.42505H5.85001ZM6.20001 38.839V9.42505H41.8V38.839L38.0944 36.9862C37.5314 36.7047 36.8686 36.7047 36.3056 36.9862L30.6 39.839L24.8944 36.9862C24.3314 36.7047 23.6686 36.7047 23.1056 36.9862L17.4 39.839L11.6944 36.9862C11.1314 36.7047 10.4686 36.7047 9.90559 36.9862L6.20001 38.839Z" fill="black"/>
</svg>
