<svg width="48" height="48" viewBox="0 0 48 48" fill="none" xmlns="http://www.w3.org/2000/svg">
<path fill-rule="evenodd" clip-rule="evenodd" d="M14.2005 11.7424C12.962 12.4039 12.037 13.5303 11.629 14.8739C11.221 16.2174 11.3634 17.668 12.0249 18.9065L18.499 31.0275L18.072 30.7618C17.4817 30.3938 16.8247 30.1458 16.1385 30.0319C15.4523 29.9179 14.7503 29.9403 14.0728 30.0978C13.3952 30.2552 12.7553 30.5447 12.1897 30.9496C11.624 31.3545 11.1437 31.8669 10.7762 32.4575C10.4087 33.0481 10.1612 33.7054 10.0478 34.3917C9.93442 35.078 9.95741 35.7799 10.1154 36.4574C10.2735 37.1348 10.5635 37.7744 10.9688 38.3397C11.3577 38.882 11.8455 39.3457 12.4062 39.7066C17.5924 43.546 21.6541 46.1622 25.3561 47.2921C29.262 48.4842 32.6719 48.0005 36.3848 46.0174C38.1865 45.0551 39.781 43.7473 41.0773 42.1687C42.3736 40.5902 43.3463 38.7717 43.9398 36.8173C44.5333 34.8628 44.7361 32.8105 44.5365 30.7777C44.3369 28.7449 43.7389 26.7713 42.7765 24.9695L39.554 18.9362C38.8925 17.6977 37.7661 16.7727 36.4225 16.3647C35.079 15.9567 33.6284 16.0991 32.3899 16.7606C31.6817 17.1389 31.0761 17.6691 30.611 18.305C30.2411 18.0827 29.8424 17.9047 29.4225 17.7772C28.079 17.3692 26.6284 17.5117 25.3899 18.1732C24.9235 18.4223 24.5017 18.7372 24.1351 19.1049L21.3647 13.918C20.7031 12.6795 19.5767 11.7545 18.2332 11.3464C16.8896 10.9384 15.439 11.0809 14.2005 11.7424ZM26.5207 23.5713L26.8429 24.1746C27.0258 24.517 27.0916 24.8907 27.0543 25.2497C26.9921 25.8482 26.6434 26.406 26.0727 26.7108C25.6873 26.9167 25.2622 26.9742 24.863 26.9032C24.4347 26.8271 24.0361 26.6031 23.748 26.2559C23.6685 26.16 23.5975 26.0548 23.5365 25.9406L18.0582 15.684C17.8651 15.3224 17.5362 15.0523 17.1439 14.9332C16.7517 14.8141 16.3282 14.8557 15.9665 15.0488C15.6049 15.242 15.3349 15.5708 15.2157 15.9631C15.0966 16.3554 15.1382 16.7789 15.3313 17.1405L25.1009 35.4314C25.5005 36.1796 25.3478 37.103 24.7285 37.6827C24.1092 38.2624 23.1777 38.3539 22.4575 37.9057L16.0903 33.9437C15.918 33.8362 15.7248 33.763 15.5245 33.7297C15.3241 33.6964 15.1192 33.703 14.9213 33.749C14.7235 33.7949 14.5367 33.8794 14.3715 33.9977C14.2064 34.1159 14.0661 34.2655 13.9588 34.4379C13.8515 34.6104 13.7793 34.8023 13.7462 35.0026C13.7131 35.203 13.7198 35.408 13.7659 35.6058C13.8121 35.8035 13.8967 35.9903 14.0151 36.1553C14.1334 36.3204 14.2832 36.4605 14.4557 36.5677C14.4991 36.5946 14.5414 36.6234 14.5825 36.6538C19.8181 40.5325 23.4261 42.7838 26.4504 43.7068C29.2839 44.5717 31.6674 44.2873 34.6187 42.711C35.9862 41.9806 37.1965 40.988 38.1804 39.7898C39.1643 38.5917 39.9025 37.2115 40.353 35.728C40.8035 34.2446 40.9574 32.6869 40.8059 31.144C40.6544 29.6011 40.2005 28.1031 39.4701 26.7356L36.2476 20.7023C36.0545 20.3407 35.7256 20.0706 35.3333 19.9515C34.9411 19.8323 34.5175 19.8739 34.1559 20.0671C33.7943 20.2602 33.5243 20.5891 33.4051 20.9814C33.2863 21.3726 33.3274 21.7949 33.5192 22.1559L33.5207 22.1588C33.856 22.7865 33.7978 23.5193 33.432 24.0745C33.3055 24.2666 33.1421 24.4373 32.9456 24.5752C32.9096 24.6004 32.8726 24.6245 32.8345 24.6474C32.807 24.6639 32.7791 24.6797 32.7505 24.695C32.7469 24.6969 32.7433 24.6988 32.7396 24.7008C31.9428 25.1198 30.9799 24.908 30.4259 24.24C30.3464 24.1442 30.2753 24.0389 30.2143 23.9248L29.2476 22.1148C29.0544 21.7532 28.7255 21.4831 28.3333 21.364C27.941 21.2449 27.5175 21.2865 27.1559 21.4796C26.7943 21.6727 26.5242 22.0016 26.4051 22.3939C26.286 22.7862 26.3275 23.2097 26.5207 23.5713Z" fill="black"/>
<path fill-rule="evenodd" clip-rule="evenodd" d="M15.8914 4.97666C10.5481 4.54777 5.86873 8.53174 5.43985 13.8751C5.19173 16.9663 6.4183 19.8345 8.538 21.7905C9.34975 22.5396 9.40056 23.8049 8.65148 24.6167C7.9024 25.4284 6.63708 25.4793 5.82533 24.7302C2.84162 21.9768 1.1021 17.9227 1.45267 13.5551C2.0583 6.00965 8.66603 0.383845 16.2115 0.989478C22.0435 1.45759 26.7241 5.51023 28.2731 10.8038C28.5833 11.8639 27.9753 12.9747 26.9152 13.2849C25.8551 13.5952 24.7442 12.9872 24.434 11.9271C23.3354 8.17272 20.0161 5.30772 15.8914 4.97666Z" fill="black"/>
</svg>
