<svg width="48" height="48" viewBox="0 0 48 48" fill="none" xmlns="http://www.w3.org/2000/svg">
<path fill-rule="evenodd" clip-rule="evenodd" d="M30 6C30 4.89543 30.8954 4 32 4H42C43.1046 4 44 4.89543 44 6V16C44 17.1046 43.1046 18 42 18H32C30.8954 18 30 17.1046 30 16V6ZM34 8V14H40V8H34ZM30 32C30 30.8954 30.8954 30 32 30H42C43.1046 30 44 30.8954 44 32V42C44 43.1046 43.1046 44 42 44H32C30.8954 44 30 43.1046 30 42V32ZM40 34H34V40H40V34ZM6 30C4.89543 30 4 30.8954 4 32V42C4 43.1046 4.89543 44 6 44H16C17.1046 44 18 43.1046 18 42V32C18 30.8954 17.1046 30 16 30H6ZM8 40V34H14V40H8ZM4 6C4 4.89543 4.89543 4 6 4H16C17.1046 4 18 4.89543 18 6V16C18 17.1046 17.1046 18 16 18H6C4.89543 18 4 17.1046 4 16V6ZM8 8V14H14V8H8ZM8 22C6.89543 22 6 22.8954 6 24C6 25.1046 6.89543 26 8 26H22V31C22 32.1046 22.8954 33 24 33C25.1046 33 26 32.1046 26 31V26H30C31.1046 26 32 25.1046 32 24C32 22.8954 31.1046 22 30 22H26V17C26 15.8954 25.1046 15 24 15C22.8954 15 22 15.8954 22 17V22H8ZM36 24C36 22.8954 36.8954 22 38 22H40C41.1046 22 42 22.8954 42 24C42 25.1046 41.1046 26 40 26H38C36.8954 26 36 25.1046 36 24ZM26 37C26 35.8954 25.1046 35 24 35C22.8954 35 22 35.8954 22 37V39C22 40.1046 22.8954 41 24 41C25.1046 41 26 40.1046 26 39V37ZM26 8C26 6.89543 25.1046 6 24 6C22.8954 6 22 6.89543 22 8V10C22 11.1046 22.8954 12 24 12C25.1046 12 26 11.1046 26 10V8Z" fill="black"/>
</svg>
