<svg width="48" height="48" viewBox="0 0 48 48" fill="none" xmlns="http://www.w3.org/2000/svg">
<path d="M20.0006 24C18.8963 24 18.001 24.8953 18.001 25.9996C18.001 27.104 18.8963 27.9992 20.0006 27.9992H33.9979C35.1022 27.9992 35.9975 27.104 35.9975 25.9996C35.9975 24.8953 35.1022 24 33.9979 24H20.0006Z" fill="black"/>
<path d="M14.0018 31.9984C12.8974 31.9984 12.0022 32.8937 12.0022 33.998C12.0022 35.1024 12.8974 35.9977 14.0018 35.9977H25.9994C27.1038 35.9977 27.9991 35.1024 27.9991 33.998C27.9991 32.8937 27.1038 31.9984 25.9994 31.9984H14.0018Z" fill="black"/>
<path d="M12.0022 5.99961C12.0022 4.89526 12.8974 4 14.0018 4C15.1061 4 16.0014 4.89526 16.0014 5.99961V8.00703H31.9983V5.99961C31.9983 4.89526 32.8935 4 33.9979 4C35.1022 4 35.9975 4.89526 35.9975 5.99961V8.00703H37.9976C41.3107 8.00703 43.9964 10.6928 43.9964 14.0059V38.0012C43.9964 41.3142 41.3107 44 37.9976 44H10.0031C6.69 44 4.00423 41.3142 4.00423 38.0012V14.0059C4.00423 10.6928 6.69 8.00703 10.0031 8.00703H12.0022V5.99961ZM12.0022 12.0062H10.0031C8.89871 12.0062 8.00345 12.9015 8.00345 14.0059V38.0012C8.00345 39.1055 8.89871 40.0008 10.0031 40.0008H37.9976C39.1019 40.0008 39.9972 39.1055 39.9972 38.0012V14.0059C39.9972 12.9015 39.1019 12.0062 37.9976 12.0062H35.9975V13.998C35.9975 15.1024 35.1022 15.9977 33.9979 15.9977C32.8935 15.9977 31.9983 15.1024 31.9983 13.998V12.0062H16.0014V13.998C16.0014 15.1024 15.1061 15.9977 14.0018 15.9977C12.8974 15.9977 12.0022 15.1024 12.0022 13.998V12.0062Z" fill="black"/>
</svg>
