<svg width="48" height="48" viewBox="0 0 48 48" fill="none" xmlns="http://www.w3.org/2000/svg">
<path d="M30.5859 24.586C31.367 23.805 32.633 23.805 33.4141 24.586L41.4141 32.586C42.1951 33.3671 42.1951 34.6331 41.4141 35.4142L33.4141 43.4142C32.633 44.1952 31.367 44.1952 30.5859 43.4142C29.8049 42.6331 29.8049 41.3671 30.5859 40.586L35.1719 36.0001H8C6.89543 36.0001 6 35.1047 6 34.0001C6 32.8955 6.89543 32.0001 8 32.0001H35.1719L30.5859 27.4142C29.8049 26.6331 29.8049 25.3671 30.5859 24.586ZM14.5859 4.58603C15.367 3.80498 16.633 3.80498 17.4141 4.58603C18.1951 5.36708 18.1951 6.63311 17.4141 7.41416L12.8281 12.0001H40C41.1046 12.0001 42 12.8955 42 14.0001C42 15.1047 41.1046 16.0001 40 16.0001H12.8281L17.4141 20.586C18.1951 21.3671 18.1951 22.6331 17.4141 23.4142C16.633 24.1952 15.367 24.1952 14.5859 23.4142L6.58594 15.4142C5.80489 14.6331 5.80489 13.3671 6.58594 12.586L14.5859 4.58603Z" fill="black"/>
</svg>
