<svg width="48" height="48" viewBox="0 0 48 48" fill="none" xmlns="http://www.w3.org/2000/svg">
<path fill-rule="evenodd" clip-rule="evenodd" d="M17.9998 3.43505C18.804 2.63106 19.8285 2.08357 20.9438 1.86178C22.0591 1.63999 23.2152 1.75386 24.2658 2.18901C25.3164 2.62415 26.2144 3.36103 26.8463 4.30647C27.4782 5.25192 27.8156 6.36349 27.8158 7.50065V14.0215C29.0596 13.6231 30.4021 13.6603 31.6219 14.1271C32.8417 14.594 33.8661 15.4624 34.5262 16.5895C35.4029 16.158 36.3752 15.957 37.3511 16.0056C38.3271 16.0541 39.2746 16.3506 40.1042 16.867C40.9338 17.3834 41.6181 18.1027 42.0925 18.9569C42.5669 19.8112 42.8159 20.7723 42.8158 21.7495V29.2471C42.8161 31.4796 42.3766 33.6904 41.5225 35.7531C40.6683 37.8158 39.4162 39.6901 37.8377 41.2689C36.2591 42.8476 34.385 44.1 32.3224 44.9544C30.2598 45.8089 28.0491 46.2487 25.8166 46.2487C21.2134 46.2487 17.6806 44.9599 14.5294 41.7991C11.5414 38.8015 8.96617 34.1815 5.93257 27.7879C5.1802 26.461 4.98573 24.8897 5.39193 23.4195C5.79814 21.9492 6.77174 20.7006 8.09857 19.9483C9.42539 19.1959 10.9968 19.0014 12.467 19.4076C13.9372 19.8138 15.1858 20.7874 15.9382 22.1143L16.315 22.7719V7.50065C16.315 5.97425 16.9222 4.51265 17.9998 3.43505ZM35.3158 21.7495C35.3158 22.2797 35.1051 22.7882 34.7302 23.1631C34.3553 23.538 33.8468 23.7487 33.3166 23.7487C32.7863 23.7487 32.2778 23.538 31.9029 23.1631C31.528 22.7882 31.3174 22.2797 31.3174 21.7495V19.5007C31.3174 19.0363 31.1329 18.591 30.8046 18.2626C30.4762 17.9343 30.0309 17.7499 29.5666 17.7499C29.1022 17.7499 28.6569 17.9343 28.3286 18.2626C28.0002 18.591 27.8158 19.0363 27.8158 19.5007V20.2495C27.8158 20.7797 27.6051 21.2882 27.2302 21.6631C26.8553 22.038 26.3468 22.2487 25.8166 22.2487C25.2863 22.2487 24.7778 22.038 24.4029 21.6631C24.028 21.2882 23.8174 20.7797 23.8174 20.2495V7.50065C23.8261 7.26528 23.7873 7.03057 23.7032 6.81054C23.6191 6.59052 23.4916 6.38971 23.3281 6.22011C23.1647 6.0505 22.9687 5.9156 22.752 5.82345C22.5352 5.73131 22.3021 5.68382 22.0666 5.68382C21.831 5.68382 21.5979 5.73131 21.3812 5.82345C21.1644 5.9156 20.9684 6.0505 20.805 6.22011C20.6416 6.38971 20.514 6.59052 20.4299 6.81054C20.3459 7.03057 20.3071 7.26528 20.3158 7.50065V30.2383C20.3161 30.6787 20.1709 31.1069 19.9028 31.4564C19.6347 31.8059 19.2587 32.057 18.8332 32.1708C18.4077 32.2847 17.9566 32.2548 17.5498 32.0859C17.143 31.9169 16.8034 31.6184 16.5838 31.2367L12.4726 24.1159C12.2991 23.8161 12.041 23.5742 11.7306 23.4205C11.4202 23.2668 11.0714 23.2081 10.7278 23.2519C10.4422 23.2897 10.1704 23.3974 9.93642 23.5654C9.70243 23.7334 9.51346 23.9565 9.38626 24.2149C9.25906 24.4734 9.19754 24.7592 9.20715 25.0471C9.21676 25.335 9.29721 25.6161 9.44137 25.8655C9.46811 25.9124 9.49293 25.9605 9.51577 26.0095C12.5758 32.4655 14.9062 36.5143 17.3638 38.9767C19.6678 41.2903 22.135 42.2503 25.8166 42.2503C29.2642 42.2496 32.5704 40.8796 35.008 38.4416C37.4456 36.0035 38.815 32.6971 38.815 29.2495V21.7495C38.815 21.2854 38.6306 20.8404 38.3025 20.5123C37.9744 20.1842 37.5294 19.9999 37.0654 19.9999C36.6013 19.9999 36.1563 20.1842 35.8282 20.5123C35.5001 20.8404 35.3158 21.2854 35.3158 21.7495Z" fill="black"/>
</svg>
