<svg width="48" height="48" viewBox="0 0 48 48" fill="none" xmlns="http://www.w3.org/2000/svg">
<path fill-rule="evenodd" clip-rule="evenodd" d="M24 13C18.234 13 12.915 14.1643 8.96343 16.1401C5.13154 18.056 2 21.0729 2 25C2 28.9271 5.13154 31.944 8.96343 33.8599C11.8424 35.2994 15.4472 36.3081 19.4219 36.7497L18.5858 37.5858C17.8047 38.3668 17.8047 39.6332 18.5858 40.4142C19.3668 41.1953 20.6332 41.1953 21.4142 40.4142L25.4128 36.4156C25.4176 36.4108 25.4224 36.406 25.4272 36.4011C25.6125 36.2124 25.7529 35.9961 25.8482 35.7656C25.9453 35.5315 25.9992 35.275 26 35.006C26 35.004 26 35.002 26 35C26 34.998 26 34.996 26 34.994C25.9984 34.4507 25.7802 33.9584 25.4272 33.5989C25.4224 33.594 25.4176 33.5892 25.4128 33.5844L21.4142 29.5858C20.6332 28.8047 19.3668 28.8047 18.5858 29.5858C17.8047 30.3668 17.8047 31.6332 18.5858 32.4142L18.8132 32.6416C15.6747 32.1965 12.9125 31.3623 10.7523 30.2822C7.34561 28.5788 6 26.5957 6 25C6 23.4043 7.34561 21.4212 10.7523 19.7178C14.0393 18.0743 18.7203 17 24 17C29.2797 17 33.9607 18.0743 37.2477 19.7178C40.6544 21.4212 42 23.4043 42 25C42 26.1817 41.2905 27.5629 39.4495 28.9425C37.6255 30.3094 34.9152 31.4839 31.5732 32.214C30.494 32.4497 29.8103 33.5156 30.0461 34.5947C30.2818 35.6739 31.3477 36.3576 32.4268 36.1218C36.1484 35.3088 39.4381 33.9496 41.8482 32.1435C44.2413 30.3501 46 27.9189 46 25C46 21.0729 42.8685 18.056 39.0366 16.1401C35.085 14.1643 29.766 13 24 13Z" fill="black"/>
</svg>
