<svg width="48" height="48" viewBox="0 0 48 48" fill="none" xmlns="http://www.w3.org/2000/svg">
<path d="M22.5 41C22.1289 41 21.7651 40.8967 21.4493 40.7017C21.1336 40.5068 20.8783 40.2278 20.712 39.896L13.76 26H6C5.07174 26 4.1815 25.6312 3.52513 24.9749C2.86875 24.3185 2.5 23.4283 2.5 22.5V6C2.5 5.07174 2.86875 4.1815 3.52513 3.52513C4.1815 2.86875 5.07174 2.5 6 2.5H37.852C39.0705 2.50034 40.2469 2.94561 41.1602 3.75213C42.0735 4.55866 42.6609 5.67094 42.812 6.88L45.064 24.88C45.1512 25.5832 45.0881 26.297 44.8788 26.974C44.6695 27.651 44.3188 28.2759 43.8499 28.8072C43.3809 29.3385 42.8045 29.7642 42.1588 30.056C41.513 30.3478 40.8126 30.4992 40.104 30.5H30.496V33C30.496 35.1217 29.6531 37.1566 28.1529 38.6569C26.6526 40.1571 24.6177 41 22.496 41H22.5ZM17 6.5V23.528L23.652 36.832C24.4759 36.5849 25.1981 36.0785 25.7112 35.3881C26.2243 34.6977 26.501 33.8602 26.5 33V28.5C26.5 27.9696 26.7107 27.4609 27.0858 27.0858C27.4609 26.7107 27.9696 26.5 28.5 26.5H40.1C40.2418 26.5 40.3819 26.4698 40.5111 26.4115C40.6403 26.3531 40.7557 26.268 40.8495 26.1617C40.9433 26.0554 41.0134 25.9304 41.0552 25.7949C41.097 25.6595 41.1096 25.5167 41.092 25.376L38.844 7.376C38.8138 7.13419 38.6963 6.91173 38.5136 6.75043C38.331 6.58912 38.0957 6.50007 37.852 6.5H17ZM13 22V6.5H6.5V22H13Z" fill="black"/>
</svg>
