<svg width="48" height="48" viewBox="0 0 48 48" fill="none" xmlns="http://www.w3.org/2000/svg">
<path d="M31 29.384C32.1043 29.384 32.9996 30.2798 33 31.384C33 32.4886 32.1046 33.384 31 33.384H17C15.8954 33.384 15 32.4886 15 31.384C15.0004 30.2798 15.8957 29.384 17 29.384H31Z" fill="black"/>
<path d="M23 23.384C24.1043 23.384 24.9996 24.2798 25 25.384C25 26.4886 24.1046 27.384 23 27.384H17C15.8954 27.384 15 26.4886 15 25.384C15.0004 24.2798 15.8957 23.384 17 23.384H23Z" fill="black"/>
<path fill-rule="evenodd" clip-rule="evenodd" d="M33.4512 4.07543C34.4251 3.79642 35.4726 4.29632 35.8574 5.25707L39.3535 13.9993H44L44.2051 14.009C45.2131 14.1117 45.9996 14.9643 46 15.9993V21.9993C46 23.1038 45.1046 23.9993 44 23.9993C41.7479 23.9993 40.0005 25.4302 40 27.4993C40 28.6758 40.5087 29.8236 41.3262 30.6868C42.1559 31.5626 43.1586 31.9993 44 31.9993C45.1043 31.9993 45.9996 32.8951 46 33.9993V39.9993C46 41.1038 45.1046 41.9993 44 41.9993H4C2.89543 41.9993 2 41.1038 2 39.9993V33.9993L2.00977 33.7942C2.1128 32.7863 2.96492 31.9993 4 31.9993C5.07395 31.9993 6.08297 31.6397 6.79688 31.0051C7.47378 30.4032 8 29.4563 8 27.9993C7.9998 26.5424 7.47388 25.5952 6.79688 24.9934C6.08296 24.359 5.07366 23.9993 4 23.9993C2.89543 23.9993 2 23.1038 2 21.9993V15.9993L2.00977 15.7942C2.1128 14.7863 2.96492 13.9993 4 13.9993H8.61328L33.2578 4.14183L33.4512 4.07543ZM6 20.2336C7.24868 20.5298 8.44837 21.1121 9.45312 22.0051C11.0258 23.4031 11.9998 25.4569 12 27.9993C12 30.5417 11.0258 32.5953 9.45312 33.9934C8.44845 34.8864 7.24864 35.4667 6 35.7629V37.9993H42V35.6946C40.6277 35.2764 39.3916 34.4583 38.4238 33.4368C36.9918 31.925 36 29.8223 36 27.4993C36.0004 23.4374 38.8875 20.9796 42 20.2395V17.9993H38.0469C38.0195 17.9999 37.9921 17.9998 37.9648 17.9993H9.02539C8.99472 17.9996 8.96413 18.0003 8.93359 17.9993H6V20.2336ZM19.3848 13.9993H35.0449L32.8848 8.59887L19.3848 13.9993Z" fill="black"/>
</svg>
