<svg width="48" height="48" viewBox="0 0 48 48" fill="none" xmlns="http://www.w3.org/2000/svg">
<path d="M7.57422 30.9375L22 40.3125V32.041L14 26.4394L7.57422 30.9375ZM26 32.041V40.3125L40.4238 30.9375L34 26.4394L26 32.041ZM17.4863 24L24 28.5586L30.5117 24L24 19.4394L17.4863 24ZM6 27.1582L10.5117 24L6 20.8398V27.1582ZM37.4863 24L42 27.1582V20.8398L37.4863 24ZM7.57422 17.0605L14 21.5586L22 15.957V7.6855L7.57422 17.0605ZM26 15.957L34 21.5586L40.4238 17.0605L26 7.6855V15.957ZM46 31C46 31.6769 45.6574 32.3088 45.0898 32.6777L25.0898 45.6777C24.4273 46.1081 23.5727 46.1081 22.9102 45.6777L2.91016 32.6777C2.34257 32.3088 2 31.6769 2 31V17C2 16.323 2.34257 15.6912 2.91016 15.3222L22.9102 2.32222L23.166 2.1816C23.7826 1.89864 24.5098 1.94542 25.0898 2.32222L45.0898 15.3222C45.6574 15.6912 46 16.323 46 17V31Z" fill="black"/>
</svg>
