<svg width="48" height="48" viewBox="0 0 48 48" fill="none" xmlns="http://www.w3.org/2000/svg">
<path d="M39.8333 5H24C22.2583 5 20.8333 6.425 20.8333 8.16667C20.8333 9.90833 22.2583 11.3333 24 11.3333H32.2333L24.1583 19.4083C22.2583 18.3 20.0417 17.6667 17.6667 17.6667C10.7 17.6667 5 23.3667 5 30.3333C5 37.3 10.7 43 17.6667 43C24.6333 43 30.3333 37.3 30.3333 30.3333C30.3333 27.9583 29.7 25.7417 28.5917 23.8417L36.6667 15.7667V24C36.6667 25.7417 38.0917 27.1667 39.8333 27.1667C41.575 27.1667 43 25.7417 43 24V8.16667C43 6.425 41.575 5 39.8333 5ZM17.6667 36.6667C14.1833 36.6667 11.3333 33.8167 11.3333 30.3333C11.3333 26.85 14.1833 24 17.6667 24C21.15 24 24 26.85 24 30.3333C24 33.8167 21.15 36.6667 17.6667 36.6667Z" fill="black"/>
</svg>
