<svg width="48" height="48" viewBox="0 0 48 48" fill="none" xmlns="http://www.w3.org/2000/svg">
<path fill-rule="evenodd" clip-rule="evenodd" d="M33.5166 2.99997C32.9644 2.04338 31.7412 1.71563 30.7846 2.26792L17.3922 9.99997H6C3.79088 9.99997 2 11.7908 2 14V42C2 44.2092 3.79088 46 6 46H42C44.2092 46 46 44.2091 46 42V40.5V33V23V16.5V14C46 11.7908 44.2092 9.99997 42 9.99997H37.5581L33.5166 2.99997ZM42 16.5V14H6V42H42V40.5V35H35.25C31.339 35 28 31.9568 28 28C28 24.0432 31.339 21 35.25 21H42V16.5ZM42 25H35.25C33.362 25 32 26.434 32 28C32 29.566 33.362 31 35.25 31H42V25ZM32.9307 9.9851L25.4321 9.97696L31.0525 6.73201L32.9307 9.9851Z" fill="black"/>
</svg>
