<svg width="48" height="48" viewBox="0 0 48 48" fill="none" xmlns="http://www.w3.org/2000/svg">
<g clip-path="url(#clip0_1265_18)">
<path fill-rule="evenodd" clip-rule="evenodd" d="M16.9118 36.6799C20.4576 35.4979 24.7706 32.8317 28.7998 28.8025C32.8291 24.7732 35.4953 20.4602 36.6772 16.9144C37.9549 13.0815 37.144 11.5464 36.7999 11.2023C36.4558 10.8582 34.9207 10.0474 31.0878 11.325C27.542 12.5069 23.229 15.1731 19.1998 19.2024C15.1705 23.2316 12.5043 27.5446 11.3224 31.0904C10.0447 34.9234 10.8556 36.4585 11.1997 36.8026C11.5438 37.1466 13.0789 37.9575 16.9118 36.6799ZM7.99965 40.0026C12.418 44.4209 23.1632 40.8391 31.9999 32.0025C40.8365 23.1659 44.4183 12.4206 40 8.00227C35.5816 3.58395 24.8364 7.16571 15.9997 16.0024C7.16308 24.839 3.58133 35.5843 7.99965 40.0026Z" fill="black"/>
<path fill-rule="evenodd" clip-rule="evenodd" d="M11.322 16.9136C12.5039 20.4594 15.1701 24.7724 19.1994 28.8017C23.2286 32.8309 27.5416 35.4971 31.0874 36.6791C34.9203 37.9567 36.4554 37.1458 36.7995 36.8018C37.1436 36.4577 37.9545 34.9226 36.6768 31.0896C35.4949 27.5438 32.8287 23.2308 28.7994 19.2016C24.7702 15.1723 20.4572 12.5061 16.9114 11.3242C13.0785 10.0466 11.5434 10.8574 11.1993 11.2015C10.8552 11.5456 10.0443 13.0807 11.322 16.9136ZM7.99925 8.00148C3.58093 12.4198 7.16269 23.1651 15.9993 32.0017C24.836 40.8384 35.5812 44.4201 39.9996 40.0018C44.4179 35.5835 40.8361 24.8382 31.9995 16.0016C23.1628 7.16492 12.4176 3.58316 7.99925 8.00148Z" fill="black"/>
<circle cx="23.9999" cy="23.9988" r="2.26276" fill="black"/>
</g>
<defs>
<clipPath id="clip0_1265_18">
<rect width="24" height="24" fill="white" transform="scale(2)"/>
</clipPath>
</defs>
</svg>
