<svg width="48" height="48" viewBox="0 0 48 48" fill="none" xmlns="http://www.w3.org/2000/svg">
<path d="M8.25 35.25C8.05109 35.25 7.86032 35.329 7.71967 35.4697C7.57902 35.6103 7.5 35.8011 7.5 36V39C7.5 39.414 7.836 39.75 8.25 39.75H39.75C39.9489 39.75 40.1397 39.671 40.2803 39.5303C40.421 39.3897 40.5 39.1989 40.5 39V36C40.5 35.8011 40.421 35.6103 40.2803 35.4697C40.1397 35.329 39.9489 35.25 39.75 35.25H8.25ZM19.5 26.25C19.3011 26.25 19.1103 26.329 18.9697 26.4697C18.829 26.6103 18.75 26.8011 18.75 27V30C18.75 30.414 19.086 30.75 19.5 30.75H39.75C39.9489 30.75 40.1397 30.671 40.2803 30.5303C40.421 30.3897 40.5 30.1989 40.5 30V27C40.5 26.8011 40.421 26.6103 40.2803 26.4697C40.1397 26.329 39.9489 26.25 39.75 26.25H19.5ZM14.028 18.534C13.887 18.3943 13.6964 18.3161 13.4979 18.3167C13.2994 18.3172 13.1092 18.3965 12.969 18.537L8.028 23.502C7.88825 23.643 7.8101 23.8336 7.81066 24.0321C7.81122 24.2306 7.89046 24.4208 8.031 24.561L12.972 29.478C13.077 29.5821 13.2105 29.6529 13.3557 29.6813C13.5008 29.7098 13.6512 29.6947 13.7878 29.6379C13.9244 29.5812 14.0411 29.4853 14.1234 29.3624C14.2056 29.2394 14.2497 29.0949 14.25 28.947V19.068C14.2502 18.9687 14.2306 18.8704 14.1925 18.7787C14.1544 18.6871 14.0985 18.6039 14.028 18.534ZM19.5 17.25C19.3011 17.25 19.1103 17.329 18.9697 17.4697C18.829 17.6103 18.75 17.8011 18.75 18V21C18.75 21.414 19.086 21.75 19.5 21.75H39.75C39.9489 21.75 40.1397 21.671 40.2803 21.5303C40.421 21.3897 40.5 21.1989 40.5 21V18C40.5 17.8011 40.421 17.6103 40.2803 17.4697C40.1397 17.329 39.9489 17.25 39.75 17.25H19.5ZM8.25 8.25C8.05109 8.25 7.86032 8.32902 7.71967 8.46967C7.57902 8.61032 7.5 8.80109 7.5 9V12C7.5 12.414 7.836 12.75 8.25 12.75H39.75C39.9489 12.75 40.1397 12.671 40.2803 12.5303C40.421 12.3897 40.5 12.1989 40.5 12V9C40.5 8.80109 40.421 8.61032 40.2803 8.46967C40.1397 8.32902 39.9489 8.25 39.75 8.25H8.25Z" fill="black"/>
</svg>
