<svg width="48" height="48" viewBox="0 0 48 48" fill="none" xmlns="http://www.w3.org/2000/svg">
<path fill-rule="evenodd" clip-rule="evenodd" d="M33.4512 4.07737C34.4253 3.79826 35.4707 4.29612 35.8555 5.25705L39.3535 13.9992H44L44.2051 14.009C45.2129 14.1119 45.9996 14.9644 46 15.9992V21.9992C45.9998 23.1034 45.1042 23.9989 44 23.9992C41.7483 23.9995 40.0006 25.4305 40 27.4992C40.0001 28.6755 40.509 29.8237 41.3262 30.6867C42.1557 31.5621 43.1588 31.9991 44 31.9992C45.104 31.9996 45.9995 32.8953 46 33.9992V39.9992C45.9999 41.1035 45.1042 41.9989 44 41.9992H4C2.89566 41.999 2.0001 41.1036 2 39.9992V33.9992L2.00977 33.7961C2.11235 32.7879 2.96476 31.9994 4 31.9992C5.07366 31.9991 6.08309 31.6395 6.79688 31.0051C7.47362 30.4033 7.99989 29.4559 8 27.9992C7.99974 26.543 7.47358 25.5951 6.79688 24.9934C6.12786 24.3991 5.1986 24.0452 4.20117 24.0031L4 23.9992C2.89572 23.999 2.0002 23.1035 2 21.9992V15.9992L2.00977 15.7942C2.11277 14.7864 2.96508 13.9994 4 13.9992H8.61914L33.2559 4.14377L33.4512 4.07737ZM17 29.384C15.8961 29.3844 15.0006 30.2802 15 31.384C15.0002 32.4882 15.8958 33.3836 17 33.384H31L31.2051 33.3742C32.2134 33.2717 32.9999 32.4193 33 31.384C32.9994 30.3491 32.213 29.4983 31.2051 29.3957L31 29.384H17ZM17 23.384C15.896 23.3844 15.0005 24.2801 15 25.384C15.0002 26.4882 15.8958 27.3836 17 27.384H23L23.2051 27.3742C24.2134 27.2717 24.9999 26.4193 25 25.384C24.9995 24.349 24.2132 23.4963 23.2051 23.3938L23 23.384H17ZM19.3848 13.9992H35.0449L32.8848 8.59885L19.3848 13.9992Z" fill="black"/>
</svg>
