<svg width="48" height="48" viewBox="0 0 48 48" fill="none" xmlns="http://www.w3.org/2000/svg">
<path fill-rule="evenodd" clip-rule="evenodd" d="M32 10H16C14.8954 10 14 10.8954 14 12V20C14 25.5228 18.4772 30 24 30C29.5228 30 34 25.5228 34 20V12C34 10.8954 33.1046 10 32 10ZM26 33.8582C30.7191 33.1832 34.679 30.1548 36.6527 26H38C42.4183 26 46 22.4183 46 18V16C46 12.6863 43.3137 10 40 10H37.6586C36.8349 7.66962 34.6124 6 32 6H16C13.3876 6 11.1651 7.66962 10.3414 10H8C4.68629 10 2 12.6863 2 16V18C2 22.4183 5.58172 26 10 26H11.3473C13.321 30.1548 17.2809 33.1832 22 33.8582V38H18C16.8954 38 16 38.8954 16 40C16 41.1046 16.8954 42 18 42H30C31.1046 42 32 41.1046 32 40C32 38.8954 31.1046 38 30 38H26V33.8582ZM8 14H10V20V22C7.79086 22 6 20.2091 6 18V16C6 14.8954 6.89543 14 8 14ZM38 20V14H40C41.1046 14 42 14.8954 42 16V18C42 20.2091 40.2091 22 38 22V20Z" fill="black"/>
</svg>
