<svg width="48" height="48" viewBox="0 0 48 48" fill="none" xmlns="http://www.w3.org/2000/svg">
<path fill-rule="evenodd" clip-rule="evenodd" d="M10 10C10 8.89543 10.8954 8 12 8H36C37.1046 8 38 8.89543 38 10V38.3608C38 39.9746 36.1871 40.9239 34.8607 40.0046L27.8621 35.1539C25.86 33.7663 23.2177 33.7269 21.1751 35.0541L13.0897 40.3077C11.7592 41.1723 10 40.2174 10 38.6307V10ZM12 4C8.68629 4 6 6.68629 6 10V38.6307C6 43.3909 11.2776 46.2555 15.2691 43.6619L23.3545 38.4082C24.0354 37.9658 24.9161 37.979 25.5835 38.4415L32.5821 43.2922C36.5613 46.0501 42 43.2022 42 38.3608V10C42 6.68629 39.3137 4 36 4H12ZM25.32 13.2885C25.0576 12.8015 24.5486 12.4985 23.9955 12.5C23.4423 12.5015 22.9349 12.8073 22.6752 13.2956L20.5919 17.2123L15.8015 17.852C15.2218 17.9294 14.74 18.3367 14.5671 18.8953C14.3942 19.454 14.5617 20.0622 14.9963 20.4535L18.3917 23.5109L17.5884 27.7187C17.4818 28.2772 17.7001 28.848 18.1522 29.1928C18.6043 29.5375 19.2125 29.597 19.7229 29.3464L23.9996 27.2465L28.2772 29.3465C28.7873 29.5969 29.395 29.5376 29.8471 29.1933C30.2991 28.8491 30.5178 28.279 30.412 27.7207L29.6143 23.511L33.0048 20.4526C33.4387 20.0612 33.6058 19.4535 33.433 18.8952C33.2601 18.337 32.7789 17.9299 32.1997 17.8522L27.4343 17.2122L25.32 13.2885ZM22.8786 19.3015L24.0081 17.1781L25.1561 19.3086C25.384 19.7316 25.8008 20.0198 26.277 20.0837L28.5904 20.3944L26.9788 21.8481C26.5901 22.1987 26.4123 22.7267 26.5098 23.2411L26.9058 25.3313L24.6605 24.229C24.2436 24.0243 23.7553 24.0243 23.3384 24.2291L21.0988 25.3287L21.497 23.2432C21.5954 22.7277 21.4173 22.1983 21.0273 21.8472L19.4157 20.396L21.7529 20.0839C22.2323 20.0198 22.6515 19.7285 22.8786 19.3015Z" fill="black"/>
</svg>
