<svg width="48" height="48" viewBox="0 0 48 48" fill="none" xmlns="http://www.w3.org/2000/svg">
<path fill-rule="evenodd" clip-rule="evenodd" d="M44.8064 26.2737V15.2554C44.8064 13.7519 44.2596 12.385 43.166 11.2458C42.027 10.1068 40.569 9.69668 39.1109 9.69668H38.0629C37.5161 9.69668 37.0149 9.37773 36.5593 9.05878C36.058 8.7854 35.7391 8.28417 35.5113 7.78298L34.2355 5.14026C34.0429 4.71658 33.7527 4.52082 33.3923 4.27776C33.3263 4.23327 33.258 4.18719 33.1875 4.13784C32.749 3.8986 32.3104 3.90358 31.8718 3.90857C31.8092 3.90928 31.7466 3.90999 31.6839 3.90999H15.8277C15.7372 3.90999 15.6453 3.90702 15.5527 3.90404C15.1321 3.89047 14.6974 3.87644 14.324 4.13784C13.8684 4.41122 13.5039 4.73021 13.276 5.18583L12.0002 7.78298C11.7724 8.23864 11.4079 8.7854 10.9523 9.10435C10.4966 9.37777 9.94979 9.69672 9.44861 9.69672H8.35505C6.89706 9.69672 5.43903 10.1068 4.34547 11.2459C3.20635 12.3849 2.65959 13.7519 2.65959 15.2555V37.6273C2.65959 40.7256 4.20876 42.2748 7.44378 42.2748H27.9088C27.1269 40.7278 26.6663 38.9907 26.6147 37.1513C25.7243 37.3437 24.7981 37.445 23.8468 37.445C16.8755 37.445 11.18 31.9318 11.18 25.0517C11.18 18.2171 16.8755 12.6584 23.8468 12.6584C30.8002 12.6584 36.4113 18.1171 36.5121 24.8667C37.2387 24.7311 37.9879 24.6602 38.7538 24.6602C40.9577 24.6602 43.0245 25.2473 44.8064 26.2737ZM35.4199 14.4354C35.4199 13.4785 36.2401 12.6584 37.2425 12.6584C38.245 12.6584 39.0651 13.4785 39.0651 14.4354C39.0651 15.4378 38.2449 16.258 37.2425 16.258C36.2401 16.258 35.4199 15.4378 35.4199 14.4354Z" fill="black"/>
<path d="M33.8967 25.6705C30.3009 27.2413 27.6129 30.5031 26.8377 34.4506C25.8927 34.7384 24.8881 34.8935 23.8468 34.8935C18.3336 34.8935 13.8227 30.4738 13.8227 25.0517C13.8227 19.6296 18.3336 15.2555 23.8468 15.2555C29.4056 15.2555 33.9164 19.6296 33.9164 25.0517C33.9164 25.2595 33.9097 25.4658 33.8967 25.6705Z" fill="black"/>
<path fill-rule="evenodd" clip-rule="evenodd" d="M39.057 45.0984C43.8052 45.0984 47.6544 41.2492 47.6544 36.501C47.6544 31.7528 43.8052 27.9036 39.057 27.9036C34.3088 27.9036 30.4596 31.7528 30.4596 36.501C30.4596 41.2492 34.3088 45.0984 39.057 45.0984ZM39.0571 30.8656L43.4162 36.7781H40.4798V41.343H37.6353V36.7781H34.6981L39.0571 30.8656Z" fill="black"/>
</svg>
