<svg width="48" height="48" viewBox="0 0 48 48" fill="none" xmlns="http://www.w3.org/2000/svg">
<path fill-rule="evenodd" clip-rule="evenodd" d="M31.586 40.414L27.586 36.414C26.806 35.634 26.806 34.366 27.586 33.586C28.366 32.806 29.634 32.806 30.414 33.586L33 36.172L39.586 29.586C40.366 28.806 41.634 28.806 42.414 29.586C43.194 30.366 43.194 31.634 42.414 32.414L34.414 40.414C33.634 41.194 32.366 41.194 31.586 40.414ZM19 22C14.03 22 10 17.97 10 13C10 8.03 14.03 4 19 4C23.97 4 28 8.03 28 13C28 17.97 23.97 22 19 22ZM19 18C21.762 18 24 15.762 24 13C24 10.238 21.762 8 19 8C16.238 8 14 10.238 14 13C14 15.762 16.238 18 19 18ZM7.998 40H27C28.104 40 29 40.896 29 42C29 43.104 28.104 44 27 44H6C4.896 44 4 43.104 4 42V40.8C4 35.83 4.122 33.358 5.09 31.46C6.048 29.578 7.578 28.048 9.46 27.09C11.358 26.122 13.83 26 18.8 26H27C28.104 26 29 26.896 29 28C29 29.104 28.104 30 27 30H18.8C14.808 30 12.8 29.878 11.276 30.654C10.148 31.23 9.23 32.148 8.654 33.276C7.93 34.696 7.988 36.534 7.998 40Z" fill="black"/>
</svg>
