<svg width="48" height="48" viewBox="0 0 48 48" fill="none" xmlns="http://www.w3.org/2000/svg">
<path d="M3.999 29.997V9.99597C3.999 8.40467 4.63114 6.87855 5.75636 5.75333C6.88158 4.62811 8.4077 3.99597 9.999 3.99597H38.001C39.5923 3.99597 41.1184 4.62811 42.2436 5.75333C43.3689 6.87855 44.001 8.40467 44.001 9.99597V29.997C44.001 31.5883 43.3689 33.1144 42.2436 34.2396C41.1184 35.3648 39.5923 35.997 38.001 35.997H9.999C8.4077 35.997 6.88158 35.3648 5.75636 34.2396C4.63114 33.1144 3.999 31.5883 3.999 29.997ZM14.001 11.997C13.7319 11.9865 13.4635 12.0305 13.2118 12.1263C12.9601 12.2221 12.7303 12.3677 12.5363 12.5544C12.3422 12.7411 12.1878 12.9651 12.0824 13.2129C11.9769 13.4607 11.9225 13.7272 11.9225 13.9965C11.9225 14.2658 11.9769 14.5323 12.0824 14.7801C12.1878 15.0279 12.3422 15.2518 12.5363 15.4385C12.7303 15.6252 12.9601 15.7708 13.2118 15.8666C13.4635 15.9624 13.7319 16.0064 14.001 15.996H27.999C28.5159 15.9759 29.005 15.7565 29.3636 15.3837C29.7222 15.0109 29.9225 14.5138 29.9225 13.9965C29.9225 13.4792 29.7222 12.982 29.3636 12.6092C29.005 12.2364 28.5159 12.017 27.999 11.997H14.001ZM12 21.996C12 23.1 12.897 23.997 14.001 23.997H18C18.5307 23.997 19.0397 23.7862 19.4149 23.4109C19.7902 23.0356 20.001 22.5267 20.001 21.996C20.001 21.4653 19.7902 20.9563 19.4149 20.5811C19.0397 20.2058 18.5307 19.995 18 19.995H14.001C13.4703 19.995 12.9613 20.2058 12.5861 20.5811C12.2108 20.9563 12 21.4653 12 21.996ZM15.999 39.996C15.4821 40.016 14.993 40.2354 14.6344 40.6082C14.2758 40.981 14.0755 41.4782 14.0755 41.9955C14.0755 42.5128 14.2758 43.0099 14.6344 43.3827C14.993 43.7555 15.4821 43.9749 15.999 43.995H32.001C32.5179 43.9749 33.007 43.7555 33.3656 43.3827C33.7242 43.0099 33.9245 42.5128 33.9245 41.9955C33.9245 41.4782 33.7242 40.981 33.3656 40.6082C33.007 40.2354 32.5179 40.016 32.001 39.996H15.999Z" fill="black"/>
</svg>
