<svg width="48" height="48" viewBox="0 0 48 48" fill="none" xmlns="http://www.w3.org/2000/svg">
<path fill-rule="evenodd" clip-rule="evenodd" d="M26.3924 36.9611C26.0511 37.0294 25.6977 37.0074 25.3675 36.8974L19.3675 34.8974C18.3197 34.5481 17.7533 33.4154 18.1026 32.3675C18.4519 31.3197 19.5846 30.7533 20.6325 31.1026L26.1297 32.9351L26.2598 32.9092C26.6751 32.8269 27.2705 32.7094 27.991 32.5685C29.4316 32.2866 31.3746 31.9105 33.3814 31.5343C35.3862 31.1584 37.464 30.7805 39.1712 30.496C40.783 30.2273 42.2935 30 43 30C43.8114 30 44.7154 30.2028 45.442 30.8386C46.2036 31.505 46.5 32.41 46.5 33.25C46.5 34.7778 45.5678 36.2606 44.4142 37.4142C43.3302 38.4983 40.9678 40.5957 38.0737 42.4373C35.2355 44.2435 31.5847 46 28 46C24.6613 46 21.906 45.1602 19.6175 44.3974C19.4028 44.3258 19.1942 44.2558 18.9914 44.1878C16.9248 43.4945 15.4508 43 14 43H4.00109L4.00007 39H14C16.1498 39 18.2773 39.721 20.2014 40.3731C20.4314 40.451 20.6586 40.528 20.8825 40.6026C23.094 41.3398 25.3387 42 28 42C30.4153 42 33.2645 40.7565 35.9262 39.0627C38.5322 37.4043 40.6698 35.5017 41.5858 34.5858C41.7559 34.4157 41.8988 34.2539 42.0176 34.1035C41.4768 34.177 40.7393 34.2898 39.8288 34.4415C38.161 34.7195 36.1138 35.0916 34.1186 35.4657C32.1254 35.8395 30.1934 36.2134 28.759 36.494C28.042 36.6343 27.4499 36.7512 27.0371 36.833L26.3924 36.9611ZM43.0847 34.0049C43.0846 34.005 43.0828 34.0047 43.0795 34.004L43.0847 34.0049ZM4.00007 39C2.8955 39 2 39.8954 2 41C2 42.1046 2.89653 43 4.00109 43L4.00007 39Z" fill="black"/>
<path fill-rule="evenodd" clip-rule="evenodd" d="M9.24228 27.4865C7.67291 28.3833 6.3119 29.5165 5.41421 30.4142C4.63317 31.1953 3.36683 31.1953 2.58579 30.4142C1.80474 29.6332 1.80474 28.3668 2.58579 27.5858C3.6881 26.4835 5.32709 25.1167 7.25772 24.0135C9.17187 22.9197 11.5215 22 14 22C15.2699 22 16.8188 22.3064 18.3509 22.7279C19.9172 23.1588 21.6024 23.749 23.1933 24.3983C24.7822 25.0468 26.3143 25.7697 27.5681 26.4765C28.1943 26.8296 28.7757 27.1924 29.2698 27.5538C29.7381 27.8965 30.2366 28.3154 30.6 28.8C31.5 30 31.4109 31.3296 31.0367 32.3272C30.6897 33.2525 30.0606 34.0429 29.5216 34.6179C28.9589 35.2181 28.3585 35.7251 27.914 36.0737C27.6882 36.2508 27.4944 36.3935 27.3542 36.4938C27.2839 36.544 27.2266 36.584 27.1851 36.6126L27.1346 36.6471L27.1187 36.6578L27.1132 36.6615L27.1111 36.663C27.1107 36.6632 27.1094 36.6641 26 35L27.1094 36.6641C26.1903 37.2768 24.9486 37.0285 24.3359 36.1094C23.7238 35.1912 23.9711 33.951 24.8879 33.3377C24.8878 33.3378 24.8881 33.3376 24.8879 33.3377L24.8899 33.3364C24.8897 33.3365 24.8901 33.3362 24.8899 33.3364L24.9153 33.319C24.9389 33.3027 24.9769 33.2763 25.0267 33.2406C25.1267 33.169 25.2727 33.0617 25.4454 32.9263C25.7978 32.6499 26.2286 32.2819 26.6034 31.8821C26.9307 31.5331 27.1339 31.245 27.2376 31.0425C27.154 30.9696 27.0452 30.8825 26.908 30.7821C26.5798 30.542 26.1416 30.2642 25.6038 29.961C24.5295 29.3553 23.1553 28.7032 21.6817 28.1017C20.2101 27.501 18.6766 26.9662 17.2898 26.5846C15.8687 26.1936 14.7301 26 14 26C12.4785 26 10.8281 26.5803 9.24228 27.4865Z" fill="black"/>
<path d="M18 6C15.7908 6 14 7.79088 14 10V18C14 19.1046 14.8954 20 16 20C17.1046 20 18 19.1046 18 18V10H42V26C42 27.1046 42.8954 28 44 28C45.1046 28 46 27.1046 46 26V10C46 7.79088 44.2092 6 42 6H18Z" fill="black"/>
<path d="M34.8502 21.6364L29.99 18.2215L25.153 21.6342C24.2505 22.271 23.0026 22.0555 22.3658 21.153C21.729 20.2504 21.9445 19.0026 22.847 18.3658L28.2359 14.5637C29.2541 13.8199 30.6756 13.8145 31.6989 14.5336L37.1498 18.3636C38.0536 18.9986 38.2715 20.246 37.6364 21.1498C37.0014 22.0536 35.754 22.2715 34.8502 21.6364Z" fill="black"/>
</svg>
