<svg width="48" height="48" viewBox="0 0 48 48" fill="none" xmlns="http://www.w3.org/2000/svg">
<path fill-rule="evenodd" clip-rule="evenodd" d="M14 6C13.4477 6 13 6.44772 13 7V41C13 41.5523 13.4477 42 14 42H34C34.5523 42 35 41.5523 35 41V7C35 6.44772 34.5523 6 34 6H14ZM9 7C9 4.23858 11.2386 2 14 2H34C36.7614 2 39 4.23858 39 7V41C39 43.7614 36.7614 46 34 46H14C11.2386 46 9 43.7614 9 41V7ZM20 10C20 8.89543 20.8954 8 22 8H26C27.1046 8 28 8.89543 28 10C28 11.1046 27.1046 12 26 12H22C20.8954 12 20 11.1046 20 10ZM20 36C18.8954 36 18 36.8954 18 38C18 39.1046 18.8954 40 20 40H28C29.1046 40 30 39.1046 30 38C30 36.8954 29.1046 36 28 36H20Z" fill="#333333"/>
</svg>
