<svg width="48" height="48" viewBox="0 0 48 48" fill="none" xmlns="http://www.w3.org/2000/svg">
<path d="M14.454 3.99906C14.1849 3.98863 13.9164 4.03263 13.6647 4.12842C13.4131 4.22421 13.1833 4.36981 12.9892 4.55651C12.7952 4.74321 12.6408 4.96716 12.5353 5.21495C12.4298 5.46274 12.3755 5.72926 12.3755 5.99856C12.3755 6.26786 12.4298 6.53438 12.5353 6.78217C12.6408 7.02996 12.7952 7.25391 12.9892 7.44061C13.1833 7.62731 13.4131 7.77291 13.6647 7.8687C13.9164 7.96449 14.1849 8.00848 14.454 7.99806H40.002V33.5461C40.022 34.063 40.2414 34.552 40.6142 34.9106C40.987 35.2693 41.4842 35.4696 42.0015 35.4696C42.5187 35.4696 43.0159 35.2693 43.3887 34.9106C43.7615 34.552 43.9809 34.063 44.001 33.5461V7.31106C44.001 5.48106 42.519 3.99906 40.689 3.99906H14.454Z" fill="black"/>
<path d="M17.808 21.6661C17.808 22.188 17.6006 22.6886 17.2315 23.0576C16.8625 23.4267 16.3619 23.6341 15.84 23.6341C15.318 23.6341 14.8174 23.4267 14.4484 23.0576C14.0793 22.6886 13.872 22.188 13.872 21.6661C13.872 21.1441 14.0793 20.6435 14.4484 20.2745C14.8174 19.9054 15.318 19.6981 15.84 19.6981C16.3619 19.6981 16.8625 19.9054 17.2315 20.2745C17.6006 20.6435 17.808 21.1441 17.808 21.6661Z" fill="black"/>
<path fill-rule="evenodd" clip-rule="evenodd" d="M7.31395 43.9981C5.48395 43.9981 4.00195 42.5161 4.00195 40.6861V14.4571C4.00195 12.6271 5.48395 11.1451 7.31395 11.1451H33.549C35.379 11.1451 36.861 12.6271 36.861 14.4571V40.6891C36.861 42.5191 35.376 44.0011 33.549 44.0011H7.31395V43.9981ZM32.859 39.9991V33.6451L26.991 27.7741L20.151 34.6141C19.8434 34.9219 19.4781 35.1662 19.0761 35.3328C18.6741 35.4994 18.2431 35.5852 17.808 35.5852C17.3728 35.5852 16.9418 35.4994 16.5398 35.3328C16.1378 35.1662 15.7725 34.9219 15.465 34.6141L12.561 31.7101L8.00095 36.2701V39.9991H32.859ZM10.218 28.3951C10.839 27.7742 11.6813 27.4254 12.5595 27.4254C13.4376 27.4254 14.2799 27.7742 14.901 28.3951L17.808 31.2991L24.648 24.4591C25.269 23.8382 26.1113 23.4894 26.9895 23.4894C27.8676 23.4894 28.7099 23.8382 29.331 24.4591L32.859 27.9871V15.1411H8.00095V30.6121L10.221 28.3951H10.218Z" fill="black"/>
</svg>
