<svg width="48" height="48" viewBox="0 0 48 48" fill="none" xmlns="http://www.w3.org/2000/svg">
<path d="M4 9C4 6.23858 6.23858 4 9 4H19C20.1046 4 21 4.89543 21 6C21 7.10457 20.1046 8 19 8H9C8.44772 8 8 8.44772 8 9V39C8 39.5523 8.4477 40 9 40H39C39.5523 40 40 39.5523 40 39V29C40 27.8954 40.8954 27 42 27C43.1046 27 44 27.8954 44 29V39C44 41.7615 41.7615 44 39 44H9C6.2386 44 4 41.7615 4 39V9Z" fill="black"/>
<path d="M17.3675 15.1026C18.4154 14.7533 19.5481 15.3197 19.8974 16.3675L22.0606 22.8571C23.7927 18.3584 25.4807 15.104 27.5936 12.5886C30.547 9.07267 34.1816 7.17328 39.2572 5.14305C40.2828 4.73282 41.4467 5.23165 41.857 6.25722C42.2672 7.28279 41.7683 8.44673 40.7428 8.85695C35.8184 10.8267 32.953 12.4273 30.6564 15.1614C28.733 17.4511 27.1116 20.6495 25.2239 25.8172L33.3675 23.1026C34.4154 22.7533 35.5481 23.3197 35.8974 24.3675C36.2467 25.4154 35.6803 26.5481 34.6325 26.8974L22.6517 30.8909C22.4432 30.963 22.2219 31.001 21.9966 31.0005C21.4651 30.9997 20.9568 30.7853 20.5852 30.4143C20.3967 30.226 20.2434 29.9973 20.1401 29.7356C20.1238 29.6944 20.1088 29.6526 20.0952 29.6103L16.1026 17.6325C15.7533 16.5846 16.3197 15.4519 17.3675 15.1026Z" fill="black"/>
</svg>
