<svg width="48" height="48" viewBox="0 0 48 48" fill="none" xmlns="http://www.w3.org/2000/svg">
<path d="M40 24C40 26.1011 39.5861 28.1817 38.7821 30.1229C37.978 32.0641 36.7994 33.828 35.3137 35.3137C33.828 36.7994 32.0641 37.978 30.1229 38.7821C28.1817 39.5861 26.1011 40 24 40C21.8988 40 19.8183 39.5861 17.8771 38.7821C15.9359 37.978 14.172 36.7994 12.6863 35.3137C11.2006 33.828 10.022 32.0641 9.21793 30.1229C8.41385 28.1817 8 26.1011 8 24C8 19.7565 9.68571 15.6869 12.6863 12.6863C15.6869 9.68571 19.7565 8 24 8C28.2435 8 32.3131 9.68571 35.3137 12.6863C38.3143 15.6869 40 19.7565 40 24ZM44 24C44 12.954 35.046 4 24 4C12.954 4 4 12.954 4 24C4 35.046 12.954 44 24 44C35.046 44 44 35.046 44 24ZM22 16C22 15.4696 22.2107 14.9609 22.5858 14.5858C22.9609 14.2107 23.4696 14 24 14C24.5304 14 25.0391 14.2107 25.4142 14.5858C25.7893 14.9609 26 15.4696 26 16C26 16.5304 25.7893 17.0391 25.4142 17.4142C25.0391 17.7893 24.5304 18 24 18C23.4696 18 22.9609 17.7893 22.5858 17.4142C22.2107 17.0391 22 16.5304 22 16ZM22 24C22 23.4696 22.2107 22.9609 22.5858 22.5858C22.9609 22.2107 23.4696 22 24 22C24.5304 22 25.0391 22.2107 25.4142 22.5858C25.7893 22.9609 26 23.4696 26 24V32C26 32.5304 25.7893 33.0391 25.4142 33.4142C25.0391 33.7893 24.5304 34 24 34C23.4696 34 22.9609 33.7893 22.5858 33.4142C22.2107 33.0391 22 32.5304 22 32V24Z" fill="black"/>
</svg>
