<svg width="48" height="48" viewBox="0 0 48 48" fill="none" xmlns="http://www.w3.org/2000/svg">
<path d="M24 3C12.402 3 3 12.402 3 24C3 35.598 12.402 45 24 45C25.1046 45 26 44.1046 26 43V26H43C44.1046 26 45 25.1046 45 24C45 12.402 35.598 3 24 3ZM7 24C7 14.6112 14.6112 7 24 7C32.7122 7 39.8937 13.5537 40.8836 22H26C23.7908 22 22 23.7908 22 26V40.8836C13.5537 39.8937 7 32.7122 7 24Z" fill="black"/>
<path d="M30 28C28.8954 28 28 28.8954 28 30V42C28 43.1046 28.8954 44 30 44H42C43.1046 44 44 43.1046 44 42V30C44 28.8954 43.1046 28 42 28H30ZM32 40V32H40V40H32Z" fill="black"/>
</svg>
