<svg width="48" height="48" viewBox="0 0 48 48" fill="none" xmlns="http://www.w3.org/2000/svg">
<path fill-rule="evenodd" clip-rule="evenodd" d="M8 6C6.89543 6 6 6.89543 6 8V19H4C2.89543 19 2 19.8954 2 21V35C2 36.1046 2.89543 37 4 37H6V40C6 41.1046 6.89543 42 8 42C9.10457 42 10 41.1046 10 40V37H12H36H38V40C38 41.1046 38.8954 42 40 42C41.1046 42 42 41.1046 42 40V37H44C45.1046 37 46 36.1046 46 35V21C46 19.8954 45.1046 19 44 19H42V8C42 6.89543 41.1046 6 40 6H8ZM38 19V10H10V19H12C13.1046 19 14 19.8954 14 21V25H34V21C34 19.8954 34.8954 19 36 19H38ZM10 27V33H6V23H10V27ZM34 33H14V29H34V33ZM42 23V33H38V27V23H42Z" fill="black"/>
</svg>
