<svg width="48" height="48" viewBox="0 0 48 48" fill="none" xmlns="http://www.w3.org/2000/svg">
<path fill-rule="evenodd" clip-rule="evenodd" d="M43.6 38.6074L39.2 29.2074L32 14.8074V6.20744H36C37.2 6.20744 38 5.40744 38 4.20744C38 3.00744 37.2 2.20744 36 2.20744H12C10.8 2.20744 9.99999 3.00744 9.99999 4.20744C9.99999 5.40744 10.8 6.20744 12 6.20744H16V14.8074L8.99999 29.4074L4.39999 38.6074C3.19999 41.2074 4.19999 44.4074 6.79999 45.6074C7.59999 46.0074 8.39999 46.2074 9.19999 46.2074H38.8C41.8 46.2074 44 43.8074 44 41.0074C44 40.2074 43.8 39.4074 43.6 38.6074ZM19.8 16.2074C20 15.8074 20 15.6074 20 15.2074V6.20744H28V15.2074C28 15.6074 28 15.8074 28.2 16.0074L33.2 26.2074C30 25.4074 26.2 25.6074 22.8 28.6074C19.4 31.4074 15.6 30.2074 13.4 29.4074L19.8 16.2074ZM38.8 42.2074H9.19999C8.99999 42.2074 8.79999 42.2074 8.59999 42.0074C7.99999 41.8074 7.79999 41.0074 7.99999 40.4074L11.6 33.0074C15 34.6074 20.6 35.6074 25.2 31.8074C29.2 28.4074 34.2 30.8074 35.6 31.6074L39.8 40.4074C39.8 40.6074 40 40.8074 40 41.0074C40 41.6074 39.4 42.2074 38.8 42.2074Z" fill="black"/>
</svg>
