<svg width="48" height="48" viewBox="0 0 48 48" fill="none" xmlns="http://www.w3.org/2000/svg">
<path d="M13.332 8.00098H7.99799V13.335H13.332V8.00098ZM22.221 8.00098H16.887V13.335H22.221V8.00098ZM31.11 8.00098H25.776V13.335H31.11V8.00098ZM39.996 8.00098H34.665V13.335H39.996V8.00098ZM13.332 16.89H7.99799V22.224H13.332V16.89ZM22.221 16.89H16.887V22.224H22.221V16.89ZM31.11 16.89H25.776V22.224H31.11V16.89ZM39.996 16.89H34.665V22.224H39.996V16.89ZM13.332 25.779H7.99799V31.113H13.332V25.779ZM22.221 25.779H16.887V31.113H22.221V25.779ZM31.11 25.779H25.776V31.113H31.11V25.779ZM39.996 25.779H34.665V31.113H39.996V25.779ZM13.332 34.668H7.99799V39.999H13.332V34.668ZM22.221 34.668H16.887V39.999H22.221V34.668ZM31.11 34.668H25.776V39.999H31.11V34.668ZM39.996 34.668H34.665V39.999H39.996V34.668Z" fill="black"/>
</svg>
