<svg width="48" height="48" viewBox="0 0 48 48" fill="none" xmlns="http://www.w3.org/2000/svg">
<path fill-rule="evenodd" clip-rule="evenodd" d="M24 6C19.5818 6 16 9.58173 16 14V20H32V14C32 9.58173 28.4182 6 24 6ZM12 14V20H8C5.79086 20 4 21.7909 4 24V42C4 44.2091 5.79086 46 8 46H40C42.2091 46 44 44.2091 44 42V24C44 21.7909 42.2091 20 40 20H36V14C36 7.37257 30.6274 2 24 2C17.3726 2 12 7.37257 12 14ZM8 24H14H34H40V42H8V24ZM26 30C26 28.8954 25.1046 28 24 28C22.8954 28 22 28.8954 22 30V36C22 37.1046 22.8954 38 24 38C25.1046 38 26 37.1046 26 36V30Z" fill="black"/>
</svg>
