<svg width="50" height="48" viewBox="0 0 50 48" fill="none" xmlns="http://www.w3.org/2000/svg">
<path d="M40.5638 10.6195L38.6246 14.8685L36.6854 10.6195L32.4384 8.68032L36.6874 6.74304L38.6266 2.496L40.5638 6.74304L44.8109 8.68224L40.5638 10.6214V10.6195ZM36.6874 31.296L38.6266 27.049L40.5638 31.2979L44.8109 33.2371L40.5638 35.1744L38.6246 39.4214L36.6854 35.1744L32.4384 33.2352L36.6874 31.296ZM14.1389 14.6438L16.0781 10.3949L20.3251 8.45568L16.0762 6.5184L14.137 2.27136L12.1997 6.5184L7.95265 8.4576L12.1997 10.3968L14.1389 14.6438ZM22.1491 14.4346C23.7043 12.8794 26.2253 12.8794 27.7805 14.4346L32.7053 19.3594C34.2605 20.9146 34.2605 23.4355 32.7053 24.9907L12.9274 44.7667C11.3722 46.3219 8.8512 46.3219 7.296 44.7667L2.3712 39.8438C1.62447 39.0971 1.20496 38.0842 1.20496 37.0282C1.20496 35.9721 1.62447 34.9593 2.3712 34.2125L22.1491 14.4365V14.4346ZM25.0656 17.1514C25.0524 17.1381 25.0367 17.1275 25.0194 17.1203C25.0021 17.1131 24.9835 17.1094 24.9648 17.1094C24.9461 17.1094 24.9275 17.1131 24.9102 17.1203C24.8929 17.1275 24.8772 17.1381 24.864 17.1514L21.3254 20.6899L26.4499 25.8163L29.9885 22.2758C30.0018 22.2626 30.0123 22.2469 30.0195 22.2296C30.0267 22.2123 30.0304 22.1938 30.0304 22.175C30.0304 22.1563 30.0267 22.1378 30.0195 22.1205C30.0123 22.1032 30.0018 22.0874 29.9885 22.0742L25.0656 17.1514ZM5.088 36.9274C5.07471 36.9406 5.06416 36.9563 5.05696 36.9736C5.04976 36.9909 5.04605 37.0094 5.04605 37.0282C5.04605 37.0469 5.04976 37.0655 5.05696 37.0828C5.06416 37.1001 5.07471 37.1158 5.088 37.129L10.0109 42.0518C10.0241 42.0651 10.0398 42.0757 10.0571 42.0829C10.0744 42.0901 10.0929 42.0938 10.1117 42.0938C10.1304 42.0938 10.149 42.0901 10.1663 42.0829C10.1836 42.0757 10.1993 42.0651 10.2125 42.0518L23.735 28.5293L18.6086 23.4048L5.088 36.9274Z" fill="black"/>
</svg>
