<svg width="48" height="48" viewBox="0 0 48 48" fill="none" xmlns="http://www.w3.org/2000/svg">
<path fill-rule="evenodd" clip-rule="evenodd" d="M26.9026 6.27283C26.4498 5.99672 25.9183 5.87838 25.3911 5.93629L10.5513 7.56644C10.1854 7.60663 10.0635 8.07791 10.3639 8.29054L25.5219 19.0192C26.5525 19.7487 27.8671 19.9487 29.068 19.5588L41.0452 15.6701C41.3703 15.5645 41.4218 15.1261 41.1299 14.9481L26.9026 6.27283ZM25.0548 10.0596C25.4685 10.0673 25.9239 10.1294 26.3814 10.2405C26.839 10.3517 27.2849 10.5085 27.6806 10.6974C28.0001 10.85 28.2798 11.0201 28.5037 11.1982C28.7276 11.3762 28.8913 11.5586 28.9854 11.7349C29.0796 11.9113 29.1024 12.0782 29.0526 12.226C29.0027 12.3739 28.8812 12.4998 28.6949 12.5966C28.5086 12.6935 28.2613 12.7593 27.9669 12.7904C27.6725 12.8215 27.337 12.8173 26.9793 12.7779C26.6216 12.7385 26.2489 12.6647 25.8824 12.5608C25.5159 12.4569 25.1628 12.3249 24.8433 12.1724C24.198 11.8642 23.7286 11.491 23.5383 11.1348C23.348 10.7787 23.4525 10.4687 23.8286 10.2731C24.1145 10.1245 24.542 10.05 25.0548 10.0596Z" fill="black"/>
<path fill-rule="evenodd" clip-rule="evenodd" d="M9.19576 9.39152C8.95319 9.21848 8.61337 9.3619 8.56811 9.6564L5.75626 27.9538C5.6537 28.6212 5.89482 29.2953 6.39743 29.7462L18.7251 40.8067C19.2704 41.2959 20.1394 41.0521 20.3505 40.3505L25.8839 21.9624C25.9827 21.6342 25.8614 21.2796 25.5824 21.0806L9.19576 9.39152ZM19.0512 21.372C18.8986 21.304 18.7432 21.2694 18.5893 21.2693C18.217 21.2686 17.8677 21.469 17.5947 21.8398C17.3217 22.2106 17.1401 22.7313 17.0777 23.3224C17.0403 23.6775 17.0468 24.0486 17.0971 24.4146C17.1473 24.7805 17.2403 25.1341 17.3706 25.4552C17.5009 25.7762 17.666 26.0584 17.8565 26.2857C18.0471 26.513 18.2592 26.6809 18.481 26.7798C18.9287 26.9796 19.3881 26.8864 19.7582 26.5207C20.1283 26.1549 20.3787 25.5466 20.4544 24.8295C20.4918 24.4744 20.4853 24.1033 20.435 23.7374C20.3848 23.3714 20.2918 23.0178 20.1615 22.6968C20.0313 22.3757 19.8661 22.0935 19.6756 21.8662C19.4851 21.6389 19.273 21.471 19.0512 21.372ZM10.1214 24.5224C10.2636 24.5226 10.4071 24.5546 10.548 24.6175C10.7527 24.7088 10.9485 24.8638 11.1243 25.0737C11.3002 25.2835 11.4526 25.544 11.5728 25.8403C11.6931 26.1367 11.7788 26.463 11.8252 26.8008C11.8716 27.1386 11.8776 27.4811 11.8431 27.8089C11.8085 28.1367 11.734 28.4432 11.6237 28.7111C11.5134 28.979 11.3696 29.2029 11.2005 29.37C11.0313 29.5372 10.8401 29.6444 10.6378 29.6854C10.4355 29.7265 10.2261 29.7006 10.0214 29.6092C9.81677 29.5179 9.62093 29.3629 9.44508 29.1531C9.26924 28.9433 9.11683 28.6828 8.99656 28.3864C8.87629 28.0901 8.79052 27.7637 8.74414 27.4259C8.69776 27.0882 8.69168 26.7456 8.72626 26.4178C8.7838 25.8723 8.95136 25.3915 9.20331 25.0492C9.45526 24.7069 9.77781 24.5219 10.1214 24.5224Z" fill="black"/>
<path fill-rule="evenodd" clip-rule="evenodd" d="M27.6213 22.2733C27.7153 21.9657 27.9516 21.7222 28.2561 21.6188L41.5908 17.0927C41.9134 16.9832 42.2165 17.3013 42.0915 17.6182L35.7527 33.6928C35.5834 34.1222 35.2708 34.4798 34.8679 34.705L22.4104 41.6675C22.0958 41.8433 21.7274 41.546 21.8328 41.2014L27.6213 22.2733ZM38.4312 21.8612C38.3022 21.5584 38.0629 21.3795 37.7522 21.3536C37.5448 21.3362 37.3125 21.3876 37.0723 21.5038C36.8321 21.6201 36.5904 21.7982 36.3652 22.0249C35.9688 22.4241 35.6488 22.9483 35.4757 23.4821C35.3025 24.0159 35.2903 24.5157 35.4418 24.8715C35.5933 25.2273 35.8961 25.4099 36.2835 25.3792C36.6709 25.3485 37.1113 25.1071 37.5077 24.7079C37.9041 24.3087 38.2241 23.7845 38.3973 23.2507C38.5705 22.7168 38.5827 22.217 38.4312 21.8612ZM34.5537 29.8785C34.8346 29.9182 35.043 30.0914 35.1452 30.3702C35.2653 30.6978 35.2296 31.1463 35.046 31.617C34.8624 32.0878 34.5458 32.5421 34.166 32.8802C33.7862 33.2183 33.3742 33.4123 33.0208 33.4196C32.6673 33.4269 32.4013 33.2469 32.2812 32.9192C32.1612 32.5916 32.1969 32.1431 32.3805 31.6724C32.5642 31.2016 32.8807 30.7473 33.2606 30.4092C33.4763 30.2172 33.7047 30.0697 33.9286 29.9778C34.1525 29.8859 34.3662 29.8521 34.5537 29.8785ZM28.8697 33.7393C28.7955 33.4152 28.6 33.2047 28.315 33.1421C28.1247 33.1004 27.9009 33.1258 27.66 33.2167C27.4191 33.3077 27.1675 33.4617 26.9239 33.6672C26.495 34.0291 26.1184 34.5275 25.8769 35.0528C25.6354 35.5781 25.5487 36.0872 25.636 36.4682C25.6792 36.6568 25.7638 36.8083 25.8849 36.9141C26.0061 37.0198 26.1615 37.0777 26.3422 37.0844C26.5229 37.0911 26.7254 37.0465 26.9381 36.9532C27.1508 36.8598 27.3696 36.7195 27.582 36.5404C28.0109 36.1784 28.3875 35.6799 28.629 35.1547C28.8705 34.6294 28.9571 34.1203 28.8697 33.7393ZM31.4032 23.9108C31.7136 23.9538 31.9437 24.148 32.056 24.4616C32.1879 24.8303 32.1474 25.336 31.9433 25.8676C31.7393 26.3992 31.3884 26.913 30.9679 27.2962C30.5474 27.6793 30.0917 27.9002 29.7011 27.9104C29.3105 27.9206 29.017 27.7193 28.885 27.3506C28.7532 26.982 28.7937 26.4763 28.9978 25.9447C29.2018 25.4132 29.5527 24.8993 29.9732 24.5162C30.212 24.2987 30.4647 24.1312 30.7123 24.0264C30.96 23.9215 31.1961 23.882 31.4032 23.9108Z" fill="black"/>
</svg>
