<svg width="24" height="24" viewBox="0 0 24 24" fill="none" xmlns="http://www.w3.org/2000/svg">
<path fill-rule="evenodd" clip-rule="evenodd" d="M13.5438 2.85657L6.07011 3.49505L13.6544 8.82359L21.2278 7.69316L13.5438 2.85657ZM13.1977 4.76575C13.4046 4.76959 13.6322 4.80063 13.861 4.8562C14.0898 4.91176 14.3128 4.99017 14.5106 5.08463C14.6704 5.16092 14.8102 5.246 14.9221 5.33501C15.0341 5.42402 15.1159 5.51522 15.163 5.6034C15.2101 5.69159 15.2215 5.77502 15.1966 5.84895C15.1717 5.92287 15.1109 5.98584 15.0177 6.03425C14.9246 6.08268 14.8009 6.11561 14.6538 6.13116C14.5066 6.1467 14.3388 6.14457 14.16 6.12487C13.9811 6.10517 13.7948 6.06829 13.6115 6.01635C13.4283 5.9644 13.2517 5.8984 13.092 5.82211C12.7693 5.66805 12.5346 5.48145 12.4395 5.30336C12.3443 5.12527 12.3965 4.97028 12.5846 4.87249C12.7276 4.79821 12.9413 4.76096 13.1977 4.76575Z" fill="black"/>
<path fill-rule="evenodd" clip-rule="evenodd" d="M4.73168 4.0212L1.9624 14.3007L9.67034 20.9311L12.8136 9.69948L4.73168 4.0212ZM9.91674 9.50568C10.0109 9.50578 10.1059 9.52693 10.1993 9.56854C10.3349 9.62905 10.4647 9.73175 10.5812 9.87077C10.6977 10.0098 10.7987 10.1824 10.8784 10.3788C10.9581 10.5752 11.0149 10.7914 11.0457 11.0153C11.0764 11.2391 11.0804 11.4661 11.0575 11.6833C11.0112 12.1219 10.8581 12.4939 10.6317 12.7177C10.4053 12.9414 10.1243 12.9984 9.85048 12.8762C9.71486 12.8157 9.58508 12.713 9.46855 12.574C9.35202 12.4349 9.25103 12.2623 9.17133 12.0659C9.09162 11.8696 9.03478 11.6533 9.00405 11.4295C8.97331 11.2056 8.96928 10.9786 8.99219 10.7614C9.03035 10.3999 9.14142 10.0814 9.30839 9.85464C9.47537 9.62784 9.68905 9.50527 9.91674 9.50568ZM4.00952 11.8794C4.10372 11.8795 4.19881 11.9007 4.2922 11.9424C4.4278 12.0029 4.55757 12.1056 4.67408 12.2447C4.7906 12.3837 4.89158 12.5563 4.97127 12.7527C5.05096 12.9491 5.10778 13.1653 5.13851 13.3891C5.16924 13.613 5.17326 13.8399 5.15035 14.0571C5.12744 14.2743 5.07805 14.4775 5.00499 14.655C4.93192 14.8325 4.83663 14.9808 4.72454 15.0916C4.61245 15.2024 4.48576 15.2734 4.35171 15.3006C4.21765 15.3278 4.07886 15.3106 3.94325 15.2501C3.80764 15.1896 3.67787 15.0869 3.56135 14.9479C3.44483 14.8088 3.34384 14.6362 3.26414 14.4398C3.18445 14.2435 3.12761 14.0272 3.09688 13.8034C3.06615 13.5796 3.06212 13.3526 3.08503 13.1354C3.12316 12.7739 3.23419 12.4553 3.40114 12.2285C3.5681 12.0016 3.78183 11.8791 4.00952 11.8794Z" fill="black"/>
<path fill-rule="evenodd" clip-rule="evenodd" d="M22.0376 8.78566L13.9787 9.98855L10.8571 21.1432L18.6104 19.0252L22.0376 8.78566ZM20.1894 10.2814C20.4069 10.275 20.5872 10.372 20.701 10.5568C20.8346 10.7739 20.8662 11.0956 20.789 11.4511C20.7118 11.8066 20.532 12.1668 20.2892 12.4525C20.0464 12.7381 19.7605 12.9259 19.4944 12.9743C19.2282 13.0228 19.0036 12.9281 18.87 12.711C18.7365 12.4939 18.7048 12.1723 18.782 11.8168C18.8592 11.4613 19.0389 11.1011 19.2817 10.8154C19.4196 10.6531 19.5729 10.5209 19.7301 10.4284C19.8873 10.336 20.0443 10.2857 20.1894 10.2814ZM15.6096 10.9924C15.8271 10.986 16.0073 11.083 16.121 11.2677C16.2546 11.4848 16.2863 11.8065 16.2091 12.162C16.1319 12.5175 15.9521 12.8778 15.7093 13.1634C15.4665 13.4491 15.1806 13.6368 14.9144 13.6853C14.6483 13.7337 14.4237 13.639 14.2901 13.4219C14.1566 13.2048 14.1249 12.8831 14.2021 12.5276C14.2794 12.1721 14.4591 11.8119 14.7019 11.5263C14.8398 11.364 14.9931 11.2318 15.1503 11.1393C15.3075 11.0469 15.4644 10.9966 15.6096 10.9924ZM18.1618 15.9375C18.3792 15.9311 18.5594 16.0282 18.6731 16.2128C18.8067 16.4299 18.8384 16.7516 18.7612 17.1071C18.684 17.4626 18.5043 17.8228 18.2615 18.1085C18.0187 18.3942 17.7328 18.5819 17.4666 18.6303C17.2005 18.6788 16.9759 18.584 16.8423 18.3669C16.7087 18.1498 16.677 17.8282 16.7543 17.4727C16.8315 17.1172 17.0112 16.7569 17.254 16.4713C17.3919 16.309 17.5452 16.1767 17.7024 16.0843C17.8596 15.9918 18.0166 15.9418 18.1618 15.9375ZM13.4728 17.2367C13.6903 17.2304 13.8705 17.3275 13.9842 17.5122C14.1178 17.7293 14.1495 18.051 14.0723 18.4065C13.9951 18.762 13.8154 19.1222 13.5726 19.4079C13.4523 19.5493 13.3203 19.6682 13.1839 19.7577C13.0475 19.8472 12.9094 19.9057 12.7777 19.9296C12.6459 19.9536 12.5229 19.9427 12.4158 19.8975C12.3087 19.8523 12.2195 19.7737 12.1534 19.6661C12.0198 19.449 11.9882 19.1274 12.0654 18.7719C12.1426 18.4164 12.3224 18.0562 12.5651 17.7705C12.7031 17.6083 12.8563 17.476 13.0135 17.3836C13.1707 17.2911 13.3277 17.241 13.4728 17.2367Z" fill="black"/>
</svg>
