<svg width="48" height="48" viewBox="0 0 48 48" fill="none" xmlns="http://www.w3.org/2000/svg">
<path d="M24 2C11.8497 2 2 11.8497 2 24C2 36.1503 11.8497 46 24 46C36.1503 46 46 36.1503 46 24C46 11.8497 36.1503 2 24 2ZM6 24C6 14.0589 14.0589 6 24 6C24.432 6 24.8604 6.01522 25.2847 6.04514C20.3944 9.51443 16.9816 14.932 16.1804 21.1691C15.9977 21.5703 15.9505 22.0256 16.0531 22.46C16.0179 22.9688 16 23.4823 16 24.0001C16 31.4149 19.6677 37.9701 25.2846 41.9549C24.8603 41.9848 24.4319 42 24 42C14.0589 42 6 33.9411 6 24ZM20 24.0001C20 23.6772 20.0085 23.3563 20.0253 23.0376L36.9264 11.4737C37.4821 12.047 38 12.6572 38.4761 13.3002L20.0923 25.8346C20.0313 25.2314 20 24.6194 20 24.0001ZM21.0358 30.0326L40.4888 16.7692C40.7775 17.4268 41.0282 18.105 41.2378 18.8009L22.1099 32.4637C21.6946 31.6856 21.3348 30.8735 21.0358 30.0326ZM26.0845 37.4923C25.4762 36.9547 24.9046 36.3766 24.3739 35.7622L41.9819 23.185C41.9939 23.4552 42 23.7269 42 24C42 24.8022 41.9475 25.5922 41.8458 26.3666L26.0845 37.4923ZM29.5858 39.917L39.7306 32.7559C37.7837 36.2461 34.709 39.0213 30.9993 40.5885C30.517 40.3847 30.0455 40.1605 29.5858 39.917ZM21.2736 17.3369C23.0548 12.869 26.5745 9.28131 30.9994 7.41156C31.9434 7.81038 32.8463 8.28742 33.7 8.83457L21.2736 17.3369Z" fill="black"/>
</svg>
