<svg width="48" height="48" viewBox="0 0 48 48" fill="none" xmlns="http://www.w3.org/2000/svg">
<path d="M12.5713 24C12.5713 22.9486 13.4239 22.0938 14.4753 22.0938H33.5244C34.0297 22.0938 34.5143 22.2945 34.8716 22.6518C35.2289 23.009 35.4296 23.4936 35.4296 23.9989C35.4296 24.5042 35.2289 24.9887 34.8716 25.346C34.5143 25.7033 34.0297 25.904 33.5244 25.904H14.4753C14.2251 25.904 13.9773 25.8547 13.7461 25.7589C13.515 25.6631 13.305 25.5226 13.1281 25.3456C12.9513 25.1685 12.8111 24.9583 12.7156 24.7271C12.62 24.4958 12.571 24.248 12.5713 23.9977V24Z" fill="black"/>
</svg>
