<svg width="48" height="48" viewBox="0 0 48 48" fill="none" xmlns="http://www.w3.org/2000/svg">
<path fill-rule="evenodd" clip-rule="evenodd" d="M11.25 3H18C22.1421 3 25.5 6.35786 25.5 10.5V14.25C25.5 16.3211 27.1789 18 29.25 18H33C37.1421 18 40.5 21.3579 40.5 25.5V41.25C40.5 43.3211 38.8211 45 36.75 45H11.25C9.17893 45 7.5 43.3211 7.5 41.25V6.75C7.5 4.67893 9.17893 3 11.25 3ZM25.0607 22.9393C24.7794 22.658 24.3978 22.5 24 22.5C23.6022 22.5 23.2206 22.658 22.9393 22.9393L16.9393 28.9393C16.3536 29.5251 16.3536 30.4749 16.9393 31.0607C17.5251 31.6464 18.4749 31.6464 19.0607 31.0607L22.5 27.6213L22.5 36C22.5 36.8284 23.1716 37.5 24 37.5C24.8284 37.5 25.5 36.8284 25.5 36L25.5 27.6213L28.9393 31.0607C29.5251 31.6465 30.4749 31.6465 31.0607 31.0607C31.6464 30.4749 31.6464 29.5251 31.0607 28.9393L25.0607 22.9393Z" fill="black"/>
<path d="M28.5 10.5C28.5 7.87389 27.5359 5.47296 25.9424 3.63181C32.7402 5.40755 38.0924 10.7598 39.8682 17.5576C38.027 15.9641 35.6261 15 33 15H29.25C28.8358 15 28.5 14.6642 28.5 14.25V10.5Z" fill="black"/>
</svg>
