<svg width="48" height="48" viewBox="0 0 48 48" fill="none" xmlns="http://www.w3.org/2000/svg">
<path fill-rule="evenodd" clip-rule="evenodd" d="M6 12C6 8.68629 8.68629 6 12 6H36C39.3137 6 42 8.68629 42 12V36C42 39.3137 39.3137 42 36 42H12C8.68629 42 6 39.3137 6 36V12ZM37.5 29.1213C37.5 28.7235 37.342 28.342 37.0607 28.0607L34.0607 25.0607C33.4749 24.4749 32.5251 24.4749 31.9393 25.0607L28.0607 28.9393C27.4749 29.5251 26.5251 29.5251 25.9393 28.9393L19.0607 22.0607C18.4749 21.4749 17.5251 21.4749 16.9393 22.0607L10.9393 28.0607C10.658 28.342 10.5 28.7235 10.5 29.1213V36C10.5 36.8284 11.1716 37.5 12 37.5H36C36.8284 37.5 37.5 36.8284 37.5 36V29.1213ZM36 15C36 16.6569 34.6569 18 33 18C31.3431 18 30 16.6569 30 15C30 13.3431 31.3431 12 33 12C34.6569 12 36 13.3431 36 15Z" fill="black"/>
</svg>
