<svg width="48" height="48" viewBox="0 0 48 48" fill="none" xmlns="http://www.w3.org/2000/svg">
<path fill-rule="evenodd" clip-rule="evenodd" d="M9 16.6818C9 8.52684 15.7627 2 24 2C32.2373 2 39 8.52684 39 16.6818C39 22.4164 35.2588 27.4895 31.9358 30.9165C30.2297 32.6761 28.5307 34.1066 27.2608 35.0964C26.6242 35.5926 26.0913 35.9813 25.7137 36.2484C25.5248 36.3821 25.3745 36.4855 25.2692 36.557C25.2165 36.5928 25.175 36.6206 25.1456 36.6402L25.1106 36.6634L25.1 36.6703L25.0965 36.6726L25.0952 36.6735C25.0946 36.6739 25.0941 36.6742 24 35C22.9059 36.6742 22.9054 36.6739 22.9048 36.6735L22.9035 36.6726L22.9 36.6703L22.8894 36.6634L22.8544 36.6402C22.825 36.6206 22.7835 36.5928 22.7308 36.557C22.6255 36.4855 22.4752 36.3821 22.2863 36.2484C21.9087 35.9813 21.3758 35.5926 20.7392 35.0964C19.4693 34.1066 17.7703 32.6761 16.0642 30.9165C12.7412 27.4895 9 22.4164 9 16.6818ZM24 35L25.0941 36.6742C24.4294 37.1086 23.5706 37.1086 22.9059 36.6742L24 35ZM24 32.5509C24.2374 32.3752 24.5068 32.1715 24.8017 31.9416C25.9693 31.0315 27.5203 29.7242 29.0642 28.132C32.2412 24.8554 35 20.7694 35 16.6818C35 10.8288 30.1221 6 24 6C17.8779 6 13 10.8288 13 16.6818C13 20.7694 15.7588 24.8554 18.9358 28.132C20.4797 29.7242 22.0307 31.0315 23.1983 31.9416C23.4932 32.1715 23.7626 32.3752 24 32.5509ZM11.7735 32.1827C12.0909 33.2407 11.4905 34.3557 10.4326 34.6731C8.72692 35.1848 7.49231 35.7544 6.72876 36.2959C6.20359 36.6684 6.05259 36.9117 6.01164 37.0001C6.05259 37.0884 6.20358 37.3317 6.72876 37.7042C7.49231 38.2458 8.72691 38.8153 10.4326 39.327C13.8184 40.3428 18.6157 41 24 41C29.3843 41 34.1816 40.3428 37.5674 39.327C39.2731 38.8153 40.5077 38.2458 41.2712 37.7042C41.7964 37.3317 41.9474 37.0884 41.9884 37.0001C41.9474 36.9117 41.7964 36.6684 41.2712 36.2959C40.5077 35.7544 39.2731 35.1848 37.5674 34.6731C36.5094 34.3557 35.909 33.2407 36.2265 32.1827C36.5438 31.1248 37.6588 30.5244 38.7168 30.8418C40.6304 31.4159 42.3248 32.1392 43.5853 33.0333C44.7939 33.8905 46 35.202 46 37C46 38.7981 44.794 40.1096 43.5854 40.9668C42.3248 41.8609 40.6305 42.5842 38.7168 43.1583C34.8641 44.3142 29.6614 45 24 45C18.3386 45 13.1359 44.3142 9.28317 43.1583C7.36952 42.5842 5.6752 41.8609 4.41464 40.9668C3.20603 40.1096 2 38.7981 2 37C2 35.202 3.20605 33.8905 4.41464 33.0333C5.6752 32.1392 7.36952 31.4159 9.28316 30.8418C10.3411 30.5244 11.4561 31.1248 11.7735 32.1827ZM24 10C20.134 10 17 13.134 17 17C17 20.866 20.134 24 24 24C27.866 24 31 20.866 31 17C31 13.134 27.866 10 24 10ZM21 17C21 15.3432 22.3432 14 24 14C25.6568 14 27 15.3432 27 17C27 18.6568 25.6568 20 24 20C22.3432 20 21 18.6568 21 17Z" fill="black"/>
</svg>
