<svg width="48" height="48" viewBox="0 0 48 48" fill="none" xmlns="http://www.w3.org/2000/svg">
<path fill-rule="evenodd" clip-rule="evenodd" d="M6 4C6 2.89543 6.89543 2 8 2H40C41.1046 2 42 2.89543 42 4V10H44C45.1046 10 46 10.8954 46 12V20C46 20.7025 45.6314 21.3535 45.029 21.715L43.6305 22.5541C43.108 22.8676 42.5615 23.1237 42 23.3222V44C42 45.1046 41.1046 46 40 46H8C6.89543 46 6 45.1046 6 44V23.3222C5.43846 23.1236 4.89205 22.8676 4.36952 22.5541L2.97102 21.715C2.3686 21.3536 2 20.7025 2 20V12C2 10.8954 2.89543 10 4 10H6V4ZM21 42H27V34H21V42ZM31 42V32C31 30.8954 30.1046 30 29 30H19C17.8954 30 17 30.8954 17 32V42H10V23.781C11.2032 23.6467 12.3853 23.269 13.4701 22.6481C13.5238 22.6174 13.5773 22.586 13.6305 22.5541L14 22.3324L14.3695 22.5541C14.4538 22.6047 14.5388 22.6538 14.6244 22.7014C17.101 24.0797 20.0681 24.203 22.6324 23.0713C22.9729 22.921 23.3063 22.7486 23.6305 22.5541L24 22.3324L24.3695 22.5541C24.8011 22.813 25.249 23.0328 25.7082 23.2133C27.5638 23.9428 29.6048 24.032 31.5057 23.4811C32.2412 23.2679 32.9558 22.9589 33.6305 22.5541L34 22.3324L34.3695 22.5541C35.4977 23.231 36.7373 23.64 38 23.781V42H31ZM38 6V10H10V6H38ZM6 14V18.8676L6.42751 19.1241C8.01091 20.0742 9.98906 20.0742 11.5725 19.1241L12.971 18.285C13.6044 17.905 14.3956 17.905 15.029 18.285L16.4275 19.1241C18.0109 20.0742 19.9891 20.0742 21.5725 19.1241L22.971 18.285C23.6044 17.905 24.3956 17.905 25.029 18.285L26.4275 19.1241C26.5639 19.206 26.7033 19.2808 26.845 19.3485C27.4386 19.6322 28.0746 19.7922 28.7162 19.8286C29.7 19.8845 30.6966 19.6497 31.5725 19.1241L32.971 18.285C33.6044 17.905 34.3956 17.905 35.029 18.285L36.4275 19.1241C38.0109 20.0742 39.9891 20.0742 41.5725 19.1241L42 18.8676V14H6Z" fill="black"/>
</svg>
