<svg width="48" height="48" viewBox="0 0 48 48" fill="none" xmlns="http://www.w3.org/2000/svg">
<path fill-rule="evenodd" clip-rule="evenodd" d="M18 9C18.6697 9 19.2583 9.44397 19.4423 10.0879L21.0687 15.7803C21.7806 18.2719 23.7281 20.2194 26.2197 20.9313L31.9121 22.5577C32.556 22.7417 33 23.3303 33 24C33 24.6697 32.556 25.2583 31.9121 25.4423L26.2197 27.0687C23.7281 27.7806 21.7806 29.7281 21.0687 32.2197L19.4423 37.9121C19.2583 38.556 18.6697 39 18 39C17.3303 39 16.7417 38.556 16.5577 37.9121L14.9313 32.2197C14.2194 29.7281 12.2719 27.7806 9.7803 27.0687L4.08792 25.4423C3.44397 25.2583 3 24.6697 3 24C3 23.3303 3.44397 22.7417 4.08792 22.5577L9.7803 20.9313C12.2719 20.2194 14.2194 18.2719 14.9313 15.7803L16.5577 10.0879C16.7417 9.44397 17.3303 9 18 9Z" fill="black"/>
<path fill-rule="evenodd" clip-rule="evenodd" d="M36 3C36.6883 3 37.2883 3.46845 37.4552 4.1362L37.9729 6.20712C38.4432 8.08812 39.9119 9.55681 41.7929 10.0271L43.8638 10.5448C44.5316 10.7117 45 11.3117 45 12C45 12.6883 44.5316 13.2883 43.8638 13.4552L41.7929 13.9729C39.9119 14.4432 38.4432 15.9119 37.9729 17.7929L37.4552 19.8638C37.2883 20.5316 36.6883 21 36 21C35.3117 21 34.7117 20.5316 34.5448 19.8638L34.0271 17.7929C33.5568 15.9119 32.0881 14.4432 30.2071 13.9729L28.1362 13.4552C27.4684 13.2883 27 12.6883 27 12C27 11.3117 27.4684 10.7117 28.1362 10.5448L30.2071 10.0271C32.0881 9.55681 33.5568 8.08812 34.0271 6.20712L34.5448 4.1362C34.7117 3.46845 35.3117 3 36 3Z" fill="black"/>
<path fill-rule="evenodd" clip-rule="evenodd" d="M33 30C33.6456 30 34.2189 30.4131 34.423 31.0257L35.2115 33.3911C35.5101 34.2869 36.2131 34.9899 37.1089 35.2885L39.4743 36.077C40.0869 36.2811 40.5 36.8544 40.5 37.5C40.5 38.1456 40.0869 38.7189 39.4743 38.923L37.1089 39.7115C36.2131 40.0101 35.5101 40.7131 35.2115 41.6089L34.423 43.9743C34.2189 44.5869 33.6456 45 33 45C32.3544 45 31.7811 44.5869 31.577 43.9743L30.7885 41.6089C30.4899 40.7131 29.7869 40.0101 28.8911 39.7115L26.5257 38.923C25.9131 38.7189 25.5 38.1456 25.5 37.5C25.5 36.8544 25.9131 36.2811 26.5257 36.077L28.8911 35.2885C29.7869 34.9899 30.4899 34.2869 30.7885 33.3911L31.577 31.0257C31.7811 30.4131 32.3544 30 33 30Z" fill="black"/>
</svg>
