<svg width="48" height="48" viewBox="0 0 48 48" fill="none" xmlns="http://www.w3.org/2000/svg">
<path fill-rule="evenodd" clip-rule="evenodd" d="M21.999 3.99609C21.999 2.89152 22.8945 1.99609 23.999 1.99609C36.1493 1.99609 45.999 11.8458 45.999 23.9961C45.999 36.1464 36.1493 45.9961 23.999 45.9961C11.8488 45.9961 1.99902 36.1464 1.99902 23.9961C1.99902 22.8915 2.89445 21.9961 3.99902 21.9961C5.10359 21.9961 5.99902 22.8915 5.99902 23.9961C5.99902 33.9372 14.0579 41.9961 23.999 41.9961C33.9402 41.9961 41.999 33.9372 41.999 23.9961C41.999 14.055 33.9402 5.99609 23.999 5.99609C22.8945 5.99609 21.999 5.10066 21.999 3.99609Z" fill="black"/>
</svg>
