<svg width="48" height="48" viewBox="0 0 48 48" fill="none" xmlns="http://www.w3.org/2000/svg">
<path d="M24 18C19.8579 18 16.5 21.3579 16.5 25.5C16.5 29.6421 19.8579 33 24 33C28.1421 33 31.5 29.6421 31.5 25.5C31.5 21.3579 28.1421 18 24 18Z" fill="black"/>
<path fill-rule="evenodd" clip-rule="evenodd" d="M18.6886 6.14225C20.4472 6.04782 22.2181 6 24 6C25.7819 6 27.5528 6.04782 29.3114 6.14225C31.2467 6.24617 32.9708 7.31224 33.9764 8.92368L35.6188 11.5557C36.097 12.322 36.9089 12.8426 37.839 12.9748C38.6098 13.0844 39.3777 13.2029 40.1426 13.3304C43.0063 13.8076 45 16.3157 45 19.1481V36C45 39.3137 42.3137 42 39 42H9C5.68629 42 3 39.3137 3 36V19.148C3 16.3157 4.99372 13.8075 7.85743 13.3303C8.62231 13.2029 9.39019 13.0843 10.161 12.9748C11.0911 12.8426 11.903 12.322 12.3812 11.5557L14.0236 8.92368C15.0292 7.31224 16.7533 6.24617 18.6886 6.14225ZM13.5 25.5C13.5 19.701 18.201 15 24 15C29.799 15 34.5 19.701 34.5 25.5C34.5 31.299 29.799 36 24 36C18.201 36 13.5 31.299 13.5 25.5ZM37.5 22.5C38.3284 22.5 39 21.8284 39 21C39 20.1716 38.3284 19.5 37.5 19.5C36.6716 19.5 36 20.1716 36 21C36 21.8284 36.6716 22.5 37.5 22.5Z" fill="black"/>
</svg>
