<svg width="48" height="48" viewBox="0 0 48 48" fill="none" xmlns="http://www.w3.org/2000/svg">
<path fill-rule="evenodd" clip-rule="evenodd" d="M30.463 6.09302C28.2042 6.4036 26.4423 8.16266 26.1317 10.4215C25.9567 11.7203 25.8099 13.1236 25.8099 14.2389C25.8099 15.3542 25.9567 16.7603 26.1317 18.0563C26.4423 20.3151 28.2042 22.077 30.463 22.3848C31.759 22.5627 33.1652 22.7095 34.2804 22.7095C35.3929 22.7095 36.8019 22.5627 38.095 22.3848C40.3539 22.0742 42.1157 20.3151 42.4263 18.0563C42.6042 16.7575 42.751 15.3542 42.751 14.2389C42.751 13.1236 42.6042 11.7175 42.4263 10.4215C42.2779 9.32527 41.7738 8.30808 40.9913 7.52613C40.2089 6.74417 39.1913 6.24069 38.095 6.09302C36.8316 5.90443 35.5576 5.79597 34.2804 5.76831C33.1652 5.76831 31.759 5.91513 30.463 6.09302ZM34.2804 9.53208C35.1303 9.53208 36.3332 9.65066 37.584 9.8229C37.8659 9.85913 38.1279 9.98763 38.3291 10.1883C38.5303 10.3891 38.6595 10.6507 38.6964 10.9325C38.8659 12.1862 38.9844 13.389 38.9844 14.2389C38.9844 15.0888 38.8687 16.2916 38.6964 17.5424C38.6601 17.8247 38.5312 18.0871 38.3299 18.2883C38.1286 18.4896 37.8663 18.6185 37.584 18.6549C36.4899 18.82 35.3866 18.9171 34.2804 18.9457C33.4277 18.9457 32.2249 18.8271 30.9741 18.6549C30.6922 18.6187 30.4302 18.4902 30.229 18.2894C30.0277 18.0887 29.8986 17.8271 29.8616 17.5453C29.6973 16.4502 29.6011 15.3459 29.5736 14.2389C29.5736 13.389 29.6922 12.1862 29.8616 10.9354C29.898 10.653 30.0269 10.3907 30.2282 10.1895C30.4295 9.98817 30.6918 9.85927 30.9741 9.8229C32.2249 9.65066 33.4306 9.53208 34.2776 9.53208H34.2804Z" fill="black"/>
<path fill-rule="evenodd" clip-rule="evenodd" d="M5.44092 31.1236C5.75151 28.8648 7.51339 27.1029 9.77221 26.7951C11.0682 26.6173 12.4743 26.4704 13.5896 26.4704C14.7021 26.4704 16.1082 26.6173 17.4042 26.7951C19.663 27.1057 21.4249 28.8648 21.7355 31.1236C21.9134 32.4224 22.0574 33.8257 22.0574 34.941C22.0574 36.0563 21.9134 37.4624 21.7355 38.7584C21.4249 41.0173 19.663 42.7791 17.4042 43.0869C16.1408 43.2754 14.8667 43.3839 13.5896 43.4116C12.4743 43.4116 11.0682 43.2648 9.77221 43.0869C8.6759 42.9392 7.65838 42.4357 6.87592 41.6538C6.09345 40.8718 5.58931 39.8546 5.44092 38.7584C5.25219 37.4941 5.14374 36.2191 5.11621 34.941C5.11621 33.8257 5.26303 32.4196 5.44092 31.1236ZM10.2833 30.525C10.0014 30.5612 9.73937 30.6897 9.53814 30.8905C9.33691 31.0912 9.20775 31.3528 9.1708 31.6347C9.00139 32.8883 8.8828 34.0911 8.8828 34.941C8.8828 35.7909 9.00139 36.9937 9.1708 38.2445C9.20717 38.5269 9.33607 38.7892 9.53736 38.9905C9.73864 39.1917 10.0009 39.3206 10.2833 39.357C11.5341 39.5292 12.7397 39.6478 13.5868 39.6478C14.4395 39.6478 15.6423 39.5292 16.8932 39.357C17.1751 39.3208 17.4371 39.1923 17.6383 38.9916C17.8395 38.7908 17.9687 38.5292 18.0056 38.2474C18.175 36.9937 18.2936 35.7909 18.2936 34.941C18.2936 34.0911 18.175 32.8883 18.0056 31.6375C17.9693 31.3552 17.8403 31.0929 17.6391 30.8916C17.4378 30.6903 17.1755 30.5614 16.8932 30.525C15.799 30.36 14.6957 30.2629 13.5896 30.2342C12.7369 30.2342 11.5341 30.3528 10.2833 30.525Z" fill="black"/>
<path fill-rule="evenodd" clip-rule="evenodd" d="M26.1317 31.1236C26.4423 28.8648 28.2042 27.1029 30.463 26.7951C31.759 26.6173 33.1652 26.4704 34.2804 26.4704C35.3929 26.4704 36.8019 26.6173 38.095 26.7951C40.3539 27.1057 42.1157 28.8648 42.4263 31.1236C42.6042 32.4224 42.751 33.8257 42.751 34.941C42.751 36.0563 42.6042 37.4624 42.4263 38.7584C42.1157 41.0173 40.3539 42.7791 38.095 43.0869C36.799 43.2648 35.3929 43.4116 34.2804 43.4116C33.1652 43.4116 31.759 43.2648 30.463 43.0869C29.3667 42.9392 28.3492 42.4357 27.5667 41.6538C26.7843 40.8718 26.2801 39.8546 26.1317 38.7584C25.944 37.494 25.8365 36.219 25.8099 34.941C25.8099 33.8257 25.9567 32.4196 26.1317 31.1236ZM30.9741 30.525C30.6922 30.5612 30.4302 30.6897 30.229 30.8905C30.0277 31.0912 29.8986 31.3528 29.8616 31.6347C29.6922 32.8883 29.5736 34.0911 29.5736 34.941C29.5736 35.7909 29.6922 36.9937 29.8616 38.2445C29.898 38.5269 30.0269 38.7892 30.2282 38.9905C30.4295 39.1917 30.6918 39.3206 30.9741 39.357C32.2249 39.5292 33.4306 39.6478 34.2776 39.6478C35.1303 39.6478 36.3332 39.5292 37.584 39.357C37.8659 39.3208 38.1279 39.1923 38.3291 38.9916C38.5303 38.7908 38.6595 38.5292 38.6964 38.2474C38.8659 36.9937 38.9844 35.7909 38.9844 34.941C38.9844 34.0911 38.8687 32.8883 38.6964 31.6375C38.6601 31.3552 38.5312 31.0929 38.3299 30.8916C38.1286 30.6903 37.8663 30.5614 37.584 30.525C36.4899 30.36 35.3866 30.2629 34.2804 30.2342C33.4277 30.2342 32.2249 30.3528 30.9741 30.525Z" fill="black"/>
<path fill-rule="evenodd" clip-rule="evenodd" d="M5.44092 10.4215C5.75151 8.16266 7.51339 6.40078 9.77221 6.09302C11.0682 5.91513 12.4743 5.76831 13.5896 5.76831C14.7021 5.76831 16.1082 5.91513 17.4042 6.09302C19.663 6.4036 21.4249 8.16266 21.7355 10.4215C21.9134 11.7203 22.0574 13.1236 22.0574 14.2389C22.0574 15.3542 21.9134 16.7603 21.7355 18.0563C21.4249 20.3151 19.663 22.077 17.4042 22.3848C16.1082 22.5627 14.7021 22.7095 13.5896 22.7095C12.4743 22.7095 11.0682 22.5627 9.77221 22.3848C8.6759 22.2371 7.65838 21.7336 6.87592 20.9517C6.09345 20.1697 5.58931 19.1525 5.44092 18.0563C5.2522 16.792 5.14375 15.5169 5.11621 14.2389C5.11621 13.1236 5.26303 11.7175 5.44092 10.4215ZM10.2833 9.8229C10.0014 9.85913 9.73937 9.98763 9.53814 10.1883C9.33691 10.3891 9.20775 10.6507 9.1708 10.9325C9.00139 12.1862 8.8828 13.389 8.8828 14.2389C8.8828 15.0888 9.00139 16.2916 9.1708 17.5424C9.20717 17.8247 9.33607 18.0871 9.53736 18.2883C9.73864 18.4896 10.0009 18.6185 10.2833 18.6549C11.5341 18.8271 12.7397 18.9457 13.5868 18.9457C14.4395 18.9457 15.6423 18.8271 16.8932 18.6549C17.1751 18.6187 17.4371 18.4902 17.6383 18.2894C17.8395 18.0887 17.9687 17.8271 18.0056 17.5453C18.175 16.2916 18.2936 15.0888 18.2936 14.2389C18.2936 13.389 18.175 12.1862 18.0056 10.9354C17.9693 10.653 17.8403 10.3907 17.6391 10.1895C17.4378 9.98817 17.1755 9.85927 16.8932 9.8229C15.799 9.65786 14.6957 9.56074 13.5896 9.53208C12.7369 9.53208 11.5341 9.65066 10.2833 9.8229Z" fill="black"/>
</svg>
