<svg width="48" height="48" viewBox="0 0 48 48" fill="none" xmlns="http://www.w3.org/2000/svg">
<path d="M22.3031 25.6912V37.0362L20.1911 34.927C20.0337 34.7696 19.8468 34.6448 19.6412 34.5596C19.4355 34.4744 19.2151 34.4305 18.9925 34.4305C18.7699 34.4305 18.5495 34.4744 18.3439 34.5596C18.1382 34.6448 17.9513 34.7696 17.7939 34.927C17.6365 35.0844 17.5117 35.2713 17.4265 35.4769C17.3413 35.6826 17.2975 35.903 17.2975 36.1256C17.2975 36.3482 17.3413 36.5686 17.4265 36.7743C17.5117 36.9799 17.6365 37.1668 17.7939 37.3242L22.8029 42.3275C23.1205 42.6447 23.5511 42.8229 24.0001 42.8229C24.449 42.8229 24.8796 42.6447 25.1972 42.3275L30.2005 37.3242C30.36 37.1674 30.4869 36.9807 30.5739 36.7746C30.6608 36.5686 30.7061 36.3474 30.7072 36.1238C30.7082 35.9001 30.665 35.6785 30.5799 35.4717C30.4949 35.2648 30.3697 35.0769 30.2117 34.9187C30.0537 34.7604 29.8659 34.6351 29.6591 34.5498C29.4524 34.4645 29.2308 34.421 29.0072 34.4218C28.7836 34.4225 28.5623 34.4676 28.3562 34.5543C28.15 34.641 27.9631 34.7677 27.8062 34.927L25.6885 37.0418V25.6912H37.4485L35.3337 27.8032C35.0158 28.1211 34.8372 28.5523 34.8372 29.0018C34.8372 29.4514 35.0158 29.8825 35.3337 30.2004C35.6516 30.5183 36.0827 30.6969 36.5323 30.6969C36.9818 30.6969 37.413 30.5183 37.7309 30.2004L42.7342 25.1971C42.8917 25.0398 43.0166 24.8529 43.1019 24.6473C43.1871 24.4416 43.231 24.2212 43.231 23.9985C43.231 23.7759 43.1871 23.5555 43.1019 23.3498C43.0166 23.1441 42.8917 22.9573 42.7342 22.8L37.7309 17.7938C37.5741 17.6343 37.3873 17.5074 37.1813 17.4205C36.9753 17.3335 36.7541 17.2882 36.5304 17.2872C36.3068 17.2861 36.0852 17.3294 35.8784 17.4144C35.6715 17.4995 35.4836 17.6246 35.3253 17.7826C35.1671 17.9407 35.0418 18.1285 34.9565 18.3352C34.8712 18.542 34.8277 18.7635 34.8285 18.9872C34.8292 19.2108 34.8743 19.432 34.961 19.6382C35.0477 19.8443 35.1744 20.0312 35.3337 20.1882L37.4457 22.303H25.6913V10.7661L27.8062 12.8837C28.1244 13.2012 28.5558 13.3793 29.0053 13.3788C29.4549 13.3782 29.8858 13.1992 30.2033 12.8809C30.5209 12.5626 30.6989 12.1313 30.6984 11.6817C30.6979 11.2322 30.5188 10.8012 30.2005 10.4837L25.1972 5.48324C24.8796 5.16599 24.449 4.98779 24.0001 4.98779C23.5511 4.98779 23.1205 5.16599 22.8029 5.48324L17.7939 10.4865C17.6346 10.6435 17.5079 10.8304 17.4212 11.0365C17.3345 11.2427 17.2895 11.4639 17.2887 11.6876C17.2879 11.9112 17.3314 12.1328 17.4167 12.3395C17.502 12.5462 17.6274 12.734 17.7856 12.8921C17.9438 13.0501 18.1318 13.1753 18.3386 13.2603C18.5454 13.3453 18.767 13.3886 18.9907 13.3875C19.2143 13.3865 19.4355 13.3412 19.6416 13.2542C19.8476 13.1673 20.0344 13.0404 20.1911 12.8809L22.3031 10.7717V22.303H10.2269L12.3361 20.1882C12.5025 20.0331 12.636 19.8461 12.7286 19.6382C12.8212 19.4304 12.871 19.2061 12.875 18.9786C12.879 18.7512 12.8372 18.5252 12.752 18.3143C12.6667 18.1033 12.5399 17.9117 12.3791 17.7508C12.2182 17.59 12.0266 17.4631 11.8156 17.3779C11.6047 17.2927 11.3787 17.2509 11.1512 17.2549C10.9238 17.2589 10.6994 17.3087 10.4916 17.4013C10.2838 17.4939 10.0968 17.6274 9.9417 17.7938L4.93558 22.8C4.77807 22.9573 4.65311 23.1441 4.56786 23.3498C4.4826 23.5555 4.43872 23.7759 4.43872 23.9985C4.43872 24.2212 4.4826 24.4416 4.56786 24.6473C4.65311 24.8529 4.77807 25.0398 4.93558 25.1971L9.9417 30.2004C10.2605 30.5137 10.6901 30.6883 11.137 30.6862C11.5839 30.6841 12.0119 30.5055 12.3278 30.1893C12.6436 29.8731 12.8217 29.4449 12.8232 28.998C12.8248 28.5511 12.6497 28.1216 12.3361 27.8032L10.2212 25.6941H22.3059L22.3031 25.6912Z" fill="black"/>
</svg>
