<svg width="48" height="48" viewBox="0 0 48 48" fill="none" xmlns="http://www.w3.org/2000/svg">
<path fill-rule="evenodd" clip-rule="evenodd" d="M2 24C2 11.8497 11.8497 2 24 2C36.1503 2 46 11.8497 46 24C46 36.1503 36.1503 46 24 46C11.8497 46 2 36.1503 2 24ZM33.978 36.6686C33.9926 36.4476 34 36.2247 34 36C34 30.4771 29.5229 26 24 26C18.4771 26 14 30.4771 14 36C14 36.2247 14.0074 36.4476 14.022 36.6686C12.7449 34.7614 12 32.4677 12 30C12 23.3726 17.3726 18 24 18C30.6274 18 36 23.3726 36 30C36 32.4677 35.2551 34.7614 33.978 36.6686ZM24 42C20.6863 42 18 39.3137 18 36C18 32.6863 20.6863 30 24 30C27.3137 30 30 32.6863 30 36C30 39.3137 27.3137 42 24 42ZM40 30C40 30.9097 39.9241 31.8017 39.7782 32.67C41.1943 30.0983 42 27.1432 42 24C42 14.0589 33.9411 6 24 6C14.0589 6 6 14.0589 6 24C6 27.1432 6.80567 30.0983 8.22177 32.67C8.07592 31.8017 8 30.9097 8 30C8 21.1634 15.1634 14 24 14C32.8366 14 40 21.1634 40 30Z" fill="black"/>
</svg>
