<svg width="48" height="48" viewBox="0 0 48 48" fill="none" xmlns="http://www.w3.org/2000/svg">
<path d="M14.25 29.5L9.5 23V28.75C9.5 29.1167 9.38333 29.4167 9.15 29.65C8.91667 29.8834 8.61667 30 8.25 30C7.88333 30 7.58333 29.8834 7.35 29.65C7.11667 29.4167 7 29.1167 7 28.75V19.25C7 18.8834 7.11667 18.5834 7.35 18.35C7.58333 18.1167 7.88333 18 8.25 18H8.85C9.05 17.9987 9.23333 18.04 9.4 18.124C9.56667 18.208 9.71667 18.3334 9.85 18.5L14.5 25V19.25C14.5 18.8834 14.6167 18.5834 14.85 18.35C15.0833 18.1167 15.3833 18 15.75 18C16.1167 18 16.4167 18.1167 16.65 18.35C16.8833 18.5834 17 18.8834 17 19.25V28.8C17 29.1334 16.8833 29.4167 16.65 29.65C16.4167 29.8834 16.1333 30 15.8 30H15.2C15 30.0014 14.8167 29.96 14.65 29.876C14.4833 29.792 14.35 29.6667 14.25 29.5Z" fill="black"/>
<path d="M25.75 30H20C19.7333 30 19.5 29.9 19.3 29.7C19.1 29.5 19 29.2667 19 29V19C19 18.7334 19.1 18.5 19.3 18.3C19.5 18.1 19.7333 18 20 18H25.75C26.1167 18 26.4167 18.1167 26.65 18.35C26.8833 18.5834 27 18.8834 27 19.25C27 19.6167 26.8833 19.9167 26.65 20.15C26.4167 20.3834 26.1167 20.5 25.75 20.5H22V22.8H25.75C26.1167 22.8 26.4167 22.9167 26.65 23.15C26.8833 23.3834 27 23.6834 27 24.05C27 24.4167 26.8833 24.7167 26.65 24.95C26.4167 25.1834 26.1167 25.3 25.75 25.3H22V27.5H25.75C26.1167 27.5 26.4167 27.6167 26.65 27.85C26.8833 28.0834 27 28.3834 27 28.75C27 29.1167 26.8833 29.4167 26.65 29.65C26.4167 29.8834 26.1167 30 25.75 30Z" fill="black"/>
<path d="M39 30H31C30.4347 30.0014 29.96 29.81 29.576 29.426C29.192 29.042 29 28.5667 29 28V19.25C29 18.8834 29.1167 18.5834 29.35 18.35C29.5833 18.1167 29.8833 18 30.25 18C30.6167 18 30.9167 18.1167 31.15 18.35C31.3833 18.5834 31.5 18.8834 31.5 19.25V27H33.8V21.25C33.8 20.8834 33.9167 20.5834 34.15 20.35C34.3833 20.1167 34.6833 20 35.05 20C35.4167 20 35.7167 20.1167 35.95 20.35C36.1833 20.5834 36.3 20.8834 36.3 21.25V27H38.5V19.25C38.5 18.8834 38.6167 18.5834 38.85 18.35C39.0833 18.1167 39.3833 18 39.75 18C40.1167 18 40.4167 18.1167 40.65 18.35C40.8833 18.5834 41 18.8834 41 19.25V28C41.0013 28.5654 40.81 29.04 40.426 29.424C40.042 29.808 39.5667 30 39 30Z" fill="black"/>
<path fill-rule="evenodd" clip-rule="evenodd" d="M5 8.5C3.067 8.5 1.5 10.067 1.5 12V36C1.5 37.933 3.067 39.5 5 39.5H43C44.933 39.5 46.5 37.933 46.5 36V12C46.5 10.067 44.933 8.5 43 8.5H5ZM4.5 12C4.5 11.7239 4.72386 11.5 5 11.5H43C43.2761 11.5 43.5 11.7239 43.5 12V36C43.5 36.2761 43.2761 36.5 43 36.5H5C4.72386 36.5 4.5 36.2761 4.5 36V12Z" fill="black"/>
</svg>
