<svg width="48" height="48" viewBox="0 0 48 48" fill="none" xmlns="http://www.w3.org/2000/svg">
<path d="M25.9948 16.4786C26.0114 16.2015 25.9448 15.9258 25.8036 15.6868C25.6623 15.4478 25.4529 15.2565 25.2021 15.1375C24.9513 15.0184 24.6707 14.977 24.3962 15.0185C24.1218 15.0601 23.866 15.1827 23.6617 15.3707L19.4085 19.2443C19.2729 19.3679 19.1629 19.5169 19.0849 19.6829C19.0069 19.8489 18.9624 20.0286 18.9538 20.2118C18.9365 20.5819 19.067 20.9436 19.3164 21.2175C19.5658 21.4913 19.9139 21.6549 20.2839 21.6722C20.4671 21.6807 20.6502 21.6531 20.8228 21.5909C20.9953 21.5287 21.1539 21.4331 21.2895 21.3096L23.2068 19.5597V33.3018C23.2068 33.6718 23.3538 34.0268 23.6155 34.2885C23.8772 34.5502 24.2321 34.6972 24.6022 34.6972C24.9723 34.6972 25.3272 34.5502 25.5889 34.2885C25.8506 34.0268 25.9976 33.6718 25.9976 33.3018V16.4786H25.9948Z" fill="black"/>
<path d="M44.4031 7.70147C45.4301 7.70147 46.2618 8.53593 46.2618 9.56295V18.0192C46.2618 18.5124 46.0661 18.9854 45.7176 19.3345C45.3691 19.6835 44.8963 19.8799 44.4031 19.8807H35.9469C35.7025 19.8807 35.4604 19.8325 35.2346 19.739C35.0087 19.6454 34.8035 19.5083 34.6306 19.3354C34.4578 19.1626 34.3207 18.9574 34.2271 18.7315C34.1336 18.5057 34.0854 18.2636 34.0854 18.0192C34.0854 17.7747 34.1336 17.5327 34.2271 17.3068C34.3207 17.081 34.4578 16.8758 34.6306 16.7029C34.8035 16.53 35.0087 16.3929 35.2346 16.2994C35.4604 16.2058 35.7025 16.1577 35.9469 16.1577H42.5416V9.56295C42.5416 8.53593 43.3761 7.70147 44.4031 7.70147Z" fill="black"/>
<path d="M27.3372 7.57588C24.4999 7.0113 21.5646 7.19147 18.8176 8.09882C16.0705 9.00617 13.6055 10.6098 11.6626 12.7533C9.71969 14.8968 8.36529 17.5071 7.73138 20.3298C7.09748 23.1525 7.2057 26.0913 8.0455 28.8597C8.88529 31.6282 10.428 34.1318 12.5233 36.1266C14.6186 38.1214 17.1949 39.5393 20.0012 40.2422C22.8076 40.945 25.7481 40.9088 28.5363 40.1371C31.3244 39.3654 33.8651 37.8844 35.9106 35.8386C36.0819 35.6588 36.2873 35.5151 36.5149 35.4159C36.7425 35.3167 36.9876 35.2641 37.2359 35.2611C37.4842 35.258 37.7305 35.3047 37.9605 35.3983C38.1904 35.4919 38.3993 35.6306 38.5749 35.8061C38.7504 35.9817 38.8891 36.1906 38.9827 36.4205C39.0763 36.6505 39.123 36.8968 39.1199 37.1451C39.1169 37.3934 39.0643 37.6385 38.9651 37.8661C38.8659 38.0937 38.7222 38.2992 38.5424 38.4704C35.6802 41.3323 32.0337 43.2811 28.0639 44.0706C24.0941 44.8601 19.9794 44.4547 16.24 42.9056C12.5006 41.3566 9.30453 38.7336 7.05589 35.3681C4.80726 32.0027 3.60706 28.0461 3.60706 23.9985C3.60706 19.951 4.80726 15.9944 7.05589 12.6289C9.30453 9.2635 12.5006 6.64042 16.24 5.0914C19.9794 3.54237 24.0941 3.13696 28.0639 3.92643C32.0337 4.7159 35.6802 6.66479 38.5424 9.52667L45.7176 16.7019C45.8974 16.8731 46.0411 17.0786 46.1403 17.3062C46.2395 17.5338 46.2921 17.7789 46.2951 18.0272C46.2982 18.2754 46.2515 18.5218 46.1579 18.7517C46.0643 18.9817 45.9256 19.1906 45.7501 19.3661C45.5745 19.5417 45.3656 19.6804 45.1357 19.774C44.9057 19.8676 44.6594 19.9142 44.4111 19.9112C44.1629 19.9082 43.9177 19.8555 43.6901 19.7563C43.4625 19.6572 43.2571 19.5134 43.0858 19.3337L35.9106 12.1584C33.5689 9.81672 30.5853 8.22199 27.3372 7.57588Z" fill="black"/>
</svg>
