<svg width="48" height="48" viewBox="0 0 48 48" fill="none" xmlns="http://www.w3.org/2000/svg">
<path fill-rule="evenodd" clip-rule="evenodd" d="M25.4142 3.58579C24.6332 2.80474 23.3668 2.80474 22.5858 3.58579L15.5858 10.5858C14.8047 11.3668 14.8047 12.6332 15.5858 13.4142L22.5858 20.4142C23.3668 21.1953 24.6332 21.1953 25.4142 20.4142L32.4142 13.4142C33.1953 12.6332 33.1953 11.3668 32.4142 10.5858L25.4142 3.58579ZM24 16.1716L19.8284 12L24 7.82843L28.1716 12L24 16.1716ZM32.4142 34.5858L25.4142 27.5858C24.6332 26.8047 23.3668 26.8047 22.5858 27.5858L15.5858 34.5858C14.8047 35.3668 14.8047 36.6332 15.5858 37.4142L22.5858 44.4142C23.3668 45.1953 24.6332 45.1953 25.4142 44.4142L32.4142 37.4142C33.1953 36.6332 33.1953 35.3668 32.4142 34.5858ZM24 40.1716L19.8284 36L24 31.8284L28.1716 36L24 40.1716ZM34.5858 15.5858C35.3668 14.8047 36.6332 14.8047 37.4142 15.5858L44.4142 22.5858C45.1953 23.3668 45.1953 24.6332 44.4142 25.4142L37.4142 32.4142C36.6332 33.1953 35.3668 33.1953 34.5858 32.4142L27.5858 25.4142C26.8047 24.6332 26.8047 23.3668 27.5858 22.5858L34.5858 15.5858ZM31.8284 24L36 28.1716L40.1716 24L36 19.8284L31.8284 24ZM13.4142 15.5858C12.6332 14.8047 11.3668 14.8047 10.5858 15.5858L3.58579 22.5858C2.80474 23.3668 2.80474 24.6332 3.58579 25.4142L10.5858 32.4142C11.3668 33.1953 12.6332 33.1953 13.4142 32.4142L20.4142 25.4142C21.1953 24.6332 21.1953 23.3668 20.4142 22.5858L13.4142 15.5858ZM12 28.1716L7.82843 24L12 19.8284L16.1716 24L12 28.1716Z" fill="black"/>
</svg>
