<svg width="48" height="48" viewBox="0 0 48 48" fill="none" xmlns="http://www.w3.org/2000/svg">
<path d="M16.1762 10.7017C16.5899 10.7017 16.9867 10.866 17.2793 11.1586C17.5719 11.4511 17.7362 11.8479 17.7362 12.2617V35.7385C17.7362 36.1522 17.5719 36.549 17.2793 36.8415C16.9867 37.1341 16.5899 37.2985 16.1762 37.2985C15.7625 37.2985 15.3657 37.1341 15.0731 36.8415C14.7806 36.549 14.6162 36.1522 14.6162 35.7385V12.2641C14.6162 11.8503 14.7806 11.4535 15.0731 11.161C15.3657 10.8684 15.7625 10.7041 16.1762 10.7041V10.7017Z" fill="black"/>
<path d="M31.8242 10.7017C32.2379 10.7017 32.6347 10.866 32.9273 11.1586C33.2199 11.4511 33.3842 11.8479 33.3842 12.2617V35.7385C33.3842 36.1522 33.2199 36.549 32.9273 36.8415C32.6347 37.1341 32.2379 37.2985 31.8242 37.2985C31.4105 37.2985 31.0137 37.1341 30.7211 36.8415C30.4286 36.549 30.2642 36.1522 30.2642 35.7385V12.2641C30.2642 11.8503 30.4286 11.4535 30.7211 11.161C31.0137 10.8684 31.4105 10.7041 31.8242 10.7041V10.7017Z" fill="black"/>
</svg>
