<svg width="48" height="48" viewBox="0 0 48 48" fill="none" xmlns="http://www.w3.org/2000/svg">
<path fill-rule="evenodd" clip-rule="evenodd" d="M28 9C25.2385 9 23 11.2385 23 14C23 16.7615 25.2385 19 28 19C30.7615 19 33 16.7615 33 14C33 11.2385 30.7615 9 28 9ZM27 14C27 13.4477 27.4477 13 28 13C28.5523 13 29 13.4477 29 14C29 14.5523 28.5523 15 28 15C27.4477 15 27 14.5523 27 14Z" fill="black"/>
<path fill-rule="evenodd" clip-rule="evenodd" d="M11 18C11 15.2385 13.2385 13 16 13C18.7615 13 21 15.2385 21 18C21 20.7615 18.7615 23 16 23C13.2385 23 11 20.7615 11 18ZM16 17C15.4477 17 15 17.4477 15 18C15 18.5523 15.4477 19 16 19C16.5523 19 17 18.5523 17 18C17 17.4477 16.5523 17 16 17Z" fill="black"/>
<path fill-rule="evenodd" clip-rule="evenodd" d="M17 26C14.2385 26 12 28.2385 12 31C12 33.7615 14.2385 36 17 36C19.7615 36 22 33.7615 22 31C22 28.2385 19.7615 26 17 26ZM16 31C16 30.4477 16.4477 30 17 30C17.5523 30 18 30.4477 18 31C18 31.5523 17.5523 32 17 32C16.4477 32 16 31.5523 16 31Z" fill="black"/>
<path fill-rule="evenodd" clip-rule="evenodd" d="M24 2C11.8497 2 2 11.8497 2 24C2 36.1503 11.8497 46 24 46C24.9929 46 25.9217 45.8146 26.7463 45.383C27.582 44.9455 28.1954 44.3151 28.6362 43.6047C29.4574 42.2809 29.7022 40.6206 29.8493 39.2671C29.9017 38.7845 29.9431 38.3267 29.983 37.8847C30.0694 36.9285 30.1491 36.0466 30.3196 35.1497C30.5587 33.8927 30.9253 32.9716 31.497 32.3262C31.8838 31.8896 32.6786 31.4562 34.065 31.053C35.0315 30.7719 36.0571 30.5626 37.1639 30.3367C37.6264 30.2423 38.1032 30.145 38.5956 30.0384C40.1396 29.7041 41.8832 29.2681 43.2548 28.4735C44.7398 27.6131 46 26.1897 46 24C46 11.8497 36.1503 2 24 2ZM6 24C6 14.0589 14.0589 6 24 6C33.9411 6 42 14.0589 42 24C42 24.3531 41.901 24.635 41.2495 25.0124C40.4846 25.4556 39.3144 25.7901 37.7492 26.129C37.3651 26.2121 36.9542 26.296 36.5286 26.3829C35.3605 26.6213 34.0823 26.8822 32.9479 27.2122C31.4162 27.6576 29.6794 28.3458 28.503 29.6738C27.2426 31.0964 26.6883 32.8343 26.3901 34.4025C26.1813 35.5005 26.0722 36.7026 25.978 37.7405C25.9423 38.1338 25.9087 38.5035 25.8727 38.8349C25.7228 40.2144 25.5271 41.0286 25.2371 41.496C25.1222 41.6812 25.0123 41.7757 24.8912 41.8391C24.7589 41.9084 24.4971 42 24 42C14.0589 42 6 33.9411 6 24Z" fill="black"/>
</svg>
