<svg width="48" height="48" viewBox="0 0 48 48" fill="none" xmlns="http://www.w3.org/2000/svg">
<path fill-rule="evenodd" clip-rule="evenodd" d="M14.321 10.6416C14.5582 10.5047 14.8272 10.4326 15.101 10.4326C15.3749 10.4326 15.6439 10.5047 15.881 10.6416L36.6794 22.6488C36.9167 22.7857 37.1137 22.9827 37.2507 23.2198C37.3876 23.457 37.4598 23.7261 37.4598 24C37.4598 24.2739 37.3876 24.543 37.2507 24.7802C37.1137 25.0174 36.9167 25.2143 36.6794 25.3512L15.881 37.3608C15.6439 37.4977 15.3748 37.5698 15.101 37.5698C14.8271 37.5698 14.5581 37.4977 14.3209 37.3608C14.0838 37.2238 13.8868 37.0269 13.7499 36.7897C13.613 36.5525 13.541 36.2835 13.541 36.0096V11.9904C13.5414 11.717 13.6137 11.4484 13.7506 11.2117C13.8875 10.9749 14.0842 10.7783 14.321 10.6416ZM16.661 14.6928V33.3072L32.7794 24L16.661 14.6928Z" fill="black"/>
</svg>
