<svg width="48" height="48" viewBox="0 0 48 48" fill="none" xmlns="http://www.w3.org/2000/svg">
<path d="M25.9039 10.4755C25.9039 9.97056 25.7033 9.48627 25.3462 9.1292C24.9891 8.77213 24.5048 8.57153 23.9999 8.57153C23.4949 8.57153 23.0106 8.77213 22.6535 9.1292C22.2965 9.48627 22.0959 9.97056 22.0959 10.4755V22.0961H10.4753C9.97032 22.0961 9.48603 22.2967 9.12896 22.6538C8.77189 23.0108 8.57129 23.4951 8.57129 24.0001C8.57129 24.5051 8.77189 24.9894 9.12896 25.3464C9.48603 25.7035 9.97032 25.9041 10.4753 25.9041H22.0959V37.5247C22.0959 38.0296 22.2965 38.5139 22.6535 38.871C23.0106 39.2281 23.4949 39.4287 23.9999 39.4287C24.5048 39.4287 24.9891 39.2281 25.3462 38.871C25.7033 38.5139 25.9039 38.0296 25.9039 37.5247V25.9041H37.5244C38.0294 25.9041 38.5137 25.7035 38.8708 25.3464C39.2278 24.9894 39.4284 24.5051 39.4284 24.0001C39.4284 23.4951 39.2278 23.0108 38.8708 22.6538C38.5137 22.2967 38.0294 22.0961 37.5244 22.0961H25.9039V10.4755Z" fill="black"/>
</svg>
