<svg width="48" height="48" viewBox="0 0 48 48" fill="none" xmlns="http://www.w3.org/2000/svg">
<path fill-rule="evenodd" clip-rule="evenodd" d="M34.392 8.704C31.504 8.322 27.904 8 24 8C20.5244 8.00919 17.0531 8.24435 13.608 8.704C12.36 8.85541 11.1987 9.42076 10.3097 10.3097C9.42076 11.1987 8.85541 12.36 8.704 13.608C8.322 16.496 8 20.096 8 24C8.0092 27.4756 8.24436 30.9469 8.704 34.392C8.85541 35.64 9.42076 36.8013 10.3097 37.6903C11.1987 38.5792 12.36 39.1446 13.608 39.296C16.496 39.678 20.096 40 24 40C27.904 40 31.504 39.68 34.392 39.296C35.6402 39.1449 36.8016 38.5797 37.6907 37.6907C38.5797 36.8016 39.1449 35.6402 39.296 34.392C39.678 31.504 40 27.904 40 24C40 20.096 39.68 16.496 39.296 13.608C39.1446 12.36 38.5792 11.1987 37.6903 10.3097C36.8013 9.42076 35.64 8.85541 34.392 8.704ZM7.48062 7.48062C8.99189 5.96935 10.9634 5.00438 13.084 4.738C16.104 4.34 19.882 4 24 4C28.116 4 31.896 4.338 34.916 4.738C37.0366 5.00438 39.0081 5.96935 40.5194 7.48062C42.0306 8.99189 42.9956 10.9634 43.262 13.084C43.66 16.104 44 19.882 44 24C44 28.116 43.662 31.896 43.262 34.916C42.9956 37.0366 42.0306 39.0081 40.5194 40.5194C39.0081 42.0306 37.0366 42.9956 34.916 43.262C31.896 43.66 28.118 44 24 44C19.884 44 16.104 43.662 13.084 43.262C10.9634 42.9956 8.99189 42.0306 7.48062 40.5194C5.96935 39.0081 5.00438 37.0366 4.738 34.916C4.34 31.896 4 28.118 4 24C4 19.884 4.338 16.104 4.738 13.084C5.00438 10.9634 5.96935 8.99189 7.48062 7.48062ZM25.4142 33.4142C25.0391 33.7893 24.5304 34 24 34C23.4696 34 22.9609 33.7893 22.5858 33.4142C22.2107 33.0391 22 32.5304 22 32V26H16C15.4696 26 14.9609 25.7893 14.5858 25.4142C14.2107 25.0391 14 24.5304 14 24C14 23.4696 14.2107 22.9609 14.5858 22.5858C14.9609 22.2107 15.4696 22 16 22H22V16C22 15.4696 22.2107 14.9609 22.5858 14.5858C22.9609 14.2107 23.4696 14 24 14C24.5304 14 25.0391 14.2107 25.4142 14.5858C25.7893 14.9609 26 15.4696 26 16V22H32C32.5304 22 33.0391 22.2107 33.4142 22.5858C33.7893 22.9609 34 23.4696 34 24C34 24.5304 33.7893 25.0391 33.4142 25.4142C33.0391 25.7893 32.5304 26 32 26H26V32C26 32.5304 25.7893 33.0391 25.4142 33.4142Z" fill="black"/>
</svg>
