<svg width="48" height="48" viewBox="0 0 48 48" fill="none" xmlns="http://www.w3.org/2000/svg">
<path fill-rule="evenodd" clip-rule="evenodd" d="M36.5019 4.95807C40.6219 3.24007 44.7579 7.37407 43.0419 11.4961L31.1939 39.9281C28.8759 45.4881 20.7279 44.5481 19.7359 38.6081L18.2599 29.7401L9.39189 28.2601C3.45189 27.2701 2.51189 19.1201 8.07189 16.8041L36.4999 4.96007L36.5019 4.95807ZM39.3479 9.95807C39.4242 9.77512 39.4445 9.57362 39.4061 9.37914C39.3677 9.18466 39.2723 9.00599 39.1321 8.86582C38.992 8.72564 38.8133 8.63029 38.6188 8.59188C38.4243 8.55346 38.2228 8.57372 38.0399 8.65007L9.60789 20.4961C7.75389 21.2681 8.06789 23.9861 10.0479 24.3161L18.9159 25.7941C19.7382 25.9311 20.4972 26.3217 21.0867 26.9112C21.6763 27.5007 22.0668 28.2597 22.2039 29.0821L23.6839 37.9501C24.0119 39.9301 26.7279 40.2441 27.5019 38.3901L39.3479 9.95807Z" fill="black"/>
</svg>
