<svg width="48" height="48" viewBox="0 0 48 48" fill="none" xmlns="http://www.w3.org/2000/svg">
<g clip-path="url(#clip0_82_125)">
<path fill-rule="evenodd" clip-rule="evenodd" d="M29.5909 4.41216C30.3608 4.02717 31.2908 4.17808 31.8995 4.7868L43.2132 16.1005C43.8219 16.7092 43.9728 17.6392 43.5878 18.4091C43.2029 19.1791 42.3684 19.6164 41.5162 19.4946L37.9587 18.9864L32.6076 29.0942C32.8755 30.2961 33.1268 31.9219 33.0582 33.6371C32.9738 35.7466 32.3919 38.2356 30.4853 40.1421C29.7042 40.9232 28.4379 40.9232 27.6569 40.1421L21.69 34.1753L8.88686 41.8571C8.09991 42.3293 7.09259 42.2053 6.44366 41.5563C5.79472 40.9074 5.67071 39.9001 6.14288 39.1131L13.8248 26.31L7.85787 20.3431C7.07682 19.5621 7.07682 18.2958 7.85787 17.5147C8.91271 16.4599 10.2659 15.8897 11.5271 15.5744C12.8003 15.2561 14.1253 15.1612 15.2825 15.1612C16.4487 15.1612 17.5072 15.258 18.2706 15.3534C18.4804 15.3796 18.6694 15.4059 18.834 15.4304L29.0136 10.0413L28.5054 6.48385C28.3836 5.63165 28.8209 4.79715 29.5909 4.41216Z" fill="black"/>
</g>
<defs>
<clipPath id="clip0_82_125">
<rect width="24" height="24" fill="white" transform="scale(2)"/>
</clipPath>
</defs>
</svg>
