<svg width="24" height="24" viewBox="0 0 24 24" fill="none" xmlns="http://www.w3.org/2000/svg">
<path fill-rule="evenodd" clip-rule="evenodd" d="M20.0318 13.6862C19.857 13.165 19.6661 12.6495 19.458 12.1409L18.89 10.791V10.6298C18.8911 6.00868 16.1251 2.9043 12.008 2.9043C7.88974 2.9043 5.12368 6.00869 5.12368 10.6287V10.7887L4.56704 12.1123C4.35444 12.6301 4.15899 13.1559 3.98182 13.6874C3.30059 15.771 3.2503 17.2878 3.83095 18.1931C4.14527 18.6834 4.6379 19.0092 5.1934 19.1006C5.1166 19.3881 5.09868 19.6882 5.14071 19.9828C5.18275 20.2774 5.28387 20.5605 5.438 20.8151C6.09752 21.8758 7.34681 21.9547 9.1779 21.9547C10.2352 21.9547 11.361 21.901 12.0068 21.8438C12.6526 21.901 13.7762 21.9547 14.8346 21.9547C16.6657 21.9547 17.915 21.8758 18.5745 20.8162C18.8705 20.3396 18.9803 19.7087 18.8191 19.1017C19.0975 19.0548 19.3629 18.9496 19.5979 18.793C19.8329 18.6364 20.0322 18.432 20.1827 18.1931C20.7622 17.2878 20.7119 15.771 20.0318 13.6862ZM18.5105 17.2192H18.4956C18.1264 17.2192 17.1195 15.6625 17.1195 15.6625C17.1195 16.5883 16.6188 17.9222 15.5376 18.7931C15.9422 18.912 16.4394 19.0949 16.7571 19.3189C17.044 19.5201 17.0086 19.7247 16.956 19.8093C16.8451 19.9887 15.8953 20.047 14.8358 20.047C13.7476 20.047 12.5429 19.9853 12.008 19.9281C11.0672 20.0092 10.1233 20.0489 9.17904 20.047C8.11948 20.047 7.17079 19.9887 7.05878 19.8093C7.00734 19.7258 6.97077 19.5201 7.25766 19.3189C7.57541 19.0949 8.07262 18.912 8.47724 18.7931C7.39596 17.921 6.89533 16.5871 6.89533 15.6613C6.89533 15.6613 5.88835 17.2192 5.51916 17.2192H5.5043C5.33742 17.1987 5.11911 16.3437 5.79462 14.276C5.93521 13.8417 6.12952 13.3365 6.32383 12.8507L7.0382 11.1545C7.0382 11.1339 7.02906 10.8001 7.02906 10.6287C7.02906 7.72776 8.46924 4.81082 12.008 4.81082C15.5456 4.81082 16.9846 7.72776 16.9846 10.6287C16.9846 10.8013 16.9766 11.135 16.9754 11.1545L17.691 12.8518C17.8853 13.3376 18.0796 13.8428 18.2202 14.2771C18.8945 16.3448 18.6774 17.1998 18.5105 17.2192Z" fill="black"/>
</svg>
