<svg width="48" height="48" viewBox="0 0 48 48" fill="none" xmlns="http://www.w3.org/2000/svg">
<path d="M32.3134 11.5841C32.1341 11.4403 31.9857 11.2618 31.8768 11.0594C31.7679 10.8571 31.7008 10.6348 31.6795 10.406C31.6583 10.1772 31.6832 9.94641 31.7529 9.72742C31.8226 9.50842 31.9356 9.30567 32.0852 9.13123C32.2348 8.95678 32.418 8.8142 32.6238 8.71195C32.8296 8.60971 33.0539 8.5499 33.2833 8.53607C33.5127 8.52224 33.7425 8.55467 33.9591 8.63144C34.1758 8.70822 34.3747 8.82776 34.5442 8.98297L40.5351 14.1167C40.7255 14.2782 40.8785 14.4792 40.9835 14.7057C41.0885 14.9323 41.143 15.179 41.1431 15.4287C41.1431 15.9018 40.9511 16.3315 40.6402 16.6401L34.6402 22.6401C34.4833 22.8085 34.294 22.9436 34.0837 23.0373C33.8734 23.131 33.6464 23.1814 33.4163 23.1855C33.1861 23.1895 32.9574 23.1472 32.744 23.061C32.5305 22.9747 32.3366 22.8464 32.1738 22.6836C32.0111 22.5208 31.8827 22.3269 31.7965 22.1135C31.7103 21.9 31.6679 21.6714 31.672 21.4412C31.6761 21.211 31.7264 20.984 31.8201 20.7737C31.9138 20.5635 32.0489 20.3742 32.2174 20.2173L35.2894 17.1407H19.7191C14.7408 17.1407 10.4848 21.2321 10.2928 26.2081C10.0871 31.4653 14.4574 35.9978 19.7191 35.9978H34.2882C34.7428 35.9979 35.1788 36.1785 35.5002 36.5C35.8216 36.8215 36.0022 37.2575 36.0022 37.7121C36.0022 38.1667 35.8216 38.6027 35.5002 38.9242C35.1788 39.2457 34.7428 39.4263 34.2882 39.4264H19.7191C12.5145 39.4264 6.58535 33.2778 6.8665 26.0733C7.13164 19.2573 12.9008 13.7144 19.7191 13.7144H34.7956L32.3134 11.5887V11.5841Z" fill="black"/>
</svg>
