<svg width="48" height="48" viewBox="0 0 48 48" fill="none" xmlns="http://www.w3.org/2000/svg">
<path d="M40.6958 5.79541C40.6958 4.69084 39.8004 3.79541 38.6958 3.79541C37.5913 3.79541 36.6958 4.69084 36.6958 5.79541V8H34.7017C33.5972 8 32.7017 8.89543 32.7017 10C32.7017 11.1046 33.5972 12 34.7017 12H36.6958V13.7954C36.6958 14.9 37.5913 15.7954 38.6958 15.7954C39.8004 15.7954 40.6958 14.9 40.6958 13.7954V12H42.7017C43.8063 12 44.7017 11.1046 44.7017 10C44.7017 8.89543 43.8063 8 42.7017 8H40.6958V5.79541Z" fill="black"/>
<path d="M8.70123 8C6.49211 8 4.70123 9.79081 4.70123 12V40C4.70123 42.2092 6.49211 44 8.70123 44H36.7012C38.9104 44 40.7012 42.2092 40.7012 40V21C40.7012 19.8954 39.8058 19 38.7012 19C37.5967 19 36.7012 19.8954 36.7012 21V40H8.70123V12H27.0648C28.1694 12 29.0648 11.1046 29.0648 10C29.0648 8.89543 28.1694 8 27.0648 8H8.70123Z" fill="black"/>
<path fill-rule="evenodd" clip-rule="evenodd" d="M26.8308 19.3398C26.4449 18.7979 25.8147 18.4833 25.1496 18.5007C24.4845 18.518 23.8716 18.865 23.5144 19.4262L21.353 22.8228L20.1159 21.5858C19.7055 21.1754 19.137 20.9635 18.5581 21.0052C17.9792 21.0468 17.4469 21.338 17.0995 21.803L11.0995 29.8338C10.6465 30.4401 10.5746 31.2502 10.9137 31.9269C11.2528 32.6035 11.9449 33.0308 12.7017 33.0308H32.7017C33.4504 33.0308 34.1364 32.6127 34.4794 31.9472C34.8225 31.2817 34.7651 30.4804 34.3308 29.8706L26.8308 19.3398ZM23.3891 27.0738L25.295 24.0786L28.822 29.0308H16.6925L18.9212 26.0479L20.2875 27.4142C20.7165 27.8432 21.317 28.0543 21.92 27.9881C22.523 27.9219 23.0634 27.5856 23.3891 27.0738Z" fill="black"/>
</svg>
