<svg width="48" height="48" viewBox="0 0 48 48" fill="none" xmlns="http://www.w3.org/2000/svg">
<path d="M6.87748 17.6393V10.0929C6.87744 9.84383 6.92646 9.59723 7.02172 9.36715C7.11699 9.13707 7.25665 8.92801 7.43273 8.75191C7.6088 8.57581 7.81783 8.43612 8.0479 8.34081C8.27796 8.2455 8.52455 8.19645 8.77358 8.19645C9.0226 8.19645 9.26919 8.2455 9.49925 8.34081C9.72932 8.43612 9.93835 8.57581 10.1144 8.75191C10.2905 8.92801 10.4302 9.13707 10.5254 9.36715C10.6207 9.59723 10.6697 9.84383 10.6697 10.0929V11.817C12.4041 10.0643 14.47 8.67409 16.7469 7.72747C19.0238 6.78084 21.4663 6.29669 23.9322 6.3032C27.4639 6.30236 30.9256 7.28789 33.9273 9.14875C36.9289 11.0096 39.3512 13.6718 40.9212 16.8354C41.0343 17.0585 41.1021 17.3019 41.1207 17.5514C41.1394 17.8009 41.1084 18.0516 41.0297 18.2891C40.951 18.5266 40.826 18.7462 40.6621 18.9351C40.4981 19.1241 40.2983 19.2788 40.0743 19.3902C39.8503 19.5016 39.6064 19.5676 39.3568 19.5843C39.1072 19.6011 38.8567 19.5683 38.6198 19.4878C38.3829 19.4073 38.1643 19.2807 37.9766 19.1153C37.7888 18.9499 37.6357 18.749 37.5259 18.5241C36.2702 15.9924 34.3321 13.8617 31.9303 12.3724C29.5284 10.8832 26.7583 10.0945 23.9322 10.0954C19.1541 10.0954 14.9599 12.3075 12.2068 15.7862H15.2001C15.7029 15.7862 16.1852 15.986 16.5408 16.3415C16.8964 16.6971 17.0962 17.1794 17.0962 17.6823C17.0962 18.1852 16.8964 18.6674 16.5408 19.023C16.1852 19.3786 15.7029 19.5784 15.2001 19.5784H8.77358C8.52092 19.5784 8.2708 19.528 8.03791 19.43C7.80501 19.3321 7.59405 19.1886 7.41741 19.0079C7.24077 18.8273 7.10201 18.6131 7.00929 18.3781C6.91657 18.1431 6.87176 17.8919 6.87748 17.6393Z" fill="black"/>
<path d="M10.4699 29.476C10.3602 29.2511 10.2071 29.0502 10.0193 28.8848C9.83157 28.7195 9.61296 28.5929 9.37607 28.5124C9.13917 28.4319 8.88869 28.399 8.63906 28.4158C8.38942 28.4325 8.14557 28.4985 7.92155 28.6099C7.69753 28.7214 7.49778 28.876 7.33381 29.065C7.16984 29.254 7.0449 29.4735 6.96618 29.711C6.88745 29.9485 6.85651 30.1992 6.87513 30.4487C6.89375 30.6982 6.96157 30.9416 7.07468 31.1648C8.64463 34.3283 11.0669 36.9905 14.0686 38.8514C17.0703 40.7122 20.532 41.6978 24.0637 41.6969C29.2918 41.6969 33.9486 39.5834 37.3338 36.178V37.9047C37.3339 38.4076 37.5337 38.8898 37.8892 39.2453C38.2448 39.6008 38.7271 39.8005 39.2299 39.8005C39.7327 39.8005 40.2149 39.6008 40.5705 39.2453C40.9261 38.8898 41.1259 38.4076 41.126 37.9047V30.3204C41.126 30.0677 41.0756 29.8176 40.9776 29.5847C40.8797 29.3518 40.7362 29.1408 40.5555 28.9642C40.3749 28.7876 40.1607 28.6488 39.9257 28.5561C39.6907 28.4634 39.4395 28.4185 39.1869 28.4243H32.7908C32.2879 28.4244 31.8057 28.6242 31.4502 28.9797C31.0947 29.3353 30.895 29.8175 30.895 30.3204C30.895 30.8232 31.0947 31.3054 31.4502 31.661C31.8057 32.0166 32.2879 32.2164 32.7908 32.2165H35.7891C34.3954 33.9933 32.6151 35.4291 30.5833 36.4148C28.5516 37.4005 26.3219 37.91 24.0637 37.9047C21.2376 37.9056 18.4674 37.1169 16.0656 35.6277C13.6637 34.1384 11.7257 32.0078 10.4699 29.476Z" fill="black"/>
</svg>
