<svg width="48" height="48" viewBox="0 0 48 48" fill="none" xmlns="http://www.w3.org/2000/svg">
<path d="M29.893 13.0512C29.893 12.0332 29.0678 11.208 28.0498 11.208C27.0319 11.208 26.2066 12.0332 26.2066 13.0512V14.7101C26.2066 15.7281 27.0319 16.5533 28.0498 16.5533C29.0678 16.5533 29.893 15.7281 29.893 14.7101V13.0512Z" fill="black"/>
<path fill-rule="evenodd" clip-rule="evenodd" d="M11.8297 7.54365C10.8117 7.54365 9.98649 8.36888 9.98649 9.38685V38.8781C9.98649 39.896 10.8117 40.7213 11.8297 40.7213H37.6345C38.6525 40.7213 39.4777 39.896 39.4777 38.8781V15.9311C39.4777 14.9131 40.3029 14.0879 41.3209 14.0879C42.3389 14.0879 43.1641 14.9131 43.1641 15.9311V38.8781C43.1641 41.932 40.6884 44.4076 37.6345 44.4076H11.8297C8.77577 44.4076 6.30009 41.932 6.30009 38.8781V9.38685C6.30009 6.33294 8.77577 3.85725 11.8297 3.85725H34.8725V7.54365H34.8697V18.7872C34.8697 20.8231 33.2192 22.4736 31.1833 22.4736H18.2809C16.2449 22.4736 14.5945 20.8231 14.5945 18.7872V7.54365H11.8297ZM18.2809 7.54365H31.1833V18.7872H18.2809V7.54365Z" fill="black"/>
<path d="M43.232 2.14911C43.232 1.13114 42.4068 0.305908 41.3888 0.305908C40.3708 0.305908 39.5456 1.13114 39.5456 2.14911V4.18086H37.7079C36.6899 4.18086 35.8647 5.00609 35.8647 6.02406C35.8647 7.04203 36.6899 7.86726 37.7079 7.86726H39.5456V9.5219C39.5456 10.5399 40.3708 11.3651 41.3888 11.3651C42.4068 11.3651 43.232 10.5399 43.232 9.5219V7.86726H45.0807C46.0986 7.86726 46.9239 7.04203 46.9239 6.02406C46.9239 5.00609 46.0986 4.18086 45.0807 4.18086H43.232V2.14911Z" fill="black"/>
</svg>
