<svg width="48" height="48" viewBox="0 0 48 48" fill="none" xmlns="http://www.w3.org/2000/svg">
<path d="M29.161 12.9187C29.161 11.9008 28.3357 11.0755 27.3178 11.0755C26.2998 11.0755 25.4746 11.9008 25.4746 12.9187V14.5776C25.4746 15.5956 26.2998 16.4208 27.3178 16.4208C28.3357 16.4208 29.161 15.5956 29.161 14.5776V12.9187Z" fill="black"/>
<path fill-rule="evenodd" clip-rule="evenodd" d="M5.568 9.25439C5.568 6.20048 8.04368 3.72479 11.0976 3.72479H36.9024C39.9563 3.72479 42.432 6.20048 42.432 9.25439V38.7456C42.432 41.7995 39.9563 44.2752 36.9024 44.2752H11.0976C8.04368 44.2752 5.568 41.7995 5.568 38.7456V9.25439ZM11.0976 7.41119C10.0796 7.41119 9.2544 8.23642 9.2544 9.25439V38.7456C9.2544 39.7636 10.0796 40.5888 11.0976 40.5888H36.9024C37.9204 40.5888 38.7456 39.7636 38.7456 38.7456V9.25439C38.7456 8.23642 37.9204 7.41119 36.9024 7.41119H34.1376V18.6547C34.1376 20.6907 32.4871 22.3411 30.4512 22.3411H17.5488C15.5129 22.3411 13.8624 20.6907 13.8624 18.6547V7.41119H11.0976ZM17.5488 7.41119H30.4512V18.6547H17.5488V7.41119Z" fill="black"/>
</svg>
