<svg width="48" height="48" viewBox="0 0 48 48" fill="none" xmlns="http://www.w3.org/2000/svg">
<path d="M42 2C39.7908 2 38 3.79088 38 6C38 8.20912 39.7908 10 42 10C44.2092 10 46 8.20912 46 6C46 3.79088 44.2092 2 42 2Z" fill="black"/>
<path fill-rule="evenodd" clip-rule="evenodd" d="M8 18C4.68628 18 2 20.6863 2 24C2 27.3137 4.68628 30 8 30C10.6124 30 12.8349 28.3304 13.6586 26H18V42C18 43.1046 18.8954 44 20 44H32C33.1046 44 34 43.1046 34 42C34 40.8954 33.1046 40 32 40H22V26H32C33.1046 26 34 25.1046 34 24C34 22.8954 33.1046 22 32 22H22V8H32C33.1046 8 34 7.10457 34 6C34 4.89543 33.1046 4 32 4H20C18.8954 4 18 4.89543 18 6V22H13.6586C12.8349 19.6696 10.6124 18 8 18ZM10 24C10 22.8955 9.10453 22 8 22C6.89544 22 6 22.8955 6 24C6 25.1045 6.89544 26 8 26C9.10453 26 10 25.1045 10 24Z" fill="black"/>
<path d="M38 24C38 21.7908 39.7908 20 42 20C44.2092 20 46 21.7908 46 24C46 26.2092 44.2092 28 42 28C39.7908 28 38 26.2092 38 24Z" fill="black"/>
<path d="M42 38C39.7908 38 38 39.7908 38 42C38 44.2092 39.7908 46 42 46C44.2092 46 46 44.2092 46 42C46 39.7908 44.2092 38 42 38Z" fill="black"/>
</svg>
