<svg width="48" height="48" viewBox="0 0 48 48" fill="none" xmlns="http://www.w3.org/2000/svg">
<path fill-rule="evenodd" clip-rule="evenodd" d="M29.812 32.64C26.5969 35.1357 22.5516 36.3123 18.4995 35.9304C14.4474 35.5484 10.6932 33.6366 8.00108 30.5841C5.30898 27.5316 3.88135 23.5679 4.00883 19.4998C4.13632 15.4318 5.80932 11.5652 8.68728 8.68728C11.5652 5.80932 15.4318 4.13632 19.4998 4.00883C23.5679 3.88135 27.5316 5.30898 30.5841 8.00108C33.6366 10.6932 35.5484 14.4474 35.9304 18.4995C36.3123 22.5516 35.1357 26.5969 32.64 29.812L43.414 40.586C43.7783 40.9632 43.9799 41.4684 43.9753 41.9928C43.9708 42.5172 43.7604 43.0188 43.3896 43.3896C43.0188 43.7604 42.5172 43.9708 41.9928 43.9753C41.4684 43.9799 40.9632 43.7783 40.586 43.414L29.812 32.64ZM32 20C32 16.8174 30.7357 13.7651 28.4853 11.5147C26.2348 9.26427 23.1826 7.99998 20 7.99998C16.8174 7.99998 13.7651 9.26427 11.5147 11.5147C9.26427 13.7651 7.99998 16.8174 7.99998 20C7.99998 23.1826 9.26427 26.2348 11.5147 28.4853C13.7651 30.7357 16.8174 32 20 32C23.1826 32 26.2348 30.7357 28.4853 28.4853C30.7357 26.2348 32 23.1826 32 20Z" fill="black"/>
</svg>
