<svg width="48" height="48" viewBox="0 0 48 48" fill="none" xmlns="http://www.w3.org/2000/svg">
<path d="M6.6313 4.19195C6.06768 3.91014 5.39834 3.94026 4.86231 4.27155C4.32628 4.60283 4 5.18804 4 5.81818V42.1818C4 42.812 4.32628 43.3972 4.86231 43.7285C5.39834 44.0597 6.06768 44.0899 6.6313 43.808L24 35.1237L41.3687 43.808C41.9323 44.0899 42.6017 44.0597 43.1377 43.7285C43.6737 43.3972 44 42.812 44 42.1818V5.81818C44 5.18804 43.6737 4.60283 43.1377 4.27155C42.6017 3.94026 41.9323 3.91014 41.3687 4.19195L24 12.8763L6.6313 4.19195ZM19.9344 14.9091L7.63636 21.0581V8.76006L19.9344 14.9091ZM7.63636 26.9419L19.9344 33.0909L7.63636 39.2399V26.9419ZM24 31.0581L9.88376 24L24 16.9419L38.1162 24L24 31.0581ZM28.0656 33.0909L40.3636 26.9419V39.2399L28.0656 33.0909ZM40.3636 21.0581L28.0656 14.9091L40.3636 8.76006V21.0581Z" fill="black"/>
</svg>
