<svg width="48" height="48" viewBox="0 0 48 48" fill="none" xmlns="http://www.w3.org/2000/svg">
<path fill-rule="evenodd" clip-rule="evenodd" d="M23.748 12C22.8599 8.54955 19.7277 6 16 6C12.2723 6 9.14012 8.54955 8.25204 12H4C2.89543 12 2 12.8954 2 14C2 15.1046 2.89543 16 4 16H8.25204C9.14012 19.4505 12.2723 22 16 22C19.7277 22 22.8599 19.4505 23.748 16H44C45.1046 16 46 15.1046 46 14C46 12.8954 45.1046 12 44 12H23.748ZM20 14C20 16.2091 18.2091 18 16 18C13.7909 18 12 16.2091 12 14C12 11.7909 13.7909 10 16 10C18.2091 10 20 11.7909 20 14Z" fill="black"/>
<path fill-rule="evenodd" clip-rule="evenodd" d="M39.748 32C38.8599 28.5495 35.7277 26 32 26C28.2723 26 25.1401 28.5495 24.252 32H4C2.89543 32 2 32.8954 2 34C2 35.1046 2.89543 36 4 36H24.252C25.1401 39.4505 28.2723 42 32 42C35.7277 42 38.8599 39.4505 39.748 36H44C45.1046 36 46 35.1046 46 34C46 32.8954 45.1046 32 44 32H39.748ZM36 34C36 36.2091 34.2091 38 32 38C29.7909 38 28 36.2091 28 34C28 31.7909 29.7909 30 32 30C34.2091 30 36 31.7909 36 34Z" fill="black"/>
</svg>
