<svg width="48" height="48" viewBox="0 0 48 48" fill="none" xmlns="http://www.w3.org/2000/svg">
<path fill-rule="evenodd" clip-rule="evenodd" d="M17.08 23.9999C17.08 22.1641 17.8093 20.4035 19.1074 19.1053C20.4055 17.8072 22.1662 17.0779 24.002 17.0779C25.8378 17.0779 27.5985 17.8072 28.8966 19.1053C30.1947 20.4035 30.924 22.1641 30.924 23.9999C30.924 25.836 30.1946 27.5969 28.8963 28.8952C27.598 30.1935 25.8371 30.9229 24.001 30.9229C22.1649 30.9229 20.404 30.1935 19.1057 28.8952C17.8074 27.5969 17.08 25.836 17.08 23.9999ZM24 21.0799C23.225 21.0799 22.4818 21.3878 21.9338 21.9358C21.3859 22.4837 21.078 23.227 21.078 24.0019C21.078 24.7769 21.3859 25.5201 21.9338 26.0681C22.4818 26.6161 23.225 26.9239 24 26.9239C24.7752 26.9239 25.5187 26.616 26.0669 26.0678C26.6151 25.5196 26.923 24.7762 26.923 24.0009C26.923 23.2257 26.6151 22.4822 26.0669 21.9341C25.5187 21.3859 24.7752 21.0799 24 21.0799Z" fill="black"/>
<path fill-rule="evenodd" clip-rule="evenodd" d="M44.576 20.9999C45.1026 21.912 45.3799 22.9467 45.3799 23.9999C45.3799 25.0532 45.1026 26.0878 44.576 26.9999L36.886 40.3199C36.3594 41.232 35.602 41.9894 34.6899 42.516C33.7778 43.0427 32.7432 43.3199 31.69 43.3199H16.31C15.2565 43.3203 14.2214 43.0432 13.309 42.5165C12.3965 41.9899 11.6388 41.2323 11.112 40.3199L3.42201 26.9999C2.8954 26.0878 2.61816 25.0532 2.61816 23.9999C2.61816 22.9467 2.8954 21.912 3.42201 20.9999L11.112 7.67993C11.6388 6.76755 12.3965 6.00994 13.309 5.48332C14.2214 4.95669 15.2565 4.67961 16.31 4.67993H31.69C32.7432 4.67996 33.7778 4.95721 34.6899 5.48382C35.602 6.01043 36.3594 6.76784 36.886 7.67993L44.576 20.9999ZM41.112 24.9999C41.2875 24.6959 41.38 24.351 41.38 23.9999C41.38 23.6489 41.2875 23.304 41.112 22.9999L33.422 9.67993C33.2465 9.3759 32.994 9.12343 32.69 8.94789C32.386 8.77236 32.0411 8.67994 31.69 8.67993H16.31C15.9589 8.67994 15.6141 8.77236 15.31 8.94789C15.006 9.12343 14.7535 9.3759 14.578 9.67993L6.88601 22.9999C6.71047 23.304 6.61806 23.6489 6.61806 23.9999C6.61806 24.351 6.71047 24.6959 6.88601 24.9999L14.578 38.3199C14.7535 38.624 15.006 38.8764 15.31 39.052C15.6141 39.2275 15.9589 39.3199 16.31 39.3199H31.69C32.0411 39.3199 32.386 39.2275 32.69 39.052C32.994 38.8764 33.2465 38.624 33.422 38.3199L41.112 24.9999Z" fill="black"/>
</svg>
