<svg width="48" height="48" viewBox="0 0 48 48" fill="none" xmlns="http://www.w3.org/2000/svg">
<path d="M17.998 20.0801C18.012 20.3425 17.9742 20.6051 17.8867 20.8528C17.7992 21.1006 17.6637 21.3287 17.488 21.5241C17.3123 21.7195 17.0998 21.8784 16.8627 21.9916C16.6255 22.1049 16.3684 22.1702 16.106 22.1841C14.602 22.2641 13.408 22.3621 12.478 22.4601C11.226 22.5921 10.466 23.3601 10.338 24.4661C10.16 26.0541 10 28.4561 10 32.0001C10 35.5441 10.158 37.9461 10.34 39.5341C10.466 40.6421 11.224 41.4081 12.474 41.5401C14.66 41.7701 18.278 42.0001 24 42.0001C29.72 42.0001 33.34 41.7701 35.526 41.5401C36.776 41.4081 37.534 40.6401 37.66 39.5341C37.842 37.9461 38 35.5441 38 32.0001C38 28.4561 37.842 26.0541 37.66 24.4661C37.534 23.3601 36.774 22.5921 35.524 22.4601C34.3166 22.337 33.1062 22.2449 31.894 22.1841C31.3695 22.149 30.8799 21.9088 30.5311 21.5155C30.1823 21.1222 30.0024 20.6074 30.0303 20.0825C30.0581 19.5576 30.2915 19.0647 30.68 18.7106C31.0685 18.3564 31.5807 18.1694 32.106 18.1901C33.672 18.2721 34.934 18.3761 35.942 18.4821C38.912 18.7961 41.28 20.9021 41.634 24.0121C41.838 25.7841 42 28.3421 42 32.0001C42 35.6561 41.838 38.2161 41.634 39.9881C41.28 43.0961 38.918 45.2041 35.946 45.5181C33.584 45.7661 29.822 46.0001 24 46.0001C18.18 46.0001 14.416 45.7661 12.054 45.5181C9.084 45.2041 6.72 43.0981 6.366 39.9881C6.16 38.2161 6 35.6561 6 32.0001C6 28.3421 6.162 25.7841 6.366 24.0121C6.72 20.9021 9.088 18.7961 12.058 18.4821C13.3339 18.3518 14.613 18.2545 15.894 18.1901C16.4236 18.1617 16.9428 18.3449 17.3374 18.6993C17.732 19.0538 17.9696 19.5504 17.998 20.0801Z" fill="black"/>
<path d="M18.414 12.4141C18.0368 12.7784 17.5316 12.98 17.0072 12.9754C16.4828 12.9709 15.9812 12.7605 15.6104 12.3897C15.2395 12.0189 15.0292 11.5173 15.0247 10.9929C15.0201 10.4685 15.2217 9.96326 15.586 9.58606L22.586 2.58606C22.9611 2.21112 23.4697 2.00049 24 2.00049C24.5303 2.00049 25.0389 2.21112 25.414 2.58606L32.414 9.58606C32.7783 9.96326 32.9799 10.4685 32.9753 10.9929C32.9708 11.5173 32.7605 12.0189 32.3896 12.3897C32.0188 12.7605 31.5172 12.9709 30.9928 12.9754C30.4684 12.98 29.9632 12.7784 29.586 12.4141L26 8.82806V28.0001C26 28.5305 25.7893 29.0392 25.4142 29.4143C25.0391 29.7893 24.5304 30.0001 24 30.0001C23.4696 30.0001 22.9609 29.7893 22.5858 29.4143C22.2107 29.0392 22 28.5305 22 28.0001V8.82806L18.414 12.4141Z" fill="black"/>
</svg>
