<svg width="48" height="48" viewBox="0 0 48 48" fill="none" xmlns="http://www.w3.org/2000/svg">
<path fill-rule="evenodd" clip-rule="evenodd" d="M11.1064 6.16567C11.4557 5.69731 12.0056 5.42139 12.5898 5.42139H35.4102C35.9944 5.42139 36.5443 5.69731 36.8936 6.16567L42.1282 13.1862C42.2287 13.3187 42.3117 13.4652 42.3738 13.6221C42.4632 13.8478 42.5057 14.0856 42.5031 14.3218V40.5773C42.5031 42.6211 40.8463 44.2779 38.8025 44.2779H9.19754C7.15377 44.2779 5.49693 42.6212 5.49693 40.5773V14.3222C5.49423 14.0811 5.53846 13.8382 5.63176 13.6083C5.69323 13.4566 5.77421 13.315 5.8716 13.1865L11.1064 6.16567ZM34.4818 9.122L36.9652 12.4526H11.0348L13.5182 9.122H34.4818ZM9.19754 16.1533V40.5773H38.8025V16.1533H9.19754ZM18.8601 20.4091C18.8601 19.3872 18.0317 18.5587 17.0098 18.5587C15.9879 18.5587 15.1595 19.3872 15.1595 20.4091C15.1595 25.304 19.1073 29.2905 23.9999 29.2905C28.8925 29.2905 32.8402 25.3039 32.8402 20.4091C32.8402 19.3872 32.0118 18.5587 30.9899 18.5587C29.968 18.5587 29.1396 19.3872 29.1396 20.4091C29.1396 23.2807 26.8283 25.5899 23.9999 25.5899C21.1715 25.5899 18.8601 23.2806 18.8601 20.4091Z" fill="black"/>
</svg>
