<svg width="48" height="48" viewBox="0 0 48 48" fill="none" xmlns="http://www.w3.org/2000/svg">
<path d="M44.5854 5.57471H31.5854C30.757 5.57471 30.0854 6.24628 30.0854 7.07471C30.0854 7.90313 30.757 8.57471 31.5854 8.57471L44.5854 8.57471C45.4139 8.57471 46.0854 7.90313 46.0854 7.07471C46.0854 6.24628 45.4139 5.57471 44.5854 5.57471Z" fill="black"/>
<path d="M4.43408 6.12085C3.32951 6.12085 2.43408 7.01628 2.43408 8.12085V41.4809C2.43408 42.5854 3.32951 43.4809 4.43408 43.4809H11.0941C12.1213 43.4809 12.9541 42.6481 12.9541 41.6208C12.9541 40.5936 12.1213 39.7609 11.0941 39.7609H6.59408V9.84085H11.0941C12.1213 9.84085 12.9541 9.0081 12.9541 7.98085C12.9541 6.9536 12.1213 6.12085 11.0941 6.12085H4.43408Z" fill="black"/>
<path d="M19.6144 6.12085C18.5871 6.12085 17.7544 6.9536 17.7544 7.98085C17.7544 9.0081 18.5871 9.84085 19.6144 9.84085H24.1144V39.7609H19.6144C18.5871 39.7609 17.7544 40.5936 17.7544 41.6208C17.7544 42.6481 18.5871 43.4809 19.6144 43.4809H26.2744C27.379 43.4809 28.2744 42.5854 28.2744 41.4809V8.12085C28.2744 7.01628 27.379 6.12085 26.2744 6.12085H19.6144Z" fill="black"/>
</svg>
