<svg width="48" height="48" viewBox="0 0 48 48" fill="none" xmlns="http://www.w3.org/2000/svg">
<g clip-path="url(#clip0_5_36)">
<path d="M37.0444 15.7686V10.7686H32.0444C31.216 10.7686 30.5444 10.097 30.5444 9.26855C30.5444 8.44013 31.216 7.76855 32.0444 7.76855H37.0444V2.76855C37.0444 1.94013 37.716 1.26855 38.5444 1.26855C39.3729 1.26855 40.0444 1.94013 40.0444 2.76855V7.76855H45.0444C45.8729 7.76855 46.5444 8.44013 46.5444 9.26855C46.5444 10.097 45.8729 10.7686 45.0444 10.7686H40.0444V15.7686C40.0444 16.597 39.3729 17.2686 38.5444 17.2686C37.716 17.2686 37.0444 16.597 37.0444 15.7686Z" fill="black"/>
<path d="M4.43408 6.12085C3.32951 6.12085 2.43408 7.01628 2.43408 8.12085V41.4809C2.43408 42.5854 3.32951 43.4809 4.43408 43.4809H11.0941C12.1213 43.4809 12.9541 42.6481 12.9541 41.6208C12.9541 40.5936 12.1213 39.7609 11.0941 39.7609H6.59408V9.84085H11.0941C12.1213 9.84085 12.9541 9.0081 12.9541 7.98085C12.9541 6.9536 12.1213 6.12085 11.0941 6.12085H4.43408Z" fill="black"/>
<path d="M19.6144 6.12085C18.5871 6.12085 17.7544 6.9536 17.7544 7.98085C17.7544 9.0081 18.5871 9.84085 19.6144 9.84085H24.1144V39.7609H19.6144C18.5871 39.7609 17.7544 40.5936 17.7544 41.6208C17.7544 42.6481 18.5871 43.4809 19.6144 43.4809H26.2744C27.379 43.4809 28.2744 42.5854 28.2744 41.4809V8.12085C28.2744 7.01628 27.379 6.12085 26.2744 6.12085H19.6144Z" fill="black"/>
</g>
<defs>
<clipPath id="clip0_5_36">
<rect width="24" height="24" fill="white" transform="scale(2)"/>
</clipPath>
</defs>
</svg>
