<svg width="48" height="48" viewBox="0 0 48 48" fill="none" xmlns="http://www.w3.org/2000/svg">
<path fill-rule="evenodd" clip-rule="evenodd" d="M32.034 14.8619L28.984 7.55189C27.134 3.12789 20.864 3.12789 19.016 7.55189L15.964 14.8619L8.04803 15.4939C3.25403 15.8779 1.31403 21.8639 4.97203 24.9859L10.99 30.1199L9.15003 37.7999C8.03203 42.4679 13.106 46.1659 17.21 43.6699L24 39.5379L30.792 43.6699C34.892 46.1659 39.968 42.4679 38.85 37.7979L37.01 30.1179L43.028 24.9859C46.686 21.8639 44.748 15.8779 39.952 15.4939L32.034 14.8619ZM19.044 17.8679L22.708 9.09389C22.8144 8.83894 22.9939 8.62117 23.2238 8.46799C23.4537 8.31482 23.7238 8.23309 24 8.23309C24.2763 8.23309 24.5464 8.31482 24.7763 8.46799C25.0062 8.62117 25.1856 8.83894 25.292 9.09389L28.954 17.8679C29.0531 18.1052 29.2157 18.3106 29.4238 18.4616C29.632 18.6126 29.8777 18.7033 30.134 18.7239L39.634 19.4819C39.9099 19.5039 40.1731 19.6072 40.3903 19.7787C40.6074 19.9502 40.7689 20.1822 40.8543 20.4455C40.9397 20.7087 40.9452 20.9914 40.87 21.2577C40.7949 21.524 40.6424 21.7621 40.432 21.9419L33.2 28.1099C33.0036 28.2776 32.8574 28.4964 32.7777 28.7421C32.6979 28.9878 32.6876 29.2507 32.748 29.5019L34.958 38.7299C35.0225 38.9988 35.0059 39.2809 34.9103 39.5404C34.8147 39.7999 34.6444 40.0253 34.4208 40.1881C34.1972 40.351 33.9304 40.4439 33.6541 40.4553C33.3777 40.4666 33.1042 40.3958 32.868 40.2519L24.726 35.2979C24.5067 35.1644 24.2548 35.0937 23.998 35.0937C23.7412 35.0937 23.4894 35.1644 23.27 35.2979L15.128 40.2519C14.892 40.3956 14.6188 40.4662 14.3427 40.4549C14.0666 40.4436 13.8 40.3508 13.5765 40.1883C13.3531 40.0258 13.1827 39.8008 13.0869 39.5416C12.991 39.2824 12.974 39.0007 13.038 38.7319L15.248 29.5019C15.3084 29.2507 15.2982 28.9878 15.2184 28.7421C15.1386 28.4964 14.9925 28.2776 14.796 28.1099L7.56603 21.9419C7.35562 21.7621 7.2032 21.524 7.12804 21.2577C7.05287 20.9914 7.05833 20.7087 7.14373 20.4455C7.22912 20.1822 7.39062 19.9502 7.60781 19.7787C7.82501 19.6072 8.08816 19.5039 8.36403 19.4819L17.864 18.7219C18.1201 18.7015 18.3657 18.6111 18.5738 18.4604C18.782 18.3098 18.9446 18.1048 19.044 17.8679Z" fill="black"/>
</svg>
