<svg width="48" height="48" viewBox="0 0 48 48" fill="none" xmlns="http://www.w3.org/2000/svg">
<path d="M31.7778 35.7523C31.4898 36.0547 31.3315 36.4577 31.3365 36.8752C31.3416 37.2927 31.5098 37.6917 31.805 37.9869C32.1003 38.2821 32.4992 38.4503 32.9167 38.4554C33.3343 38.4604 33.7372 38.3021 34.0396 38.0141L38.8366 33.2171C39.4602 32.5935 39.4602 31.5789 38.8366 30.9553L34.0396 26.1582C33.8924 26.0037 33.7158 25.8802 33.5202 25.795C33.3246 25.7097 33.1139 25.6645 32.9006 25.6619C32.6872 25.6593 32.4755 25.6994 32.2779 25.7798C32.0803 25.8603 31.9007 25.9794 31.7498 26.1303C31.599 26.2812 31.4798 26.4607 31.3993 26.6584C31.3189 26.856 31.2788 27.0677 31.2814 27.2811C31.284 27.4944 31.3292 27.7051 31.4145 27.9007C31.4997 28.0963 31.6232 28.2729 31.7778 28.42L33.8453 30.4876H11.5294C11.1161 30.5036 10.7251 30.679 10.4384 30.9771C10.1517 31.2751 9.99151 31.6726 9.99151 32.0862C9.99151 32.4998 10.1517 32.8973 10.4384 33.1953C10.7251 33.4934 11.1161 33.6688 11.5294 33.6848H33.8453L31.7778 35.7523Z" fill="black"/>
<path d="M14.1894 21.896C14.3365 22.0506 14.5131 22.1741 14.7087 22.2593C14.9043 22.3446 15.115 22.3898 15.3283 22.3924C15.5417 22.395 15.7534 22.3549 15.9511 22.2745C16.1487 22.194 16.3282 22.0748 16.4791 21.924C16.63 21.7731 16.7491 21.5936 16.8296 21.3959C16.91 21.1983 16.9502 20.9866 16.9476 20.7732C16.9449 20.5599 16.8997 20.3492 16.8144 20.1536C16.7292 19.958 16.6057 19.7814 16.4512 19.6342L14.3836 17.5667H36.5412C36.9545 17.5507 37.3455 17.3753 37.6322 17.0772C37.919 16.7792 38.0791 16.3817 38.0791 15.9681C38.0791 15.5545 37.919 15.157 37.6322 14.859C37.3455 14.5609 36.9545 14.3855 36.5412 14.3695H14.3836L16.4512 12.3019C16.6057 12.1548 16.7292 11.9782 16.8144 11.7826C16.8997 11.587 16.9449 11.3763 16.9476 11.163C16.9502 10.9496 16.91 10.7379 16.8296 10.5403C16.7491 10.3426 16.63 10.1631 16.4791 10.0122C16.3282 9.86133 16.1487 9.74216 15.9511 9.66171C15.7534 9.58126 15.5417 9.54116 15.3283 9.54376C15.115 9.54636 14.9043 9.59161 14.7087 9.67686C14.5131 9.76211 14.3365 9.88562 14.1894 10.0401L9.39231 14.8372C9.09249 15.1372 8.92407 15.544 8.92407 15.9681C8.92407 16.3922 9.09249 16.799 9.39231 17.099L14.1894 21.896Z" fill="black"/>
</svg>
