<svg width="48" height="48" viewBox="0 0 48 48" fill="none" xmlns="http://www.w3.org/2000/svg">
<path d="M8 3C5.79086 3 4 4.79086 4 7V40C4 42.2092 5.79088 44 8 44H20.1429C21.2475 44 22.1429 43.1046 22.1429 42C22.1429 40.8954 21.2475 40 20.1429 40H8V7H40V16.7167C40 17.8213 40.8954 18.7167 42 18.7167C43.1046 18.7167 44 17.8213 44 16.7167V7C44 4.79088 42.2092 3 40 3H8Z" fill="black"/>
<path d="M15 14C15 12.8954 15.8954 12 17 12H29C30.1046 12 31 12.8954 31 14C31 15.1046 30.1046 16 29 16H25V28C25 29.1046 24.1046 30 23 30C21.8954 30 21 29.1046 21 28V16H17C15.8954 16 15 15.1046 15 14Z" fill="black"/>
<path d="M37.2179 21.52C37.7548 21.4435 38.2998 21.5883 38.7279 21.9213L43.2279 25.4213C44.0824 26.0859 44.253 27.3098 43.6128 28.1827L32.6128 43.1827C32.2361 43.6965 31.6371 44 31 44H27C25.8954 44 25 43.1046 25 42V38C25 37.5787 25.133 37.1682 25.3801 36.827L35.8801 22.327C36.1982 21.8877 36.681 21.5965 37.2179 21.52ZM37.9059 26.3494L29 38.6481V40H29.9865L39.2375 27.3851L37.9059 26.3494Z" fill="black"/>
</svg>
