<svg width="48" height="48" viewBox="0 0 48 48" fill="none" xmlns="http://www.w3.org/2000/svg">
<path fill-rule="evenodd" clip-rule="evenodd" d="M22.5 2.5C24.6217 2.5 26.6566 3.34285 28.1569 4.84315C29.6571 6.34344 30.5 8.37827 30.5 10.5V13H40.1C40.8092 12.9996 41.5103 13.1501 42.1569 13.4415C42.8034 13.7329 43.3806 14.1584 43.8501 14.6899C44.3195 15.2215 44.6706 15.8468 44.8799 16.5244C45.0892 17.2019 45.1519 17.9163 45.064 18.62L42.814 36.62C42.6629 37.8294 42.0752 38.942 41.1614 39.7485C40.2477 40.5551 39.0708 41.0001 37.852 41H6C5.07174 41 4.1815 40.6312 3.52513 39.9749C2.86875 39.3185 2.5 38.4283 2.5 37.5V21C2.5 20.0717 2.86875 19.1815 3.52513 18.5251C4.1815 17.8687 5.07174 17.5 6 17.5H13.764L20.712 3.606C20.878 3.27384 21.1332 2.99444 21.4489 2.7991C21.7647 2.60377 22.1287 2.5002 22.5 2.5ZM17 37H37.852C38.0957 36.9999 38.331 36.9109 38.5136 36.7496C38.6963 36.5883 38.8138 36.3658 38.844 36.124L41.094 18.124C41.1116 17.9833 41.099 17.8405 41.0572 17.7051C41.0154 17.5696 40.9453 17.4446 40.8515 17.3383C40.7577 17.232 40.6423 17.1469 40.5131 17.0885C40.3839 17.0302 40.2438 17 40.102 17H28.5C28.2374 17 27.9773 16.9483 27.7346 16.8478C27.492 16.7472 27.2715 16.5999 27.0858 16.4142C26.9001 16.2285 26.7528 16.008 26.6522 15.7654C26.5517 15.5227 26.5 15.2626 26.5 15V10.5C26.4999 9.64032 26.2228 8.80354 25.7098 8.11368C25.1968 7.42382 24.4753 6.91759 23.652 6.67L17 19.972V37ZM13 21.5H6.5V37H13V21.5Z" fill="black"/>
</svg>
