<svg width="48" height="48" viewBox="0 0 48 48" fill="none" xmlns="http://www.w3.org/2000/svg">
<path fill-rule="evenodd" clip-rule="evenodd" d="M43.476 15.02C43.8985 15.4986 44.2143 16.0616 44.4026 16.6715C44.5908 17.2815 44.6472 17.9246 44.568 18.558L42.318 36.558C42.1803 37.6458 41.6509 38.6461 40.8289 39.3717C40.0068 40.0973 38.9485 40.4985 37.852 40.5H6C5.20468 40.4989 4.44223 40.1825 3.87985 39.6202C3.31747 39.0578 3.00106 38.2953 3 37.5V21C3.00106 20.2047 3.31747 19.4422 3.87985 18.8798C4.44223 18.3175 5.20468 18.0011 6 18H14.072L21.158 3.83C21.2825 3.58063 21.474 3.37088 21.711 3.22428C21.9481 3.07767 22.2213 3.00001 22.5 3C24.4885 3.00212 26.3949 3.79297 27.801 5.19904C29.207 6.6051 29.9979 8.51153 30 10.5V13.5H40.1C40.7383 13.4995 41.3694 13.6348 41.9515 13.8969C42.5335 14.159 43.0532 14.5418 43.476 15.02ZM6 21V37.5H13.5V21H6Z" fill="black"/>
</svg>
