<svg width="48" height="48" viewBox="0 0 48 48" fill="none" xmlns="http://www.w3.org/2000/svg">
<path fill-rule="evenodd" clip-rule="evenodd" d="M16.4969 3.99902C17.6009 3.99902 18.4949 4.89302 18.4949 6.00002V8.49902H28.4999C28.769 8.4886 29.0374 8.5326 29.2891 8.62838C29.5408 8.72417 29.7706 8.86978 29.9646 9.05648C30.1587 9.24317 30.3131 9.46713 30.4186 9.71491C30.524 9.9627 30.5784 10.2292 30.5784 10.4985C30.5784 10.7678 30.524 11.0343 30.4186 11.2821C30.3131 11.5299 30.1587 11.7539 29.9646 11.9406C29.7706 12.1273 29.5408 12.2729 29.2891 12.3687C29.0374 12.4644 28.769 12.5084 28.4999 12.498H24.3959C23.9771 16.6603 22.2637 20.5864 19.4969 23.724C21.8103 25.2969 24.4955 26.2361 27.2849 26.448L31.2059 18.606C31.3722 18.2738 31.6276 17.9944 31.9437 17.7991C32.2597 17.6038 32.6239 17.5004 32.9954 17.5004C33.3669 17.5004 33.7311 17.6038 34.0472 17.7991C34.3632 17.9944 34.6187 18.2738 34.7849 18.606L42.2669 33.57C42.2795 33.5937 42.2915 33.6177 42.3029 33.642L45.2849 39.603C45.5224 40.0776 45.5617 40.6271 45.394 41.1307C45.2263 41.6342 44.8655 42.0505 44.3909 42.288C43.9163 42.5255 43.3668 42.5648 42.8633 42.3971C42.3597 42.2294 41.9434 41.8686 41.7059 41.394L39.2609 36.498H26.7299L24.2819 41.394C24.0444 41.8686 23.6281 42.2294 23.1246 42.3971C22.621 42.5648 22.0715 42.5255 21.5969 42.288C21.1223 42.0505 20.7615 41.6342 20.5938 41.1307C20.4262 40.6271 20.4654 40.0776 20.7029 39.603L23.6849 33.642C23.6964 33.6178 23.7084 33.5938 23.7209 33.57L25.3829 30.249C22.1605 29.7419 19.1109 28.4545 16.4999 26.499C13.037 29.0957 8.82523 30.4989 4.49692 30.498C4.22783 30.5084 3.9594 30.4645 3.70771 30.3687C3.45603 30.2729 3.22627 30.1273 3.03219 29.9406C2.83812 29.7539 2.68373 29.5299 2.57827 29.2821C2.47281 29.0343 2.41846 28.7678 2.41846 28.4985C2.41846 28.2292 2.47281 27.9627 2.57827 27.7149C2.68373 27.4671 2.83812 27.2432 3.03219 27.0565C3.22627 26.8698 3.45603 26.7242 3.70771 26.6284C3.9594 26.5326 4.22783 26.4886 4.49692 26.499C7.70708 26.4989 10.843 25.533 13.4969 23.727C11.8019 21.8073 10.4911 19.58 9.63592 17.166C9.47639 16.6704 9.51635 16.132 9.74732 15.6654C9.97828 15.1987 10.3821 14.8404 10.8729 14.6667C11.3638 14.4929 11.903 14.5173 12.3762 14.7347C12.8493 14.9521 13.2191 15.3454 13.4069 15.831C14.0969 17.775 15.1469 19.551 16.4969 21.081C18.619 18.674 19.9684 15.6847 20.3699 12.501H4.49992C3.96922 12.501 3.46026 12.2902 3.085 11.9149C2.70974 11.5397 2.49892 11.0307 2.49892 10.5C2.49892 9.96933 2.70974 9.46036 3.085 9.0851C3.46026 8.70984 3.96922 8.49902 4.49992 8.49902H14.4989V6.00002C14.4989 4.89302 15.3959 3.99902 16.4999 3.99902H16.4969ZM37.2599 32.499L32.9969 23.97L28.7309 32.499H37.2599Z" fill="black"/>
</svg>
