<svg width="48" height="48" viewBox="0 0 48 48" fill="none" xmlns="http://www.w3.org/2000/svg">
<path fill-rule="evenodd" clip-rule="evenodd" d="M9 4C6.23858 4 4 6.23858 4 9V39C4 41.7425 6.20792 43.9692 8.94311 43.9997C8.97743 44.0007 9.01183 44.0008 9.0463 44H39C41.7615 44 44 41.7615 44 39V35.5C44 34.3954 43.1046 33.5 42 33.5C40.8954 33.5 40 34.3954 40 35.5V39C40 39.5523 39.5523 40 39 40H15.769C16.8455 39.0475 17.8535 37.9905 18.753 36.86C21.2023 33.7821 23 29.9635 23 26V8H39C39.5523 8 40 8.4477 40 9V14C40 15.1046 40.8954 16 42 16C43.1046 16 44 15.1046 44 14V9C44 6.2386 41.7615 4 39 4H9ZM19 8H9C8.44772 8 8 8.44772 8 9V39C8 39.4447 8.29024 39.8216 8.69163 39.9516C11.1252 38.8306 13.6621 36.8337 15.6231 34.3694C17.7151 31.7404 19 28.7756 19 26V8Z" fill="black"/>
<path d="M37.4142 17.5858C36.6332 16.8047 35.3668 16.8047 34.5858 17.5858C33.8047 18.3668 33.8047 19.6332 34.5858 20.4142L37.1716 23H30C28.8954 23 28 23.8954 28 25C28 26.1046 28.8954 27 30 27H37.1716L34.5858 29.5858C33.8047 30.3668 33.8047 31.6332 34.5858 32.4142C35.3668 33.1953 36.6332 33.1953 37.4142 32.4142L43.4142 26.4142C43.7803 26.0481 43.9748 25.5754 43.9977 25.0959C43.9992 25.064 44 25.032 44 25L37.4142 17.5858Z" fill="black"/>
<path d="M37.4142 17.5858L43.4142 23.5858C43.8 23.9716 43.9953 24.4759 43.9999 24.9815L37.4142 17.5858Z" fill="black"/>
</svg>
