<svg width="48" height="48" viewBox="0 0 48 48" fill="none" xmlns="http://www.w3.org/2000/svg">
<path d="M15.6866 11.5841C15.8659 11.4403 16.0143 11.2618 16.1232 11.0594C16.2321 10.8571 16.2992 10.6348 16.3205 10.406C16.3417 10.1772 16.3168 9.94641 16.2471 9.72742C16.1774 9.50842 16.0644 9.30567 15.9148 9.13123C15.7652 8.95678 15.582 8.8142 15.3762 8.71195C15.1704 8.60971 14.9461 8.5499 14.7167 8.53607C14.4873 8.52224 14.2575 8.55467 14.0409 8.63144C13.8242 8.70822 13.6253 8.82776 13.4558 8.98297L7.46493 14.1167C7.27448 14.2782 7.12145 14.4792 7.01646 14.7057C6.91147 14.9323 6.85704 15.179 6.85693 15.4287C6.85693 15.9018 7.04893 16.3315 7.35979 16.6401L13.3598 22.6401C13.5167 22.8085 13.706 22.9436 13.9163 23.0373C14.1266 23.131 14.3536 23.1814 14.5837 23.1855C14.8139 23.1895 15.0426 23.1472 15.256 23.061C15.4695 22.9747 15.6634 22.8464 15.8262 22.6836C15.9889 22.5208 16.1173 22.3269 16.2035 22.1135C16.2897 21.9 16.3321 21.6714 16.328 21.4412C16.3239 21.211 16.2736 20.984 16.1799 20.7737C16.0862 20.5635 15.9511 20.3742 15.7826 20.2173L12.7106 17.1407H28.2809C33.2592 17.1407 37.5152 21.2321 37.7072 26.2081C37.9129 31.4653 33.5426 35.9978 28.2809 35.9978H13.7118C13.2572 35.9979 12.8212 36.1785 12.4998 36.5C12.1784 36.8215 11.9978 37.2575 11.9978 37.7121C11.9978 38.1667 12.1784 38.6027 12.4998 38.9242C12.8212 39.2457 13.2572 39.4263 13.7118 39.4264H28.2809C35.4855 39.4264 41.4146 33.2778 41.1335 26.0733C40.8684 19.2573 35.0992 13.7144 28.2809 13.7144H13.2044L15.6866 11.5887V11.5841Z" fill="black"/>
</svg>
