<svg width="48" height="48" viewBox="0 0 48 48" fill="none" xmlns="http://www.w3.org/2000/svg">
<path d="M8 17.95C8 19.15 7.2 19.95 6 19.95C4.8 19.95 4 19.15 4 17.95V5.95001C4 4.75001 4.8 3.95001 6 3.95001H18C19.2 3.95001 20 4.75001 20 5.95001C20 7.15001 19.2 7.95001 18 7.95001H8V17.95Z" fill="black"/>
<path d="M40 29.95C40 28.75 40.8 27.95 42 27.95C43.2 27.95 44 28.95 44 29.95V41.95C44 43.15 43.2 43.95 42 43.95H30C28.8 43.95 28 43.15 28 41.95C28 40.75 28.8 39.95 30 39.95H40V29.95Z" fill="black"/>
<path d="M43.8 5.15001C43.6 4.75001 43.2 4.35001 42.8 4.15001C42.6 3.95001 42.2 3.95001 42 3.95001H30C28.8 3.95001 28 4.75001 28 5.95001C28 7.15001 28.8 7.95001 30 7.95001H37.2L27.6 17.55C26.8 18.35 26.8 19.55 27.6 20.35C28.4 21.15 29.6 21.15 30.4 20.35L40 10.75V17.95C40 19.15 40.8 19.95 42 19.95C43.2 19.95 44 19.15 44 17.95V5.95001C44 5.75001 44 5.55001 43.8 5.15001Z" fill="black"/>
<path d="M8 37.15L17.6 27.55C18.4 26.75 19.6 26.75 20.4 27.55C21.2 28.35 21.2 29.55 20.4 30.35L10.8 39.95H18C19.2 39.95 20 40.75 20 41.95C20 43.15 19.2 43.95 18 43.95H6C5.76569 43.95 5.6 43.8814 5.46274 43.8245C5.36569 43.7843 5.28284 43.75 5.2 43.75C4.8 43.55 4.4 43.15 4.2 42.75C4 42.55 4 42.15 4 41.95V29.95C4 28.75 4.8 27.95 6 27.95C7.2 27.95 8 28.75 8 29.95V37.15Z" fill="black"/>
</svg>
