<svg width="48" height="48" viewBox="0 0 48 48" fill="none" xmlns="http://www.w3.org/2000/svg">
<path fill-rule="evenodd" clip-rule="evenodd" d="M6 6C3.79086 6 2 7.79086 2 10V16V18V20V28V30V32V38C2 40.2092 3.79088 42 6 42H9H12H15H33H36H39H42C44.2092 42 46 40.2092 46 38V32V30V28V20V18V16V10C46 7.79088 44.2092 6 42 6H39H36H33H15H12H9H6ZM42 10V16H38V10H39H42ZM38 28H42V20H38V28ZM6 38V32H10V38H9H6ZM10 28H6V20H10V28ZM34 38H33H15H14V10H15H33H34V38ZM39 38H38V32H42V38H39ZM9 10H6V16H10V10H9ZM22.06 17.304C21.4435 16.9187 20.6664 16.8983 20.0305 17.2507C19.3946 17.6032 19 18.273 19 19V29C19 29.7271 19.3946 30.3968 20.0305 30.7493C20.6664 31.1017 21.4435 31.0813 22.06 30.696L30.06 25.696C30.6448 25.3305 31 24.6896 31 24C31 23.3104 30.6448 22.6695 30.06 22.304L22.06 17.304ZM23 25.3915V22.6085L25.2264 24L23 25.3915Z" fill="black"/>
</svg>
