<svg width="48" height="48" viewBox="0 0 48 48" fill="none" xmlns="http://www.w3.org/2000/svg">
<path d="M19.1794 19.0125H28.8342C29.5497 19.0125 30.2171 19.369 30.6171 19.9611L32.1485 22.2513C32.4238 22.661 32.5492 23.1532 32.5034 23.6447C32.4576 24.1362 32.2434 24.5967 31.8971 24.9485L25.5565 31.3896C25.3583 31.5911 25.1223 31.7513 24.8619 31.8611C24.6015 31.9709 24.322 32.0281 24.0394 32.0294C23.7568 32.0307 23.4767 31.976 23.2154 31.8685C22.954 31.7611 22.7165 31.603 22.5165 31.4033L16.0777 24.9645C15.7233 24.6096 15.5045 24.1418 15.4594 23.6423C15.4143 23.1428 15.5457 22.6434 15.8308 22.2308L17.4171 19.9359C17.6142 19.6509 17.8775 19.418 18.1845 19.2571C18.4914 19.0963 18.8328 19.0123 19.1794 19.0125Z" fill="black"/>
<path fill-rule="evenodd" clip-rule="evenodd" d="M22.9279 1.97705C23.2538 1.78865 23.6235 1.68945 23.9999 1.68945C24.3763 1.68945 24.7461 1.78865 25.0719 1.97705L42.7245 12.1713C43.3874 12.553 43.7942 13.2593 43.7942 14.025V34.4068C43.7946 34.7828 43.6959 35.1523 43.5081 35.4781C43.3203 35.8039 43.0501 36.0745 42.7245 36.2628L25.0719 46.4571C24.7461 46.6455 24.3763 46.7446 23.9999 46.7446C23.6235 46.7446 23.2538 46.6455 22.9279 46.4571L5.27766 36.2628C4.95126 36.0751 4.68009 35.8047 4.49148 35.4789C4.30288 35.1531 4.2035 34.7833 4.20337 34.4068V14.025C4.20337 13.2593 4.6148 12.553 5.27766 12.169L22.9257 1.97705H22.9279ZM8.49137 15.2616V33.1702L23.9999 42.1256L39.5085 33.1702V15.2616L23.9999 6.30848L8.49137 15.2616Z" fill="black"/>
</svg>
