<svg width="48" height="48" viewBox="0 0 48 48" fill="none" xmlns="http://www.w3.org/2000/svg">
<path d="M24.1995 17.0207C24.4516 17.0207 24.7013 17.0704 24.9342 17.1668C25.1672 17.2633 25.3788 17.4048 25.5571 17.583C25.7354 17.7613 25.8768 17.973 25.9733 18.2059C26.0698 18.4389 26.1195 18.6886 26.1195 18.9407V26.1407C26.1195 26.6499 25.9172 27.1383 25.5571 27.4983C25.197 27.8584 24.7087 28.0607 24.1995 28.0607C23.6902 28.0607 23.2019 27.8584 22.8418 27.4983C22.4817 27.1383 22.2795 26.6499 22.2795 26.1407V18.9407C22.2795 18.4315 22.4817 17.9431 22.8418 17.583C23.2019 17.223 23.6902 17.0207 24.1995 17.0207Z" fill="black"/>
<path d="M26.3575 32.6207C26.3575 33.1936 26.13 33.743 25.7249 34.148C25.3198 34.5531 24.7704 34.7807 24.1975 34.7807C23.6247 34.7807 23.0753 34.5531 22.6702 34.148C22.2651 33.743 22.0375 33.1936 22.0375 32.6207C22.0375 32.0478 22.2651 31.4984 22.6702 31.0933C23.0753 30.6883 23.6247 30.4607 24.1975 30.4607C24.7704 30.4607 25.3198 30.6883 25.7249 31.0933C26.13 31.4984 26.3575 32.0478 26.3575 32.6207Z" fill="black"/>
<path fill-rule="evenodd" clip-rule="evenodd" d="M21.7995 4.70389C22.9011 4.0683 24.21 3.89591 25.4386 4.22458C26.6673 4.55325 27.7153 5.35611 28.3524 6.45685L44.1886 33.8168C44.6114 34.5464 44.8344 35.3745 44.8353 36.2177C44.8362 37.0609 44.6148 37.8894 44.1935 38.6198C43.7723 39.3502 43.1659 39.9567 42.4357 40.3782C41.7054 40.7997 40.8769 41.0213 40.0337 41.0207H8.36138C7.51829 41.0206 6.69011 40.7984 5.96016 40.3765C5.23021 39.9547 4.62426 39.348 4.20327 38.6175C3.78228 37.8871 3.56111 37.0586 3.56201 36.2155C3.56292 35.3725 3.78587 34.5445 4.20842 33.8149L20.0446 6.45493C20.4656 5.72625 21.0708 5.1249 21.7995 4.70389ZM24.1995 7.90069C24.0309 7.90069 23.8654 7.94505 23.7195 8.02931C23.5735 8.11357 23.4524 8.23476 23.3681 8.38069L7.53194 35.7388C7.44777 35.8846 7.40341 36.0499 7.40332 36.2183C7.40324 36.3866 7.44743 36.552 7.53145 36.6979C7.61548 36.8438 7.73639 36.965 7.88206 37.0494C8.02773 37.1338 8.19303 37.1784 8.36138 37.1788H40.0337C40.2022 37.1788 40.3678 37.1344 40.5137 37.0501C40.6596 36.9659 40.7808 36.8447 40.8651 36.6988C40.9493 36.5528 40.9937 36.3873 40.9937 36.2188C40.9937 36.0502 40.9493 35.8847 40.8651 35.7388L25.0289 8.37877C24.9444 8.23319 24.8231 8.11239 24.6772 8.02848C24.5313 7.94457 24.3678 7.9005 24.1995 7.90069Z" fill="black"/>
</svg>
