<svg width="48" height="48" viewBox="0 0 48 48" fill="none" xmlns="http://www.w3.org/2000/svg">
<path fill-rule="evenodd" clip-rule="evenodd" d="M12 17.71C14.8915 16.8495 17 14.1709 17 10.9999C17 7.13388 13.866 3.99988 10 3.99988C6.13401 3.99988 3 7.13388 3 10.9999C3 14.1709 5.10851 16.8495 8 17.71V35C8 40.1046 11.8954 44 17 44C22.1046 44 26 40.1046 26 35V13C26 10.1046 28.1046 8 31 8C33.8954 8 36 10.1046 36 13V37.1716L34.4142 35.5858C33.6332 34.8047 32.3668 34.8047 31.5858 35.5858C30.8047 36.3668 30.8047 37.6332 31.5858 38.4142L36.5825 43.4109L36.6168 43.4446C36.976 43.7886 37.4633 44 38 44C38.2755 44 38.538 43.9443 38.7768 43.8436C38.9959 43.7513 39.2019 43.6183 39.3832 43.4446L39.4175 43.4109L44.4142 38.4142C45.1953 37.6332 45.1953 36.3668 44.4142 35.5858C43.6332 34.8047 42.3668 34.8047 41.5858 35.5858L40 37.1716V13C40 7.89543 36.1046 4 31 4C25.8954 4 22 7.89543 22 13V35C22 37.8954 19.8954 40 17 40C14.1046 40 12 37.8954 12 35V17.71ZM13 10.9999C13 12.6567 11.6569 13.9999 10 13.9999C8.34315 13.9999 7 12.6567 7 10.9999C7 9.34302 8.34315 7.99988 10 7.99988C11.6569 7.99988 13 9.34302 13 10.9999Z" fill="black"/>
</svg>
