<svg width="48" height="48" viewBox="0 0 48 48" fill="none" xmlns="http://www.w3.org/2000/svg">
<path fill-rule="evenodd" clip-rule="evenodd" d="M24 4C25.1046 4 26 4.89543 26 6V10.8394L31.9923 14.2635L38.9626 18.2465C39.264 18.4116 39.5264 18.6563 39.7151 18.9712C39.7301 18.9962 39.7446 19.0215 39.7584 19.0472C39.9283 19.3604 40.0059 19.6999 40 20.0337V28V34.7639L44.8944 37.2111C45.8824 37.7051 46.2828 38.9064 45.7889 39.8944C45.2949 40.8823 44.0935 41.2828 43.1056 40.7888L38.063 38.2675L31.9923 41.7365L25.0228 45.719C25.0223 45.7194 25.0217 45.7197 25.0212 45.72C24.7569 45.8773 24.4532 45.9753 24.1286 45.9959C24.0552 46.0006 23.9817 46.0013 23.9083 45.9979C23.5697 45.9827 23.2531 45.8832 22.9788 45.72C22.9783 45.7197 22.9777 45.7194 22.9772 45.719L16.0077 41.7365L9.93702 38.2675L4.89444 40.7888C3.90648 41.2828 2.70513 40.8823 2.21116 39.8944C1.71718 38.9064 2.11763 37.7051 3.10558 37.2111L8 34.7639V28V20.0364C7.99332 19.6876 8.07784 19.3326 8.26349 19.0077C8.45372 18.6748 8.72513 18.4173 9.03855 18.2459L22 10.8394V6C22 4.89543 22.8954 4 24 4ZM14.0312 20L17.9923 17.7365L17.9923 17.7365L24 14.3035L30.0077 17.7365L30.0077 17.7365L33.9688 20L24 25.6965L14.0312 20ZM12 23.4463V28V34.8394L17.9923 38.2635L22 40.5536V29.1606L12 23.4463ZM26 40.5536L30.0077 38.2635L36 34.8394V28V23.4463L26 29.1606V40.5536Z" fill="black"/>
</svg>
